<?xml version="1.0" encoding="UTF-8"?>
<svg width="48px" height="42px" viewBox="0 0 48 42" version="1.1" xmlns="http://www.w3.org/2000/svg" xmlns:xlink="http://www.w3.org/1999/xlink">
    <!-- Generator: Sketch 46.1 (44463) - http://www.bohemiancoding.com/sketch -->
    <title>Arrows</title>
    <desc>Created with Sketch.</desc>
    <defs></defs>
    <g id="Page-1" stroke="none" stroke-width="1" fill="none" fill-rule="evenodd">
        <g id="thumb" transform="translate(-8.000000, -11.000000)" fill="#AD8E5B">
            <g id="Arrows" transform="translate(8.000000, 10.000000)">
                <path d="M18.2577186,1.94258217 L0.123976756,22.1399994 L18.2577186,42.3374166 L18.2577186,42.3374166 C18.6266835,42.7483708 19.2589328,42.7824099 19.669887,42.413445 C19.8811408,42.2237761 20.001817,41.9532523 20.001817,41.6693466 L20.001817,37.6814075 L9.40927688,25.4265402 L9.40927688,25.4265402 C7.77997587,23.5415469 7.78710691,20.7446475 9.42599873,18.8679868 L20.001817,6.75783898 L20.001817,2.61065218 L20.001817,2.61065218 C20.001817,2.05836743 19.5541017,1.61065218 19.001817,1.61065218 C18.7179113,1.61065218 18.4473874,1.7313284 18.2577186,1.94258217 Z" id="Path-2"></path>
                <path d="M45.5359023,1.94258217 L27.4021604,22.1399994 L45.5359023,42.3374166 L45.5359023,42.3374166 C45.9048671,42.7483708 46.5371165,42.7824099 46.9480707,42.413445 C47.1593245,42.2237761 47.2800007,41.9532523 47.2800007,41.6693466 L47.2800007,37.5581257 L36.6455506,25.4567446 L36.6455506,25.4567446 C34.980568,23.5620919 34.987456,20.7239895 36.6616154,18.8374409 L47.2800007,6.87197341 L47.2800007,2.61065218 L47.2800007,2.61065218 C47.2800007,2.05836743 46.8322854,1.61065218 46.2800007,1.61065218 C45.996095,1.61065218 45.7255711,1.7313284 45.5359023,1.94258217 Z" id="Path-2-Copy" transform="translate(37.640000, 22.139999) scale(-1, 1) translate(-37.640000, -22.139999) "></path>
            </g>
        </g>
    </g>
</svg>