<?xml version="1.0" encoding="utf-8"?>
<!-- Generator: Adobe Illustrator 20.1.0, SVG Export Plug-In . SVG Version: 6.00 Build 0)  -->
<svg version="1.2" baseProfile="tiny" id="Layer_1" xmlns="http://www.w3.org/2000/svg" xmlns:xlink="http://www.w3.org/1999/xlink"
	 x="0px" y="0px" viewBox="0 0 22.5 43.1" xml:space="preserve">
<path fill="#F9B233" stroke="#FFFFFF" stroke-width="0.1" stroke-miterlimit="10" d="M21,41.6l-6.2,1.1L9.4,12.6l6.2-1.1L21,41.6z
	 M14.8,42.7l6.2-1.1l-4.3-6L14.8,42.7z"/>
<path fill="#F9B233" stroke="#FFFFFF" stroke-width="0.1" stroke-miterlimit="10" d="M7.7,43l-6.2-1l4.9-30.2l6.2,1L7.7,43z M1.5,42
	l6.2,1l-2-7.1L1.5,42z"/>
<circle fill="#CA9E67" cx="11.3" cy="11.3" r="11.3"/>
<g>
	<circle fill="#D1AA80" cx="11.3" cy="11.3" r="9.1"/>
	<g>
		<path fill="#B17F4A" d="M20.6,11.2C20.6,11.3,20.7,11.3,20.6,11.2C20.6,11.1,20.6,11.2,20.6,11.2z"/>
		<polygon fill="#B17F4A" points="20.4,9.8 20.4,9.8 20.3,9.6 		"/>
		<path fill="#B17F4A" d="M20.1,8.5c0,0.1,0.1,0.5,0.2,0.7l0,0l0.1,0.1C20.3,9.1,20.1,8.7,20.1,8.5z"/>
		<path fill="#B17F4A" d="M20,7.8c0,0.1-0.1-0.1,0,0.2c0,0,0,0,0,0C20,7.9,20,7.9,20,7.8z"/>
		<path fill="#B17F4A" d="M20,7.9C20.1,8,20,7.8,20,7.9L20,7.9z"/>
		<path fill="#B17F4A" d="M19.8,7.3l0.1,0.2C19.9,7.4,19.8,7.3,19.8,7.3C19.8,7.2,19.8,7.2,19.8,7.3z"/>
		<path fill="#B17F4A" d="M19.7,7.2L19.7,7.2C19.7,7.2,19.7,7.2,19.7,7.2z"/>
		<path fill="#B17F4A" d="M19.8,7.4l-0.1-0.2C19.7,7.3,19.7,7.3,19.8,7.4C19.7,7.3,19.8,7.4,19.8,7.4z"/>
		<path fill="#B17F4A" d="M19.9,7.5C19.9,7.6,19.9,7.8,19.9,7.5C20,7.9,20,7.9,19.9,7.5z"/>
		<path fill="#B17F4A" d="M20,8.5l0,0.1l0.1,0.1C20.1,8.7,20,8.4,20,8.5z"/>
		<path fill="#B17F4A" d="M19.3,6.3C19.2,6.3,19.3,6.4,19.3,6.3l0.1,0.2C19.3,6.4,19.2,6.3,19.3,6.3z"/>
		<path fill="#B17F4A" d="M19.2,6.4l-0.1-0.2C19.2,6.4,19.2,6.4,19.2,6.4z"/>
		<polygon fill="#B17F4A" points="19.6,7.2 19.8,7.5 19.5,7.1 		"/>
		<polygon fill="#B17F4A" points="18.8,5.6 18.9,5.7 18.7,5.6 		"/>
		<path fill="#B17F4A" d="M18.5,5.2C18.6,5.3,18.4,5.1,18.5,5.2c-0.1-0.2-0.2-0.2-0.3-0.3C18.3,5,18.4,5.1,18.5,5.2z"/>
		<path fill="#B17F4A" d="M18.1,4.8c0,0,0.1,0.1,0.1,0.1C18.2,4.9,18.1,4.8,18.1,4.8z"/>
		<path fill="#B17F4A" d="M18.9,5.9c0,0,0-0.1-0.1-0.2L18.9,5.9C18.9,5.9,18.9,5.9,18.9,5.9z"/>
		<path fill="#B17F4A" d="M18.9,5.9L18.9,5.9c-0.1-0.1-0.1-0.1-0.1-0.1C18.8,5.7,18.8,5.8,18.9,5.9z"/>
		<path fill="#B17F4A" d="M18.9,5.9L18.9,5.9C18.9,5.9,18.9,5.9,18.9,5.9z"/>
		<path fill="#B17F4A" d="M19.4,6.7c-0.1-0.1-0.2-0.3-0.1-0.1C19.3,6.7,19.2,6.6,19.4,6.7z"/>
		<path fill="#B17F4A" d="M19,6c0,0,0.1,0.2,0.1,0.2c0,0,0-0.1,0,0C19.1,6.2,19,6,19,6z"/>
		<polygon fill="#B17F4A" points="18.9,6 19,6 18.9,6 		"/>
		<path fill="#B17F4A" d="M18.3,5.1C18.2,5,18.2,5,18.1,4.9C18.2,5,18.2,5.1,18.3,5.1C18.3,5.2,18.4,5.2,18.3,5.1z"/>
		<path fill="#B17F4A" d="M18.6,5.5L18.6,5.5C18.6,5.5,18.6,5.5,18.6,5.5z"/>
		<polygon fill="#B17F4A" points="17.2,4.1 17.3,4.1 17.3,4.1 		"/>
		<path fill="#B17F4A" d="M18.3,5.2c0.1,0.1,0.1,0.1,0.1,0.1C18.4,5.3,18.4,5.2,18.3,5.2C18.3,5.2,18.3,5.2,18.3,5.2z"/>
		<path fill="#B17F4A" d="M17.8,4.6c0,0,0.1,0.1,0.1,0.1C17.9,4.7,17.9,4.6,17.8,4.6z"/>
		<path fill="#B17F4A" d="M18.6,5.4L18.6,5.4C18.6,5.4,18.6,5.4,18.6,5.4z"/>
		<path fill="#B17F4A" d="M18.6,5.4C18.5,5.4,18.5,5.4,18.6,5.4C18.5,5.4,18.5,5.4,18.6,5.4C18.6,5.4,18.6,5.4,18.6,5.4z"/>
		<path fill="#B17F4A" d="M16.8,4.1c0,0,0.3,0.1,0.4,0.3c0.2,0.1,0.2-0.1,0.1-0.3c0,0,0,0-0.2-0.1c0.1,0.1,0.3,0.3,0.2,0.3
			C17,4.1,17,4.1,17,4C17,4.1,16.6,3.9,16.6,4L16.8,4.1C16.8,4.1,16.8,4.1,16.8,4.1z"/>
		<path fill="#B17F4A" d="M17.6,4.4L17.6,4.4c0,0,0-0.1-0.1-0.2c-0.1-0.1-0.2-0.1-0.2-0.1L17.6,4.4L17.6,4.4z"/>
		<path fill="#B17F4A" d="M17.9,4.7c-0.1,0-0.2-0.1-0.2,0c0.2,0.2,0.1,0.1,0.3,0.2C17.7,4.6,18.1,5,17.9,4.7C18,4.8,18,4.8,18.1,4.9
			C18,4.8,18,4.8,17.9,4.7L17.9,4.7L17.9,4.7L17.9,4.7C18,4.7,18,4.7,17.9,4.7L17.9,4.7C17.9,4.7,17.9,4.7,17.9,4.7
			C17.8,4.6,17.9,4.7,17.9,4.7L17.9,4.7L17.9,4.7c0,0-0.3-0.3-0.3-0.3C17.7,4.5,17.8,4.6,17.9,4.7z"/>
		<path fill="#B17F4A" d="M19,6.5C19,6.5,19,6.5,19,6.5C19,6.5,19,6.4,19,6.5z"/>
		<path fill="#B17F4A" d="M19,6.3c0,0,0,0,0.1,0.1c0,0.1,0,0,0,0c0,0,0.1,0.2,0.1,0l0,0c-0.1-0.1-0.1-0.4-0.1-0.3
			C18.9,6.2,18.9,6.2,19,6.3z"/>
		<path fill="#B17F4A" d="M18.5,5.5c0,0-0.2-0.2-0.2-0.2l0.1,0.2l0,0C18.4,5.5,18.4,5.5,18.5,5.5z"/>
		<path fill="#B17F4A" d="M17.2,4.1L17.2,4.1C17.3,4,17.1,4,17.1,4L17.2,4.1z"/>
		<polygon fill="#B17F4A" points="16.9,3.8 16.9,3.8 16.8,3.7 		"/>
		<path fill="#B17F4A" d="M3.7,15.8L3.7,15.8C3.7,15.8,3.7,15.8,3.7,15.8z"/>
		<path fill="#B17F4A" d="M3.3,15.2L3.3,15.2C3.3,15.2,3.3,15.2,3.3,15.2z"/>
		<path fill="#B17F4A" d="M6.4,3.3C6.2,3.4,6,3.4,6.1,3.4l0.1,0C6.2,3.4,6.3,3.4,6.4,3.3z"/>
		<path fill="#B17F4A" d="M2.4,9.5L2.4,9.5c0-0.1,0-0.1,0-0.1C2.4,9.4,2.4,9.4,2.4,9.5z"/>
		<path fill="#B17F4A" d="M2.5,9.6L2.5,9.8C2.5,9.8,2.5,9.7,2.5,9.6z"/>
		<path fill="#B17F4A" d="M6.3,18.5l0.1,0C6.3,18.5,6.3,18.5,6.3,18.5z"/>
		<path fill="#B17F4A" d="M12.6,2C12.5,2,12.4,2,12.3,2C12.4,2,12.6,2.1,12.6,2z"/>
		<path fill="#B17F4A" d="M3.1,15.8C3.1,15.8,3.2,15.8,3.1,15.8C3.1,15.8,3.1,15.8,3.1,15.8z"/>
		<path fill="#B17F4A" d="M11.9,1.9C11.9,1.9,12,2,11.9,1.9c0.2,0,0.3,0,0.4,0C12.2,1.9,12,1.9,11.9,1.9z"/>
		<path fill="#B17F4A" d="M18.6,16.2C18.6,16.2,18.6,16.2,18.6,16.2C18.6,16.2,18.6,16.2,18.6,16.2z"/>
		<path fill="#B17F4A" d="M20.5,12.5c0,0,0,0.1,0,0.2C20.5,12.7,20.5,12.6,20.5,12.5z"/>
		<path fill="#B17F4A" d="M15.3,2.8C15.4,2.9,15.3,2.8,15.3,2.8L15.3,2.8z"/>
		<path fill="#B17F4A" d="M15.6,3.2C15.6,3.2,15.6,3.2,15.6,3.2C15.6,3.2,15.6,3.2,15.6,3.2z"/>
		<path fill="#B17F4A" d="M11,2.2L11,2.2C11,2.2,11,2.2,11,2.2z"/>
		<path fill="#B17F4A" d="M15.4,2.9c0,0-0.1,0-0.1-0.1C15.3,2.9,15.4,2.9,15.4,2.9z"/>
		<path fill="#B17F4A" d="M15.4,2.9C15.5,2.9,15.5,2.9,15.4,2.9C15.5,2.9,15.5,2.9,15.4,2.9z"/>
		<path fill="#B17F4A" d="M15.2,2.8c0,0,0.1,0,0.1,0.1c0,0,0,0,0,0C15.3,2.8,15.2,2.8,15.2,2.8z"/>
		<path fill="#B17F4A" d="M12.4,20.2C12.5,20.2,12.5,20.2,12.4,20.2C12.6,20.1,12.5,20.1,12.4,20.2z"/>
		<polygon fill="#B17F4A" points="4.8,5.2 4.8,5.2 4.8,5.2 		"/>
		<path fill="#B17F4A" d="M4.6,5.5c0.1-0.1,0.1-0.2,0.2-0.3l-0.2,0L4.6,5.5z"/>
		<path fill="#B17F4A" d="M4.7,17.1l-0.1-0.2c0.2,0.2,0.4,0.3,0.2,0.1c-0.1,0.1-0.6-0.7-0.7-0.6L4,16.3c0,0,0,0,0.1,0.1
			c-0.1-0.3-0.2-0.1-0.4-0.5c-0.1-0.1-0.1-0.2,0-0.1l-0.2-0.2c0-0.1,0-0.1,0,0c0,0-0.2-0.4-0.2-0.4l0,0c0,0-0.1-0.2-0.2-0.2
			c0-0.1,0,0,0,0c0,0-0.1-0.2-0.1-0.2c0-0.1,0.1,0.1,0.2,0.2c0-0.3-0.1-0.2-0.2-0.7l0.1,0.2c0-0.2-0.1-0.3-0.1-0.6
			c0,0.1,0.1,0.5-0.1,0.3c0-0.1,0-0.2-0.1-0.3c0,0,0-0.2,0-0.3l0.1,0c-0.1-0.2-0.1-0.2-0.1-0.3c0-0.2,0-0.3,0-0.3
			c0-0.3,0,0.2-0.1-0.2c0-0.3-0.1-0.5-0.1-0.8c0-0.2,0,0,0.1,0l-0.1-0.2c0,0,0,0,0,0c0-0.1-0.1,0-0.1-0.2c-0.1-0.1,0.1-0.5,0-0.8
			c0-0.1,0,0,0.1,0c0-0.4,0-0.3,0-0.7l0.1-0.3C2.4,10,2.4,9.7,2.4,9.5c0,0.1-0.1,0.1-0.1,0.2c0,0,0-0.4,0-0.4c0,0,0,0,0,0.1
			c0,0,0,0,0-0.1c0.1-0.1,0.1,0,0.1,0.1L2.4,9.4c0,0.1,0.1,0.2,0.1,0.2c0,0,0-0.1,0-0.1c0,0,0,0,0,0c0,0,0-0.1,0-0.1l0.1-0.1l0,0
			l0.2-0.5c0-0.4,0-0.7,0.2-1.2C2.9,7.8,3,7.7,3,7.8C2.9,7.9,2.9,8.2,2.8,8.4c0.1-0.1,0.1-0.1,0.1-0.1L3,7.9c0,0,0.1-0.1,0.2-0.2
			C3,7.7,3.3,7.3,3.3,7.1c0,0,0,0.1-0.1,0.3c0.2-0.2,0-0.4,0.2-0.6c0,0.1-0.1,0.1-0.1,0.1c0-0.1,0.3-0.4,0.2-0.3l0,0.1
			c0.2-0.4,0.7-1,0.7-1.1c0,0,0,0.1,0,0.1c0,0,0.1-0.2,0.1-0.4c0.1-0.2,0.1-0.4,0.1-0.4c0,0.1,0.3,0,0.1,0.3
			c0.1-0.1,0.2-0.2,0.3-0.3c-0.1,0-0.2,0-0.1,0c0.2-0.1,0.2-0.1,0.4-0.2c-0.1,0.1-0.1-0.1,0-0.2c0,0,0.1,0.1,0,0.1
			c0,0,0.2-0.3,0.2-0.3c-0.1,0.1,0,0.1,0.1,0.1c0,0,0.3-0.2,0.3-0.3L6,4.1c0.4-0.3,0.3-0.4,0.7-0.6c0,0,0,0.2,0.2,0.1
			c0.1-0.1,0.3-0.5,0.6-0.7l0.1,0c0,0,0.3-0.2,0.3-0.2C7.6,2.9,7.2,3.3,7,3.4c0.2-0.1,0.1,0,0.3-0.1c0.1,0-0.1,0.1-0.2,0.1l0.5-0.2
			C7.6,3.2,8,3,8,3c0,0-0.5,0.3-0.5,0.3c-0.1,0,0.2-0.4,0.6-0.5c0.1,0,0,0.1,0,0.2c0,0,0.3-0.2,0.4-0.2L8.3,2.9
			c0.2-0.1,0.3-0.2,0.6-0.2c0.1,0,0.3,0,0.3,0C9,2.6,9,2.4,9,2.3c0,0,0.5-0.1,0.6,0c0.2,0-0.2,0.2-0.1,0.2c0,0,0.1-0.1,0.1-0.1
			c0.1,0,0,0.1,0.2,0c0-0.1,0.4-0.1,0.1-0.1c0.2,0,0.2,0,0.5,0c-0.1,0,0.2-0.2,0.4-0.2c0,0,0,0,0.1,0c0.4,0,0.7,0.1,1.1,0.1
			c0,0,0.2,0.1,0.1,0.1c0.1,0,0.1,0,0.2,0c0.2,0.1-0.3,0-0.1,0.1c0,0,0.3,0,0.5,0c0-0.1-0.4-0.1-0.6-0.1c0-0.1,0.3-0.1,0.8-0.1
			c0.3,0,0.1,0.1,0.2,0.1c0.6,0.2,0.6,0,1.1,0.2c0.2,0.1,0,0.1,0,0.2c-0.3-0.1-0.4-0.2-0.6-0.2l0.2,0.1c-0.1,0-0.3,0-0.4-0.1
			c0.2,0.1,1,0.3,1.5,0.6c0.1,0,0.2,0.1,0.2,0L15.1,3c-0.1-0.1,0.3,0.1,0.1,0c0.2,0.1,0.5,0.1,0.7,0.3l0,0.1c0,0-0.1-0.1-0.2-0.2
			c0.1,0,0.3,0.3,0.5,0.3L16,3.3c0.2,0.1,0.5,0.2,0.7,0.3c-0.1-0.1-0.1,0-0.2-0.2c0.1,0.2-0.6-0.4-0.4-0.1C16,3.2,15.8,3.1,15.6,3
			c0,0,0.1,0.1-0.1,0c0,0,0,0-0.1,0l0,0l0,0c0,0,0,0,0,0c0,0,0.1,0.1,0.1,0.1c-0.1,0-0.4-0.2-0.6-0.2c-0.1-0.1,0.1,0,0,0l-0.2,0
			c0,0-0.3-0.2,0-0.1l-0.3-0.1c-0.1-0.1-0.4-0.2-0.5-0.2c-0.1,0-0.3,0-0.2,0l-0.4-0.1l0,0C12.9,2.1,12.5,2.1,12,2
			c-0.1,0-0.3,0-0.5,0l0,0c-0.2,0-0.6,0-0.7,0C10.5,1.8,9.8,2,9.5,2l0,0.1C9.2,2.1,9,2.2,8.8,2.3l0,0c-0.2,0.1-0.6,0.2-1,0.3
			c0,0,0.1-0.1,0.2-0.1C7.5,2.6,7.1,3,6.7,3.1C6.6,3.2,6.6,3.2,6.5,3.3c0,0,0,0,0,0c0,0,0,0,0,0c0,0-0.1,0-0.1,0.1c0,0,0.1,0,0.1,0
			c-0.1,0-0.2,0.1-0.3,0.2l-0.1,0c0,0,0,0,0,0C6,3.5,6,3.5,6.1,3.5c0,0-0.1,0.1-0.1,0.1c-0.1,0-0.2,0.2-0.4,0.2
			c0,0.1-0.5,0.4-0.4,0.5c0,0,0,0,0,0C5.1,4.4,5,4.5,4.9,4.6l-0.1,0c0,0-0.2,0.3-0.1,0.3C4.5,5,4.5,5,4.5,4.9
			C4.3,5.2,4.3,5.1,4.2,5.4l0,0C4.1,5.5,4,5.7,3.9,5.7C3.6,5.9,3.1,6.9,2.7,7.6c0.2-0.1-0.2,0.3-0.1,0.4c0,0-0.1,0.1-0.1,0
			C2.5,8.3,2.3,8.4,2.3,8.7c0,0,0-0.1,0-0.1c0,0,0,0.1,0,0.2c0,0,0-0.1,0-0.1c-0.1,0.4,0,0.4,0.1,0.5C2.2,9.4,2.2,9.5,2.2,9.6
			c0,0.1-0.1,0.2-0.1-0.1c0,0.1-0.2,0.8-0.1,0.8c0,0,0,0.2,0,0.2c0,0.3,0,0.3,0,0.6l0-0.1c0.1,0.1,0,0.2,0,0.5l0,0
			c0,0.5,0,0.2,0,0.8l0,0c0.1,0,0,0.5,0.1,0.8l0-0.1c0.1,0.2,0,0.5,0,0.7c0,0,0-0.1,0-0.1c0.1,0.5,0.1,0,0.2,0.4
			c0,0.1-0.1-0.1,0,0.2c0,0.1,0.3,0.6,0.4,0.9c0-0.1,0-0.1,0.1,0c0.1,0.2,0.2,0.6,0.4,0.8c0,0,0,0,0,0c0.1,0.1,0.3,0.5,0.4,0.6
			c0,0.2,0.7,0.9,0.6,0.9l0.4,0.4l0,0C4.8,18,5,18.1,5.1,18.1c0.1,0.1,0,0,0,0c0.4,0.4,0.4,0.4,0.8,0.6l0,0.1
			C6,18.9,6.5,19.3,7,19.5c0,0,0,0-0.1,0c0.5,0.2,1.2,0.7,1.5,0.6c0,0,0.4,0.1,0.4,0.1C8.3,20,8.9,20.1,8.7,20
			c0.2,0,0.5,0.2,0.2,0.1l0,0c-0.1,0.1,0.6,0.2,0.6,0.2c1,0.2,1.9,0.2,2.8,0.2l-0.1-0.1c0,0,0.3,0,0.3,0c0.1,0,0.1,0-0.1,0.1
			c0.1,0,0.4-0.1,0.4-0.1c0.4,0-0.2,0.1,0,0.1l0.2,0l0,0c0.1-0.1,0.2-0.1,0.4-0.1c0.2,0,0.1,0,0.2,0c0,0,0,0,0.1,0l0.4-0.1l-0.2,0
			c0.2-0.1,0.4-0.1,0.2-0.1c0.1,0,0.5-0.1,0.8-0.2c0.3-0.1,0.6-0.3,0.7-0.3c0.2-0.1,0.4-0.3,0.7-0.4c-0.1,0-0.1,0,0.1-0.1
			c0,0.2,0.4-0.2,0.7-0.3c-0.2,0.1,0.6-0.5,0.3-0.4c0.2-0.1,0,0,0.2-0.1c0.4-0.4,0.9-0.8,1.2-1.3c0,0-0.1,0.1,0-0.1l0.3-0.2
			c0.1-0.1,0-0.1,0.2-0.3c0,0-0.1,0,0,0c0.8-1,1.1-2.3,1.5-3.6c-0.1,0.2,0,0.1,0-0.1c0,0.1,0,0-0.1,0c0,0,0.2-0.5,0.1-0.5
			c-0.1-0.1,0-0.6,0-0.6l0,0.2c-0.1-0.2-0.2,0.3-0.3,0.3c0.1,0.3-0.2,0.6-0.1,1c0,0.1,0-0.1,0,0c0,0.1,0,0.2-0.1,0.4l0,0
			c-0.1,0.6-0.3,0.9-0.6,1.5l0.1,0c-0.1,0.1-0.1,0.2-0.1,0.2c0,0.2,0.2-0.4,0.2-0.2c-0.2,0.2-0.5,1-0.7,1c-0.1,0.2,0.1,0,0,0.2
			l-0.1,0l0,0.1c-0.1,0.1-0.2,0.2-0.2,0.2c0,0,0.1-0.1,0.1-0.1c-0.1,0.1-0.3,0.5-0.4,0.5l0.1-0.2c-0.3,0.5-0.9,1.1-1.4,1.5l0,0
			c-0.3,0.3-0.3,0.2-0.7,0.5l0,0c-0.1,0.1-0.2,0.2-0.3,0.2c0.1-0.1-0.2,0.1-0.1,0c-0.4,0.3-0.2,0.2-0.5,0.4l-0.1,0
			c-0.1,0.1-0.1,0.1-0.3,0.2c0.2-0.1-0.2,0,0-0.1c-0.5,0.2-0.7,0.4-1,0.4c-0.2,0.2,0.5-0.1,0.3,0c0.1,0-0.2,0.1-0.3,0.2
			c-0.2,0.1-0.3,0-0.8,0.1c0,0,0.1,0,0.1,0c-0.2,0-0.3,0.1-0.5,0.1c-0.1,0.1-0.3,0-0.3,0.1L13,20c-0.2,0.1-0.4,0.2-0.8,0.2
			c0,0,0.1-0.1,0.2-0.1c-0.1,0-0.2,0.1-0.3,0c0-0.1,0.5-0.1,0.7-0.2c-0.1,0-0.4,0.1-0.3,0c-0.2,0.1-0.4,0.1-0.7,0.1l0,0
			c0,0-0.1,0-0.2,0l0.2-0.1c-0.2,0.1-0.5,0-0.7,0c0.5,0,0.1,0.1,0.3,0.1c-0.6,0-0.3-0.1-1-0.1c0.1,0,0.3,0,0.2,0.1
			c-0.1,0-0.3-0.1-0.4-0.1c-0.4-0.1,0.1,0.1-0.1,0.1c-0.1-0.1-0.2,0-0.4,0l0,0c-0.5-0.1-0.2,0.1-0.6-0.1l0.2,0l-0.2,0l0.1,0
			c-0.3,0-0.3,0-0.6-0.1c0,0.1-0.1,0.1-0.3,0c-0.1-0.1,0.1,0-0.2-0.1c0.1,0,0.2,0,0.3,0.1c0,0,0.1,0,0.1,0c-0.1-0.1-0.4-0.1-0.5-0.2
			c0,0,0.1,0,0.1,0.1c0,0-0.4-0.1-0.4-0.1c-0.1,0,0,0,0.1,0c-0.1,0-0.2,0-0.3-0.1c0,0,0.1-0.1,0.2,0l-0.4-0.1c0,0-0.2-0.1-0.1-0.1
			c-0.2-0.1-0.5-0.2-0.8-0.4c0,0,0,0-0.1-0.1c-0.2-0.2-0.4-0.4-0.7-0.6l-0.1-0.2c-0.2-0.2,0.1,0.2-0.2,0c-0.3-0.2-0.1-0.1-0.1-0.2
			c-0.1-0.1-0.4-0.3-0.5-0.5C4.5,17,4.6,17.1,4.7,17.1z M2.9,14.2c0,0.1,0.1,0.2,0.1,0.2C2.9,14.4,2.9,14.3,2.9,14.2z M2.6,9
			c0,0.1,0,0.1-0.1,0.2C2.5,9.1,2.5,9.1,2.6,9z M14.3,2.5L14.3,2.5C14.2,2.4,14.2,2.4,14.3,2.5z M14.6,2.6
			C14.6,2.6,14.6,2.6,14.6,2.6c0,0-0.1,0-0.1-0.1C14.5,2.5,14.5,2.6,14.6,2.6z M13.5,20.3L13.5,20.3C13.6,20.2,13.5,20.3,13.5,20.3z
			"/>
		<path fill="#B17F4A" d="M2.5,9.6C2.5,9.6,2.5,9.6,2.5,9.6C2.5,9.7,2.5,9.7,2.5,9.6z"/>
		<path fill="#B17F4A" d="M6.3,18.5L6.3,18.5C6.3,18.5,6.3,18.5,6.3,18.5L6.3,18.5z"/>
		<path fill="#B17F4A" d="M9.7,2.5c-0.1,0-0.1,0-0.1,0C9.6,2.5,9.6,2.5,9.7,2.5z"/>
		<path fill="#B17F4A" d="M16.2,3.3L16,3.2C16.1,3.2,16.1,3.3,16.2,3.3C16.2,3.3,16.1,3.3,16.2,3.3z"/>
		<path fill="#B17F4A" d="M17.4,4.6C17.5,4.6,17.5,4.6,17.4,4.6L17.4,4.6C17.4,4.6,17.4,4.5,17.4,4.6z"/>
		<path fill="#B17F4A" d="M16.3,3.5c0,0,0.1,0.1,0.2,0.2l0,0C16.6,3.7,16.4,3.6,16.3,3.5z"/>
		<path fill="#B17F4A" d="M16.5,3.7c0,0,0.1,0.1,0.1,0.1C16.7,3.8,16.6,3.8,16.5,3.7z"/>
		<path fill="#B17F4A" d="M15,2.7C15.1,2.8,15.1,2.7,15,2.7C15.2,2.7,14.7,2.6,15,2.7z"/>
		<polygon fill="#B17F4A" points="16.3,3.7 16.3,3.6 16.2,3.6 		"/>
		<path fill="#B17F4A" d="M15.3,3.1l0.2,0.1c0,0,0,0,0.1,0C15.5,3.2,15.3,3.1,15.3,3.1z"/>
		<path fill="#B17F4A" d="M15.6,3.2c0.1,0,0.1,0.1,0.2,0.1C15.7,3.3,15.7,3.2,15.6,3.2z"/>
		<polygon fill="#B17F4A" points="16,3.5 16,3.5 15.8,3.4 		"/>
		<path fill="#B17F4A" d="M13,2.3l-0.2,0c0,0,0,0,0.1,0C13,2.3,13.1,2.3,13,2.3z"/>
		<path fill="#B17F4A" d="M13.7,2.6C13.7,2.6,13.7,2.6,13.7,2.6l-0.1,0L13.7,2.6z"/>
		<path fill="#B17F4A" d="M13,2.5C13,2.5,12.7,2.4,13,2.5C13,2.5,13.2,2.5,13,2.5z"/>
		<polygon fill="#B17F4A" points="9.3,2.4 9.4,2.4 9.4,2.3 		"/>
		<path fill="#B17F4A" d="M6.4,3.9c0.3-0.1,0-0.1,0.3-0.2c0-0.1-0.2,0.1-0.1,0C6.4,3.8,6.3,3.9,6.4,3.9z"/>
		<path fill="#B17F4A" d="M6.6,3.7C6.6,3.7,6.6,3.7,6.6,3.7C6.6,3.7,6.6,3.7,6.6,3.7z"/>
		<polygon fill="#B17F4A" points="20.6,11.8 20.6,11.6 20.6,11.7 		"/>
		<path fill="#B17F4A" d="M20.5,11.4L20.5,11.4l0-0.2C20.5,11.3,20.5,11.4,20.5,11.4z"/>
		<path fill="#B17F4A" d="M2.9,13.7L2.9,13.7c0,0,0,0.1,0,0.1L2.9,13.7z"/>
		<polygon fill="#B17F4A" points="3.8,15.9 3.8,15.9 3.8,16 		"/>
		<path fill="#B17F4A" d="M5.2,17.5C5.1,17.5,5,17.4,5,17.3C5.1,17.5,5.2,17.6,5.2,17.5z"/>
	</g>
</g>
<text transform="matrix(1 0 0 1 6.4499 16.5357)" fill="#CA9E67" font-family="'OpenSans-Extrabold'" font-size="15.3517px">B</text>
</svg>
