<svg xmlns="http://www.w3.org/2000/svg" viewBox="0 0 153 32"><defs><style>.a{fill:#2184e8;}.b{fill:#eee;}</style></defs><g transform="translate(-20 -166)"><rect class="a" width="153" height="32" rx="5" transform="translate(20 166)"/><path class="b" d="M8.49-3.841a4.216,4.216,0,0,1-.308,1.613,3.281,3.281,0,0,1-.914,1.27A4.547,4.547,0,0,1,5.722-.1,7.133,7.133,0,0,1,3.48.2Q2.575.2,1.775.136A12.22,12.22,0,0,1,.369-.052V-2.7H.686q.422.158.879.294a4.18,4.18,0,0,0,1.169.136,3.272,3.272,0,0,0,1.419-.246A1.479,1.479,0,0,0,4.86-3.2a2.508,2.508,0,0,0,.229-.946q.026-.515.026-1.315v-5.217h-3v-2.408H8.49Zm13.087-1.09a5.148,5.148,0,0,1-1.419,3.836,5.429,5.429,0,0,1-3.986,1.4,5.429,5.429,0,0,1-3.986-1.4,5.148,5.148,0,0,1-1.419-3.836,5.138,5.138,0,0,1,1.428-3.85,5.445,5.445,0,0,1,3.977-1.4,5.413,5.413,0,0,1,3.995,1.406A5.181,5.181,0,0,1,21.577-4.931Zm-3.894,2.4a2.539,2.539,0,0,0,.461-.91A5.533,5.533,0,0,0,18.3-4.913a5.718,5.718,0,0,0-.158-1.459,2.553,2.553,0,0,0-.439-.94,1.542,1.542,0,0,0-.677-.51,2.393,2.393,0,0,0-.853-.149,2.482,2.482,0,0,0-.813.123,1.643,1.643,0,0,0-.681.492,2.518,2.518,0,0,0-.461.94,5.553,5.553,0,0,0-.171,1.5,5.791,5.791,0,0,0,.149,1.4,2.463,2.463,0,0,0,.439.954,1.672,1.672,0,0,0,.672.5A2.363,2.363,0,0,0,16.2-1.9a2.345,2.345,0,0,0,.822-.145A1.505,1.505,0,0,0,17.684-2.531ZM27.018,0H23.845V-9.87h3.173Zm.088-11.276H23.757v-2.4h3.349ZM39.911,0H36.738V-4.9a11.538,11.538,0,0,0-.062-1.191,2.509,2.509,0,0,0-.211-.875,1.052,1.052,0,0,0-.514-.475,2.4,2.4,0,0,0-.945-.149,2.885,2.885,0,0,0-.875.141A4.7,4.7,0,0,0,33.17-7V0H30V-9.87H33.17v1.09a8.061,8.061,0,0,1,1.619-1.011,4.136,4.136,0,0,1,1.725-.352,3.309,3.309,0,0,1,2.5.932,3.866,3.866,0,0,1,.9,2.786ZM59.388-10.556H55.3V0H51.926V-10.556H47.839v-2.531H59.388ZM71.332-4.931a5.148,5.148,0,0,1-1.419,3.836,5.429,5.429,0,0,1-3.986,1.4,5.429,5.429,0,0,1-3.986-1.4,5.148,5.148,0,0,1-1.419-3.836A5.138,5.138,0,0,1,61.95-8.78a5.445,5.445,0,0,1,3.977-1.4,5.413,5.413,0,0,1,3.995,1.406A5.181,5.181,0,0,1,71.332-4.931Zm-3.894,2.4a2.539,2.539,0,0,0,.461-.91,5.533,5.533,0,0,0,.154-1.472A5.718,5.718,0,0,0,67.9-6.372a2.553,2.553,0,0,0-.439-.94,1.542,1.542,0,0,0-.677-.51,2.393,2.393,0,0,0-.853-.149,2.482,2.482,0,0,0-.813.123,1.643,1.643,0,0,0-.681.492,2.518,2.518,0,0,0-.461.94,5.553,5.553,0,0,0-.171,1.5,5.791,5.791,0,0,0,.149,1.4,2.463,2.463,0,0,0,.439.954,1.672,1.672,0,0,0,.672.5,2.363,2.363,0,0,0,.892.158,2.345,2.345,0,0,0,.822-.145A1.505,1.505,0,0,0,67.438-2.531ZM83.2,0H80.024V-1.028A6.914,6.914,0,0,1,78.5-.044a4,4,0,0,1-1.642.316,3.463,3.463,0,0,1-2.879-1.389A5.943,5.943,0,0,1,72.9-4.86a6.319,6.319,0,0,1,.364-2.228,5.106,5.106,0,0,1,1-1.666,4.108,4.108,0,0,1,1.448-1.024,4.3,4.3,0,0,1,1.7-.365,4.674,4.674,0,0,1,1.453.189,9.685,9.685,0,0,1,1.163.479v-4.2H83.2ZM80.024-2.717v-4.85a3.112,3.112,0,0,0-.7-.2,4.12,4.12,0,0,0-.675-.062,2.247,2.247,0,0,0-1.868.779,3.375,3.375,0,0,0-.623,2.161,3.509,3.509,0,0,0,.5,2.108,1.889,1.889,0,0,0,1.6.656,2.854,2.854,0,0,0,.912-.163A3.214,3.214,0,0,0,80.024-2.717Zm12.138.135v-2.05q-.642.053-1.389.145a6.7,6.7,0,0,0-1.134.215,1.562,1.562,0,0,0-.725.434,1.093,1.093,0,0,0-.25.749,1.943,1.943,0,0,0,.053.5.75.75,0,0,0,.264.368,1.283,1.283,0,0,0,.483.258,3.369,3.369,0,0,0,.879.083,2.606,2.606,0,0,0,.962-.193A3.008,3.008,0,0,0,92.162-2.582Zm0,1.536q-.255.193-.633.466a4.608,4.608,0,0,1-.712.431,4.488,4.488,0,0,1-.967.312,5.563,5.563,0,0,1-1.1.1A3.355,3.355,0,0,1,86.4-.606a2.882,2.882,0,0,1-.949-2.224A3,3,0,0,1,85.931-4.6,3.243,3.243,0,0,1,87.3-5.678a7.75,7.75,0,0,1,2.18-.562q1.3-.167,2.7-.246v-.053a1.137,1.137,0,0,0-.668-1.129,4.83,4.83,0,0,0-1.969-.312,5.62,5.62,0,0,0-1.67.277q-.888.277-1.274.426h-.29V-9.659q.5-.132,1.63-.312a14.344,14.344,0,0,1,2.263-.18,7.024,7.024,0,0,1,3.9.831,2.948,2.948,0,0,1,1.2,2.606V0H92.162Zm10.5-2.444,2.252-6.38h3.254L102.683,3.621H99.248l1.569-3.7L96.979-9.87H100.3Z" transform="translate(43 189)"/></g></svg>