<svg xmlns="http://www.w3.org/2000/svg" viewBox="0 0 98 25">
  <defs>
    <style>
      .cls-1 {
        fill: #ea2530;
      }

      .cls-2 {
        fill: #fff;
      }
    </style>
  </defs>
  <g id="button" transform="translate(-157 -8)">
    <rect id="Rectangle_2" data-name="Rectangle 2" class="cls-1" width="98" height="25" rx="5" transform="translate(157 8)"/>
    <path id="Path_3" data-name="Path 3" class="cls-2" d="M.779,0V-9.953H4.2a5.208,5.208,0,0,1,2.892.687A2.293,2.293,0,0,1,8.128-7.219a2.4,2.4,0,0,1-.335,1.265,2.051,2.051,0,0,1-1.032.834,2.049,2.049,0,0,1,1.292.8A2.349,2.349,0,0,1,8.47-2.946a2.6,2.6,0,0,1-.978,2.2A4.551,4.551,0,0,1,4.689,0ZM3.1-4.272v2.5H4.689A1.771,1.771,0,0,0,5.8-2.068a1.065,1.065,0,0,0,.369-.892,1.366,1.366,0,0,0-.318-.981,1.374,1.374,0,0,0-1.029-.332ZM3.1-5.8H4.245a2.021,2.021,0,0,0,1.176-.3,1,1,0,0,0,.39-.851,1.071,1.071,0,0,0-.4-.926A2.064,2.064,0,0,0,4.2-8.176H3.1ZM17.938-9.953v6.521A3.234,3.234,0,0,1,16.806-.793a4.5,4.5,0,0,1-2.963.937,4.543,4.543,0,0,1-2.987-.937A3.23,3.23,0,0,1,9.721-3.432V-9.953h2.317v6.521a1.774,1.774,0,0,0,.472,1.357,1.878,1.878,0,0,0,1.333.441,1.839,1.839,0,0,0,1.316-.437,1.8,1.8,0,0,0,.461-1.36V-9.953Zm5.188,4.348h.041l1.982-4.348h2.509L24.274-3.5V0h-2.3V-3.616L18.655-9.953h2.5ZM40.2,0H37.9L34.255-6.344l-.041.014V0H31.9V-9.953h2.317l3.644,6.344.041-.014v-6.33h2.3ZM50-4.081a4.159,4.159,0,0,1-1.166,3.032A4.068,4.068,0,0,1,45.787.144a4.119,4.119,0,0,1-3.069-1.193,4.139,4.139,0,0,1-1.176-3.032V-5.872A4.149,4.149,0,0,1,42.714-8.9a4.093,4.093,0,0,1,3.059-1.2,4.087,4.087,0,0,1,3.049,1.2A4.142,4.142,0,0,1,50-5.872Zm-2.3-1.8a2.879,2.879,0,0,0-.5-1.75,1.657,1.657,0,0,0-1.418-.684,1.663,1.663,0,0,0-1.432.68,2.9,2.9,0,0,0-.5,1.753v1.8a2.9,2.9,0,0,0,.5,1.764,1.678,1.678,0,0,0,1.439.684A1.641,1.641,0,0,0,47.2-2.317a2.918,2.918,0,0,0,.5-1.764ZM59.343-3.425h.041l1.306-6.528h2.235L60.642,0H58.468L56.793-6.139h-.041L55.091,0H52.917l-2.29-9.953h2.242l1.306,6.528h.041l1.757-6.528h1.606Z" transform="translate(175 26)"/>
  </g>
</svg>
