<svg height="21" viewBox="0 0 21 21" width="21" xmlns="http://www.w3.org/2000/svg"><g fill="none"><path d="m1.968.146 18.229 18.229-1.825 1.824-18.229-18.229z" fill="#333"/><g fill="#fff"><path d="m2 2h2v2h-2z"/><path d="m5 5h2v2h-2z"/><path d="m17 17h2v2h-2z"/><path d="m14 14h2v2h-2z"/><path d="m8 8h2v2h-2z"/><path d="m11 11h2v2h-2z"/></g><g transform="matrix(-1 0 0 1 21 0)"><path d="m1.968.146 18.229 18.229-1.825 1.824-18.229-18.229z" fill="#333"/><g fill="#fff"><path d="m2 2h2v2h-2z"/><path d="m5 5h2v2h-2z"/><path d="m17 17h2v2h-2z"/><path d="m14 14h2v2h-2z"/><path d="m8 8h2v2h-2z"/><path d="m11 11h2v2h-2z"/></g></g></g></svg>