<?xml version="1.0" encoding="utf-8"?>
<!-- Generator: Adobe Illustrator 21.0.2, SVG Export Plug-In . SVG Version: 6.00 Build 0)  -->
<svg version="1.2" baseProfile="tiny" id="Layer_1" xmlns="http://www.w3.org/2000/svg" xmlns:xlink="http://www.w3.org/1999/xlink"
	 x="0px" y="0px" viewBox="0 0 200 200" xml:space="preserve">
<path fill="#603813" d="M148,5c0,0-25,11-46,38s-36,60-36,60s-7,19-19,27s-23,31-13,33s7-13,7-13s-2-7,17-18s43-71,43-71
	s32-63,62-52s11,84,11,84s-36,97-110,103s-47-76-47-76s30-67,87-104C104,16,122,0,148,5z"/>
</svg>
