<svg id="Layer_1" data-name="Layer 1" xmlns="http://www.w3.org/2000/svg" xmlns:xlink="http://www.w3.org/1999/xlink" viewBox="0 0 48.09 15.31"><defs><clipPath id="clip-path" transform="translate(0 0)"><rect width="48.09" height="15.31" style="fill:none"/></clipPath></defs><title>collider-logo</title><g style="clip-path:url(#clip-path)"><path d="M7,9.13c0,.81.35,1,.9,1s.91-.22.91-1V8.65h1.39V9c0,1.79-.95,2.44-2.3,2.44S5.6,10.74,5.6,9V6.36c0-1.79,1-2.44,2.29-2.44s2.3.65,2.3,2.44v0H8.8v-.2c0-.81-.35-1-.91-1s-.9.22-.9,1Z" transform="translate(0 0)" style="fill:#1dd7fd"/><path d="M12.38,9.13c0,.81.35,1,.91,1s.9-.22.9-1v-3c0-.81-.35-1-.9-1s-.91.22-.91,1ZM11,6.36c0-1.79.95-2.44,2.3-2.44s2.29.65,2.29,2.44V9c0,1.79-.94,2.44-2.29,2.44S11,10.74,11,9Z" transform="translate(0 0)" style="fill:#1dd7fd"/></g><polygon points="16.49 11.29 16.49 4.02 17.88 4.02 17.88 10.06 20.11 10.06 20.11 11.29 16.49 11.29" style="fill:#1dd7fd"/><polygon points="20.84 11.29 20.84 4.02 22.23 4.02 22.23 10.06 24.46 10.06 24.46 11.29 20.84 11.29" style="fill:#1dd7fd"/><rect x="25.22" y="4.02" width="1.39" height="7.26" style="fill:#1dd7fd"/><g style="clip-path:url(#clip-path)"><path d="M29,10.06h.48c.76,0,1.21-.36,1.21-1.45V6.7c0-1-.35-1.45-1.21-1.45H29ZM27.63,4h1.93c1.59,0,2.47.69,2.53,2.52V8.77c-.06,1.83-.94,2.52-2.53,2.52H27.63Z" transform="translate(0 0)" style="fill:#1dd7fd"/></g><polygon points="32.98 11.29 32.98 4.02 36.78 4.02 36.78 5.25 34.37 5.25 34.37 6.92 36.21 6.92 36.21 8.15 34.37 8.15 34.37 10.06 36.88 10.06 36.88 11.29 32.98 11.29" style="fill:#1dd7fd"/><g style="clip-path:url(#clip-path)"><path d="M39.13,7.18h.72a.88.88,0,0,0,1-1,.88.88,0,0,0-1-1h-.72ZM41,11.29l-1.2-3h-.67v3H37.74V4h2c1.66,0,2.46.81,2.46,2.18a1.76,1.76,0,0,1-1.1,1.85l1.37,3.24Z" transform="translate(0 0)" style="fill:#1dd7fd"/><rect x="0.51" y="0.51" width="47.06" height="14.28" style="fill:none;stroke:#1dd7fd;stroke-width:1.0290000438690186px"/></g></svg>