<?xml version="1.0" encoding="utf-8"?>
<!-- Generator: Adobe Illustrator 21.0.2, SVG Export Plug-In . SVG Version: 6.00 Build 0)  -->
<svg version="1.2" baseProfile="tiny" id="Layer_1" xmlns="http://www.w3.org/2000/svg" xmlns:xlink="http://www.w3.org/1999/xlink"
	 x="0px" y="0px" viewBox="0 0 400 600" xml:space="preserve">
<linearGradient id="SVGID_1_" gradientUnits="userSpaceOnUse" x1="10.5806" y1="320" x2="390.4072" y2="320">
	<stop  offset="0" style="stop-color:#F8F8F8"/>
	<stop  offset="1" style="stop-color:#EEEEEE"/>
</linearGradient>
<path fill="url(#SVGID_1_)" stroke="#E6E6E6" stroke-width="2" stroke-miterlimit="10" d="M60,550c0,0,0,30,140,30s140-30,140-30
	l50.4-484c0.3-3.2-2.2-6-5.4-6H16c-3.2,0-5.7,2.8-5.4,6L60,550z"/>
<linearGradient id="SVGID_2_" gradientUnits="userSpaceOnUse" x1="22" y1="278.25" x2="379" y2="278.25">
	<stop  offset="0" style="stop-color:#DDDDDD"/>
	<stop  offset="0.3308" style="stop-color:#D8D8D8"/>
	<stop  offset="0.7367" style="stop-color:#C9C9C9"/>
	<stop  offset="1" style="stop-color:#BBBBBB"/>
</linearGradient>
<path fill="url(#SVGID_2_)" stroke="#B3B3B3" stroke-width="0.5" stroke-miterlimit="10" d="M379,179c0,0-1.5,20.5-179.5,20.5
	S22,179,22,179l18,179c0,0,0.5,19.5,160.5,19.5S360,358,360,358L379,179z"/>
<path fill="#E6E6E6" d="M233.9,226.6c0,0-15.8,6.9-29,24c-13.2,17-22.7,37.9-22.7,37.9s-4.4,12-12,17c-7.6,5-14.5,19.6-8.2,20.8
	s4.4-8.2,4.4-8.2s-1.3-4.4,10.7-11.4c12-6.9,27.1-44.8,27.1-44.8s20.2-39.7,39.1-32.8c18.9,6.9,6.9,53,6.9,53s-22.7,61.2-69.4,65
	c-46.7,3.8-29.7-47.9-29.7-47.9s18.9-42.3,54.9-65.6C206.1,233.6,217.5,223.5,233.9,226.6z"/>
</svg>
