<?xml version="1.0" standalone="no"?>
<!DOCTYPE svg PUBLIC "-//W3C//DTD SVG 1.1//EN" "http://www.w3.org/Graphics/SVG/1.1/DTD/svg11.dtd" >
<svg xmlns="http://www.w3.org/2000/svg" xmlns:xlink="http://www.w3.org/1999/xlink" version="1.1">
<metadata>
Created by FontForge 20161013 at Mon Dec  7 18:33:25 2015
 By ,,,
Copyright (c) 2015 by Nicky Laatz. All rights reserved.
</metadata>
<defs>
<font id="HelloSunshineMarker" horiz-adv-x="302" >
  <font-face 
    font-family="Hello Sunshine Marker"
    font-weight="400"
    font-stretch="normal"
    units-per-em="1000"
    panose-1="0 0 0 0 0 0 0 0 0 0"
    ascent="750"
    descent="-250"
    x-height="705"
    cap-height="710"
    bbox="-50 -133 793.286 943.286"
    underline-thickness="50"
    underline-position="-200"
    unicode-range="U+000D-FB04"
  />
<missing-glyph horiz-adv-x="144" 
 />
    <glyph glyph-name=".notdef" horiz-adv-x="144" 
 />
    <glyph glyph-name=".null" horiz-adv-x="0" 
 />
    <glyph glyph-name="nonmarkingreturn" horiz-adv-x="333" 
 />
    <glyph glyph-name="NULL" horiz-adv-x="0" 
 />
    <glyph glyph-name="NULL" horiz-adv-x="0" 
 />
    <glyph glyph-name="CR" unicode="&#xd;" horiz-adv-x="144" 
 />
    <glyph glyph-name="space" unicode=" " horiz-adv-x="144" 
 />
    <glyph glyph-name="exclam" unicode="!" horiz-adv-x="244" 
d="M70 264q2 64 2 79q1 12 0 34t-1 29q2 60 5 90q10 115 12 128q2 19 7 53.5t6 45.5q0 6 1 18t1 18q0 30 32 30h8q36 3 51 -32q1 -2 1 -7q-3 -74 -4 -88q-2 -19 -9.5 -65t-10.5 -71q-2 -18 -2.5 -53t-1.5 -46q-6 -73 -6 -77q-1 -10 -2.5 -26.5t-2.5 -30.5t-1 -26
q-1 -22 -29 -54q-8 -9 -24 -5t-21 15q-2 6 -11 41zM108 350l5 -5q2 6 2 9q0 1 -1 2q-2 2 -2 3q-4 -7 -4 -9zM115 313v1l-1 -1h1zM87 95q6 -2 43 -21q1 0 2.5 -2t2.5 -3q22 -8 17 -23q-8 -30 -37 -25q-37 6 -49 29q-2 3 -3.5 8.5t-2.5 8.5q-4 16 0.5 21t26.5 7z" />
    <glyph glyph-name="quotedbl" unicode="&#x22;" horiz-adv-x="270" 
d="M101 722q4 0 6 -1q12 -2 14 -11v-2q-3 -1 -4.5 -2.5t-1.5 -3.5v-3.5v-2.5q-2 -11 -4.5 -32t-4.5 -32q-5 -23 -14 -48q0 -2 -1.5 -9t-2.5 -11q0 -4 -7 -4q-6 0 -7 1q-11 11 -12 22t-5 33q-2 7 -2 35v45q0 4 2 12q0 9 17 13q18 4 27 1zM80 608q3 8 7 24v2l-2 -2
q-4 -16 -8 -23q-5 -8 -7 -26q2 0 2 -2l2 2q1 5 3 12.5t3 12.5zM140 703q-2 4 7 8q8 9 29 9q9 0 21 -5q5 -2 4 -6q1 -10 1.5 -29t0.5 -25q-2 -30 -11 -53q-4 -8 -6 -11q-5 -8 -16 -8q-10 0 -14 9q0 4 -2.5 12.5t-3.5 13.5q0 6 -4 19t-4 21q0 7 -2 20t-2 19z" />
    <glyph glyph-name="numbersign" unicode="#" horiz-adv-x="523" 
d="M484 385q7 -1 6 -10v-4q0 -5 -9 -5t-13 1q-5 0 -5 4q1 6 0.5 7.5t-5.5 2.5t-6 2q-25 5 -31 5q-47 5 -92 6h-7q-2 -2 -5 -3q2 -1 3 -3l2 -1q15 0 23 1q41 0 63 -9q3 -1 20 -1q1 0 4 0.5t4 0.5l2 -1q1 -2 3 -3q-2 -1 -3 -2l-2 -1q-7 -1 -21 -1l-9 1q-9 0 -9 -1q-1 0 -3 -3
l1 -1q1 -2 2 -2h22q1 0 2.5 -0.5t2.5 -0.5q-1 0 -2.5 -1.5t-2.5 -1.5h-12l-2 -1q-3 0 -10 2t-11 3q-1 0 -2.5 -1t-3.5 -1q-10 0 -10 1q-1 7 -11 7q-4 0 -12 -1.5t-13 -2.5v-2q0 -1 3 -1q9 0 17 -3q-2 0 -8 -0.5t-10 -0.5q-26 2 -27 -23q-1 -13 -11 -73q-2 -15 -5 -41t-4 -32
q-4 -18 -18 -18q-11 0 -13.5 2t-5.5 13q-1 6 -1.5 6.5t-6.5 -1.5q-1 1 -4 3.5t-3 4.5q0 15 2 51q2 15 5.5 43.5t5.5 41.5q1 6 -2 7.5t-8 0.5q-14 -4 -41 -12.5t-40 -12.5q-15 -3 -17 -21q-12 -58 -17 -87q-3 -14 -13 -68q-1 -8 -9 -7q-3 1 -10 1q-11 0 -13 9q0 5 -2 8t-8 2
q-6 0 -6 7q-5 21 -4 29q2 17 6.5 49t6.5 46q2 5 0.5 8.5t-3 4.5t-7.5 4q-5 3 -23 21q-6 7 -5.5 8.5t9.5 5.5q21 8 29 12q9 4 11 11q1 2 9 56q1 8 -2.5 11.5t-11.5 1.5q-16 -3 -23 1.5t-12 19.5q-1 3 -3.5 8t-2.5 7q-8 16 10 22q12 4 56 25q6 6 6 12q9 76 9 79q1 7 2.5 19.5
t1.5 18.5q1 13 17 18q12 6 25 0.5t19 -17.5q6 -4 3.5 -25t-2.5 -23q1 -7 0 -21.5t-1 -18.5q0 -11 11 -9q14 3 41 8.5t40 8.5q11 1 11 13q4 39 5 55l5 12q10 0 16 -6q11 -13 14 -26q6 -15 7 -33q2 -11 4.5 -13t13.5 -2q41 0 62 -3q7 0 23 -8q6 -2 1 -6l-2 -2q-3 -1 -5 -6
q1 0 3.5 -1t3.5 -2l8 -3q9 -3 11 -8q5 -12 -8 -12q-10 0 -29 -0.5t-28 -0.5q-4 -1 -11.5 0t-10.5 1q-5 0 -14.5 0.5t-15.5 0.5q-8 0 -10 -9q0 -7 -3 -21t-3 -21q-2 -28 -2 -44q-2 -9 -0.5 -10.5t11.5 -2.5q63 -6 131 -15q4 -1 11.5 -4t10.5 -3zM357 520q4 2 7 4q-4 2 -7 3
q-1 1 -2 1t-1 -1q-8 -1 -12 -3q6 -4 9 -4h6zM343 554q-1 0 -2 -1t-3 -1q2 0 4 -1l1 -1h24v-2h20q1 0 2.5 1.5t2.5 1.5q-3 3 -5 3h-44zM95 292q1 1 0 2q0 2 -2 4q-4 -2 -4 -4l-2 -6q-7 -53 -10 -75q1 -2 3 -5q2 4 3 5q2 13 6 39.5t6 39.5zM103 225v1q-1 0 -1 -1h1zM107 374
q6 34 9 53v3q-1 2 -1 3q0 -1 -2 -2.5t-2 -3.5q-1 -7 -4.5 -25t-5.5 -28l1 -2v-4l3 3l1.5 1.5t0.5 1.5zM245 381q1 0 2 1l1 1q-1 1 -3 1q-1 -1 -2 -1q1 0 1 -1t1 -1zM254 233v1l-1 -1v-1zM255 244l1 1v3l-2 -1q0 -2 1 -3zM258 261q4 4 2 4l-3 3q-2 -2 -2 -3t3 -4zM272 343
q0 1 -0.5 2t-0.5 2q-1 -1 -3 -1t-3 -1q-2 -8 -2 -10q-5 -30 -6 -39q0 -3 3 -6l2 2q1 3 2 5q0 1 0.5 3t0.5 4q3 13 7 39zM272 478q2 6 2 20q0 6 -4 6q-21 0 -32 -3q-17 -6 -53 -20q-26 -11 -23 -40q0 -3 1 -7q-1 -8 -4.5 -23t-4.5 -18q-1 -6 0.5 -8.5t6.5 -1.5q13 3 28 6
t33.5 6.5t28.5 5.5q9 4 10 11q2 13 11 66z" />
    <glyph glyph-name="dollar" unicode="$" horiz-adv-x="432" 
d="M398 302q13 -44 7 -125q0 -4 -14 -48q-12 -30 -19 -40q-19 -26 -47 -37q-54 -21 -84 -40q-7 -4 -18 -6q-8 -1 -9 -10q-1 -6 -4.5 -17.5t-5.5 -17.5q-1 -3 -1 -8.5v-9.5q-4 -14 -17 -5q-19 19 -14 35l3 6q2 -1 5 -4q1 -2 2.5 -6t2.5 -6q1 4 3 14v12v4v4.5t-2 2.5t-7 -4
l-6 3q-1 1 -7.5 7t-11 8.5t-9.5 2.5q-14 1 -27 14l-15 6q-5 2 -13.5 7t-11.5 6q-21 13 -42 36q-8 8 -11 13q-8 10 -8 19q0 21 -2 28q0 2 -1 7.5t-1 8.5q0 4 2 10q3 13 14 42q6 13 19 37t19 36l6 12q9 8 11 10q21 15 29 -1q3 -8 -1 -23q-3 -6 -7.5 -17t-7.5 -17
q-10 -24 -15 -35q-6 -12 -7 -20v-15v-32q0 -16 5 -34q6 -14 12 -20q3 -4 10.5 -8t10.5 -6q4 -3 11 -9.5t10 -9.5q10 -7 26 -9q11 -2 12 7q1 3 1 20q2 40 2 59q1 16 2.5 47t1.5 46q1 24 3 71t2 70v38t1 38q0 12 -11 16q-16 6 -36 17q-6 2 -7 4q-4 7 -16.5 23.5t-19 29.5
t-7.5 27q-4 62 5 96q5 28 29 43q10 7 25 7q19 -1 42 2q6 0 8 7q1 5 2 17t2 17q1 3 4 26.5t10 34.5q13 16 29 7q12 -7 18.5 -24.5t3.5 -31.5q0 -2 -12 -74q0 -5 4 -9q34 -33 50 -95q2 -6 2 -10q0 -14 -9 -20t-22 -2q-12 4 -15 9.5t-3 17.5q0 3 -8 27q-2 2 -4 3l-1 -2v-2
q-2 -58 -3 -86q-1 -10 -3 -28q-1 -15 13 -22q53 -26 92 -70q30 -31 51 -102zM228 255l-2 -2h1q1 0 2 1zM218 431q-1 -3 -2.5 -8.5t-2.5 -8.5q4 -6 7 -9q0 4 2 10q0 1 -1 1zM217 365q-2 -40 -3 -62l3 -6q2 4 2 7q1 9 1 28q0 18 2 54l-1 2q-1 2 -1 3q-4 -4 -4 -5q0 -4 0.5 -11
t0.5 -10zM174 511q8 -3 10 -2t3 9q6 141 6 145h-1q2 3 0 7q0 1 -3 4l-2 -1l-2 -1q0 -4 -2.5 -7t-7 -5t-5.5 -3q-21 -19 -24 -25q-7 -16 -7 -45l9 -48q6 -19 26 -28zM186 42l2 1l2 2q-3 3 -5 3l-1 -2q-1 -1 -1 -2q2 -2 3 -2zM193 161l3 66l3 66q2 39 4 117v38q0 1 -2.5 3
t-2.5 3q-3 -6 -3 -7q-1 -21 -1 -65q-4 -84 -6 -125q-2 -31 -4 -95q-2 -60 -4 -91q0 -1 -2 -1q2 -2 4 -5.5t4 -5.5q0 2 2 6t2 6v4q0 15 1 43t2 43zM206 38q0 1 2 3q2 3 1 4q0 2 -2 5.5t-2 4.5l-4 -8q1 -1 2.5 -4zM218 118q0 1 -2 5q-3 6 -3 8q-2 25 0 49l3 45t2 45h-1v6
q0 1 -3 4l-1 -2l-1 -2q0 -28 -1 -43q0 -7 -0.5 -19t-1 -22t-1.5 -19q-1 -16 -2.5 -47t-1.5 -46l3 -9q5 7 5 9q2 31 6 38zM256 72q2 1 4 6h-2l-2 1q-25 -6 -27 -7q-1 -2 -9 -22q1 0 3 -1q3 -1 4 0q17 11 29 23zM323 247q0 8 -2 50q-1 8 -5 24t-5 22q-9 57 -61 87q-7 4 -8.5 3
t-2.5 -8q-1 -8 -1 -24v-24q-1 -7 -1.5 -20t-0.5 -20h2q1 -3 1 -10q-1 -9 -2 -26.5t-1 -26.5q-6 -104 -10 -156q0 -8 -2 -28q0 -11 9 -5q3 2 16.5 8.5t19.5 11.5q34 25 48 79q4 29 6 63z" />
    <glyph glyph-name="percent" unicode="%" horiz-adv-x="432" 
d="M319 649q20 2 32 -18q15 -22 4 -42q-19 -33 -71 -136q-3 -5 -7.5 -16.5t-7.5 -17.5q-5 -9 -16 -26t-16 -26q-3 -6 -8 -19t-9 -19q-4 -7 -33 -55q-1 -2 -4 -4t-4 -4q-11 -20 -33 -62q-48 -79 -54 -91q-1 -2 -7 -19q-6 -19 -17 -11q-32 25 -41 48q-5 13 8 36q7 12 36 59.5
t44 73.5q11 20 37.5 68.5t41.5 74.5q10 19 30 51.5t25 41.5q26 47 49 100q7 13 21 13zM9 532q20 57 21 59q9 17 38 55q19 21 40 18.5t35 -20.5q9 -11 18 -16q16 -9 12 -29q-18 -73 -25 -94q-12 -34 -52 -48q-8 -3 -15.5 -3t-12 1.5t-11 6t-9 7l-9 9l-8.5 8.5q-15 12 -22 46z
M51 522q1 -3 4 -9t4 -9q2 1 8 5l9 6q2 2 6 8q26 62 32 77q1 1 -2 17q-18 -3 -19 -4q-32 -34 -42 -91zM232 164q1 58 39 103q16 18 25 25q23 18 46 0q9 -8 -1 -17q-36 -36 -52 -55q-24 -31 -21 -81q2 -19 16 -23q20 -5 30 10q10 14 12 22q6 34 9 69q0 2 -8 21l-3 6l9 3
q16 -1 31.5 -15.5t15.5 -30.5v-15.5v-17t-1 -15t-2.5 -17t-4.5 -14t-8 -15.5q-3 -4 -20 -19q-23 -19 -61 -6q-12 5 -34 29q-17 18 -17 53z" />
    <glyph glyph-name="ampersand" unicode="&#x26;" horiz-adv-x="333" 
d="M361 250q0 -16 -16 -69q-22 -62 -70 -135q-6 -5 -16 -15q-5 -4 -14.5 -13.5t-18.5 -17t-19 -11.5q-46 -17 -83 -20q-11 0 -21 2.5t-23.5 9t-17.5 8.5q-12 4 -22 11t-24 19.5t-18 15.5q-24 23 -37 48q-12 25 -10 66q7 72 50 150q43 73 80 119q8 10 -3 16q-7 2 -16 13
q-20 15 -23 35q-8 61 17 115q1 3 12 30t18 40q17 38 55 69q3 3 8 3q55 5 74 3q57 -5 74 -53q2 -5 10 -58q0 -5 2 -16.5t3 -17.5q0 -12 -10.5 -22.5t-23.5 -11.5q-5 -1 -11.5 5.5t-5.5 12.5q5 17 -2 33q-4 5 -6 24q-2 12 -4 41q-2 21 -19.5 32t-37.5 5q-6 0 -6 -9
q-3 -14 -15 -25q-4 -3 -14 -15q-31 -42 -58 -114l-9 -51q-2 -16 4.5 -22.5t22.5 -4.5q16 1 33 7q16 8 40 -2q12 -7 25 -18q19 -17 0 -32q-6 -3 -7 -4q-11 -15 -50.5 -59t-54.5 -72q-37 -66 -48 -93q-10 -23 -15 -60q-4 -18 -6 -53q-2 -17 11 -28q6 -4 19 -15t21 -16
q11 -6 23 -6q41 5 91 55q42 42 74 113q12 30 20 62q3 12 -10 40q-3 5 -11 5t-15 -5q-3 -2 -14 -15q-30 -23 -51 -40q-14 -16 -21 -25q-13 -17 -23 -5q-15 15 -13 25q10 51 52 76q9 5 28 7q8 3 25 7t25 6q31 8 63 -9q12 -5 23 -30q4 -10 10 -41zM324 260q-11 0 -14.5 -3.5
t-5.5 -14.5q-2 -18 -8 -35q-4 -10 5 -28q0 -3 2 -4.5t4.5 0t4.5 4.5q23 32 24 68v5v4.5t-1 3.5t-4 1.5t-7 -1.5zM302 161v4h-5q-2 -3 -11 -18l2 -1q8 8 13 12q1 1 1 3z" />
    <glyph glyph-name="quotesingle" unicode="'" horiz-adv-x="123" 
d="M81 742q4 0 6 -1q12 -2 14 -11v-2q-3 -1 -4.5 -2.5t-1.5 -3.5v-3.5v-2.5q-2 -11 -4.5 -32t-4.5 -32q-5 -23 -14 -48q0 -3 -1.5 -9.5t-2.5 -10.5q0 -4 -7 -4q-6 0 -7 1q-11 11 -12 22t-5 33q-2 7 -2 35v45q0 4 2 12q0 9 17 13q18 4 27 1zM60 628q3 8 7 24v2l-2 -2
q-4 -16 -8 -23q-5 -8 -7 -26q2 0 2 -2l2 2q1 4 3 12.5t3 12.5z" />
    <glyph glyph-name="parenleft" unicode="(" horiz-adv-x="284" 
d="M32 231q-2 101 8 141q4 17 12 52.5t12 53.5q2 9 8.5 25.5t8.5 23.5q3 8 6.5 22.5t4.5 19.5q35 83 45 103q4 9 39 82q17 34 49 12q11 -5 24 -17q5 -3 4.5 -17.5t-6.5 -21.5q-27 -34 -58 -109l-36 -81q-8 -18 -14 -39q-4 -12 -11.5 -36t-8.5 -27q-2 -7 -2 -20q0 -5 -1 -6
q-10 -18 -12 -68q-7 -93 4 -165q6 -46 21 -91q6 -15 33 -54q1 -1 22 -16q10 -6 10 -7q6 -9 4 -19q0 -5 -13 -8q-35 -1 -68 44q-49 70 -64 129q-5 16 -9 33.5t-7 35.5t-5 25zM68 470v-1v1q0 4 2 10l2.5 2.5t2.5 3l2 3t2 3.5q4 12 13.5 40t14.5 44v6l-4 -4q-1 -1 -2 -3.5
t-1 -3.5q-3 -10 -30 -91q-2 -6 -2 -10zM128 622l3 2q3 5 5.5 10.5t5 12t4.5 10.5q1 1 -1 3l-1 2q-2 0 -2 -2q-12 -26 -14 -32v-6zM82 363q-2 -2 -3 -4q-2 -6 -4 -20q-1 -1 0 -3l1 -2q3 0 3 2q4 17 5 22q0 1 -2 5zM67 291q2 -4 3 -8q0 1 1.5 4t1.5 4q1 3 1 8v18q-2 -5 -6 -19
q0 -3 -1 -7zM65 200q-3 11 -4 22q0 -4 -0.5 -13t-0.5 -14q0 -3 1.5 -10t2.5 -11v12t1 14zM60 260q0 1 1 1.5t1 1.5q3 11 3 20q0 3 -2 5l-1 -1q-1 -1 -1 -2q0 -7 -2 -21l1 -2v-2zM120 599q2 6 2 7l-2 2l-3 -6q2 -1 3 -3zM107 462q1 1 1 3q1 1 1 2q0 2 -2 2q-2 -1 -2 -2t1 -2
q0 -2 1 -3zM66 156v-2l1 -1l1 1v2l-1 1zM70 262l1 1q0 1 -1 1v-1v-1zM90 404v-2l1 2h-1z" />
    <glyph glyph-name="parenright" unicode=")" horiz-adv-x="284" 
d="M221 229q-16 -71 -24 -94q-16 -59 -67 -127q-35 -43 -70 -42q-13 3 -13 9q0 11 5 18q0 1 10 7q19 11 23 15q28 38 34 53q17 45 24 90q13 68 9 165q0 48 -10 69q-1 1 -1 6q0 16 -1 20q-3 10 -6 20.5t-6.5 23t-5.5 19.5q-9 30 -13 39q-5 12 -17 39.5t-17 42.5
q-29 78 -54 111q-6 6 -6 21t5 18q11 9 24 16q33 22 49 -13q29 -66 36 -83q4 -10 42 -104q2 -6 4.5 -20t5.5 -22q2 -6 8 -23t8 -27q4 -18 10.5 -53.5t9.5 -52.5q9 -42 4 -141zM192 468q0 7 -1 10q-4 12 -14 43.5t-14 48.5q-1 1 -1 3.5t-1 3.5l-4 4v-6q4 -16 13 -44t12 -40
q1 -3 4.5 -7t4.5 -6q1 -3 1 -10v-1v1zM137 622v6q-6 17 -13 32q0 2 -2 2l-1 -2q-2 -2 -1 -3q2 -4 6.5 -15.5t7.5 -17.5zM175 362q-2 -4 -2 -5q0 -3 1.5 -10.5t2.5 -11.5q0 -2 3 -2l1 2q1 2 0 3q0 11 -3 20q-1 2 -3 4zM188 289q-1 4 -1 7q-1 3 -2.5 10t-2.5 10
q0 -2 -0.5 -8.5t-0.5 -9.5q0 -5 1 -8q0 -1 1.5 -4t1.5 -5q1 4 3 8zM187 198v-26q5 19 5 21v27q0 -4 -5 -22zM194 258v2l1 2q-1 7 -1 21q0 1 -1 1l-1 2q-2 -2 -2 -5q0 -13 2 -20q0 -1 1 -1q1 -1 1 -2zM144 599l3 3q-2 4 -2 6l-3 -2q0 -1 2 -7zM153 461q1 1 1 3l1 2l-2 2
q-2 0 -2 -2l1 -2q0 -2 1 -3zM185 154l-1 1l-1 -1q0 -1 1 -2v-1v1q1 1 1 2zM184 260v1v1h-1q0 -1 1 -2zM168 403h-1l1 -2v2z" />
    <glyph glyph-name="asterisk" unicode="*" horiz-adv-x="299" 
d="M265 723q2 -4 1 -6t-4 -1q-12 0 -13 5q0 2 -4 2q-16 2 -24 2q-14 0 -21 -1h-2l-2 -1q1 -2 3 -4q1 -1 3 -1t3 -1q6 -2 8 -2q4 -2 7 -2q4 1 12.5 1t12.5 1q3 0 9 -2q2 0 4 -4q-2 -2 -4 -2q-3 -1 -8 -2t-8 -1q-1 0 -2.5 -1t-2.5 -2l4 -4q7 -4 16 -23q0 -3 -1 -4q-3 -4 1 -10
q1 -5 -2 -8q-6 -5 -12 1q-1 1 -17 9q-20 10 -31 15q-16 6 -24 8q-6 2 -12 -4q-9 -9 -7 -30q0 -5 1.5 -17t2.5 -18q0 -1 -3 -25q0 -1 -0.5 -3t-0.5 -3q-1 -9 -7.5 -12t-13.5 2q-2 2 -6 4.5t-6 3.5q-3 3 -1 4q3 6 1 28v7q-1 1 -2 2.5t-1 2.5q0 -1 -2 -2l-2 -1q-10 -15 -25 -35
q-5 -7 -9 -6q-9 2 -11 9q0 3 -3 6q0 1 -2.5 4t-2.5 4q0 15 3 20q24 32 35 49q1 1 1 2t1 2h-5l-57 -9q-13 -3 -19 8q-12 19 -11 27q1 3 1 9q2 6 10 6h26l1 1q0 2 -1 2q-10 9 -10 27l3 15q1 7 8 5q19 -5 55 -13q7 -3 7 5q-1 2 -1 8v23q0 6 6 10q14 10 26 -4q10 -11 10 -41v-10
q0 -2 1 -4l2 1q1 0 1 1l15 18q3 5 9.5 13.5t11.5 15.5t9 13q5 9 16 11q13 0 19 -13q6 -11 -1 -23q-1 -3 -14 -23q-2 -2 -5 -6.5t-4 -6.5q-2 -3 1 -5q5 -3 6 -2l3 3q17 0 25 -1q3 0 5.5 -0.5t6 -1.5t5.5 -1q7 -2 7 -9q2 -4 2 -5zM91 617v-1v2v-1zM92 619l2 2h-1q0 -1 -0.5 -1
t-0.5 -1zM102 631q0 1 1 2h-2v-1q0 -1 1 -1zM186 716l2 2h-1q-1 1 -2 1q-1 -1 -2 -1q1 0 1 -1z" />
    <glyph glyph-name="plus" unicode="+" horiz-adv-x="284" 
d="M167 503l-3 -42q-1 -1 -1 -3q0 -8 2 -9.5t10 -0.5q30 4 46 6q1 0 4.5 1.5t5.5 2.5q13 3 21 -8q2 -3 7.5 -9t8.5 -9q1 -2 2.5 -6t2.5 -6q2 -10 3 -14q2 -11 -11 -13q-4 -1 -13 -1t-14 -1q-8 -1 -25 -2.5t-26 -2.5q-4 0 -12 -2l-12 -3q-6 0 -8 -9q-2 -30 4 -92l3 -12
q1 -2 1.5 -5t0.5 -5t1 -6.5t1 -6.5q2 -7 -1 -10.5t-10 -2.5l-15 3q-25 21 -29 40q-6 36 -8 88v6t-1 3t-3 1t-6 -1q-18 -3 -52 -11q-16 -5 -27 8l-15 24q-2 4 -4 6q-3 3 -4 7.5t1.5 8t7.5 4.5q4 1 12 2.5t12 2.5q9 1 25.5 3.5t24.5 4.5q3 0 10 1t11 1q10 2 11 11l3 102
q0 16 18 18q23 3 34 -21q6 -14 6 -41zM117 345h1v-24q4 -30 7 -45l3 -6q0 1 0.5 3.5t0.5 3.5q0 21 -2 63q0 5 -0.5 14.5t-1.5 14.5q0 8 -3 8q-5 0 -5 -7v-25zM136 325q0 1 -1 3t-1 3q0 -1 -0.5 -3.5t-0.5 -4.5t1 -3q0 1 2 5z" />
    <glyph glyph-name="comma" unicode="," horiz-adv-x="153" 
d="M47 29q-3 -1 -6 -6q-31 -47 -34 -52q-8 -8 -21 -16q-1 0 -3.5 -0.5t-3.5 -0.5v5q1 3 5 8t5 7q2 4 11 19.5t13 24.5q21 48 25 64q11 34 12 59q1 10 -0.5 29.5t-1.5 25.5q0 7 2 8q5 2 12 0q9 -3 22 -12q22 -14 24 -24q11 -33 2 -62q-2 -7 -34 -68q-9 -13 -20 -22
q-11 -7 -18 -18q-1 0 -3 -2t-3 -2q2 6 7 17.5t8 17.5v1l-2 1q0 -1 1 -1t1 -1zM30 28q0 -1 -2 -3h1q0 1 1 3q4 4 7 6h-3q0 -2 -4 -6z" />
    <glyph glyph-name="hyphen" unicode="-" horiz-adv-x="270" 
d="M80 376q40 2 59 2q16 1 27 -3t26 -4q5 0 37 -8q7 -2 11 -13t-1 -17q-3 -3 -9 -3q-3 0 -9 1t-8 1q-9 0 -9 -3q0 -2 2 -5q2 0 -2 -4q-3 0 -9 -2t-9 -2t-9 3q-3 0 -4 -1q-4 -4 -8.5 -5t-12 -1h-9.5q-14 -2 -23.5 0t-24.5 0q-25 -2 -64 -17q-29 -11 -34 22q-4 21 0 32
q4 12 9 16q1 1 15 4q8 1 26 3.5t26 3.5h7z" />
    <glyph glyph-name="period" unicode="." horiz-adv-x="145" 
d="M65 20q-13 0 -21 5.5t-7 14.5q4 38 7 57q1 6 7 25q5 16 20 6q16 -10 23 -19q3 -3 9.5 -8.5t10.5 -10.5t6 -11q6 -21 -10 -32q-1 -2 -5 -5t-5 -5q-4 -8 -18 -11t-17 -6z" />
    <glyph glyph-name="slash" unicode="/" horiz-adv-x="299" 
d="M-7 85q4 40 31 124q26 80 33 99l18 51q11 33 56 155q21 57 63 169q5 12 16.5 41t17.5 46q4 11 7 11q17 -2 23 -7q9 -5 22 -22q20 -27 6 -62q-4 -8 -16 -45q-4 -10 -18 -44.5t-21 -53.5q-4 -9 -11.5 -27.5t-10.5 -27.5q-1 -4 -1 -12t-1 -12q-5 -13 -27.5 -74.5
t-33.5 -94.5q-3 -7 -21 -59q-4 -9 -16 -36.5t-18 -43.5q-13 -33 -24 -71q-7 -18 -14 -54q-2 -23 -1 -35q2 -17 -9 -21q-6 -2 -14.5 1t-9.5 10q-5 11 -14 11q-4 0 -9 14q-9 21 -3 62v8zM124 331v-16l-4.5 -4.5t-4.5 -6.5q-28 -76 -31 -83v-5v-7l5 5q1 3 3 11q6 15 31 90
q1 5 1 17q4 3 8 11v1q-4 -8 -7 -11q0 -1 -1 -2zM5 66l1 -1q0 -16 -1 -25q0 -2 3 -6l2 4l1 2q1 3 2.5 8.5t2.5 10t1 8.5q3 20 9.5 40.5t16.5 48t14 37.5q5 18 12 38t16 43.5t14 37.5q4 11 8 31q0 10 1 15q5 13 15 37.5t14 36.5q3 10 9 29t10 29q2 6 6.5 18t7.5 18q1 2 0 6.5
t-1 6.5q-1 -2 -4 -5.5t-4 -4.5q-3 -5 -7 -14t-5 -12q-2 -5 -6.5 -17t-6.5 -17t-6.5 -20t-7.5 -23q-2 -7 -19 -50.5t-21 -67.5q0 -4 -2 -6q-6 -15 -15.5 -41t-11.5 -32q-18 -46 -21 -64q-3 -12 -27 -99zM143 373q1 3 3 7q15 41 18 50v6q-4 -2 -4 -4q-14 -36 -20 -54
q0 -2 3 -5zM178 472q3 11 5 14l-2 2q-2 1 -3 2q0 -1 -1.5 -4.5t-1.5 -5.5zM67 158l-1 1v1q-2 -2 -2 -3q1 -1 1 -3zM169 459q-1 -2 -1 -3l-1 -2l1 -1v-2q2 2 2 3zM136 357q3 1 3 3v4q-3 0 -3 -3v-4z" />
    <glyph glyph-name="zero" unicode="0" horiz-adv-x="330" 
d="M237 412q-10 -74 -14 -111q-3 -15 5 -17q14 -3 17 12q11 39 17 50q1 4 4.5 6.5t8 6t6.5 4.5q4 -4 4 -7q-4 -50 -8 -74q-11 -73 -20 -100q-24 -74 -72 -99q-5 -3 -12 -5t-15.5 -4t-12.5 -3q-1 0 -2 0.5t-2 0.5q-9 -4 -17.5 -5t-16 2t-12.5 4.5t-12.5 8.5t-10 9.5
t-10.5 12.5t-9 11q-32 39 -51 121q-16 70 -9 130q5 50 23 148q7 45 46 116q23 46 71 47q8 0 20 8q46 34 112 21q34 -6 45 -40q2 -7 0 -29q0 -1 -2 -4.5t-1 -5.5q2 -12 2 -16.5t-3.5 -15t-4.5 -15.5l-6 -66q-2 -14 -8 -40q-1 -2 -4 -5q-2 4 -2 7q1 12 3.5 37.5t3.5 39.5
q6 89 6 91q0 4 -2 8.5t-5.5 10t-4.5 8.5q-1 1 -3 1.5t-3 0.5q0 -1 -1 -3t0 -3q11 -15 -3 -22v-4t-1 -5q-10 -62 -16 -92q0 -2 -3 -8q-2 6 -2 9q0 12 1 48.5t0 56.5q0 15 -8.5 19.5t-20.5 -4.5q-44 -31 -69 -55q-4 -4 -7 -10t-5.5 -14.5t-4.5 -12.5q-1 -2 -2 -6.5t-2 -6.5
q-31 -48 -50 -139q-12 -58 -13 -88q-1 -22 1.5 -62.5t2.5 -49.5q1 -33 19 -78q9 -24 27 -11q19 13 33 32q33 42 49 120q3 17 11.5 46t10.5 38q1 6 3.5 17t3.5 17q1 2 4 6zM261 262q-2 3 -4 8t-3 7l-11 -11q-8 -16 -11 -25q-4 -9 -5 -9q-3 -1 -8 4h-2q-2 -1 -4.5 -2.5
t-2.5 -2.5q-2 -8 -6.5 -23.5t-7.5 -23.5q0 -2 5 -4q1 -1 4 0h1q9 -19 21 2q10 18 26 56q3 5 8 24zM205 134h7q4 14 6 20l-4 1q-4 -9 -9 -21z" />
    <glyph glyph-name="one" unicode="1" horiz-adv-x="208" 
d="M131 54q-1 0 -11.5 1.5t-14.5 4t-8 9.5q-8 -2 -15.5 5t-8.5 7q-2 1 -7 1.5t-7 2.5t-3 7q0 3 -2 10t-3 11q0 53 -2 77q-4 104 -4 151q-2 49 -7 277q0 17 -2.5 47.5t-2.5 43.5q-1 9 4 17.5t12 8.5q3 0 20 -11q4 -2 10.5 -7.5t12.5 -9.5t11 -5q13 -3 17.5 -10t9.5 -22
q6 -18 6 -82q1 -26 1 -78q3 -68 3 -135q1 -61 5 -185q0 -36 2 -118q1 -18 -16 -18zM90 365v47q0 2 -2 4l-1 3q-4 -4 -4 -7q-2 -1 -2 -7q2 -55 2 -163q0 -4 2 -11.5t2 -11.5l3 -2l2 1l1 1q0 5 1 14t1 13q-4 85 -5 119z" />
    <glyph glyph-name="two" unicode="2" horiz-adv-x="352" 
d="M279 603q0 -59 -29 -131q-25 -62 -67 -155q-25 -58 -44 -89q-3 -5 -11.5 -19.5t-14 -25.5t-8.5 -22q-2 -5 -6.5 -16t-6.5 -17q-3 -8 -1 -10.5t10 -1.5q11 2 33.5 5.5t33.5 4.5q27 5 83 13q22 3 29 -14q6 -15 28 -17q15 -2 20 -7t7 -21q2 -10 -0.5 -13t-14.5 -5
q-8 -1 -22.5 -2.5t-26.5 -3t-23 -3.5q-14 -3 -47.5 -10.5t-51.5 -10.5q-14 -3 -83 -10q-6 0 -12 6q-33 29 -40 47l-6 15q-5 12 -6 13q-12 11 -7 27q3 8 9.5 31t12.5 39t14 30t19 41t15 36q7 15 21 41.5t19 37.5q25 53 55 124q6 14 15.5 39.5t11.5 30.5q0 1 1.5 2.5t1.5 2.5
q0 16 1 24q-16 -7 -19 -10l-56 -53q-24 -23 -48 -17q-34 9 -39 42q-1 12 14 34q49 66 106 95q10 6 42 8q7 2 12 -5q5 -12 30 -18q27 -6 41 -47q1 -3 5 -35zM119 376q-14 -26 -21 -40v-2q1 -3 1 -4q1 0 2 1t2 1q1 2 7 12.5t7.5 17.5t0.5 15q6 1 8 0t0 -8q-30 -66 -54 -127
q-13 -32 -37 -98q-2 -5 -4 -17q2 3 5.5 8t5.5 7q1 1 1 2t0.5 1.5t0.5 1.5q16 34 20 47q1 4 9.5 19.5t10.5 25.5q1 5 6.5 14t6.5 12q43 94 45 100q7 18 13 58q0 1 -0.5 2t-2 2.5l-2.5 2.5q-5 -5 -4 -6q1 -6 -10 -19q-6 -7 -17 -29z" />
    <glyph glyph-name="three" unicode="3" horiz-adv-x="333" 
d="M183 648q-28 1 -78 -19q-29 -11 -53 -18q-29 -8 -43 14q-8 14 -7 24t12 23q26 29 84 42q46 9 89 -1q10 -2 28 -14q3 -2 11.5 -9t13.5 -9q31 -18 41 -74q5 -37 -18 -67q-32 -44 -50 -64q-5 -6 -11.5 -12t-15 -13t-12.5 -11q-9 -6 1 -11q32 -13 35 -15q6 -4 16 -12.5
t13 -11.5q3 -2 11.5 -9.5t13.5 -10.5q30 -20 39 -75q6 -44 -19 -107q-16 -39 -58 -85q-3 -3 -8 -9t-8 -9t-8 -8.5t-9 -8.5t-9.5 -7t-11 -6.5t-11.5 -3.5q-3 -1 -7 -5q-32 -23 -66 -1q-46 30 -54 85v5q0 1 3 13q1 -1 5 -3.5t5 -4.5q4 -4 10 -14q18 -25 46 -12q58 28 90 81
q4 8 8.5 16.5t10 18.5t8.5 16q12 25 18 68q1 15 -3 22t-18 15q-34 17 -76 25q-14 3 -33 -3q-23 -7 -34 -0.5t-23 28.5q-1 2 -1 5.5v5.5v9q-9 15 -6.5 23.5t17.5 16.5q13 9 26 20q56 48 82 73q33 34 43 78q2 9 0 12t-12 4h-17zM194 134l-2 12q0 2 -1.5 6t-2.5 7q-8 -6 -11 -9
q-8 -9 -24.5 -27t-25.5 -27l-3 -6q1 0 3 0.5t3 0.5q2 0 6 0.5t5 0.5q-1 -4 -5 -12q-1 -2 -3.5 -3.5t-3.5 -2.5q-6 -6 -8 -9q2 1 6 1t6 1q1 0 2.5 1t2.5 2t2 1q20 10 45 50q2 3 5 8zM179 528q-3 6 -4 7q-2 0 -6 -2l-20 -20q-34 -32 -50 -48q-1 -1 -4 -10q1 0 4.5 0.5t5.5 1.5
q36 30 54 46q5 4 11.5 13t8.5 12zM139 469q-5 2 -6 1l-12 -9q-2 -3 -4 -9q10 -3 11 -1q1 1 11 18zM100 71l4 2t4 1l-2 3q-1 -1 -4 -2.5t-4 -2.5q1 -1 2 -1zM158 491h1h-1zM146 478v1l-1 -1h1z" />
    <glyph glyph-name="four" unicode="4" horiz-adv-x="352" 
d="M160 39v23.5v28.5v24q0 14 -11 10q-5 -1 -28.5 -3.5t-35.5 -8.5q-11 -7 -30 9q-41 34 -34 87q11 79 31 235q4 34 8.5 72.5t10 85.5t8.5 73q1 6 2 19.5t2 20.5q1 15 14 9q17 -9 29 -32q3 -8 4 -9q21 -18 15 -57q-3 -20 -6.5 -59t-6.5 -58q-1 -10 -5.5 -29t-6.5 -28
q-1 -4 -1 -12.5v-13.5q-2 -18 -6.5 -53t-6.5 -52q-2 -20 -7 -60.5t-7 -60.5q-1 -5 1.5 -8t7.5 -2q38 2 57 5q6 0 8 10q1 7 2 21.5t2 21.5q11 62 12 65t3 5.5t5.5 5.5t4.5 5l12 -12q10 -12 15.5 -39t6.5 -30q3 -6 5 -21q1 -11 3 -12.5t13 1.5q7 1 21 4.5t21 5.5q6 2 9.5 1.5
t5 -3.5t2.5 -10q2 -10 3 -10q2 -1 7 0t21 -8v-2q0 -2 -0.5 -4.5t-1.5 -2.5q-27 -16 -31 -18q-12 -5 -55 -19q-6 -3 -12 -3q-10 1 -13.5 -4t-5.5 -15q-2 -13 -6 -23q-7 -14 -22 -80q-4 -18 -8 -24q-3 -8 -14 -12q-7 0 -12 10q-1 3 -4 24q0 6 2 16h3zM296 200l-7 7
q-32 -6 -47 -8q0 -1 -2 -3q0 -2 -1 -2h3l1 -1q20 9 42 3z" />
    <glyph glyph-name="five" unicode="5" horiz-adv-x="383" 
d="M197 415q-45 -13 -84 -22q-23 -6 -41 -21q-33 -26 -56 13q-4 6 -9.5 18t-7.5 16q-11 17 -2 46q3 10 9 29.5t10 29.5q4 12 12.5 36t12.5 36q3 11 7 33q3 20 23 21q13 2 13 12q1 19 22 24q118 34 177 50q13 4 17 -4q11 -19 4 -27q-13 -19 -27 -24q-12 -5 -32 -20.5
t-22 -16.5q-29 -21 -43 -25q-4 -1 -8.5 -3.5t-10 -6t-8.5 -5.5q-10 -8 -12 -7q-5 0 -7.5 -1t-4 -3t-2 -4t-1 -6t-0.5 -6q-10 -40 -24 -82q-5 -16 -1 -17q2 0 14 1q42 6 64 7q16 0 33.5 -7t25 -13t26.5 -21q38 -30 44 -36q12 -11 22 -27q6 -12 16 -38q16 -41 -8 -116
q-19 -58 -59 -95q-30 -28 -74 -61q-48 -35 -85 -46q-39 -11 -56 12q-19 29 -15 61v9v11v9v5q2 6 8 18q1 -2 3.5 -8t3.5 -9q3 -31 3 -32q1 -3 5.5 -6.5t6.5 -2.5q16 5 28 14q52 38 76 59q72 57 90 138q4 14 6 43q3 29 -19.5 48.5t-62.5 19.5zM283 721v1l1 -1q-11 -2 -12 -4
t-1 -5h14q1 0 7 3zM249 183q-1 0 -3 1q-17 2 -22 -3q-69 -71 -112 -98q-7 -4 -19 -14q-3 -2 -5 -8q7 0 10 1l6 3q33 23 59 40q2 1 10 4q-1 -1 -2.5 -4.5t-3.5 -5.5q-5 -5 -11 -8q-8 -6 -23.5 -17.5t-22.5 -16.5q-2 -1 -4 -7h3.5t4.5 1q82 37 126 110q2 3 9 22zM80 85l-1 1
v-2z" />
    <glyph glyph-name="six" unicode="6" horiz-adv-x="310" 
d="M15 263q2 20 5.5 66t6.5 71q14 100 53 170q38 68 72 106q19 19 35 30q14 11 28 4q2 -2 8 -2q35 3 49 -33q8 -19 -9 -39q-9 -11 -28.5 -26.5t-26.5 -22.5q-5 -4 -11 -15.5t-7 -12.5l-42 -72q-31 -61 -40 -110q-3 -14 -8.5 -41.5t-7.5 -41.5q-1 -4 1 -10q4 3 7 7
q24 33 71 36q20 2 31 -8q4 -3 20.5 -14t22.5 -19q34 -39 34 -83t-34 -80q-1 -1 -17 -15t-20 -24q-10 -23 -49 -45q-21 -12 -43 -1q-56 25 -70 76q-24 76 -31 149zM209 248q-1 4 -3.5 12.5t-3.5 12.5q-5 12 -9.5 13.5t-13.5 -7.5q-21 -19 -40 -45q-7 -9 -18.5 -28.5
t-18.5 -28.5q-16 -18 -9 -39q3 -10 10 -25q18 6 26 10q3 1 7 5q7 8 22 23.5t22 23.5q28 31 29 73zM239 215q-1 3 -2 9t-2 9q0 2 -4 6q0 -4 -1 -6l-1 -15q-1 -14 -2 -21q0 -3 -1 -6t-2.5 -6.5t-2.5 -5.5q0 -1 0.5 -3t0.5 -3l2 1l3 3q2 7 6 20t6 18zM244 242v9l-3 3
q0 -1 -1 -2v-2q0 -1 4 -8zM200 141q0 1 1 2q-3 2 -4 1v-2q0 -1 3 -1zM208 163h1l-1 1v-1z" />
    <glyph glyph-name="seven" unicode="7" horiz-adv-x="340" 
d="M83 94q0 56 24 125q39 99 75 206q7 19 13.5 41.5t14 49.5t11.5 42q2 10 7.5 29t8.5 28q2 7 0.5 10.5t-9.5 0.5q-9 -4 -29 -9.5t-29 -9.5q-30 -13 -73 -9q-28 2 -33 -3.5t-6 -35.5q0 -16 -7 -30q-3 -8 -6 -48q-2 -12 -7 -16q-3 -5 -17 2q-12 8 -14 26q-6 42 4 123
q3 24 3 46q1 8 8.5 13.5t14.5 1.5q35 -19 97 -5q24 5 70.5 18.5t51.5 14.5q6 2 21 2q2 0 5.5 -2.5t3.5 -4.5q-1 -6 0.5 -9t7 -5.5t7.5 -3.5q22 -18 21 -49q-3 -55 -19 -97q-2 -4 -28 -101q-3 -10 -18 -55q-8 -23 -21.5 -66.5t-15.5 -51.5q-5 -17 -16 -51.5t-17 -51.5
q-6 -21 -16.5 -61t-12.5 -48t-19 -20.5t-24 -10.5q-22 9 -25 27q-6 32 -7 48zM164 251v2q-1 -1 -1 -2h1zM160 276q4 10 7 17h-3q-2 -11 -4 -17q-13 -15 -9 -32q-5 -4 -8 -11t-5 -15t-4 -13l2 -2l2 1l3 3q6 24 10 37q1 5 4.5 16t4.5 16zM170 318l1 -1q1 -1 1 -2l3 3l-1 2
q0 2 -1 3q-1 -3 -3 -5z" />
    <glyph glyph-name="eight" unicode="8" horiz-adv-x="267" 
d="M9 123q-1 61 38 149l21 48q1 3 0 10t0 9q2 4 7.5 8t6.5 7q13 25 15 34q1 6 -9 28q-17 26 -40 59q-7 9 -11.5 21.5t-6 18.5t-4.5 24t-3 20q-1 6 -1.5 12.5t-1 15t-0.5 12.5q-5 73 72 125q28 18 60 5q4 -1 14 -7q16 -16 24 -22q18 -12 21 -31q0 -16 5 -25q4 -9 6.5 -20
t3 -18.5t1.5 -20.5t1 -19q6 -80 -27 -160q-10 -28 -27 -65q-6 -11 5 -19q23 -17 33 -50t-1 -55q-5 -10 -14.5 -30.5t-17.5 -36.5t-16 -28q-11 -15 -24.5 -30t-33 -34.5t-27.5 -28.5q-1 -2 -5.5 -1.5t-7.5 2.5q-15 14 -30 30q-22 23 -26 63zM161 241l1 -1l-1 1l1 1zM126 231
v-1v1q7 2 10.5 7.5t5.5 13t4 10.5q0 2 -2 4q-4 0 -4 -2q-2 -5 -7 -16t-7 -17zM172 502l1 -1v1q-12 -46 -18 -68l3 -10q5 5 5 6q6 36 9 72zM35 162l-1 -1v1l3.5 3.5t3.5 4.5t5.5 17t8.5 23q8 20 23.5 56t20.5 49v13q-6 -6 -8 -9q-29 -65 -35 -82zM159 627q-1 3 -2.5 12.5
t-2.5 14.5q-6 17 -19 5q-27 -27 -32 -35q-32 -52 -23 -102q6 -43 30 -77q9 -10 12 1q4 11 10 29.5t8 22.5q5 15 8.5 33t5 30.5t3 34.5t2.5 31zM173 231q-3 3 -4 3t-2.5 -2t-2.5 -2q-28 -46 -41 -69q-2 -3 -4 -11q11 5 11 6q28 46 41 68q2 4 2 7zM110 364q0 -2 -0.5 -4.5
t-0.5 -3.5q0 -2 3 -2q2 2 2 4t-4 6zM90 249h2q0 1 -0.5 1t-0.5 1l-1 -1v-1z" />
    <glyph glyph-name="nine" unicode="9" horiz-adv-x="330" 
d="M300 659q3 -79 -20 -170q-3 -13 -10.5 -47t-12.5 -52q-3 -17 -14 -65q-6 -30 -9 -44q-3 -18 -10 -55.5t-10 -57.5q-3 -18 -8.5 -55t-8.5 -56q-2 -18 -8 -56q-3 -15 -21 -8q-11 3 -20.5 12.5t-12 14t-12.5 20.5q-13 22 -3 65q13 60 46 226q24 106 32 143l12 57v12
q-2 3 -7 2q-7 -6 -10 -12q-32 -53 -76 -76q-3 -1 -11 -7t-11 -6t-14 1q-1 1 -7.5 3.5t-9.5 4.5q-61 41 -58 112q0 70 61 142q7 8 47 41q5 4 16 2q32 -6 49 -12q17 -7 34 -18q13 -12 13 5q2 21 16 23q20 4 24 -17q0 -3 2.5 -6t5.5 -3q24 -3 26 -28v-35zM166 549l-4 -2l1 1h3
v1zM156 122l-3 -3q-1 -2 -1 -5l4 4v5l2 5q20 84 26 113q1 1 0 3q-1 1 -1 1.5v1.5q-4 -4 -5 -6q-8 -35 -24 -107q-1 -2 0.5 -6t1.5 -6zM67 535q0 -16 13 -9q29 15 35 21q13 16 38.5 49t38.5 49q13 17 0 35t-28 4q-5 -5 -25.5 -26.5t-30.5 -34.5q-30 -36 -41 -88zM176 564
q7 4 9 7q13 19 39 59q8 10 -6 17q-9 4 -15 -7q-4 -8 -12 -22.5t-11 -20.5q-5 -12 -8 -22q0 -1 0.5 -3t2 -4t1.5 -4zM229 475q2 4 2 8l9 54q1 1 0 3.5t-1 3.5q-5 -2 -6 -5q-6 -40 -8 -59q3 -4 4 -5zM211 426l2.5 -5t1.5 -4q5 7 5 9q1 6 1 20h-3q-1 -4 -3.5 -11t-3.5 -9z
M201 324q-1 6 -3 9q0 -2 -2 -5.5t-2 -5.5t2 -4q4 4 5 6zM227 464l-3 3q0 -1 -2 -2.5t-2 -2.5l3 -2q1 0 2 2zM192 297l3 3l-1 1v2l-1 -1q-2 -1 -2 -2q-1 -1 1 -3z" />
    <glyph glyph-name="colon" unicode=":" horiz-adv-x="196" 
d="M85 220q-13 0 -21 5.5t-7 14.5t-4.5 28t-3.5 29q1 4 10.5 9.5t10.5 9.5q5 16 20 6q4 -2 12.5 -5.5t11.5 -7.5q3 -3 9.5 -8.5t10.5 -10.5t6 -11q6 -21 -10 -32q-1 -2 -5 -5t-5 -5q-4 -8 -18 -11t-17 -6zM86 445q-13 0 -23.5 13t-9.5 23t5.5 18.5t5.5 17.5q5 16 14 22.5
t18 3t18 -13.5q3 -3 9.5 -8.5t10.5 -10.5t6 -11q6 -21 -10 -32q-1 -2 -5 -5t-5 -5q-4 -8 -17.5 -8.5t-16.5 -3.5z" />
    <glyph glyph-name="semicolon" unicode=";" horiz-adv-x="153" 
d="M49 237q-11 0 -20.5 11.5t-8.5 20.5q1 8 5 16t5 16q6 21 19.5 23t24.5 -13q3 -3 8.5 -8t9 -9t5.5 -9q4 -20 -9 -29l-4 -4q-4 -3 -5 -5q-4 -7 -15.5 -7t-14.5 -3zM47 29q-3 -1 -6 -6q-31 -47 -34 -52q-8 -8 -21 -16q-1 0 -3.5 -0.5t-3.5 -0.5v5q1 3 5 8t5 7q2 4 11 19.5
t13 24.5q21 48 25 64q11 34 12 59q1 10 -0.5 29.5t-1.5 25.5q0 7 2 8q5 2 12 0q9 -3 22 -12q22 -14 24 -24q11 -33 2 -62q-2 -7 -34 -68q-9 -13 -20 -22q-11 -7 -18 -18q-1 0 -3 -2t-3 -2q2 6 7 17.5t8 17.5v1l-2 1q0 -1 1 -1t1 -1zM30 28q0 -1 -2 -3h1q0 1 1 3q4 4 7 6h-3
q0 -2 -4 -6z" />
    <glyph glyph-name="less" unicode="&#x3c;" horiz-adv-x="282" 
d="M215 588q3 -12 2 -13q-7 -57 -59 -96q-6 -6 -16.5 -15t-18 -16.5l-13.5 -13.5q-15 -9 -2 -21q7 -9 16 -19t20 -22t17 -18q5 -6 17.5 -20t21.5 -24.5t17 -21.5q6 -7 14.5 -13.5t10.5 -8.5q19 -4 13 -35q-12 -44 -50 -56q-5 -3 -15 -3q-14 -4 -19 9q-8 16 -42 64
q-6 8 -22.5 29.5t-24.5 32.5q-9 9 -19 19.5t-22.5 22.5t-18.5 18q-16 19 -8 40q9 22 16 35t19.5 27t28.5 21q31 13 72 63q20 25 25 27q5 3 11.5 4.5t15 2t13.5 1.5z" />
    <glyph glyph-name="equal" unicode="=" horiz-adv-x="328" 
d="M62 329v6q2 13 13 16h3q2 -3 5 -4t7 0t5 1q76 8 88 8q23 1 69 -1q18 0 28 1q6 0 6 -5q2 -4 0 -8q-13 -13 -28 -17q-16 -4 -43 -13q-11 -4 -48 -11q-10 -2 -30.5 -5.5t-31.5 -5.5q-6 -1 -16 -1q-13 -1 -21 14t-6 25zM221 338h-33h-1q-1 -1 -2 -1q1 0 3 -1q25 0 32 -2
q12 -2 36 0q2 2 4 3q-1 0 -2 1h-2h-35zM81 371q-2 -1 -12 4q-14 6 -18 26q-1 7 3 21q2 6 8 6q15 4 41.5 9t32.5 6q39 6 74 2q3 0 5.5 -0.5t6 -1.5t5.5 -1q10 -3 12 -13t-9 -15q-2 -1 -14.5 -6t-19.5 -7q-9 -2 -26.5 -8.5t-26.5 -8.5t-27 -6.5t-27 -6.5h-8z" />
    <glyph glyph-name="greater" unicode="&#x3e;" horiz-adv-x="282" 
d="M52 588q5 -1 13.5 -1.5t15 -2t11.5 -4.5q5 -2 25 -27q41 -50 72 -63q23 -10 36.5 -30t27.5 -53q8 -21 -8 -40l-60 -60q-8 -11 -24.5 -32.5t-22.5 -29.5q-34 -48 -42 -64q-5 -13 -19 -9q-10 0 -15 3q-38 12 -50 56q-6 31 13 35q2 2 10.5 8.5t14.5 13.5q8 11 17 21.5
t21.5 24.5t17.5 20q6 6 17 18t20 22t16 19q13 12 -2 21l-13.5 13.5t-18 16.5t-16.5 15q-52 39 -59 96q-1 2 -1 3.5t1.5 4.5t1.5 5z" />
    <glyph glyph-name="question" unicode="?" horiz-adv-x="421" 
d="M380 694q4 -57 -2 -88q-5 -30 -33 -96q-3 -8 -57 -112q-27 -54 -30 -59q-7 -13 -22 -39t-22 -39q-2 -4 -3 -12.5t-2 -12.5t-3.5 -16.5t-4 -18.5t-5.5 -15t-9 -15q-13 -13 -9 -42q0 -2 1 -6t1.5 -6.5t-1 -5.5t-5.5 -5q-4 0 -6 -0.5t-5 2t-4 3.5t-3.5 4.5t-3.5 4.5l-7 7
t-8 9q-14 17 -15 21q-6 19 -15 66h4q-1 6 -1 11.5t0.5 10t2.5 10t3.5 9t5 9.5t5.5 8.5t6.5 9t6.5 9.5l42 66q22 36 32 55q15 26 22 46q3 10 16 34.5t16 39.5q1 11 9.5 29.5t9.5 22.5q2 6 4 30q0 22 9 28l3 6q-1 13 0 22.5t-0.5 21.5t-6.5 22q-13 28 -49 13q-28 -11 -41 -21
q-59 -50 -79 -89q-15 -23 -38 -23q-3 0 -10 -2.5t-10.5 -2.5t-10.5 2q-16 7 -12 19q9 53 47 94q28 35 69 62q45 31 93 18q5 -1 22.5 -6t27.5 -8q28 -6 42 -31q1 -2 9.5 -12.5t11.5 -16.5q10 -14 12 -25zM294 461q9 21 11 35q2 10 5.5 29t5.5 29q-2 -2 -6.5 -4t-5.5 -3
q-3 -3 -7.5 -10t-6.5 -9q-12 -13 -17 -24q-5 -10 -13 -28q-87 -159 -89 -163q-28 -47 -34 -82q-1 -4 -3 -10.5t-3 -9.5q0 -1 2 -7q2 3 5 6v5q14 26 20 38l5 1q3 -13 12 -2l1 1q6 6 28 36q1 2 14 24.5t26 30.5q1 0 1 4q-4 2 -4.5 4.5t1 3.5t3.5 3.5t3 4.5q0 1 13.5 13.5
t7.5 25.5q-1 2 2 6.5t3 6.5q2 4 6 13t6 13q3 5 8 19zM315 557q1 4 1 13h-3v-14l1 -1l2 -1v1q-1 1 -1 2zM175 -11q16 -13 16 -20q0 -4 -2 -7q2 -17 -6 -23.5t-25 -1.5q-8 2 -9 2q-39 4 -47 42q-1 8 -0.5 11.5t3.5 12t4 12.5q0 4 6 4q4 -1 16.5 -2.5t20 -5.5t11.5 -13
q1 -3 12 -11z" />
    <glyph glyph-name="at" unicode="@" horiz-adv-x="550" 
d="M378 150q-1 -3 -5.5 -12t-6.5 -14q-1 -2 -2 -5t-2 -5q6 2 10 4q1 1 5 4.5t6 5.5q4 2 6 2q0 -1 1 -3t0 -3q-10 -24 -12 -28q-20 -34 -32 -46t-42 -32q-37 -20 -88 -14q-48 6 -72 10q-14 1 -31 18l-18 15l-12 15q-30 47 -45 116q-2 6 -6 20q-9 37 -7 53q1 7 1 23t1 24
q4 51 10 75q6 45 22 104q11 41 21 56q4 4 9 25q14 63 63 129q8 8 18 24q0 1 1 2.5t1 2.5q-4 0 -5 -1q-12 -6 -18 -11q-4 -3 -11 -8.5t-10 -8.5v-1q2 2 10.5 14.5t11.5 16t11 13.5t13.5 14.5t13.5 11t16 10.5q6 3 14 3q27 0 36 6q14 8 46 -1q82 -26 92 -30q29 -13 46 -40
q6 -10 27 -27q18 -16 23 -44q9 -51 12 -101q1 -13 -6 -45q-2 -10 -8.5 -34t-8.5 -36q-2 -14 -7 -76q-4 -28 -21 -57q-14 -28 -21 -40q-10 -14 -16 -19q-12 -7 -17 -22q-2 -7 -9.5 -18.5t-8.5 -13.5q-5 -5 -9 -10q0 -1 -0.5 -4.5t-0.5 -5.5q1 -1 5.5 -1t5.5 -1v1zM466 516
q-1 7 -3 23q0 1 -1 2.5t-1 2.5q-4 -2 -3 -4q-10 -30 -24 -90q-1 -2 1 -6.5t2 -6.5q7 5 8 7t6 26q6 16 16 46h-1zM257 326q-3 -8 -9 -16l-24 -36q-16 -30 -41 -25q-30 7 -49 41q-14 26 -10 65q5 53 14 87q7 25 26 55q6 9 35 26q2 1 5.5 2t5.5 2q6 1 13 -1t11 -4.5l12 -7.5
t11 -7q10 -6 5 -18q0 -4 -1 -12.5t-2 -12.5q-12 -2 -16 10q-4 10 -19 17q-12 6 -15.5 3.5t-0.5 -14.5q1 -16 -5 -27q-1 -2 -9 -19t-11 -26q-14 -41 -12 -88q0 -7 6 -25q13 13 16 15t11 14t17 13q1 2 1 3q-2 6 -2.5 7t2 5t2.5 5q24 38 35 85q0 3 -0.5 10.5t0.5 11.5q1 1 3 2
t3 2q10 46 15 70q2 9 7.5 14.5t11.5 3.5q12 -2 19 -3l3 -3q-4 -6 4 -9q5 0 5 -7q1 -1 1.5 -4.5t2.5 -5.5q10 -12 10 -39q0 -5 1 -18t0 -20q-3 -66 4 -151q2 -12 4 -20l12 12l8 8q29 42 35 74q6 40 24 120q13 54 6 91q-3 13 -3 24q-2 57 -31 84q-3 2 -5 7q-15 24 -53 35
q-6 1 -14 3q-23 6 -35 0q-4 -2 -10 -9t-9 -9q-42 -29 -55 -45q-39 -45 -54 -89q-1 -4 -3 -14t-4 -14q-3 -8 -29 -73q-17 -49 -18 -73q0 -36 -6 -50q-9 -28 -7 -70q0 -5 1 -31.5t0 -31.5q-2 -23 8 -54q11 -25 16 -41q9 -30 20 -55q6 -14 19 -15q18 -4 27 -3q58 7 96 35
q24 20 83 87q3 3 5 6.5t4.5 8.5t4.5 8q4 8 -4 9q-24 2 -31 6q-2 1 -14.5 6t-18.5 10.5t-9 15.5q-4 7 -6 5q-11 -2 -18 13q-8 18 -9 37l-3 36q0 2 -3 4q-3 0 -3 -2q-1 -1 -10 -16h-2l-2 -1q1 0 2 0.5t2 0.5zM460 625q-2 1 -4 4t-3 5q-4 -8 -4 -9t2.5 -4t2.5 -4q2 1 3.5 4
t2.5 4zM459 590q0 3 0.5 6t0.5 5q-1 1 -3 4q-3 -6 -3 -7v-1q1 -1 2.5 -3t2.5 -4zM45 231l2 -2q0 1 1 1l-2 1h-1z" />
    <glyph glyph-name="A" unicode="A" 
d="M-6 34q4 54 7 81q1 14 3 42.5t3 43.5l6 81q1 12 1.5 37t1.5 37q4 86 8 128q9 87 21 170q2 9 20 70q1 4 5 10q6 8 11 2q5 -2 9 0q10 8 21 6q2 0 8 2.5t9 -0.5q2 -1 6.5 -1.5t6.5 -1.5q41 -21 69 -69q5 -11 10 -19q9 -15 18 -57q6 -35 13 -92q6 -52 8 -82q1 -17 1.5 -50.5
t1.5 -50.5l3 -48q3 -42 3 -43l-3 -69q0 -41 -1 -61l-3 -51q0 -4 -2 -10q-3 -5 -9 -2q-3 1 -9 2t-8 2q-8 1 -16 6q-19 10 -30 18q-8 6 -6 15q0 9 2 26.5t2 22.5q6 64 8 96v47q0 10 -7 5t-15.5 -8.5t-21 -6t-16.5 -3.5q-15 -4 -38 -2q-9 1 -10 -8q-2 -52 -4 -79q-6 -56 -8 -85
q0 -8 0.5 -16.5t1.5 -19.5t1 -17q0 -21 -18 -27q-15 -4 -20 -11q-10 -15 -30 -2q-16 9 -14 31q0 7 1 11h-1zM211 368l2 4q-1 -1 -1 -2.5t-1 -2.5q0 -1 -0.5 -5t-0.5 -5h2q0 1 -0.5 4.5t-0.5 5.5v1zM75 707l1 1v3v-4q-6 -12 -8 -18q-1 -2 -2 -10t-3 -12q-13 -44 -21 -135
q-1 -11 -2.5 -29.5t-2.5 -33.5t-1 -29q-2 -21 -2 -64v-21h1q0 3 -0.5 10t-0.5 11q5 10 5 12q1 5 1 15.5t1 15.5q2 37 8 101q1 5 2 14.5t1 14.5q1 9 2.5 26t2.5 26q0 1 2 18t4 25q12 50 12 63zM87 325v-20q-1 -6 1.5 -8t9.5 -1t20.5 3.5t19.5 4.5q23 6 46 15q6 2 6 10
q0 2 -3 95q0 17 -3 25q-2 8 -2.5 23t-2.5 22q-3 11 -3.5 31t-1.5 28q-4 25 -16 73q-8 33 -26 56q-5 9 -10 -1q-8 -18 -12 -58q-12 -100 -16 -150q-1 -13 -4 -82q0 -7 -1 -21t-1.5 -25t-0.5 -20zM224 375v-8.5t-2 -11.5t-7 -7q-3 -1 -3 -13q6 -2 9 -2q6 1 8.5 -1.5t1.5 -7.5
q0 -1 -1 -6t-2.5 -5t-8.5 1l-5 -5q-2 -14 -2 -21v-8.5t3.5 -5t9.5 -0.5l5 -5q-1 0 -3 -2q-1 -1 -2 -1q-10 2 -10 -8q0 -2 -0.5 -5.5t-0.5 -4.5q0 -5 -1.5 -15.5t-1 -18.5t4.5 -15q1 -1 -1 -6l-2 -3q-2 -3 -2 -4v-59q0 -3 4 -7q6 -8 6 -10q1 -2 3 -7.5t4 -7.5q1 -1 2 -2.5
t3 -3t3 -2.5q4 6 4 9q0 8 1 23t1 22q7 61 4 110v30v30q-4 70 -7 105q-2 26 -4 39q0 1 -3 3q-2 1 -3 2q-5 -5 -5 -6v-79zM41 343q-4 2 -6 2t-2 -4q0 -1 2 -5q1 2 6 7zM242 54l1 1h-1v-1z" />
    <glyph glyph-name="B" unicode="B" horiz-adv-x="357" 
d="M103 199q4 -30 -2 -61q-1 -4 1 -13t2 -12q0 -6 -0.5 -18t-0.5 -18q0 -7 0.5 -22.5t0.5 -23.5q-3 -19 -3 -20q-11 -31 -43 -15q-10 4 -19 4q-22 2 -20 24q2 31 4 91q1 28 1 84.5t1 84.5q0 12 -7 14q-2 0 -7 6q-13 12 -12.5 15t16.5 10q10 4 11 14q0 23 2 71q0 8 0.5 23.5
t0.5 23.5q2 46 1 68q0 15 -0.5 46t-0.5 47q0 6 2 16v4t-1.5 2t-4.5 1q-11 -2 -14 7q-6 13 3 20q29 24 33 26q34 18 58 25q12 5 52 9q56 5 97 -16q40 -22 55 -60q2 -6 0 -20q-2 -9 -5.5 -27.5t-4.5 -27.5q-1 -1 -2.5 -3.5t-2.5 -3.5q-4 -8 -5 -12q-6 -18 -8 -26
q-3 -12 -9 -25t-9.5 -19t-14 -22.5t-12.5 -19.5q-5 -8 -57 -68l-30 -33q-7 -9 7 -9q9 0 27 0.5t27 0.5h19.5t22.5 -0.5t19 -2.5q43 -11 48 -47q6 -34 0 -54q-2 -7 -3.5 -23t-4.5 -24q-7 -25 -27 -73q-7 -17 -23 -51q-2 -3 -7 -8t-6 -7q-5 -8 -6 -10q-8 -21 -33 -29
q-37 -10 -73 12q-3 1 -7 7q-1 2 -1 8q1 0 3 -0.5t4 -0.5l15 3q9 6 17 17q42 64 57 106q6 16 16 48l1 6q1 5 2 7q5 14 3.5 38.5t-8.5 37.5q-6 10 -18 10q-32 -1 -96 -1q-11 -1 -13.5 -3.5t-2.5 -12.5q0 -14 -1 -41.5t-2 -41.5q0 -6 -3 -12h1zM89 155q0 1 1 2l-1 1v-3
q-1 -2 -3 -5.5t-3 -5.5l2 -2q1 2 2.5 5.5t1.5 4.5v3zM77 59l1 -1l-1 1l3 -6q0 -1 2 -2.5t2 -2.5q0 1 2 3t2 3q1 3 1 9q0 7 0.5 21.5t0.5 21.5q0 6 -3 10h-7v-10q0 -8 -1 -23.5t-2 -23.5zM109 445h2q0 -3 -0.5 -9t-0.5 -9q0 -2 1 -5t1 -4q7 5 8 6q26 32 38 48q33 44 50 89
q19 51 13 81q-5 24 -14 37q-12 17 -35 14q-27 -2 -62 -20q-12 -6 -4 -19q9 -18 9 -23q2 -19 0 -58q-1 -21 -3 -63.5t-3 -64.5zM47 175q1 -3 2.5 -7t1.5 -6q1 2 2.5 4.5t2.5 3.5q0 1 1 1q5 4 1 7q-4 4 -7 6q-1 -2 -2 -5t-2 -4zM53 253h1v-7q4 4 5 7v22q0 1 -0.5 2t-0.5 2
q-4 -2 -5 -3v-23zM90 29q-5 7 -5 8q0 -1 -2 -3l-1 -2q0 -2 2 -6q1 -2 1 -3q1 1 2.5 3t2.5 3zM59 226l-4 2q-1 -2 -6 -11q1 -2 2 -3zM88 121l2 6l-4 4l-2 -4zM48 123l3 4v6l-1 -1q-2 0 -2 -1v-8z" />
    <glyph glyph-name="C" unicode="C" horiz-adv-x="352" 
d="M3 148v69q0 7 0.5 19t0.5 18q0 5 -2 19t-2 22q0 15 2 47q9 116 14 147q11 90 43 162q33 73 106 89q36 7 59 -1q3 -1 8 -1t7 -1q24 -10 28 -32q7 -39 3 -76q-4 -30 -4 -45q-1 -10 -9 -14q-21 -15 -46 -31q-2 -2 -8 -4q-2 6 -2 9v8q-6 14 -8 30t-2 37t-1 31v7q-1 3 -6 11
q-7 -4 -9 -8q-26 -35 -50 -110q-16 -52 -23 -116q-1 -4 -2.5 -11t-1.5 -9q-1 -5 -4.5 -30.5t-4.5 -39.5v-48q-1 -14 -1 -43t-1 -43q0 -3 -3 -6q-1 -2 -4 -5t-4 -5v-9l5 5l3 3q0 -1 1.5 -2.5t1.5 -2.5q0 -7 0.5 -21t0.5 -22v-1l-1 -2q7 -36 13 -58l3 -9q6 -13 17 -4
q23 21 28 27q71 79 100 130q48 84 66 129q6 14 10 20q1 2 4 5l4 2q5 -8 5 -9q-1 -8 -3.5 -25t-4 -27t-6 -23.5t-10.5 -24.5q-5 -9 -14 -25.5t-12 -21.5q-4 -5 0 -18q4 -29 9 -37q2 -5 -2 -9q-5 -6 -13 -18t-13 -18q-15 -22 -19 -27q-18 -25 -37 -46q-3 -4 -17 -11
q-5 -2 -17 -9t-21.5 -10t-19.5 -2q-16 1 -48 9q-4 1 -17 5q-39 10 -53 41q-14 34 -16 70zM80 168q-1 2 -1 5h-2q1 -1 2 -2.5t1 -2.5l-5 -5q1 0 1 -0.5t1 -0.5zM43 278h1q0 16 -1 23q0 2 -3 8q-6 -5 -6 -7q-1 -2 1 -8q0 -3 0.5 -9t0.5 -9q-1 -15 -3 -47q0 -1 -0.5 -5.5
t-1.5 -6.5q0 -1 -3 -4.5t-3.5 -4.5t1 -3.5t6.5 -4.5v-4q0 -26 1 -39q0 -44 13 -82q0 -2 6 -7q0 2 1 4t1 4q-1 7 -3.5 23.5t-3.5 25.5q-1 3 0 8.5t1 7.5q1 -3 2.5 -8.5t2.5 -7.5l12 -48q1 -1 6 -7v8q-11 63 -11 70q0 36 -1 55v1q0 9 -6 7q-7 -3 -8.5 0t-1.5 9v58zM20 313h1
v-4q1 -1 1 -3t1 -3q1 1 3 5q1 1 1 4q1 5 1 15l-3 1q-1 -2 -2.5 -7t-2.5 -8zM49 385h-1v5l-3 6q-1 -1 -2 -2.5t-1 -2.5q-1 -1 -1 -4q1 -3 2 -7.5t2 -6.5q1 2 2 6t2 6zM43 317l2 6l-2 4l-3 -3q0 -2 3 -7zM51 237l2 2q0 1 -1 3l-2 -1q0 -2 1 -4zM42 352q0 2 1 3t1 2t-2 3
q-2 -2 -2 -4zM25 180v1h-1z" />
    <glyph glyph-name="D" unicode="D" horiz-adv-x="305" 
d="M40 726q61 6 107 -24q40 -26 52 -51q4 -8 19 -37.5t21 -45.5q26 -67 30 -95q1 -7 5.5 -22t5.5 -23q3 -15 3 -46q0 -1 -0.5 -3t-1.5 -4.5t-1 -3.5t-1 -3q-3 -4 -2 -6q2 -9 -1.5 -25.5t-3.5 -19.5q-1 -19 -16 -67q-3 -9 -9.5 -27t-9.5 -27q-1 -2 -2.5 -8t-2.5 -8
q-2 -3 -6 -8.5t-5 -7.5q-1 -1 -4 -7q-1 -1 -2 -4q-1 -2 -2 -2q-6 -1 -3 -7q1 -4 -0.5 -4.5t-4.5 1.5h-6q0 -4 1 -5q9 -14 -3 -26q-10 -12 -15 -19q-8 -10 -23.5 -30t-23.5 -30q-3 -5 -6 -6q-1 -1 -8 -3q0 1 0.5 4.5t1.5 4.5q3 5 11 14t10 12q1 2 9 20q1 1 -0.5 2.5t-2.5 1.5
t-4 -1t-4 -1.5t-2.5 -2.5t-1.5 -6q1 -10 -19.5 -35t-30.5 -27q-29 -5 -48 4q-11 5 -3 13q9 9 -5 13q-13 4 -16.5 9t-2.5 19q3 41 7 130l9 201q1 22 4 68t4 69l3 144q0 12 -10 13l-30 6q-4 1 -5.5 1t-4 1.5t-3.5 3.5t-1 6q2 15 17 15q6 0 18.5 1t18.5 1zM54 250q6 6 8 9
q-1 1 -1 2q-1 -1 -3 -5t-3 -5v-1q-3 9 -3 12t2.5 11.5t3.5 11.5v7q-6 2 -6 13q0 4 1 11.5t1 11.5q0 1 -1.5 2.5t-1.5 2.5q-2 -2 -2 -5q-4 -52 -5 -79q0 -9 5 -9q7 0 5 10zM53 99l-1 -1q-2 0 -2 -1l1 -1q0 1 2 3q2 20 4 31q0 5 -2 6q-14 10 -3 26q3 4 4.5 12t2.5 10q7 9 -5 9
q-13 0 -2 7q13 7 9 26q0 6 -3 6q-12 2 -13 -6q0 -1 -0.5 -2.5t-0.5 -2.5q-2 -68 -4 -102q-1 -18 13 -20zM152 116v4q10 3 4 15q0 3 1 5q2 6 6.5 17t6.5 16q0 2 0.5 5.5t1.5 5.5q0 3 -2 5l-1 -1q-1 0 -2 -0.5t-1 -1.5q-14 -26 -21 -40q-2 -3 -10 -19t-13 -23q-21 -30 -24 -58
v-8q4 4 5 4q17 2 14 18q0 1 8 9q-4 5 1 12l6 7q2 16 20 28q-2 -4 -2 -5v-7q2 0 3 1q0 1 0.5 3t0.5 3t-2 5zM199 429q-2 53 -35 132q-4 9 -13 25t-12 22q-2 2 -4 8q-4 -6 -4 -9q-10 -80 -11 -96q-3 -47 -7 -148q-1 -9 -2 -27t-2 -27q-1 -26 -5 -73v-28q-1 -21 -1 -63v-15
q0 -1 0.5 -3.5t0.5 -4.5l6 6l1 1q1 1 1 2q48 81 70 166q20 72 17 132zM183 149q3 -7 5 -9l4 4q11 19 12 22q9 18 14 33q7 20 31 91q0 1 -0.5 3.5t-0.5 3.5q0 -1 -2 -2.5t-2 -2.5q-1 -4 -5 -17q0 -2 -4 -4l-1 2v3t-1 3.5t-1 3.5q-6 -3 -7 -5q-10 -23 -12 -29q-3 -9 -10 -47
q-2 -8 -8 -24q-8 -20 -12 -29zM82 152q0 8 -1 11l-3 3v-1q-1 -1 -1 -2q-2 -22 -2 -35q0 -1 2 -3l1 1q2 1 2 2q2 16 2 24zM65 15q5 -3 6 -2q8 11 10 14l-5 3q-3 -3 -11 -15zM84 203q0 3 -0.5 7t-0.5 5q-4 -8 -4 -12q0 -1 2 -8q0 1 1.5 4t1.5 4zM84 185q-1 1 -3 2.5t-3 2.5
q-2 -2 -3 -2l6 -6q0 2 3 3zM74 85q1 -2 1 -5q1 2 1 6q2 2 -1 4q0 -3 -1 -5zM75 112q1 0 1 -0.5t1 -0.5v2v1zM176 202l1 1l-1 1v-1l-1 -1h1z" />
    <glyph glyph-name="E" unicode="E" horiz-adv-x="286" 
d="M11 168q1 9 2.5 49t3.5 63q2 56 4 84l9 153q2 39 10 115l3 30q8 31 41 23q6 -2 10 0q8 10 44 14q30 5 73 7q5 0 35 -2q4 -1 6.5 -7.5t0.5 -10.5q-6 -8 -10 -9q-6 -2 -27 -10t-35 -11.5t-29 -4.5q-10 0 -14 1q-9 2 -11 0.5t1 -10.5q7 -16 2 -45q-3 -26 -7.5 -73t-6.5 -62
q-1 -8 2 -10t11 1q36 12 54 20q15 7 25 -6q6 -8 2 -16q-2 -3 -6.5 -9.5t-7 -10.5t-7 -9t-9 -8t-10.5 -5q-24 -8 -48 -8q-10 0 -10 -7v-23.5v-28.5v-24q0 -8 -1 -22.5t-1.5 -26t-0.5 -22.5q0 -9 -1.5 -37.5t-0.5 -44.5q7 -54 25 -92q6 -13 22 -14q37 0 84 20q6 2 15 -0.5
t12 -8.5q4 -5 -1 -17q-13 -24 -46 -31q-11 -3 -33 -5q-45 -6 -88 14q-64 29 -77 92q-2 7 -4.5 21.5t-4.5 23.5zM61 150q2 -4 3 -7q0 1 1.5 5t1.5 6q0 10 0.5 30.5t0.5 31.5q0 12 1 19q0 2 -3 5q0 -2 -2 -4q-2 -6 -1 -9q-2 -50 -2 -77zM72 359l-2 6q-2 -4 -2 -7
q-2 -21 -4 -67l3 -9q1 1 2 4t1 4q2 44 2 69zM73 405l1 2q0 1 -0.5 1t-0.5 1l-2 -2zM68 267l2 1q1 1 -1 3q0 -1 -0.5 -1t-0.5 -1v-2z" />
    <glyph glyph-name="F" unicode="F" horiz-adv-x="278" 
d="M-2 148q1 28 4 83.5t4 83.5q1 17 2 52t2 53q2 73 7 130q2 28 8 80t8 69q2 12 4 18q1 10 10 15.5t19 3.5q27 -4 33 -16q1 -2 8 -2q21 6 93 8q22 1 54 -4q8 -1 16 -11q4 -7 4 -17q-2 -8 -12 -8q-25 -5 -131 -19q-14 -2 -15 -15q-2 -16 -4.5 -34.5t-5.5 -41.5t-5 -35
q-1 -11 -3.5 -34t-3.5 -35q-2 -18 2.5 -21.5t20.5 0.5q11 3 30 10t24 9q14 5 42 13q5 2 12 -1.5t8 -8.5q2 -10 -5 -17q-53 -45 -80 -54q-16 -6 -46 -20q-7 -3 -9 -12q-1 -18 -1 -54v-54q0 -36 -2 -53q0 -9 -0.5 -26.5t-0.5 -26.5q0 -5 1 -7q6 -13 8 -39t4 -35q3 -15 -9 -23
q-2 -1 -5 -3.5t-5.5 -4.5t-4.5 -4q-6 -6 -6 -12q0 -12 -12 -15q-18 -2 -22 8q-32 64 -38 77q-1 4 -1 14q0 24 1 36h-2zM45 214v-12q-3 -64 -3 -65q0 -4 0.5 -11.5t0.5 -11.5l1 -2q2 -1 2 -2q1 2 1 5q2 32 4 96q0 5 -0.5 14t-0.5 13q0 1 -2 5q-3 -3 -3 -4v-25zM47 308
q0 -10 1 -15l3 -3q3 0 3 3q0 9 2 29q0 4 -3 4q-4 0 -4 -3q-2 -10 -2 -15zM57 353v4q0 1 -1 3t-1 4q-1 -1 -1 -3.5t-1 -3.5q-1 -3 -1 -8l3 -15q2 10 2 14v5zM48 263q1 -3 3 -7q2 4 2 5q0 2 -2 6l-2 -2t-1 -2zM58 444h1l-1 2q-1 0 -1 -1q1 0 1 -1z" />
    <glyph glyph-name="G" unicode="G" horiz-adv-x="358" 
d="M276 103l-9 -18q-30 -38 -36 -44q-1 -1 -14 -9q-16 -12 -37 -20q-19 -8 -29 -5q-15 2 -79 17q-32 11 -46 54q-9 28 -13 108q-1 10 -1 34t-2 37q-7 65 5 211q6 79 31 161q23 61 59 84q60 40 116 26q26 -6 32 -12q9 -7 10 -15q14 -39 9 -85q-1 -7 -2 -22t-2 -23
q-3 -11 -7 -14q-17 -14 -46 -33l-9 -3v4l-1 3q-1 1 -1 4v5q-7 15 -9.5 31.5t-3 37.5t-2.5 32v3q-1 6 -7 14q-8 -6 -11 -10q-34 -54 -49 -130q-5 -22 -17 -105q-8 -53 -10 -84q0 -9 1 -29.5t0 -30.5q0 -8 -0.5 -16t-1.5 -18t-1 -16l-1 -2q-1 -2 0 -3q3 -5 3.5 -11.5t-0.5 -9
t-4.5 -11t-3.5 -9.5q-1 -5 -1 -30q0 -5 6 -5t9 -2.5t0 -6.5q-2 -3 -2.5 -6t0.5 -4.5t2.5 -4.5l2.5 -5q1 -5 3.5 -17t4.5 -17q2 -13 5 -20q9 -22 24 -4q16 12 26 25q7 9 24 30t26.5 33.5t22.5 31t22 34.5q30 58 36 72q10 18 5.5 24t-31.5 5q-6 0 -25 6t-26 5q-8 0 -11 3
q-10 6 2 20q19 23 79 26q62 3 63 -49q0 -3 2 -21t-1 -20q-9 -27 -25 -97q-1 -6 -10.5 -17.5t-11.5 -15.5q-1 -7 -20 -37q-8 -10 -12 -14h1h-1zM51 265q-1 9 -1 27l-2 4q-3 0 -5 -2q-3 -6 -3 -11q0 -20 1 -30q0 -4 -3.5 -19.5t2.5 -20.5q1 -4 -2 -9q-10 -14 -1 -21q3 -3 1 -5
q-4 -4 -4.5 -7.5t2 -10t2.5 -7.5q2 -8 10 -58q9 -32 15 -46l4 -4q4 2 4 5q0 4 -2 12q-1 6 -4 21t-4 24v5q0 -1 1.5 -2.5t1.5 -2.5q2 -7 6.5 -21t6.5 -23q2 -3 8 -13q1 -1 5 -1v2q1 2 1 4q-7 17 -10 34t-5 51q-2 19 -4 57q0 16 -12 6q-7 -2 -7 3q2 9 8 15q7 12 1 13
q-5 -1 -7.5 0t-3 3t-0.5 5v5v18zM24 301q5 -8 6 -13q4 8 3 11v18h-2q-3 -10 -7 -16zM52 374h-1q0 1 1 3v2l-4 8q-1 -3 -3 -7v-4q1 -6 3 -15q1 3 2.5 7t1.5 6zM50 347q-2 1 -4 3l-1 -2q-1 -2 -1 -3q-1 -1 1 -2l1 -2q0 1 1.5 2.5t2.5 3.5zM47 305l3 3l1 2l-4 4q-2 -2 -2 -3z
M232 149v1h-1zM278 164l1 -1v1h-1z" />
    <glyph glyph-name="H" unicode="H" horiz-adv-x="335" 
d="M9 46q0 33 0.5 98t1.5 98q0 10 2 34q1 16 -15 19q-1 0 -6 1t-7 1.5t-4 3.5t-1 8q0 6 3 7.5t8.5 1.5t7.5 1t7.5 1t6.5 2q3 5 3 18q1 36 3.5 110t3.5 110q2 116 5 173q1 7 11 30q1 1 5 1t6 -1q10 -6 21 -15q18 -15 30 -28q6 -6 6 -18q-1 -21 -3.5 -65.5t-3.5 -67.5
q-3 -69 -3 -70q0 -5 1 -16t1 -17v-113q0 -12 2.5 -14t13.5 2q56 20 82 30q11 6 12 16q9 84 16 134q3 23 10 67.5t8 53.5q2 30 6 45q1 4 10 21q2 -2 9 -7.5t9 -9.5q22 -50 29 -69q6 -22 4 -34q-2 -23 -8 -65t-8 -55q-1 -5 -9 -127q-3 -29 -14 -106q-1 -10 -1 -29t-1 -28
q0 -18 -6 -21q-3 -3 -1 -6q6 -29 -9 -53q-2 -4 -6 -14.5t-7 -16.5q-5 -9 -24 -12q-8 -1 -50 4q-1 0 -3 2t-3 2l5 5q11 7 14 25q10 68 13 97q0 3 9 122q0 1 0.5 3t0.5 3q-2 8 -2 12l-12 -6q-4 -7 -9 -11t-17 -7.5t-14 -4.5l-48 -18q-3 -1 -6 -9q-6 -90 -8 -130q-1 -9 1 -24.5
t2 -22.5q-2 -30 -4 -44q-2 -20 -4 -30q-1 -2 -11 -28q0 -1 -2 -1t-3 1q-5 6 -10 -2t-10 -6q-16 0 -26 7t-9 22q0 5 -0.5 15t-0.5 15zM58 34zM234 345q0 1 -4 9q-4 -8 -6 -13q-1 -2 -1 -7q-2 -15 -4 -43q-1 -6 -1.5 -17t-0.5 -17q-1 -16 -1 -48q-2 -42 -5 -63q0 -3 -9 -76
q0 -2 2 -8q0 1 2 3t2 3q1 5 2 13t1 9q1 15 3.5 45.5t4.5 46.5q2 23 8 77q1 10 3.5 39.5t3.5 46.5zM230 402v-5l2.5 -5t2.5 -4q0 1 2 4t2 5q1 5 1 14t1 13q1 5 2 16t1 16q0 1 -4 7q0 -1 -2 -3t-2 -3q-6 -53 -6 -55zM29 188h1q-1 -1 -1 -4q1 -2 1 -5t1 -4q5 7 5 8q1 2 1 6
q2 24 1 36l-3 15q-1 -2 -4 -6.5t-3 -7.5q0 -7 0.5 -19.5t0.5 -18.5zM32 347h1q1 -3 1 -8t1 -7q0 -1 2 -2.5t2 -2.5l1 3q2 2 3 4q1 9 1.5 26.5t0.5 26.5q1 4 -1 13q0 1 -2 3q-1 -1 -1 -3q-6 -24 -9 -53zM57 233q0 -11 -0.5 -34t-0.5 -34q0 -2 2 -6q2 4 2 6q2 66 3 98
q1 5 -2 8q0 -1 -1.5 -3.5t-1.5 -4.5q-1 -10 -1 -30zM239 481q1 -1 2 -3.5t2 -3.5q0 1 1.5 3.5t1.5 4.5q1 7 3.5 22t4.5 22l-3 10q-1 -2 -3 -4t-2 -3q-2 -8 -4 -24zM29 274q2 -4 3 -10t2 -8q0 -1 3 -4l2 4l1 1q2 11 0 16q0 2 -2.5 4t-3.5 3q-4 -5 -5 -6zM61 108h1q-1 7 -5 21
q-1 -4 -2 -11.5t-1 -11.5v-3q2 -5 4 -15q2 10 3 16v4zM35 420l-1 -2q-2 -3 -3 -4q1 0 5 -0.5t5 -0.5q3 0 3 7q-1 1 -2.5 3.5t-2.5 3.5q-1 -1 -2.5 -3.5t-1.5 -3.5zM41 447q0 -1 0.5 -4t0.5 -4q0 2 2 5t2 4t-2 5zM32 151q1 1 2 3l1 1q0 4 -1 6l-3 -1q0 -5 1 -9zM58 45l2 4
q0 3 -1 5v-2q-1 -2 -1 -7zM30 138q1 1 1 3h-1q0 -1 -0.5 -1t-0.5 -1q1 0 1 -1zM58 11h1v1z" />
    <glyph glyph-name="I" unicode="I" horiz-adv-x="188" 
d="M28 152q2 35 6.5 101t6.5 98q1 18 3.5 53.5t3.5 54.5q3 55 10 99q5 41 14 109q1 3 0.5 7.5t-0.5 6.5q2 13 13.5 21.5t24.5 7.5q26 -3 40.5 -23.5t10.5 -48.5q-2 -8 -5 -25t-5 -26q-4 -30 -6 -62q-1 -11 -3 -30.5t-3.5 -35.5t-2.5 -30q-1 -9 0.5 -25.5t1.5 -22.5
q0 -3 -2 -9t-2 -8q-4 -39 -6 -78q0 -2 -3 -73q0 -3 -0.5 -8t-0.5 -7q-2 -34 -2 -49q0 -3 3 -8t3 -7q0 -44 -2 -66q0 -7 -11 -10q-1 0 -6 -1t-8 -1.5t-6.5 1.5t-5.5 6q-1 1 -2.5 1t-2.5 -1q-8 -1 -11 -0.5t-9.5 4t-9.5 4.5q-21 9 -23 40q-1 7 -1 41h-2zM96 288l2 6
q-9 6 -7 27q1 16 3 50q0 1 -1 2.5t-1 2.5q-3 -3 -4 -5q-8 -55 -9 -78q-3 -35 -5 -108q0 -8 2 -22q0 -1 1.5 -2.5t1.5 -2.5q0 1 1 2.5t1 2.5q1 11 1 33q2 22 9 27q2 2 2 9q1 5 1 15t1 15q0 5 0.5 13.5t0.5 12.5zM74 131q0 -1 2 -4t3 -5v11v7q0 2 -1 3q0 -1 -2 -2l-2 -1v-9z
" />
    <glyph glyph-name="J" unicode="J" horiz-adv-x="350" 
d="M103 649q-13 0 -41 2q-19 2 -33 24q-5 5 0 12.5t14 8.5q35 5 63 5q113 -3 136 -2q16 -1 48 5q19 2 68 11q7 2 13 -2q5 -1 12 -12q1 -1 -1 -3t-5 -6q-6 -3 -16.5 -9t-19 -10t-16.5 -7q-63 -17 -92 -16q-5 1 -6.5 0.5t-1.5 -3t1 -6.5q5 -41 6 -79q2 -49 0 -98q1 -7 -3 -21
q-1 -4 -1 -12t-1 -12q4 -47 0 -67q-1 -3 1.5 -10t2.5 -10q-6 -105 -11 -162q-2 -54 -10 -88q-9 -43 -23 -56q-3 -3 -3 -4q-3 -8 -9 -14.5t-9.5 -9t-15 -8t-12.5 -6.5q-6 -3 -22 -3q-71 3 -110 60l-1 2q2 9 -4.5 21.5t-7.5 16.5q0 8 2 22t2 18q8 56 52 137q1 1 5 6
q0 -2 0.5 -5t0.5 -4q-2 -5 -8 -15q-2 -6 -8 -19t-9 -21q-1 -1 0 -2.5t1 -2.5q1 1 2 1q2 1 3 1q7 6 12 20.5t8 18.5q10 12 12 12q4 0 6 -6.5t0 -13.5q-15 -49 -22 -80q-1 -8 -1.5 -17.5t-1 -20t-0.5 -16.5q-2 -16 -3 -23q-3 -9 4 -25.5t15 -20.5q10 -7 19 3q24 37 27 54
q16 68 17 118q8 160 8 179q0 87 -3 174q-1 13 -1 39t-1 39q-1 12 -3.5 14.5t-14.5 3.5q-1 0 -4.5 0.5t-5.5 0.5v-1zM188 335h1q-1 2 -2 8t-2 8q0 1 -2 7q0 -1 -2 -7q-1 -13 -2 -39t-2 -39q-5 -49 -11 -154q0 -4 -12 -65q1 -1 1 -4q3 -3 5 -1q7 3 5 7q5 14 11 40q1 14 3.5 40
t3.5 38q2 24 4 80q0 14 0.5 41t0.5 40zM186 370v3l1 2q0 1 -2 3q-2 -2 -2 -4q-1 0 3 -4z" />
    <glyph glyph-name="K" unicode="K" horiz-adv-x="335" 
d="M98 151q7 -9 3 -21q-1 -2 2 -17q0 -1 1.5 -4t2 -4.5t0 -3.5t-3.5 -4q-1 0 -1 -1t1 -2q5 -15 7 -43t3 -34q1 -7 -3.5 -11t-12.5 -1q-6 3 -4 9q1 4 -1 10q-3 5 -7 3q-1 0 -6 -5v-5q0 -9 -2 -9.5t-10 2.5q-11 6 -25 9q-19 4 -19 22q0 12 0.5 50t1.5 59q1 8 -0.5 23.5
t-0.5 23.5v49v113q0 37 -2 113v109q-1 28 -1 83q0 6 0.5 20t0.5 21q0 17 19 21q13 2 40 0q15 -3 21 -19q1 -4 4 -8q6 -9 5 -22q-7 -46 -5 -60q7 -49 2 -86q-1 -2 0 -6t1 -5q1 1 4.5 3.5t4.5 4.5q8 18 24 53.5t24 53.5q19 38 35 66q5 10 19 12.5t26 -3.5q14 -6 21 -10
q7 -3 12 -15t1 -19q-2 -5 -17 -32q-2 -2 -2 -3q-4 -15 -12 -29t-19 -30t-16 -26q-4 -6 -9 -19t-6 -15q-2 -3 -8 -11t-8 -13q-3 -4 -7 -14t-6 -14q-4 -6 -11.5 -18.5t-10.5 -18.5q-3 -5 -7 -15q-5 -12 3 -25q25 -32 49 -91q6 -13 18 -41t18 -41q2 -6 6.5 -18t6.5 -18
q1 -3 3 -6.5t4 -7.5l3 -6q7 -13 19 -39q1 -2 5 -11t6 -14q4 -9 12 -25t12 -25q12 -24 18 -37q1 -2 1.5 -6.5t0.5 -6.5q-2 2 -6 4t-5 3l-5 5l-5 5q-3 2 -7 0q-1 -1 -1 -7q1 -3 3 -11q-2 1 -5.5 2.5t-5.5 2.5q-8 6 -13 9q-7 7 -10 0q0 -3 -5 -3q-19 4 -23 22q-6 28 -33 85
q-15 31 -45 91q-7 13 -19.5 40t-18.5 41q-2 6 -4 8q-1 2 -5 6q-1 -1 -2 -2.5t-2 -2.5t-1 -2q-1 -7 -1 -21v-43q-1 -4 -3 -10q0 -3 -4 -3q-1 0 -3 4q0 6 -1 8h-8l-1 -2q-1 0 -2.5 1t-2.5 2t-2 1v-2l-1 -2q2 -5 0 -15.5t1 -16.5q2 -3 -1 -23q-5 -19 -5 -20q3 -6 1 -20t5 -19
q2 -2 2 -11v-2v-3v-3l3 -15q9 12 10 16q0 1 3 65v-1zM53 379q-2 4 -3 7q-1 -1 -3 -4l6 -3q-1 -1 -1 -2q-2 -4 -2 -5l1 -1q0 1 0.5 3t0.5 3t0.5 1t0.5 1zM46 96q0 -9 1 -14q0 -2 2 -4q3 0 3 2q1 4 3 11t3 11.5t0.5 11t-3.5 11.5q-2 3 0 8q0 14 0.5 43.5t0.5 44.5
q0 14 -0.5 42.5t-0.5 42.5q0 8 -0.5 25t-0.5 25l-3 6l-2 -2q-2 -3 -2 -5v-36q-3 -57 -2 -69q1 -13 0.5 -45.5t1.5 -45.5q1 -5 0 -31.5t-1 -31.5zM89 254l4 -12q0 -1 4 -3q0 1 0.5 2t0.5 2q0 3 -1 9t-1 9q0 2 -2 6q0 -1 -2 -2.5t-2 -2.5v-3.5t-1 -4.5zM274 67q2 -2 6 -4
q1 2 2 3l-2 1q-2 1 -2 2zM91 282l4 6l-1 1q-1 1 -1 2q-4 -2 -5 -4q0 -1 3 -5zM87 311q0 1 1 1q-1 0 -2 1v-1zM279 45l1 1v1q-1 0 -1 -1v-1zM253 36l-1 1v-1h1z" />
    <glyph glyph-name="L" unicode="L" horiz-adv-x="245" 
d="M156 37q43 -4 61 -7q10 -1 18 -13q4 -5 1 -11.5t-10 -7.5q-14 -1 -37.5 -3.5t-43.5 -4t-37 -1.5q-9 0 -43 17q-14 7 -19 7q-16 0 -37 21q-2 2 -2 11q1 21 3.5 60t3.5 58q1 26 2.5 78.5t2.5 78.5q1 17 2 48t2 56.5t2 48.5q1 21 4 63t4 62q1 16 0.5 48t-0.5 47q0 16 4 27
q1 6 10 10q25 6 48 -1q2 -1 7 -2.5t8 -2.5q12 -9 12 -11q8 -28 9 -44q0 -8 -2.5 -24t-2.5 -22l-6 -102q-1 -11 -3 -31.5t-2 -30.5q-1 -11 -2.5 -29.5t-2.5 -33.5t-1 -29q-1 -20 -2 -59t-2 -58q0 -6 -3 -17t-3 -16q0 -4 1 -16t0 -18v-13t-1 -16.5t-5 -12.5v-3q6 -16 5 -42.5
t1 -42.5q4 -17 19 -17q12 -1 37 -1v2zM71 96q6 12 6 13q3 39 3 76q-3 36 -6 43q-2 4 -2.5 9.5t0.5 13.5t1 12q0 2 -2 6q-1 -1 -3 -2.5t-3 -2.5l-3 -15q-1 -3 -3.5 -9t-3.5 -9.5t-1 -9t3 -10.5v-3q-2 -46 -4 -70q0 -2 -1 -7.5t-1 -8.5q-1 -21 -3 -65q0 -3 1 -5q5 -14 16 -4
q12 12 12 41q0 1 -6 7zM80 254l-1 1v-1h1z" />
    <glyph glyph-name="M" unicode="M" horiz-adv-x="491" 
d="M73 238q-8 -10 -10 -44q-1 -12 1 -55q1 -5 10 -21q0 -1 2 -2t3 0q3 2 3 5q-6 4 -1 13.5t4 13.5q-1 0 3 4l3 -3q0 -1 1 -5.5t0 -6.5q-3 -28 2 -52q3 -12 0 -14t-14 3q-7 2 -8 2q-5 -1 -9.5 0.5t-10 4t-8.5 3.5q-20 8 -22 34q-1 37 -5 111q-1 23 -2.5 67.5t-1.5 66.5v78
q0 9 -1 34.5t0 39.5q0 1 3 115v22t1 22q2 24 8 39q4 11 17 13q24 4 42.5 -7t22.5 -33q1 -10 12 -19q11 -10 24 -41q5 -13 22 -71q13 -39 20 -68q5 -17 13 -53q8 -49 10 -71q1 -3 -1.5 -11t-2.5 -10l-1 -5q5 -3 7 -1q7 6 7 -4q1 -1 2.5 -3t1.5 -3q5 5 5 6q6 20 13 47
q3 11 9.5 33.5t9.5 33.5q4 12 7 29q7 26 15 34q1 1 4 7q13 54 45 116q3 5 5.5 14.5t4.5 13.5l18 27l3 3q10 19 39 13q8 -2 11 1q16 11 38 -2q20 -13 15 -40q-1 -3 0 -10.5t1 -9.5q-1 -22 -3.5 -66t-3.5 -66q-4 -94 -7 -140q-1 -25 -5 -75q-2 -51 -1 -66q0 -4 1 -12t1.5 -14
t0.5 -12q0 -7 1 -44t0 -44q0 -6 1 -17.5t1 -16.5q1 -10 -2 -23q-1 -2 -3.5 -4.5l-3.5 -3.5q-3 4 -7 10q-1 2 -1 7q-2 -2 -4 -6t-5 -13t-5 -13q0 -2 -2 -2q-1 0 -3 2q-1 2 -2.5 7t-2.5 7q-1 1 -6 4q0 -1 -2 -3t-2 -3q2 -12 4 -18q1 -3 3.5 -8t3.5 -8q1 -4 3.5 -5t6.5 -1h5
q2 -1 7 -6q-4 -4 -7 -4q-19 -3 -26 12q-13 29 -16 42q-20 90 -19 172q0 60 2 176q1 54 5 155q0 2 -1 7t-1 7q-1 -1 -4.5 -6t-4.5 -8q-18 -64 -26 -96q-1 -2 -2 -10t-3 -12q-2 -5 -16 -61q-3 -9 -8.5 -30.5t-8.5 -32.5q-1 -6 -3 -19.5t-5 -23t-10 -17.5q0 -1 0.5 -4.5
t-0.5 -5.5q0 -25 -1 -30q-6 -26 -3 -61q1 -14 1 -42q0 -2 -2.5 -5.5t-2.5 -5.5q-2 2 -5 4.5t-4 3.5l-6 6q-2 -4 -3 -7q-4 -11 -15 -5q-13 9 -28 17h-5q-12 -6 -15 8q-5 23 -13.5 67t-12.5 64t-9 42t-11.5 48.5t-9.5 41.5q-10 46 -16 69q-5 21 -14 49q0 1 -3 4q-1 -1 -2 -2.5
t-1 -2.5q-1 -3 -1 -9v-107q0 -7 -2 -19t-2 -15q0 -2 -1.5 -15.5t0.5 -15.5q5 -37 1 -59q-1 -2 0 -7t1 -7q-1 -1 -2.5 -3t-1.5 -3q-4 2 -5 4q-2 6 -3.5 6t-6.5 -6v10h-1q0 -1 0.5 -4t0.5 -5zM347 615q-3 -2 -9.5 -5t-10.5 -4q-1 -1 -1 -3t1 -2q6 -2 2 -13q-4 -9 -5 -17
q-2 -11 -8 -11q-5 0 -6.5 -0.5t-0.5 -2t4 -5.5q10 -10 -4 -15q-4 0 -4 -4q5 -14 0 -25q0 -1 0.5 -2t2 -3t1.5 -3q4 4 5 7q9 33 13 43q2 5 8 13q2 3 8.5 10.5t10.5 13t5 12.5q0 3 2 7t2 6q4 14 4 23q0 4 -2.5 5t-6.5 0.5t-5 -0.5q-1 1 -4 -4l-1 -3q-1 -6 -1 -18zM380 347
q0 -5 -0.5 -14t-0.5 -16.5t1 -13.5q3 -27 -2 -48v-23q0 -4 2 -12q2 -7 1 -31t5 -31v-4q1 -7 2.5 -20t2.5 -19q0 -3 5 -5q7 -2 4 -6q-5 -6 -6 -12.5t-0.5 -10t3.5 -12.5t3 -11q0 -1 2 -2l2 -1q2 4 2 5q-4 13 -5 17q0 3 2.5 6.5t3.5 3.5q5 -1 6.5 0t1 5t-0.5 5q0 2 -0.5 5.5
t-0.5 6.5t1 5q6 13 3 19q-1 4 0.5 5.5t5.5 -0.5q2 -1 6 -1q-1 2 -1 6q-1 5 -1 14q4 24 0 34q-4 7 -4 24q0 15 3 30q1 8 -1 10t-10 3q-2 0 -5 6q0 4 -0.5 13t-0.5 14q0 20 9 25v2v4l-1 2q-4 0 -5.5 1t-1.5 2t1 4t1 4q4 25 -5 51q-8 24 -7 39q0 9 -2 25t-2 22l-3 3l-3 -1
q-8 -22 -7 -27q0 -6 1 -16.5t1 -19t-2 -16.5q-3 -9 -5 -44q0 -1 1 -2t1 -2zM186 221h-1v-8q4 -6 8 -10q5 10 5 11q0 4 1 14.5t0.5 18.5t-3.5 15q-1 1 0 4q0 9 2 29q0 2 -3 5q-1 1 -3.5 4t-3.5 5q-3 3 -8.5 11t-8.5 11q-1 1 -6 4q-4 -6 -4 -8l5.5 -22t4.5 -19q0 -1 1 -3l1 -2
q-1 -8 0 -15t4.5 -17.5l4.5 -13.5q2 -6 4 -14zM199 319q1 -4 4.5 -14t5.5 -15q2 0 3 1q9 16 1 29q-2 3 -8 7q-4 -6 -6 -8zM82 250q0 2 0.5 3.5t1 2.5t0.5 2q0 11 -1 16q0 2 -4 8q-1 -1 -2.5 -2t-2.5 -2t-1 -2q-5 -5 -3 -8q2 -4 12 -18zM183 336h-1q0 1 -1 3l-1 2
q-15 7 -16 18q-4 1 -6 1q3 -18 4 -20t4.5 -2.5t8.5 -0.5t8 -1zM44 203v6q-2 6 -2 9q-6 -8 -6 -10q-1 -4 1 -14q1 -6 4 -11l3 1q1 4 1 11zM306 479q-1 2 -3 8q-3 0 -3 -1q-4 -9 -7 -20l3 -7q3 1 4 2zM42 228q1 4 5 12q2 2 2 4.5t-1 3.5t-2.5 3t-2.5 3t-4 1l-1 -3q6 -6 0 -16
v-7q0 -1 4 -1zM422 297l5 5l-1 1q-1 2 -2 2q-1 -1 -3 -2.5t-3 -1.5zM436 65q3 3 3 4t-2 3l-3 -1zM288 485l3 6q0 1 -1 3q-2 -1 -4 -3v-2zM435 87q-1 0 -3 1l-1 -1l2 -2zM294 447v1l1 2q0 2 -2 2t-2 -2t3 -3zM37 363q1 -2 3 -4l3 3q0 2 -2 4q-2 -2 -4 -3zM430 217l-1 1h-1v-1
l-1 -1q1 -1 2 -1q0 1 0.5 1t0.5 1zM176 351l3 2q0 1 -1 3l-3 -1q0 -1 0.5 -2t0.5 -2zM357 577q0 -1 1 -2v1h1q0 2 -1 3q0 -1 -0.5 -1t-0.5 -1zM81 85q1 0 1 -1q1 1 1 2q-1 0 -2 -1zM422 110l-1 -1h1v1zM412 49h1v2h-1v-2zM441 330l-1 1l-1 -2h2v1zM280 390l-1 -1h1v1z
M298 410q0 1 -1 2l-1 -1l2 -2v1zM257 316l1 1h-1v-1z" />
    <glyph glyph-name="N" unicode="N" horiz-adv-x="346" 
d="M224 434q0 2 -0.5 6.5t-0.5 6.5q3 19 1 42q0 1 1 3t1 4q2 16 2 23q-2 12 3 17q2 3 1 10.5t-4 12.5h1q1 7 2 29t3 34q1 6 3.5 17.5t3.5 17.5q2 13 4 35q1 6 7 9.5t7 5.5h2q5 -7 13 1q9 5 12 2q2 -2 5 0q1 1 3 2.5t3 2t2.5 -0.5t3.5 -3h2q7 4 9.5 3t5.5 -5t5 -5q2 0 2 -5
q0 -10 -2 -15q-11 -53 -18 -138q0 -2 -6 -113q-1 -14 -1.5 -43t-1.5 -44l-6 -54q-1 -6 -1.5 -18t-0.5 -16q-11 -113 -11 -124q0 -14 -2 -39.5t-2 -34.5q-1 -10 3 -26q1 -7 -5 -10q-13 -5 -35 5q-25 10 -32 9q-12 0 -17 14q-41 109 -69 213q-15 51 -20 69q0 1 -1 2.5t-2 2.5
q-1 -2 -1 -5q-1 -13 -1 -39q2 -30 2 -45q0 -10 -5 -11q-10 -2 0 -8q2 -3 4 -7q0 -3 -1 -3q-10 -5 -4 -10q10 -9 3 -26q-4 -15 3 -21q3 -3 3 -7v-25q-1 -26 0 -26q0 -10 2 -27.5t2 -23.5q0 -9 -4 -12q-1 -1 -4 -4.5t-4 -3t-7 2.5l-7 3.5t-8 4.5l-3 1q-2 -6 -10 -2
q-23 12 -26 15q-1 1 -2 4q-1 2 -1 3q-2 62 -4 95q0 4 -0.5 13t-0.5 14v3q2 11 0 57t-2 57v77q-1 11 -2.5 33.5t-1.5 32.5q-1 31 -3 91q-2 41 0 82q0 19 2 57q2 31 33 26q16 -2 29 -7q21 -7 16 -30q0 -13 5 -23q13 -41 15 -51q3 -11 7 -32.5t6 -29.5q1 -5 9 -40.5t12 -54.5
q3 -11 3 -34q1 -3 1.5 -9.5t1.5 -11.5t4 -8q6 -7 8 -22.5t7 -22.5q4 -5 5.5 -12t3 -17.5t2.5 -14.5q8 -43 10 -46q7 -15 7 -31q-9 21 -11 26l-3 3v-4q6 -20 10 -30q0 -1 5 -8q0 1 -1 4t-1 5v4l8 8q1 17 5 46q1 5 1 14.5v14.5q1 4 2.5 11.5t1.5 9.5v16q4 72 6 107v-1z
M162 230l-6 6q-1 1 -2.5 4t-2.5 4q0 -1 -2 -5l-3 -6q-1 -3 1 -7q1 -1 3.5 -10t5.5 -13q2 -3 2.5 -11.5t6.5 -10.5q1 0 1 -6q-1 -7 0.5 -14t5.5 -14.5t5 -12.5l4 -2q13 4 10 15q-7 29 -16 36l-3 3l-1 3q-8 26 -6 38v12v7q0 1 1 2v2h-6q-2 0 -2 -4q1 -3 2.5 -8.5t1.5 -7.5z
M67 286q2 -27 -2 -33q-2 -2 -2 -7q2 -38 4 -59q0 -3 -1 -4q-4 -5 1 -17q1 -2 3 -8.5t3 -10.5q5 -24 6 -48q0 -1 2 -2l2 -1l1 3q0 26 -4 31q-4 9 0 13q5 1 5 11q0 35 -1 52q0 16 -2 49t-3 50q0 25 -5 36q-2 4 -4 5v-2q-1 -2 -1 -3q0 -9 -0.5 -28t-1.5 -27zM254 336
q1 -3 3 -11q1 2 2 5.5t1 5.5v4q5 45 5 52q-1 8 4 39q0 10 -1 16q0 1 -0.5 4t-0.5 5t2 11.5t2 14.5q1 15 2.5 45t2.5 45q1 22 5 54q0 3 -1 4q-2 3 -6 7q0 -1 -1.5 -3t-1.5 -3q-4 -20 -4 -29q-1 -70 -6 -143q0 -9 -1.5 -28t-1.5 -21v-25.5t-1 -25.5q0 -2 -3 -23zM43 150h1
q0 -10 2 -30q0 -1 2 -7q2 6 2 7v46q-1 4 1 11t1.5 13t-6.5 10v2q0 9 0.5 27t0.5 27q-2 48 -2 70q-1 11 -1 33.5t-1 34.5q0 2 -0.5 5.5t-0.5 4.5q-2 -4 -4 -10v-6q0 -14 1 -42t1 -42q1 -52 3 -154zM131 324q-1 3 -3 8t-3 8q-1 1 -2.5 4.5t-2.5 5.5q-2 -8 -2 -12
q-1 -1 -0.5 -2.5t1.5 -1.5q2 -3 5 -24q1 -8 9 -36q6 -14 10 -20q0 -1 5 -3q2 4 2 8q-1 4 -3 12.5t-3 12.5q-5 14 -7 17q-10 11 -6 23zM263 615q-3 5 -3 6q-6 0 -6 -2q-1 -5 -1 -15q0 -3 0.5 -13t-1.5 -11q-2 -4 -3.5 -12.5t-2.5 -11.5q-2 -5 0.5 -16.5t-0.5 -16.5q1 0 3 -1
q3 0 3 3q1 2 1.5 7t0.5 7q6 52 9 76zM195 97q-2 0 -2 -1v-3q2 -4 2 -5q3 3 3 4q-2 20 -4 29q0 1 -3 2.5t-4 0.5q-4 -4 -4 -8q0 -1 2 -4t2 -4q3 -6 8 -11zM243 473h-2q3 -4 4 -8q5 5 5 7q1 6 -1 18v5q0 1 -0.5 3t-0.5 3q-4 -2 -4 -5q-1 -7 -1 -23zM120 369q-1 2 -5 6
q-3 -3 -3 -4q3 -3 5 -9q2 4 3 7zM256 643q4 -6 6 -8q2 5 2 6t-2 2q-1 1 -1.5 1t-1.5 1q-2 -2 -3 -2zM151 278q0 -7 1 -10q0 -2 2 -4v2l1 2q0 4 -2 10l-1 1l-1 1v-2zM260 654l1 1q2 1 2 2t-2 3l-2 -2q0 -2 1 -4zM87 317q1 0 2 1q-1 1 -1 2h-1l-1 -1q0 -1 1 -2zM80 376v1l-1 1
l-1 -1v-2l1 1h1zM40 416l2 2v1q-1 1 -1 2l-2 -1l1 -2v-2zM251 280l1 -2q2 0 2 2l-1 1q-1 0 -1 -0.5t-1 -0.5zM285 561q-1 0 -1 0.5t-1 0.5l-1 -1q1 -1 1 -2zM163 340q-1 1 -2 1l-1 -1l2 -2q1 0 1 2zM255 306l1 1h-1v-1zM108 403l-1 1h-1v-1l1 -1zM84 54q-1 0 -2 1v-1l1 -2
l1 1v1zM179 267l-1 1zM78 398l1 -1v2z" />
    <glyph glyph-name="O" unicode="O" 
d="M256 572q1 -2 3 -8.5t3 -10.5q3 -18 10 -64v-5q-5 -4 -5.5 -7.5t3 -9.5t3.5 -7q4 -10 4 -32q3 -22 3 -45q0 -2 0.5 -6.5t0.5 -6.5t-2.5 -5t-7.5 -4q-1 0 -1 -11q0 -1 3 -1q2 -1 3 -1q4 -2 4 -5q1 -3 0 -7.5t-1 -5.5h-1q-7 0 -8 -1t-1 -8q-1 -12 -2.5 -36t-1.5 -35
q0 -2 2 -8q5 5 5 7v15q0 2 3 5l4 -4q1 -2 1 -6q-7 -49 -10 -61q-6 -30 -16 -57q-6 -19 -20 -55q-3 -7 -10.5 -25t-12.5 -28q-11 -21 -34 -34q-13 -6 -30 -4q-6 1 -18 6.5t-15 6.5q-4 1 -11 2.5t-10 2.5q-12 5 -13 6q-40 36 -49 85q-5 27 -13 81q-9 81 -9 82q-1 15 2 88
q1 18 5 54v3q-4 17 1 81q6 85 40 171q14 35 72 60q33 14 72 8q17 -2 21 -19q2 -9 5.5 -27t5.5 -27l3 -6t3 -5q4 -10 4 -17q0 -11 4 -14q1 -1 2 -4.5t0 -4.5q-8 -6 1 -15q10 -10 6 -22v1zM75 373h1v1zM271 384q-1 -2 -1 -6h1q0 4 -1 6l4 2q0 1 -1 1q-2 -2 -2 -3zM58 225
q-1 -1 -1 -4q1 -2 1 -5t1 -4l3 1q0 1 -1 4t-1 5l-3 3q7 0 8 -1q7 -7 9 4q1 1 1 4q-2 54 -4 83q0 1 -1 3v2l-1 2l-1 2v-2q-1 -1 -1 -2q0 -14 -2 -46q0 -4 0.5 -15.5t-1 -19t-6.5 -14.5zM97 173q-1 0 -3 -1q1 -5 3.5 -15t3.5 -15q7 -32 10 -43q2 -5 6 -16t6 -16q4 -10 8 0
q10 22 14 33q12 34 18 52q16 52 18 69q9 65 9 109q0 60 -7 144q-3 26 -19 112q-2 11 -8 33q0 1 -1.5 2.5t-1.5 2.5l-4 -4q-16 -27 -19 -38q-2 -8 -10 -30t-10 -34q-3 -17 -6.5 -50t-5.5 -47q-1 -7 0 -13.5t-0.5 -14t-6.5 -12.5v-6q1 -7 2.5 -21t1.5 -21v-27v-33l-3 -3
q-1 0 -3 2t-3 2q0 -7 1 -9q9 -16 3 -38q-1 -3 -0.5 -14t0.5 -15q0 -5 3.5 -14t3.5 -11zM181 645q1 0 3 1q-4 8 -7 10q-1 2 -4 2t-4 -2q-4 -6 -3 -11q1 -6 4 -17.5t4 -17.5q14 -72 20 -109q4 -20 6 -104q0 -18 1 -27q0 -2 5 -7q4 4 4 7v38q0 2 0.5 8t0.5 9q3 10 2 12
q-4 45 -7 70q0 1 -3.5 20.5t-2.5 29.5q0 18 -9 41q-2 6 -10 47zM219 553q2 -14 4 -22q1 -5 3.5 -14t4 -16t1.5 -14q2 -45 4 -135v-31q0 -3 2 -7q2 4 3 5q1 3 1 10q0 4 0.5 16t1.5 19q0 2 1 6.5t1.5 7.5t-0.5 6.5t-5 5.5q-3 2 -1 4q3 5 2.5 14.5t0.5 14.5q4 34 -5 81
q-3 12 -5 38q-2 2 0 2q5 4 5.5 7.5t-2.5 10.5l-4 8q0 1 -3 20q-2 20 -5 28q-1 4 -4.5 12t-5 14t-0.5 13q0 3 -3 5q-3 0 -5 -2q-8 -11 -3 -25q7 -16 7 -22q0 -15 10 -32q2 -7 1 -10q0 -4 -2 -18zM75 185q0 4 0.5 8t0.5 6t-1 4l-2 4q-2 -1 -6.5 -2.5t-6.5 -2.5v-7
q0 -3 3.5 -15t1.5 -20q-3 -17 3 -20q10 -5 4 -13l-2 -2q-1 -3 0 -7q2 -16 4 -22q1 -2 4 -5l2 5q-6 21 3 30q1 1 -1 5q-1 11 -4 30.5t-3 23.5zM43 379h1v12q0 3 -2 7q-4 -4 -4 -7q-2 -26 -2 -39l4 -4q0 1 1.5 2.5t1.5 2.5v26zM35 213h1v-14q0 -1 2 -2.5t2 -2.5q0 1 2 3
q1 1 1 2q0 5 -2 13q-1 3 -2 8.5t-1 8.5q-2 -10 -3 -16zM38 173q-1 0 -1 -1l3.5 -10.5t3.5 -11.5h1v22q0 1 -0.5 4t-1.5 4q0 1 -2 3q-2 -2 -3 -4v-6zM36 265h-1q1 -5 1 -14q0 2 1 6.5t2 6.5q0 1 1.5 3.5t2.5 4.5q0 1 -0.5 3.5t-0.5 3.5t-1 1l-2 1q-3 -6 -3 -7v-9zM234 295v-7
q0 -1 1 -2.5t1 -2.5q0 1 1 2.5t2 2.5t0 4q0 8 -1 12q-2 -7 -4 -9zM87 347q0 2 1.5 5t1.5 4l-3 6q-5 -7 -5 -8q0 -2 5 -7zM36 318h2l3 6q0 3 -1 5l-4 -4v-7zM256 284q0 2 -1 4.5t-2 3.5q-2 -2 -2 -3q0 -3 2 -9q2 2 3 4zM252 391q1 -3 3 -7q0 1 2 3l1 2q-2 6 -3 8zM39 300
q3 3 3 5q-2 2 -3 2q-3 0 -3 -3l1 -2zM46 423q-2 2 -6 4v-3l3 -3l1 1q2 0 2 1zM256 316q0 1 -1 3t-1 3q0 -1 -0.5 -3t-0.5 -4q0 -1 0.5 -3t0.5 -3q1 1 1.5 3.5t0.5 3.5zM47 129q1 0 1 -0.5t1 -0.5l1 1v2v3l-1 2l-2 -1q-1 0 -1 -1v-2q1 -2 1 -3zM251 428l3 1q-1 2 -1 7h-2v-8z
M206 671v3t-1 2q0 1 -2 3q-1 -1 -1 -2zM56 108l-2 4l-2 -2q-1 -1 1 -3q1 0 3 1zM254 371h3v3h-3v-3zM269 440l1 1v1v1l-1 1l-2 -2zM93 62l1 -2q1 0 1 1v2q-1 -1 -2 -1zM87 96q0 2 -1 2t-1 -1t1 -2zM42 409q-1 0 -2 1l-1 -1q1 -1 1 -2zM253 558q1 0 1 1l-1 1h-1zM257 529
q0 -1 1 -1l1 1v1q-1 0 -2 -1zM252 268h1l-1 2h-1q0 -2 1 -2zM74 68v-1l-1 -1q1 -1 2 -1l1 1zM42 338v1l-1 -1v-1q1 0 1 1zM81 112v-1h1v1h-1zM42 458h1v1h-1v-1zM43 435q0 1 1 1l-1 1q-1 0 -1 -0.5t-1 -0.5q1 -1 2 -1zM263 220v1l-1 -1v-1zM262 498l1 1h-1v-1z" />
    <glyph glyph-name="P" unicode="P" horiz-adv-x="278" 
d="M102 239q0 -16 -1.5 -49.5t-2.5 -50.5q0 -27 -1 -40q-1 -11 -3.5 -33t-3.5 -33q0 -1 -0.5 -3t-1 -3.5t-1.5 -2.5q-5 -11 -11 -1q-3 4 -7 12t-7 12q-1 2 -5 4l-3 -6q0 -9 0.5 -27t0.5 -28q0 -3 -3 -6q-14 -6 -37 2q-5 2 -5 12q0 19 2 57q0 16 1 50t2 50q4 84 4 126v82
q1 34 1 102.5t1 102.5v82q0 12 4 38q1 13 21 33q10 8 15 0q5 -9 16 -3q3 2 10 5t11 5q43 17 88 -4q21 -10 39 -33q8 -13 27 -55q10 -26 16 -68q4 -39 -11 -95q-1 -7 -4 -20.5t-5 -20.5l-3 -6q-6 -3 -9.5 -12t-5.5 -11q-6 -8 -16 -25t-20 -30t-22 -21q-3 -2 -8 -7
q-8 -8 -13 1q-4 8 -8 -1l-6 -9q-4 -8 -13 -8q-14 -1 -18 -5t-5 -18v-41h1zM226 479zM69 232q0 -4 -1 -5h2v3l-1 2q7 -5 14 -8q3 -2 6 1q2 8 3 13q-5 2 -7 2q-8 -3 -16 -8zM102 425h1v-52l3 -12q8 5 9 7l3 3t3 2.5l3 1.5t4 1t4 -0.5t4 -2.5q4 0 6 5q10 22 14 33q0 1 2.5 4.5
t3 5t-1 4t-6.5 3.5q-1 0 -1 6q1 6 4 17t4 16q13 39 15 89q1 62 -34 123q-2 3 -6.5 7t-5.5 3q-14 -6 -17 -15q-3 -7 -5 -34q-2 -24 -4 -68q0 -3 -1 -9t-1 -9v-129zM69 101q-1 1 -2 5t-2 6q-4 -6 -8 -13q-1 -1 -1 -3v-7.5t-1 -9t-5 -6.5q0 -5 6 -9q2 -2 8 3q1 6 2.5 18t2.5 16
zM124 328h4q0 1 0.5 3.5t0.5 3.5q0 2 -0.5 6t-0.5 6t5 11q-3 -3 -9 -7q-4 -4 -4 -6q0 -3 2 -8.5t2 -8.5zM63 135l2 2t1 2q-1 3 -3 7l-2 -2q0 -1 2 -9zM81 37q3 9 3 11l-3 3q-3 -3 -3 -5q0 -1 1 -3.5t2 -5.5zM77 286q-1 1 -2.5 3t-1.5 3q-3 -3 -3 -4l4 -4q1 0 3 2zM146 343
q0 1 -1 1l-1 2l-3 -2q1 -2 3 -4zM201 526l4 -4l2 4q-1 1 -3 2l-1 1q0 -1 -2 -3zM44 223q1 1 1 2l-2 2q-1 -1 -1 -3q0 -1 2 -1zM63 121h2l-2 2h-1zM69 264l1 2l-2 1l-1 -1zM208 614l1 1h-2v-1h1zM33 39q1 1 1 2h-2v-1zM89 268v-1l1 1l-1 1v-1zM49 131v1q-1 0 -1 -1h1zM44 171
q1 1 1 2h-1l-1 -1zM70 194v-2h1q0 1 1 1q-1 0 -2 1zM66 202v1v-1zM34 95l-1 -1l1 -1l1 1z" />
    <glyph glyph-name="Q" unicode="Q" horiz-adv-x="371" 
d="M323 220q2 -24 -5 -39q-2 -6 -5 -17.5t-4 -13.5q-1 -4 1 -9q10 -24 16 -37q6 -14 -5 -22q-11 -6 -10 -19q1 -4 -1 -5t-5 1t-10 7t-10 7q-1 1 -4.5 1.5t-4.5 -0.5q-4 -5 -10 -13.5t-11.5 -15.5t-10.5 -12q-8 -9 -30 -19q-5 -4 -23 -6h-3q-2 -1 -3 -1q-6 2 -19 3.5
t-23.5 4.5t-18.5 9q-2 1 -8 3q-42 9 -68 61q-14 27 -24 96q-2 12 -2 71v61q1 12 4.5 47t6.5 54q5 25 22 97q16 56 24 76q11 31 32 71q7 12 35 29q14 7 44 17q4 5 6 9q12 20 22 27q12 6 18 2h6q18 2 27 2q17 1 28 -18q5 -5 3 -6q-2 -9 2.5 -25t4.5 -22q0 -5 5 -50
q9 -66 11 -88q1 -8 4 -50q1 -2 1 -5v-4q5 -16 1 -21q-1 0 -1 -1.5t1 -2.5q4 -4 4.5 -10t-0.5 -13t-1 -11v-61v-2q3 -19 3 -26.5t-2.5 -26.5t-3.5 -26q-1 -12 -3 -31t-3 -27zM71 104zM252 354h2q-1 13 -2 52.5t-3 61.5q-2 31 -8 89t-7 74q-2 14 -4 19q-1 2 -6 10v-10l-2 -4
q-6 -19 -2 -30q1 -4 -1 -10q-4 -11 -9 -3q-5 4 -10 -1q-8 -11 -12 -32q0 -2 -6 -16q-1 2 -2 7t-2 8q-1 2 -3 4l-1 -1q0 -2 -1 -2q-8 -22 -16 -27q-1 0 -3 -7q-7 -19 -11 -37l-12 -39l-3 -6q-4 -5 -5 -9q0 -1 0.5 -6t-0.5 -7q-2 -18 -4 -31q-1 -10 -4 -27.5t-5 -32t-3 -27.5
q-8 -66 -5 -146v-10.5t1 -10.5q8 -32 13 -47q10 -31 29 -47q9 -12 17 -4q21 18 25 23q8 9 13.5 19.5t12 28t8.5 21.5t0 11q-10 20 -16 30l-11 22t-10 22q-28 59 -31 64q-6 12 -2 23.5t16 14.5q7 0 11 1q22 5 40.5 -5.5t27.5 -33.5q0 -1 2 -2.5t2 -2.5q0 1 1 3t1 3v63z
M256 678h1l1 1q-2 4 -5 12.5t-4 12.5q0 1 -1.5 3.5t-1.5 4.5q0 -2 -1 -3.5t-1.5 -3t-0.5 -2.5q0 -18 2 -50q1 -3 2 -10t1 -10q4 -58 7 -86l3 -12t2 -11q8 -81 10 -89q2 -2 2 -4l4 4q1 5 -0.5 21t1.5 21q-4 10 -5 21t-1 26t-1 22q0 3 0.5 9.5t-0.5 10.5q0 4 -3 11t-3 10
t1 16.5t-2 16.5q-2 8 -2 36q-1 5 -5 22zM283 604q0 -1 -3 -1q5 -13 10 -22q1 -3 5 -3v6q0 2 -0.5 8t-0.5 10q-2 11 -4 32t-3 32q0 2 -4 6h-8q1 -3 3 -7q2 -6 2 -8v-17zM295 505q1 -21 3 -43q0 -3 1 -4l3 -3q2 2 2 3v18v26q0 2 2 6q1 2 1 3t-0.5 2.5t-3.5 2.5q-2 2 0 7
q3 6 3 8.5t-3.5 7.5t-4.5 7q-1 1 -3 1.5t-3 0.5q-1 -2 -1 -6q4 -26 4 -37zM76 149q1 -5 9 -47q1 -2 1 -5.5t1 -5.5q1 -3 5 -5q0 1 0.5 3.5t0.5 3.5q-1 7 -3.5 23t-4.5 25q0 1 -2 5t-1 4h6v4q-1 0 -4.5 1t-5.5 0q-2 0 -2 -6zM49 265v-10q1 -1 3 -5l3 6q0 3 -1 8t-1 7
q0 11 -1 15q0 -2 -1 -8t-2 -8v-5zM71 209q4 -8 5 -11q9 9 9 10q2 3 -1 5.5t-7 2.5l-1 -1q-1 -1 -2.5 -3t-2.5 -3zM58 317v7q0 2 -1 3.5t-1 2.5q-3 -3 -3 -6v-26q0 -1 3 -4q3 3 3 4q0 3 -0.5 9.5t-0.5 9.5zM284 562q10 -6 11 -6q2 0 4 6q0 2 -4 6q-1 0 -2.5 -1t-4 -2.5
t-4.5 -2.5zM309 430q-3 5 -4 11q-4 -6 -4 -9q-1 -2 4 -9q2 4 4 7zM80 174q-4 10 -4 13q-2 -6 -2 -13q0 -2 1 -4l1 -2q1 1 4 6zM284 688q0 1 -0.5 3t-1.5 5t-1 4h-1q0 -10 1 -13l2 -4q0 3 1 5zM301 404q0 -1 1.5 -3t2.5 -3q1 3 1 4t-2 11zM305 196q-1 1 -5 7q0 -1 -1.5 -3.5
t-1.5 -3.5q0 -2 3 -5zM47 220l4 -4q2 0 2 3q0 4 -1 5q-2 0 -5 -4zM53 236h-4q-1 -1 -1 -2l2 -2q2 2 3 4zM302 312q1 0 1 1h-1q-1 0 -1 -1h1zM59 355v-1l1 1h-1z" />
    <glyph glyph-name="R" unicode="R" horiz-adv-x="326" 
d="M92 306v-45.5v-53v-44.5q1 -15 3.5 -42t3.5 -36q1 -3 -2 -14q-1 -2 -3.5 -7.5t-3.5 -8.5q-8 -24 -31 -12q-5 3 -16 5q-19 4 -21 21q-4 36 -5 54q-3 43 -7 134q-1 29 -1 87q1 23 1.5 69.5t0.5 69.5q2 38 8 106q2 49 5 73q3 25 12 49q5 15 26 13q31 -5 55 11q10 5 19 5
q71 0 100 -21q2 -1 9 -6.5t10 -8.5q7 -6 8 -14q7 -43 -17 -70q-13 -15 -38 -45t-38 -44q-11 -13 -35 -35q-8 -6 -1 -11q24 -15 48 -52q7 -13 19 -37t18 -34q2 -4 8 -14.5t9 -16.5q16 -33 20 -68q0 -5 3 -14.5t4 -14.5l6 -39q1 -4 7 -33t8 -44q1 -6 2 -18t1 -13q0 -4 2 -12
t3 -13q0 -4 -1 -12.5t-1 -12.5q-2 -26 -11 -37q-10 -11 -23 -6q-33 9 -34 9q-14 1 -16 16q-7 33 -7 42q0 83 -21 161q-23 88 -57 155q-9 19 -17 33q-1 2 -4.5 4t-4.5 3q0 -1 -1.5 -4.5t-1.5 -5.5v-101zM65 151h-1h1zM188 667q-1 3 -3 10.5t-4 12.5t-6 6q-20 12 -42 1
q-10 -5 -9 -16q0 -3 -1 -9t-1 -10q-1 -7 -1 -22t-1 -22q-3 -11 -9.5 -36.5t-9.5 -39.5q-1 -2 2 -12q1 1 5.5 3.5t6.5 4.5q1 2 14 17t20 23q34 44 39 89zM37 172h-1q3 -28 9 -82q1 -3 6 -8q2 6 2 9q-1 27 -5 83q0 4 -0.5 16.5t-1.5 19.5q-4 26 -2 95q0 14 -6 40q0 2 -4 4
q0 -1 -1 -2.5t-1 -2.5q0 -82 2 -98q1 -11 1.5 -23.5t1 -27.5t0.5 -23zM70 122h-1l-1 1q-1 -1 -1 -2l1 -1z" />
    <glyph glyph-name="S" unicode="S" horiz-adv-x="307" 
d="M198 240q0 70 -13 180q-1 12 -18 65q-4 16 -7 24q-8 13 -21 11q-35 -3 -67 15l-6 9q-2 5 -5 6q-7 1 -12 3t-7.5 7.5t-3 7.5t-1.5 12l-1 9q-4 31 -2 76q1 28 21 62q2 5 11 9q4 1 19 6.5t19 6.5t20 3t21 -3q5 -2 76 -18q24 -6 44 -41q6 -9 -1 -18q-2 -2 -7.5 -2t-9.5 2
q-6 4 -20.5 14.5t-22.5 15.5t-29 9q-1 0 -26 3q-13 0 -18 -12q-1 -1 -2.5 -4t-2.5 -4q-24 -24 -20 -71q2 -20 2 -28q1 -12 4.5 -16t14.5 -5q49 -3 93 -34q1 -1 2.5 -2t2.5 -2t1 -2q4 -7 16.5 -30t19 -38.5t9.5 -33.5q12 -72 13 -93q1 -14 1.5 -29.5t1 -34.5t0.5 -29
q0 -8 1 -31.5t0 -36.5q-10 -135 -70 -168q-37 -22 -88.5 -10t-74.5 48q-29 43 -40 87q-13 44 4 99q8 25 23 51q9 16 34 20q8 2 24 4q11 1 15 -5t0 -16q-3 -5 -4 -6q-41 -51 -33 -127q1 -7 2 -22t2 -23q2 -9 13 -32q0 -2 1.5 -4t2.5 -4q7 -15 12 -17t20 4q3 1 9.5 4t11.5 5
t9 3q18 6 24 32q13 66 13 139zM65 297h1h-1zM249 167h-2q-2 28 -4 44q0 1 -2 5q-4 -4 -4 -6v-47l-12 -93l3 -15q7 10 8 13q5 33 13 99zM224 138q0 1 -1 1q0 1 0.5 4t0.5 5q0 1 -2 7l-3 -6q-6 -29 -13 -74q-1 -2 0 -5t1 -5q1 1 3 2.5t3 3t2 2.5t1.5 3t0.5 3q1 10 3.5 29.5
t3.5 29.5zM34 214q1 -5 1 -9l3 3q12 30 21 60q1 2 -1 6q-1 -2 -4 -5q-4 -9 -10 -27q-2 -6 -5.5 -15.5t-4.5 -12.5zM217 179l1 -1v-3q0 -2 2 -5.5t2 -5.5q0 2 1.5 5.5t2.5 5.5q0 2 -1 3q-1 3 -2 8.5t-1 7.5q-4 -10 -5 -15zM51 288l3 -2q3 0 3 3l-2 2q-3 0 -4 -3z" />
    <glyph glyph-name="T" unicode="T" horiz-adv-x="272" 
d="M-5 701q6 1 21 4.5t23 5.5q9 2 26 6.5t25 7.5q7 2 10 8q18 29 45 15q7 -4 14 -4.5t17 0.5t14 1q31 0 95 2q1 0 4 -1t5 -1q13 -4 12 -13q0 -13 -15 -17q-16 -3 -47 -9.5t-46 -9.5q-12 -3 -15 -6t-4 -15q0 -3 -0.5 -12t-1.5 -14q-2 -17 -8 -49.5t-8 -49.5q-2 -20 -2 -31
q-2 -31 -7 -92.5t-8 -92.5v-10t-2 -11q-7 -14 0 -21v-3q-3 -12 -3 -34.5t-2 -32.5q-2 -13 -2 -57q-1 -22 -2.5 -66t-2.5 -66q-2 -13 -6 -27q-3 -6 -8 -6q-1 0 -8 7q-1 1 -1 2t-0.5 1.5t-0.5 1.5q-3 -2 -5 -5q-6 -10 -14 -2t-21 10q-8 1 -13 10t-4 19q1 15 3.5 45.5t4.5 46.5
q1 6 1 19v19q1 19 3 59t3 59q1 16 3.5 48.5t3.5 49.5q2 30 6 88q2 23 5.5 66t4.5 64q1 18 5 47q0 7 -2 9.5t-9 1.5q-22 -5 -39 -5q-1 0 -25 6q-6 1 -19.5 3.5t-20.5 4.5l-6 -3q-9 -7 -13 5q-4 17 12 22q7 3 24 5q0 -2 1 -3zM100 66q2 -22 2 -33q1 -9 9 -5q3 0 3 6q0 53 1 59
q7 41 3 138q0 4 -1 6q0 2 -3 2q-2 0 -2 -2q-1 -2 -1 -6l1 -37q0 -38 -1 -38q0 -6 -2.5 -16t-2.5 -14q-2 -18 -4 -54l-3 -6h-3h4zM75 124h1q0 -6 -0.5 -16t-0.5 -16l3 -6q0 1 2 3t2 3q1 5 2 16.5t2 16.5q1 4 2.5 11.5t1.5 10.5q1 2 1 8q0 3 -1 9.5t-1.5 10t1 9t4.5 9.5v7
q0 3 -0.5 8t-1.5 8q-1 20 3 57.5t4 54.5q-1 8 0 22.5t1 18.5q1 4 -2 7l-4 4q0 -1 -2 -3l-1 -2q0 -4 -2.5 -35t-3.5 -47q-4 -53 -10 -169zM91 415l6 -6l2 3q0 4 -2 4q-1 1 -6 -1zM103 459l4 4q0 1 -1 3l-4 -2zM120 287q0 -2 1 -2t2 1l-2 2zM74 309l2 2q-1 0 -1 1l-2 -2
q1 0 1 -1z" />
    <glyph glyph-name="U" unicode="U" horiz-adv-x="371" 
d="M17 252v76q2 30 10 88q8 96 13 143q2 18 6.5 50.5t6.5 45.5v17q-1 24 7 34.5t32 15.5q16 4 34 -8.5t19 -31.5q1 -23 -2 -50q-3 -18 -10 -54.5t-10 -54.5q-7 -55 -12 -111q-10 -85 -13 -147q-2 -9 -0.5 -51.5t1.5 -50.5q0 -4 2 -13.5t3 -14.5q8 8 18 20q18 21 34 71
q2 7 18 67t26 90q7 25 14 71.5t11 63.5q3 26 12 50q4 11 6 23.5t2.5 21.5t1.5 24.5t1 22.5v11t1 11q0 23 25 26q25 2 36 -4q7 -4 10 -9q29 -45 18 -92q-1 -6 -1.5 -13.5t-1 -16t-0.5 -13.5q-6 -75 -6 -76q-1 -16 -2.5 -48.5t-2.5 -48.5q-1 -17 -5 -71.5t-5 -84.5
q-2 -37 0 -112q0 -8 2 -33t2 -39q0 -13 -11 -19q-6 -4 -23 0q-10 5 -26 15q-5 3 -8 8q-2 8 -3.5 10t-10.5 -2q-3 -2 -9 5.5t-7 14.5l-3 54v17.5v21.5v19q0 1 -0.5 2.5t-1.5 3.5t-1 3q0 -1 -2 -3.5t-3 -4.5q-10 -40 -49 -101q-4 -7 -11.5 -13t-20 -13.5t-16.5 -10.5
q-3 -3 -9 -1q-3 1 -15 4t-17.5 7.5t-8.5 13.5q-1 5 -4 7t-7 -5q-1 -1 -4 -0.5t-4 1.5q-5 11 -6 13q-22 70 -20 158zM262 182q-1 -2 -1 -5q2 -16 4 -25q1 5 3 13t2 12q2 29 8 99q1 18 3 56.5t3 56.5q0 1 -0.5 4t-0.5 4q-5 -5 -5 -6q-1 -5 -2.5 -15t-2.5 -15q-11 -65 -11 -179
zM56 254h1v-30q0 -1 1.5 -2.5t1.5 -2.5l2 4q1 16 2.5 47.5t2.5 47.5q0 1 -1 3.5t-1 3.5q-3 -6 -3 -7q0 -4 -6 -64zM42 259q-1 3 -1.5 8.5t-0.5 8.5q0 1 -1 2q-2 2 -2 3q-4 -4 -4 -5q0 -33 1 -50q0 -1 3 -4q1 2 1 4q2 20 4 33zM242 142q3 3 3 5v3l-4 -1q0 -1 0.5 -3t0.5 -4z
M248 264h1q2 2 2 4q0 1 -0.5 3t-0.5 3q-2 -4 -2 -5v-5zM249 219q0 1 -1 3v1q-3 -1 -4 -4l2 -4q3 3 3 4zM59 197l3 1q0 3 -1 5l-2 -2v-4zM243 164h3v1q-1 1 -1 2q-1 0 -1 -0.5t-1 -0.5v-2zM42 339v3q0 1 -1 2q-1 -1 -1 -3zM39 319q0 1 0.5 1t0.5 1l-2 2l-2 -2q2 -2 3 -2z
M40 298l-2 2l-1 -1v-3q1 0 1 1zM252 324l1 1l-1 1q0 -1 -1 -2h1zM213 344q-1 0 -1 1l-1 -1q0 -1 1 -1zM264 132v-1h1zM216 210h1v2l-1 -1v-1z" />
    <glyph glyph-name="V" unicode="V" horiz-adv-x="343" 
d="M109 647q0 -63 1 -95q0 -8 1.5 -23.5t2.5 -23.5q1 -13 2 -40t2 -40q2 -23 8 -75q0 -5 2 -16t2 -17q2 -6 2 -7q3 2 5 7q3 10 7 32.5t6 32.5q5 28 46 193q7 23 33 122q2 13 6 29q6 10 11 15q3 2 12 4v-3.5v-4.5v-3q1 -2 4 -4l2 -1q2 -2 5 3q4 5 9.5 8t8 3.5t11.5 0t10 -0.5
q20 0 15 -25q-2 -5 -4.5 -17.5t-5.5 -19.5q0 -1 -14 -31q-18 -71 -25 -91q-16 -59 -17 -62q-2 -6 -3 -16.5t-2 -13.5q-11 -67 -19 -105q-1 -5 -5 -23q-1 -3 -3.5 -11t-3 -12t1.5 -13q2 -1 0 -8q-14 -92 -17 -113q-6 -32 -19 -132q-2 -15 -8 -41q-4 -11 -11 -9q-18 2 -36 6
q-17 7 -31 11q-17 6 -18 24q-1 9 -15 124q-6 48 -19 162q-14 114 -23 196q-2 21 -4.5 59t-3.5 50q-3 24 -3 50q0 5 6 11q17 11 42 7.5t36 -15.5q6 -5 9 -23v-15h1zM246 618q1 2 2.5 6.5t2.5 8t1 5.5t6 7q2 -6 2 -9q-1 -6 -3 -17.5t-3 -17.5q0 -1 4 -7q5 5 5 6q6 34 9 50
q1 1 -0.5 3.5t-3.5 2.5q-10 2 -6 18q0 4 1 11.5t2 11.5q0 2 0.5 8t1.5 8q-3 -2 -15 -11q0 -2 -2 -4q-5 -15 -19 -64q-1 -3 -2 -11.5t-2 -12.5t-3.5 -9.5t-7.5 -9.5q-1 -2 -1 -8q-2 -7 -7 -27q-2 -10 -7.5 -27t-7.5 -26q-7 -32 -13 -65q-5 -25 -10 -45q-6 -34 -8 -55v-11
q3 5 5 10t6.5 22.5t7.5 26.5q1 5 4 13.5t5 15.5t3 13q1 2 -5 10q17 13 15 30q-1 2 1 7q2 8 16 58t21 77q0 1 2 3.5t3 4.5zM238 527q2 2 2 4v3q-2 0 -4 -2q0 -1 2 -5zM278 677q0 -2 2 -2q1 0 1 2l-2 2q-1 -1 -1 -2zM236 516l1 1h-1v-1zM160 314v2l-1 -1z" />
    <glyph glyph-name="W" unicode="W" horiz-adv-x="519" 
d="M47 89q2 38 0 76q0 5 -3 80q-6 96 -11 144q0 9 -2 27t-2 25q-1 16 -3.5 63.5t-4.5 75.5q-2 14 -4 46q0 27 18 35q19 13 38 18q12 1 29 -7q15 -4 17 -16q3 -8 0 -45q0 -3 -1.5 -10.5t-0.5 -10.5q-2 -19 -2.5 -56.5t-2.5 -56.5q-2 -16 1 -43.5t3 -37.5q1 -7 2.5 -19
t1.5 -17q0 -2 1 -5t1 -4q4 6 6 10q2 7 11 43q9 34 25.5 96.5t23.5 89.5l4 12t4 15q3 14 14 10q9 3 19 8q2 0 15 5.5t15 -1.5q1 -1 9 -1t11 -3q4 -6 12 -40q6 -70 10 -105q0 -6 0.5 -16.5t1.5 -15.5q3 -26 8 -54q1 -13 3 -40t4 -40q1 -6 3 -16.5t2 -15.5q0 -4 1 -4q4 4 4 5
q1 4 6 29q6 26 16.5 75t15.5 71q27 103 54 197q4 13 14 41q11 22 29 15q1 0 2 -0.5t2 -0.5q9 8 21 8q2 0 6 1.5t6 2t5 -0.5q9 -1 11 -8t-3 -17q-15 -19 -31 -70q-10 -46 -16 -55q-6 -7 -7.5 -20.5t-3.5 -18.5q-3 -7 -6 -22l-4 -20q-3 -10 -6.5 -31t-7.5 -33q-3 -5 -6 -14.5
t-4 -12.5l-2 -4q5 -4 0.5 -23.5t-4.5 -22.5q0 -8 -10 -32q-6 -10 -3 -17q4 -3 0 -9q-2 -6 -3.5 -21.5t-4.5 -23.5q-3 -6 -3.5 -18t-1.5 -17q-1 -10 -5 -30.5t-5 -29.5q0 -11 -2 -15q-12 -84 -14 -101v-3q-3 -15 -4 -16q-12 -6 -17 -6q-4 1 -12 1t-14.5 1t-10.5 5t-13 1
q-14 -3 -15 12q-16 91 -18 105q-8 61 -23 206q-5 27 -9 86q-1 1 -2 3.5t-2 4.5q-3 -5 -3 -9q-10 -35 -27 -97q-5 -16 -13 -46t-12 -44q-3 -11 -11.5 -42t-11.5 -49q-5 -20 -7 -45q-2 -6 -4.5 -20t-4.5 -21q-3 -14 -24 -15q-11 4 -13 6q-13 3 -16 2q-32 -8 -29 24zM352 297
v-1v-1v2zM343 244q-2 0 -2 1q0 -1 2 -1v-1v1zM359 251v-7h1q-1 2 -1 7q8 4 9 11q1 10 8.5 37.5t5.5 43.5q0 2 2 4q13 15 8 31q0 7 2 11q2 7 9.5 31.5t10.5 37.5q1 4 3 16.5t6 19.5q-3 5 4 24q2 6 5 22t7 25q5 10 14 57q3 8 10 44q1 2 -1 6q0 -4 -4 -6q-9 -18 -13 -33
q-4 -20 -13.5 -55t-10.5 -40q-2 -12 -10 -42t-11 -47q-6 -34 -11 -54q-2 -8 -4 -18l-4.5 -22.5t-3.5 -19.5q-3 -12 -6 -26t-6.5 -31.5t-5.5 -26.5zM417 541l-3 4q-3 4 -5 5q-10 -1 -13 -14q0 -6 -1 -10q0 -22 -5 -34q-9 -22 -9 -45q-1 -7 -4 -20t-4 -16q1 -6 -2.5 -17
t-4.5 -15q-2 -2 1 -5q6 0 6 2q4 4 6 13q1 2 1.5 7t0.5 7q2 9 29 114q0 1 1.5 4.5t1.5 5.5q2 6 4 14zM415 560q3 4 4 8q6 13 10 27q9 27 12 46q2 3 -4 11q-3 -3 -3 -9q-6 -15 -8 -34q-10 -29 -12 -41q-1 -1 1 -8zM361 353q1 -3 4 -9q1 3 3 8.5t2 7.5q0 1 -3 4q-2 -3 -6 -11z
M355 281l-9 3q0 -2 -2 -10q0 -1 5 -3q0 1 2 4zM445 658q0 1 1 3.5t1 3.5q-1 1 -1 2q-2 -2 -4 -3l-2 -2q0 -2 5 -4zM360 327q2 4 4 6q-1 2 -6 4v-3q0 -5 2 -7zM464 681l2 2v4l-2 -1v-5zM137 293q2 2 2 0v2h-1q0 -1 -1 -2zM328 266h1v2q-1 -1 -2 -1zM354 209h-2l1 -1z" />
    <glyph glyph-name="X" unicode="X" horiz-adv-x="295" 
d="M65 258q1 2 2 8.5t3 9.5q19 34 7 76q-18 64 -50 194q-7 27 -17 81q-5 22 -13 66q-2 9 8 13q27 11 64 2q32 -10 31 -41q0 -19 10 -39q3 -7 5 -31q1 -18 7 -50l6 -33q2 -6 4 -9q1 2 3 4.5t3 3.5q2 3 6 11q13 37 41 111q20 53 26 64q5 11 23 11q18 2 30 -9q26 -28 22 -47
q0 -9 -2 -12q-13 -22 -28 -66t-20 -55q-49 -113 -53 -126q0 -1 -3.5 -11t-4 -12t-3 -11t-3 -12.5t-1.5 -11t0 -12.5t2 -11.5t4 -12.5q2 -7 1 -9q-2 -7 -1.5 -10.5t3 -9.5t3.5 -9q2 -7 6.5 -20.5t6.5 -20.5q1 -3 6 -27.5t9 -36.5q2 -10 -7 -14l1 2q0 1 -1 3t-1 3h-1
q0 -2 2 -6v-2q5 -7 6 -7q10 1 12 -9q4 -13 7 -32l-9 15q-2 2 -6 4q-2 -4 -2 -7q2 -8 5 -15q1 -2 3.5 -3.5t3.5 -2.5q2 3 4 9q1 -2 7.5 -12.5t8.5 -17.5q2 -10 18 -37l3 -9q0 -1 -8 -14q-1 1 -4 4.5t-5 5.5t-8 6q0 -6 -1 -9q0 -8 -1 -8h-12q-4 3 -11 15q-9 12 -17 0
q-3 -3 -4 -3l-18 9q-6 2 -8 17q-13 41 -20 71q-3 8 -8 23.5t-7 23.5q-5 16 -10 29q0 2 -6 7q-2 -2 -6 -8q-8 -20 -24 -62q-28 -78 -42 -118q-2 -6 -4 -18q-7 -22 -29 -16q-5 1 -15 4t-16 4q-4 1 -8 3.5t-6 5.5t-5 7t-5 6q-8 8 5 14q0 -4 1 -6q3 0 5 2q2 3 10 19q13 36 28 80
h1l2 -1l-1 1h-2q18 44 28 65q1 3 11 13q0 -1 -2 -2.5t-2 -2.5q-1 -1 -1.5 -4t-0.5 -4h5q2 6 2 9l-1 2v2q-1 0 -1 2q-3 3 5 9t-2 10q2 4 6.5 12t6.5 12q3 -2 8 -7q1 2 2 5t2 4q8 14 9 14q6 3 3 10v10l-1 2v3q-1 -1 -4 -3q-10 -15 -11 -17zM208 59q0 -3 1 -3l6 -3l1 1
q-3 3 -5 4q-1 1 -4 1v-1zM132 238q10 -53 11 -58q3 -10 20 -60l12 -36q1 -2 3.5 -5t3.5 -4l6 9q6 11 7 11q12 3 5 14q-2 3 -7 8t-6 7t-2.5 4t-3 3.5t-2 3t-0.5 2.5v28q2 11 -1 19q-3 14 -9 28q-3 5 -5 5q-9 -1 -11 9q-1 4 -2.5 12.5t-2.5 12.5q-1 3 -6 8q-1 -1 -3.5 -3
t-3.5 -3q-3 -9 -3 -15zM83 175q-1 2 -4 5t-4 5q-1 -2 -3 -5t-3 -5q-1 -3 -3.5 -9.5t-3.5 -10.5q-3 -9 -11 -31t-12 -34q-1 -1 0 -3l1 -3q1 0 3 1l2 1q8 14 11 21q4 9 12 29t12 29q2 6 3 10zM52 156l4 6t3.5 5t1.5 4q1 1 -5 7l-6 -15q0 -1 1 -2q1 -3 1 -5zM29 89q5 7 5 8
l-2 2q-6 -5 -6 -7zM232 44q1 2 3 5q1 1 1 2t-2 4t-3 4q-5 -5 -5 -6q1 -2 6 -9zM195 183q-4 6 -6 8l-2 -2l6 -12zM66 187q4 6 5 7l-4 2q-1 -1 -2.5 -3t-2.5 -3q2 -2 4 -3zM176 224q2 -2 4 -3.5t3 -2.5l2 3q-4 4 -6 7l-1 -1q0 -1 -0.5 -2t-1.5 -1zM42 123l-1 3q-2 -1 -3 -2
l1 -2h1zM90 198q3 2 3 3v2l-1 1q-3 0 -3 -2v-2zM33 155v1h-1l-1 -1h2zM47 144h1v1h-1v-1zM208 78l2 4q-1 1 -2 1l-2 -2q0 -1 2 -3zM10 100q0 1 -1 2l-1 -1v-2q2 0 2 1z" />
    <glyph glyph-name="Y" unicode="Y" horiz-adv-x="362" 
d="M13 368q1 28 1.5 85t0.5 85q0 53 3 107q2 26 11 41q10 16 34 12q28 -2 39 -25q3 -4 5 -21q-7 -40 -1 -58q2 -2 0 -12.5t-2 -13.5q-17 -88 -10 -207q2 -13 7 -25l7 7t7 8q36 66 48 90q26 60 40 100q25 76 27 107q3 41 29 55q2 2 5 2q8 -5 26 -4t26 -5q14 -9 16.5 -19.5
t-0.5 -29.5q-2 -41 -16 -170q-7 -70 -11 -116q-1 -15 -1.5 -43t-1.5 -51.5t-3 -43.5q-2 -68 -9 -87q-1 -3 -0.5 -11.5t0.5 -11.5q0 -30 1 -45q-1 -8 1 -26q4 -29 -17 -33q-8 -1 -19 7q-7 3 -13.5 7t-14 9t-11.5 8q-15 6 -13 22l3 63q0 3 1 7.5t1.5 8.5t0.5 8q6 74 8 111
q1 16 1.5 34.5t1 40.5t0.5 34q1 3 -3 11l-3 -2q-3 -2 -4 -4q-6 -10 -17 -30t-16 -29q-7 -12 -40 -63q-9 -14 -26 -17.5t-31 5.5q-13 11 -30 18q-15 5 -22 28q-5 19 -8 40q-2 9 -3.5 24t-2.5 18h-2zM239 319q-4 14 -4 20q-2 0 -2 -1q2 -10 6 -19q-7 0 -11 -5.5t-1 -13.5
q3 -19 -0.5 -50.5t-3.5 -42.5q1 -21 -2.5 -60.5t-3.5 -53.5t1 -21q0 -2 5 -4q1 3 11 26q-2 5 0 10q0 -1 2 -2.5t3 -3.5q6 -3 7 -5q1 2 2 6t1 5q0 11 2 46t2 53q3 36 3 107q0 1 -0.5 3t-1.5 4.5t-1 3.5q-1 -2 -3 -5t-3 -5q-1 -6 -1.5 -18t-1.5 -18q0 -1 -1 -4t-2 -4l-3 3
q-2 3 -2 5q2 30 3 44zM259 407q0 3 -0.5 7t-0.5 6t-1.5 4.5t-1.5 3.5q-4 -4 -4 -7q0 -6 -1 -17t-1.5 -20t-0.5 -17q0 -5 0.5 -16t0.5 -16q0 -3 5 -6l1 1q8 18 8 24q0 11 -2 30t-2 23zM270 128q-1 0 -1 -2q1 -1 2 -1q1 1 1 2q-1 1 -2 1zM233 391l2 -2q0 1 1 3q-1 1 -2 1
q-1 -1 -1 -2zM236 358l-2 2v-1q0 -1 0.5 -1t0.5 -1q1 0 1 1z" />
    <glyph glyph-name="Z" unicode="Z" horiz-adv-x="295" 
d="M151 77q33 -4 69 9h14q1 0 5 -2.5t6 -1.5q5 0 9 -3t8 -7.5t7 -6.5q1 -1 1.5 -4t-0.5 -4q-16 -12 -24 -14q-39 -10 -108 -12h-42h-6q-35 -5 -57 19q-3 3 -11.5 6.5t-11.5 5.5q-15 10 -17.5 19t4.5 27q24 66 35 100q6 22 29 106q3 15 11 48.5t12 51.5q4 23 13 68t14 68
q7 36 16 99q1 11 -1 13.5t-12 3.5q-35 1 -73 14q-4 2 -9.5 3t-12.5 2.5t-11 2.5q-2 0 -5 3.5t-3 5.5q0 8 6 14q5 4 11 6t9.5 2.5t11.5 0t10 -0.5q13 -1 39 -3.5t39 -2.5h35.5t43.5 -2q16 -2 26 -15.5t6 -33.5q-5 -19 -14 -60t-14 -62q-2 -7 -14 -48.5t-17 -63.5
q-4 -14 -11 -44.5t-11 -46.5q-13 -52 -27 -98q-4 -19 -11 -47q-3 -11 -9.5 -32.5t-8.5 -28.5t-5.5 -22.5t-3.5 -17.5q-4 -14 9 -14h51zM113 408v8q0 1 -1.5 4t-1.5 4q-1 -1 -3 -3.5t-3 -3.5q-1 -2 -3 -8q-5 -25 -20 -90q-16 -81 -42 -142q-1 -3 -1 -10q-3 -11 -3 -21
q-1 -3 -3.5 -15.5t-3.5 -18.5q0 -3 3.5 -8.5t3.5 -8.5q1 1 4 3.5t4.5 4t2.5 3.5q2 9 10 42q10 29 11 38q3 11 8.5 33t9.5 33q5 15 10 45.5t10 45.5q4 9 5 20t1.5 25t1.5 20zM119 296h1q1 -1 2 -1l1 2l-1 1q-2 0 -2 1q0 -1 -1 -3z" />
    <glyph glyph-name="bracketleft" unicode="[" horiz-adv-x="273" 
d="M140 -41q14 4 62 16q1 0 2 1h2q10 -3 36 -3.5t39 -7.5q9 -6 7 -9q-4 -15 11 -20q1 0 7 -6q-2 0 -4 -2t-4 -3q-7 -2 -35 -9t-44 -10q-4 -1 -92 -15q-15 -5 -17 -7q-26 -20 -46 -10q-17 8 -34 25q-24 24 -24 60q1 41 -1 118.5t-2 110.5q0 50 6 150q2 27 8 76t8 65
q2 26 7 76.5t7 75.5q5 43 14 115q3 25 2 30q0 13 4.5 17.5t18.5 2.5q68 -7 91 -17q3 -2 9.5 -1.5t10.5 -0.5q13 -5 15 -10q2 -3 10 -27q-24 -6 -26 -6q-13 1 -39 5q-12 1 -15 -11q-1 -12 -5.5 -36t-6.5 -37q-10 -63 -14 -114q-2 -15 -3.5 -44t-2.5 -43q-2 -12 -6.5 -37
t-5.5 -37q-3 -24 -5 -72q-2 -27 -4 -81q-1 -11 0 -33t0 -33l-3 -18l-3 -18q-1 -13 0 -28q0 -38 3 -77q0 -8 1 -25t1 -25q1 -15 16 -13q13 1 44 5v-3zM281 -48l1 1h-1v-1z" />
    <glyph glyph-name="backslash" unicode="\" horiz-adv-x="299" 
d="M290 85v-8q6 -41 -3 -62q-5 -14 -9 -14q-9 0 -14 -11q-1 -7 -9.5 -10t-14.5 -1q-11 4 -9 21q1 12 -1 35q-7 36 -14 54q-11 38 -24 71q-6 16 -18 43.5t-16 36.5q-18 52 -21 59q-11 33 -33.5 94.5t-27.5 74.5q-1 4 -1 12t-1 12q-3 9 -10.5 27.5t-11.5 27.5q-7 19 -21 53.5
t-18 44.5q-12 37 -16 45q-14 35 6 62q13 17 22 22q6 5 23 7q3 0 7 -11q6 -17 17.5 -46t16.5 -41q42 -112 63 -169q45 -122 56 -155q2 -6 6 -16t7 -18.5t5 -16.5q7 -19 33 -99q27 -84 31 -124zM159 331q-1 1 -1 2q-3 3 -7 11v-1q4 -8 8 -11q0 -12 1 -17q25 -75 31 -90
q2 -8 3 -11l5 -5v7v5q-3 7 -31 83q-1 3 -5 7l-4 4v16zM278 66q-24 87 -27 99q-3 18 -21 64q-2 6 -11.5 32t-15.5 41q-2 2 -2 6q-4 24 -21 67.5t-19 50.5q-3 8 -7.5 23t-6.5 20t-6.5 17t-6.5 17q-1 3 -5 12t-7 14q0 1 -3.5 4.5t-4.5 5.5q0 -2 -1 -6.5t0 -6.5q2 -6 7 -18
t7 -18q3 -10 9.5 -29t9.5 -29q5 -12 14.5 -36.5t14.5 -37.5q1 -5 1 -15q4 -20 8 -31q2 -5 18.5 -50t23.5 -69q4 -10 14 -37.5t16.5 -48t9.5 -40.5q0 -4 1 -8.5t2.5 -10t2.5 -8.5l1 -2l2 -4q3 4 3 6q-1 9 -1 25q1 0 1 1zM140 373q3 3 3 5q-6 18 -20 54q0 2 -4 4v-6
q3 -9 18 -50q2 -4 3 -7zM105 472l3 8q0 2 -1 6q-2 2 -2 4q-1 -1 -3 -2l-2 -2q2 -3 5 -14zM216 158l2 -4l1 3q0 1 -2 3l-1 -1v-1zM114 459q-2 -5 -1 -5q0 -1 2 -3q0 1 1 3l-1 2q-1 1 -1 3zM147 357v4q0 3 -3 3v-4q0 -2 3 -3z" />
    <glyph glyph-name="bracketright" unicode="]" horiz-adv-x="273" 
d="M169 -41v3q31 -4 44 -5q15 -2 16 13q0 8 1 25t1 25q3 39 3 77q1 15 0 28q0 6 -3 18t-3 18v33v33q-2 54 -4 81q-2 48 -5 72q-2 12 -6.5 36.5t-5.5 37.5q-2 14 -3.5 43t-2.5 44q-4 51 -14 114q-2 13 -6.5 37t-5.5 36q-3 12 -15 11q-26 -4 -39 -5q-2 0 -26 6q8 24 10 27
q2 5 15 10q3 1 10.5 0.5t9.5 1.5q23 10 91 17q14 2 18.5 -2.5t4.5 -17.5q0 -5 2 -30q9 -72 14 -115q2 -25 6.5 -76t7.5 -76q2 -16 8 -65t8 -76q6 -100 6 -150q0 -33 -2 -110.5t-1 -118.5q0 -36 -24 -60q-17 -17 -34 -25q-20 -10 -46 10q-2 2 -17 7q-88 14 -92 15
q-16 3 -44 10t-35 9q-2 1 -4 3t-4 2q5 6 7 6q15 5 11 20q-2 3 7 9q13 7 39 7.5t36 3.5h1q2 -1 3 -1q48 -12 62 -16zM28 -48v1h-1z" />
    <glyph glyph-name="asciicircum" unicode="^" horiz-adv-x="223" 
d="M209 627q-1 0 -3 -2q-3 -2 -4 -1q-30 1 -55 32q-11 12 -26 31q-7 7 -12 -1l-27 -42q-30 -44 -31 -46q-5 -7 -9 -19q-3 -13 -19 -10q-21 4 -32 29l-3 9q-3 8 4 15q7 6 30 34q22 26 30 38q4 6 28 46q8 14 20 9q37 -13 48 -36q11 -21 38 -45q13 -8 16 -15q2 -4 4 -13.5
t3 -12.5z" />
    <glyph glyph-name="underscore" unicode="_" horiz-adv-x="270" 
d="M88 77q40 2 59 2q16 1 27 -3t26 -4q5 0 37 -8q7 -2 11 -13t-1 -17q-3 -3 -9 -3q-3 0 -9 1t-8 1q-9 0 -9 -3q0 -2 2 -5q2 0 -2 -4q-3 0 -9 -2t-9 -2t-9 3q-3 0 -4 -1q-4 -4 -8.5 -5t-12 -1h-9.5q-14 -1 -23.5 0t-24.5 0q-25 -2 -64 -17q-29 -11 -34 22q-4 21 0 32
q4 12 9 16q1 1 15 4q9 1 26 3.5t26 3.5h7z" />
    <glyph glyph-name="grave" unicode="`" horiz-adv-x="185" 
d="M45 908q1 0 2.5 2t2.5 2q8 7 18 3q0 -1 1 -2q-1 -5 -1 -6t4 -3l3 -3q6 -7 20 -24t21 -26q13 -15 27 -42q6 -10 12 -16q3 -3 -2 -8q-3 -5 -5 -5q-17 0 -25 6l-27 18q-6 3 -28 22q-5 4 -10.5 9t-12 11.5t-10.5 9.5q-4 4 -8 10q-6 6 2 21q7 15 16 21zM117 816
q-2 5 -6.5 11.5t-6.5 9.5l-2 2v-3q10 -14 12 -21q3 -8 15 -23q0 1 1 1t2 -1l-1 3q-2 4 -6.5 11t-7.5 10z" />
    <glyph glyph-name="a" unicode="a" 
d="M-6 34q4 54 7 81q1 14 3 42.5t3 43.5l6 81q1 12 1.5 37t1.5 37q4 86 8 128q9 87 21 170q2 9 20 70q1 4 5 10q6 8 11 2q5 -2 9 0q10 8 21 6q2 0 8 2.5t9 -0.5q2 -1 6.5 -1.5t6.5 -1.5q41 -21 69 -69q5 -11 10 -19q9 -15 18 -57q6 -35 13 -92q6 -52 8 -82q1 -17 1.5 -50.5
t1.5 -50.5l3 -48q3 -42 3 -43l-3 -69q0 -41 -1 -61l-3 -51q0 -4 -2 -10q-3 -5 -9 -2q-3 1 -9 2t-8 2q-8 1 -16 6q-19 10 -30 18q-8 6 -6 15q0 9 2 26.5t2 22.5q6 64 8 96v47q0 10 -7 5t-15.5 -8.5t-21 -6t-16.5 -3.5q-15 -4 -38 -2q-9 1 -10 -8q-2 -52 -4 -79q-6 -56 -8 -85
q0 -8 0.5 -16.5t1.5 -19.5t1 -17q0 -21 -18 -27q-15 -4 -20 -11q-10 -15 -30 -2q-16 9 -14 31q0 7 1 11h-1zM211 368l2 4q-1 -1 -1 -2.5t-1 -2.5q0 -1 -0.5 -5t-0.5 -5h2q0 1 -0.5 4.5t-0.5 5.5v1zM75 707l1 1v3v-4q-6 -12 -8 -18q-1 -2 -2 -10t-3 -12q-13 -44 -21 -135
q-1 -11 -2.5 -29.5t-2.5 -33.5t-1 -29q-2 -21 -2 -64v-21h1q0 3 -0.5 10t-0.5 11q5 10 5 12q1 5 1 15.5t1 15.5q2 37 8 101q1 5 2 14.5t1 14.5q1 9 2.5 26t2.5 26q0 1 2 18t4 25q12 50 12 63zM87 325v-20q-1 -6 1.5 -8t9.5 -1t20.5 3.5t19.5 4.5q23 6 46 15q6 2 6 10
q0 2 -3 95q0 17 -3 25q-2 8 -2.5 23t-2.5 22q-3 11 -3.5 31t-1.5 28q-4 25 -16 73q-8 33 -26 56q-5 9 -10 -1q-8 -18 -12 -58q-12 -100 -16 -150q-1 -13 -4 -82q0 -7 -1 -21t-1.5 -25t-0.5 -20zM224 375v-8.5t-2 -11.5t-7 -7q-3 -1 -3 -13q6 -2 9 -2q6 1 8.5 -1.5t1.5 -7.5
q0 -1 -1 -6t-2.5 -5t-8.5 1l-5 -5q-2 -14 -2 -21v-8.5t3.5 -5t9.5 -0.5l5 -5q-1 0 -3 -2q-1 -1 -2 -1q-10 2 -10 -8q0 -2 -0.5 -5.5t-0.5 -4.5q0 -5 -1.5 -15.5t-1 -18.5t4.5 -15q1 -1 -1 -6l-2 -3q-2 -3 -2 -4v-59q0 -3 4 -7q6 -8 6 -10q1 -2 3 -7.5t4 -7.5q1 -1 2 -2.5
t3 -3t3 -2.5q4 6 4 9q0 8 1 23t1 22q7 61 4 110v30v30q-4 70 -7 105q-2 26 -4 39q0 1 -3 3q-2 1 -3 2q-5 -5 -5 -6v-79zM41 343q-4 2 -6 2t-2 -4q0 -1 2 -5q1 2 6 7zM242 54l1 1h-1v-1z" />
    <glyph glyph-name="b" unicode="b" horiz-adv-x="357" 
d="M103 199q4 -30 -2 -61q-1 -4 1 -13t2 -12q0 -6 -0.5 -18t-0.5 -18q0 -7 0.5 -22.5t0.5 -23.5q-3 -19 -3 -20q-11 -31 -43 -15q-10 4 -19 4q-22 2 -20 24q2 31 4 91q1 28 1 84.5t1 84.5q0 12 -7 14q-2 0 -7 6q-13 12 -12.5 15t16.5 10q10 4 11 14q0 23 2 71q0 8 0.5 23.5
t0.5 23.5q2 46 1 68q0 15 -0.5 46t-0.5 47q0 6 2 16v4t-1.5 2t-4.5 1q-11 -2 -14 7q-6 13 3 20q29 24 33 26q34 18 58 25q12 5 52 9q56 5 97 -16q40 -22 55 -60q2 -6 0 -20q-2 -9 -5.5 -27.5t-4.5 -27.5q-1 -1 -2.5 -3.5t-2.5 -3.5q-4 -8 -5 -12q-6 -18 -8 -26
q-3 -12 -9 -25t-9.5 -19t-14 -22.5t-12.5 -19.5q-5 -8 -57 -68l-30 -33q-7 -9 7 -9q9 0 27 0.5t27 0.5h19.5t22.5 -0.5t19 -2.5q43 -11 48 -47q6 -34 0 -54q-2 -7 -3.5 -23t-4.5 -24q-7 -25 -27 -73q-7 -17 -23 -51q-2 -3 -7 -8t-6 -7q-5 -8 -6 -10q-8 -21 -33 -29
q-37 -10 -73 12q-3 1 -7 7q-1 2 -1 8q1 0 3 -0.5t4 -0.5l15 3q9 6 17 17q42 64 57 106q6 16 16 48l1 6q1 5 2 7q5 14 3.5 38.5t-8.5 37.5q-6 10 -18 10q-32 -1 -96 -1q-11 -1 -13.5 -3.5t-2.5 -12.5q0 -14 -1 -41.5t-2 -41.5q0 -6 -3 -12h1zM89 155q0 1 1 2l-1 1v-3
q-1 -2 -3 -5.5t-3 -5.5l2 -2q1 2 2.5 5.5t1.5 4.5v3zM77 59l1 -1l-1 1l3 -6q0 -1 2 -2.5t2 -2.5q0 1 2 3t2 3q1 3 1 9q0 7 0.5 21.5t0.5 21.5q0 6 -3 10h-7v-10q0 -8 -1 -23.5t-2 -23.5zM109 445h2q0 -3 -0.5 -9t-0.5 -9q0 -2 1 -5t1 -4q7 5 8 6q26 32 38 48q33 44 50 89
q19 51 13 81q-5 24 -14 37q-12 17 -35 14q-27 -2 -62 -20q-12 -6 -4 -19q9 -18 9 -23q2 -19 0 -58q-1 -21 -3 -63.5t-3 -64.5zM47 175q1 -3 2.5 -7t1.5 -6q1 2 2.5 4.5t2.5 3.5q0 1 1 1q5 4 1 7q-4 4 -7 6q-1 -2 -2 -5t-2 -4zM53 253h1v-7q4 4 5 7v22q0 1 -0.5 2t-0.5 2
q-4 -2 -5 -3v-23zM90 29q-5 7 -5 8q0 -1 -2 -3l-1 -2q0 -2 2 -6q1 -2 1 -3q1 1 2.5 3t2.5 3zM59 226l-4 2q-1 -2 -6 -11q1 -2 2 -3zM88 121l2 6l-4 4l-2 -4zM48 123l3 4v6l-1 -1q-2 0 -2 -1v-8z" />
    <glyph glyph-name="c" unicode="c" horiz-adv-x="352" 
d="M3 148v69q0 7 0.5 19t0.5 18q0 5 -2 19t-2 22q0 15 2 47q9 116 14 147q11 90 43 162q33 73 106 89q36 7 59 -1q3 -1 8 -1t7 -1q24 -10 28 -32q7 -39 3 -76q-4 -30 -4 -45q-1 -10 -9 -14q-21 -15 -46 -31q-2 -2 -8 -4q-2 6 -2 9v8q-6 14 -8 30t-2 37t-1 31v7q-1 3 -6 11
q-7 -4 -9 -8q-26 -35 -50 -110q-16 -52 -23 -116q-1 -4 -2.5 -11t-1.5 -9q-1 -5 -4.5 -30.5t-4.5 -39.5v-48q-1 -14 -1 -43t-1 -43q0 -3 -3 -6q-1 -2 -4 -5t-4 -5v-9l5 5l3 3q0 -1 1.5 -2.5t1.5 -2.5q0 -7 0.5 -21t0.5 -22v-1l-1 -2q7 -36 13 -58l3 -9q6 -13 17 -4
q23 21 28 27q71 79 100 130q48 84 66 129q6 14 10 20q1 2 4 5l4 2q5 -8 5 -9q-1 -8 -3.5 -25t-4 -27t-6 -23.5t-10.5 -24.5q-5 -9 -14 -25.5t-12 -21.5q-4 -5 0 -18q4 -29 9 -37q2 -5 -2 -9q-5 -6 -13 -18t-13 -18q-15 -22 -19 -27q-18 -25 -37 -46q-3 -4 -17 -11
q-5 -2 -17 -9t-21.5 -10t-19.5 -2q-16 1 -48 9q-4 1 -17 5q-39 10 -53 41q-14 34 -16 70zM80 168q-1 2 -1 5h-2q1 -1 2 -2.5t1 -2.5l-5 -5q1 0 1 -0.5t1 -0.5zM43 278h1q0 16 -1 23q0 2 -3 8q-6 -5 -6 -7q-1 -2 1 -8q0 -3 0.5 -9t0.5 -9q-1 -15 -3 -47q0 -1 -0.5 -5.5
t-1.5 -6.5q0 -1 -3 -4.5t-3.5 -4.5t1 -3.5t6.5 -4.5v-4q0 -26 1 -39q0 -44 13 -82q0 -2 6 -7q0 2 1 4t1 4q-1 7 -3.5 23.5t-3.5 25.5q-1 3 0 8.5t1 7.5q1 -3 2.5 -8.5t2.5 -7.5l12 -48q1 -1 6 -7v8q-11 63 -11 70q0 36 -1 55v1q0 9 -6 7q-7 -3 -8.5 0t-1.5 9v58zM20 313h1
v-4q1 -1 1 -3t1 -3q1 1 3 5q1 1 1 4q1 5 1 15l-3 1q-1 -2 -2.5 -7t-2.5 -8zM49 385h-1v5l-3 6q-1 -1 -2 -2.5t-1 -2.5q-1 -1 -1 -4q1 -3 2 -7.5t2 -6.5q1 2 2 6t2 6zM43 317l2 6l-2 4l-3 -3q0 -2 3 -7zM51 237l2 2q0 1 -1 3l-2 -1q0 -2 1 -4zM42 352q0 2 1 3t1 2t-2 3
q-2 -2 -2 -4zM25 180v1h-1z" />
    <glyph glyph-name="d" unicode="d" horiz-adv-x="305" 
d="M40 726q61 6 107 -24q40 -26 52 -51q4 -8 19 -37.5t21 -45.5q26 -67 30 -95q1 -7 5.5 -22t5.5 -23q3 -15 3 -46q0 -1 -0.5 -3t-1.5 -4.5t-1 -3.5t-1 -3q-3 -4 -2 -6q2 -9 -1.5 -25.5t-3.5 -19.5q-1 -19 -16 -67q-3 -9 -9.5 -27t-9.5 -27q-1 -2 -2.5 -8t-2.5 -8
q-2 -3 -6 -8.5t-5 -7.5q-1 -1 -4 -7q-1 -1 -2 -4q-1 -2 -2 -2q-6 -1 -3 -7q1 -4 -0.5 -4.5t-4.5 1.5h-6q0 -4 1 -5q9 -14 -3 -26q-10 -12 -15 -19q-8 -10 -23.5 -30t-23.5 -30q-3 -5 -6 -6q-1 -1 -8 -3q0 1 0.5 4.5t1.5 4.5q3 5 11 14t10 12q1 2 9 20q1 1 -0.5 2.5t-2.5 1.5
t-4 -1t-4 -1.5t-2.5 -2.5t-1.5 -6q1 -10 -19.5 -35t-30.5 -27q-29 -5 -48 4q-11 5 -3 13q9 9 -5 13q-13 4 -16.5 9t-2.5 19q3 41 7 130l9 201q1 22 4 68t4 69l3 144q0 12 -10 13l-30 6q-4 1 -5.5 1t-4 1.5t-3.5 3.5t-1 6q2 15 17 15q6 0 18.5 1t18.5 1zM54 250q6 6 8 9
q-1 1 -1 2q-1 -1 -3 -5t-3 -5v-1q-3 9 -3 12t2.5 11.5t3.5 11.5v7q-6 2 -6 13q0 4 1 11.5t1 11.5q0 1 -1.5 2.5t-1.5 2.5q-2 -2 -2 -5q-4 -52 -5 -79q0 -9 5 -9q7 0 5 10zM53 99l-1 -1q-2 0 -2 -1l1 -1q0 1 2 3q2 20 4 31q0 5 -2 6q-14 10 -3 26q3 4 4.5 12t2.5 10q7 9 -5 9
q-13 0 -2 7q13 7 9 26q0 6 -3 6q-12 2 -13 -6q0 -1 -0.5 -2.5t-0.5 -2.5q-2 -68 -4 -102q-1 -18 13 -20zM152 116v4q10 3 4 15q0 3 1 5q2 6 6.5 17t6.5 16q0 2 0.5 5.5t1.5 5.5q0 3 -2 5l-1 -1q-1 0 -2 -0.5t-1 -1.5q-14 -26 -21 -40q-2 -3 -10 -19t-13 -23q-21 -30 -24 -58
v-8q4 4 5 4q17 2 14 18q0 1 8 9q-4 5 1 12l6 7q2 16 20 28q-2 -4 -2 -5v-7q2 0 3 1q0 1 0.5 3t0.5 3t-2 5zM199 429q-2 53 -35 132q-4 9 -13 25t-12 22q-2 2 -4 8q-4 -6 -4 -9q-10 -80 -11 -96q-3 -47 -7 -148q-1 -9 -2 -27t-2 -27q-1 -26 -5 -73v-28q-1 -21 -1 -63v-15
q0 -1 0.5 -3.5t0.5 -4.5l6 6l1 1q1 1 1 2q48 81 70 166q20 72 17 132zM183 149q3 -7 5 -9l4 4q11 19 12 22q9 18 14 33q7 20 31 91q0 1 -0.5 3.5t-0.5 3.5q0 -1 -2 -2.5t-2 -2.5q-1 -4 -5 -17q0 -2 -4 -4l-1 2v3t-1 3.5t-1 3.5q-6 -3 -7 -5q-10 -23 -12 -29q-3 -9 -10 -47
q-2 -8 -8 -24q-8 -20 -12 -29zM82 152q0 8 -1 11l-3 3v-1q-1 -1 -1 -2q-2 -22 -2 -35q0 -1 2 -3l1 1q2 1 2 2q2 16 2 24zM65 15q5 -3 6 -2q8 11 10 14l-5 3q-3 -3 -11 -15zM84 203q0 3 -0.5 7t-0.5 5q-4 -8 -4 -12q0 -1 2 -8q0 1 1.5 4t1.5 4zM84 185q-1 1 -3 2.5t-3 2.5
q-2 -2 -3 -2l6 -6q0 2 3 3zM74 85q1 -2 1 -5q1 2 1 6q2 2 -1 4q0 -3 -1 -5zM75 112q1 0 1 -0.5t1 -0.5v2v1zM176 202l1 1l-1 1v-1l-1 -1h1z" />
    <glyph glyph-name="e" unicode="e" horiz-adv-x="286" 
d="M11 168q1 9 2.5 49t3.5 63q2 56 4 84l9 153q2 39 10 115l3 30q8 31 41 23q6 -2 10 0q8 10 44 14q30 5 73 7q5 0 35 -2q4 -1 6.5 -7.5t0.5 -10.5q-6 -8 -10 -9q-6 -2 -27 -10t-35 -11.5t-29 -4.5q-10 0 -14 1q-9 2 -11 0.5t1 -10.5q7 -16 2 -45q-3 -26 -7.5 -73t-6.5 -62
q-1 -8 2 -10t11 1q36 12 54 20q15 7 25 -6q6 -8 2 -16q-2 -3 -6.5 -9.5t-7 -10.5t-7 -9t-9 -8t-10.5 -5q-24 -8 -48 -8q-10 0 -10 -7v-23.5v-28.5v-24q0 -8 -1 -22.5t-1.5 -26t-0.5 -22.5q0 -9 -1.5 -37.5t-0.5 -44.5q7 -54 25 -92q6 -13 22 -14q37 0 84 20q6 2 15 -0.5
t12 -8.5q4 -5 -1 -17q-13 -24 -46 -31q-11 -3 -33 -5q-45 -6 -88 14q-64 29 -77 92q-2 7 -4.5 21.5t-4.5 23.5zM61 150q2 -4 3 -7q0 1 1.5 5t1.5 6q0 10 0.5 30.5t0.5 31.5q0 12 1 19q0 2 -3 5q0 -2 -2 -4q-2 -6 -1 -9q-2 -50 -2 -77zM72 359l-2 6q-2 -4 -2 -7
q-2 -21 -4 -67l3 -9q1 1 2 4t1 4q2 44 2 69zM73 405l1 2q0 1 -0.5 1t-0.5 1l-2 -2zM68 267l2 1q1 1 -1 3q0 -1 -0.5 -1t-0.5 -1v-2z" />
    <glyph glyph-name="f" unicode="f" horiz-adv-x="278" 
d="M-2 148q1 28 4 83.5t4 83.5q1 17 2 52t2 53q2 73 7 130q2 28 8 80t8 69q2 12 4 18q1 10 10 15.5t19 3.5q27 -4 33 -16q1 -2 8 -2q21 6 93 8q22 1 54 -4q8 -1 16 -11q4 -7 4 -17q-2 -8 -12 -8q-25 -5 -131 -19q-14 -2 -15 -15q-2 -16 -4.5 -34.5t-5.5 -41.5t-5 -35
q-1 -11 -3.5 -34t-3.5 -35q-2 -18 2.5 -21.5t20.5 0.5q11 3 30 10t24 9q14 5 42 13q5 2 12 -1.5t8 -8.5q2 -10 -5 -17q-53 -45 -80 -54q-16 -6 -46 -20q-7 -3 -9 -12q-1 -18 -1 -54v-54q0 -36 -2 -53q0 -9 -0.5 -26.5t-0.5 -26.5q0 -5 1 -7q6 -13 8 -39t4 -35q3 -15 -9 -23
q-2 -1 -5 -3.5t-5.5 -4.5t-4.5 -4q-6 -6 -6 -12q0 -12 -12 -15q-18 -2 -22 8q-32 64 -38 77q-1 4 -1 14q0 24 1 36h-2zM45 214v-12q-3 -64 -3 -65q0 -4 0.5 -11.5t0.5 -11.5l1 -2q2 -1 2 -2q1 2 1 5q2 32 4 96q0 5 -0.5 14t-0.5 13q0 1 -2 5q-3 -3 -3 -4v-25zM47 308
q0 -10 1 -15l3 -3q3 0 3 3q0 9 2 29q0 4 -3 4q-4 0 -4 -3q-2 -10 -2 -15zM57 353v4q0 1 -1 3t-1 4q-1 -1 -1 -3.5t-1 -3.5q-1 -3 -1 -8l3 -15q2 10 2 14v5zM48 263q1 -3 3 -7q2 4 2 5q0 2 -2 6l-2 -2t-1 -2zM58 444h1l-1 2q-1 0 -1 -1q1 0 1 -1z" />
    <glyph glyph-name="g" unicode="g" horiz-adv-x="358" 
d="M276 103l-9 -18q-30 -38 -36 -44q-1 -1 -14 -9q-16 -12 -37 -20q-19 -8 -29 -5q-15 2 -79 17q-32 11 -46 54q-9 28 -13 108q-1 10 -1 34t-2 37q-7 65 5 211q6 79 31 161q23 61 59 84q60 40 116 26q26 -6 32 -12q9 -7 10 -15q14 -39 9 -85q-1 -7 -2 -22t-2 -23
q-3 -11 -7 -14q-17 -14 -46 -33l-9 -3v4l-1 3q-1 1 -1 4v5q-7 15 -9.5 31.5t-3 37.5t-2.5 32v3q-1 6 -7 14q-8 -6 -11 -10q-34 -54 -49 -130q-5 -22 -17 -105q-8 -53 -10 -84q0 -9 1 -29.5t0 -30.5q0 -8 -0.5 -16t-1.5 -18t-1 -16l-1 -2q-1 -2 0 -3q3 -5 3.5 -11.5t-0.5 -9
t-4.5 -11t-3.5 -9.5q-1 -5 -1 -30q0 -5 6 -5t9 -2.5t0 -6.5q-2 -3 -2.5 -6t0.5 -4.5t2.5 -4.5l2.5 -5q1 -5 3.5 -17t4.5 -17q2 -13 5 -20q9 -22 24 -4q16 12 26 25q7 9 24 30t26.5 33.5t22.5 31t22 34.5q30 58 36 72q10 18 5.5 24t-31.5 5q-6 0 -25 6t-26 5q-8 0 -11 3
q-10 6 2 20q19 23 79 26q62 3 63 -49q0 -3 2 -21t-1 -20q-9 -27 -25 -97q-1 -6 -10.5 -17.5t-11.5 -15.5q-1 -7 -20 -37q-8 -10 -12 -14h1h-1zM51 265q-1 9 -1 27l-2 4q-3 0 -5 -2q-3 -6 -3 -11q0 -20 1 -30q0 -4 -3.5 -19.5t2.5 -20.5q1 -4 -2 -9q-10 -14 -1 -21q3 -3 1 -5
q-4 -4 -4.5 -7.5t2 -10t2.5 -7.5q2 -8 10 -58q9 -32 15 -46l4 -4q4 2 4 5q0 4 -2 12q-1 6 -4 21t-4 24v5q0 -1 1.5 -2.5t1.5 -2.5q2 -7 6.5 -21t6.5 -23q2 -3 8 -13q1 -1 5 -1v2q1 2 1 4q-7 17 -10 34t-5 51q-2 19 -4 57q0 16 -12 6q-7 -2 -7 3q2 9 8 15q7 12 1 13
q-5 -1 -7.5 0t-3 3t-0.5 5v5v18zM24 301q5 -8 6 -13q4 8 3 11v18h-2q-3 -10 -7 -16zM52 374h-1q0 1 1 3v2l-4 8q-1 -3 -3 -7v-4q1 -6 3 -15q1 3 2.5 7t1.5 6zM50 347q-2 1 -4 3l-1 -2q-1 -2 -1 -3q-1 -1 1 -2l1 -2q0 1 1.5 2.5t2.5 3.5zM47 305l3 3l1 2l-4 4q-2 -2 -2 -3z
M232 149v1h-1zM278 164l1 -1v1h-1z" />
    <glyph glyph-name="h" unicode="h" horiz-adv-x="335" 
d="M9 46q0 33 0.5 98t1.5 98q0 10 2 34q1 16 -15 19q-1 0 -6 1t-7 1.5t-4 3.5t-1 8q0 6 3 7.5t8.5 1.5t7.5 1t7.5 1t6.5 2q3 5 3 18q1 36 3.5 110t3.5 110q2 116 5 173q1 7 11 30q1 1 5 1t6 -1q10 -6 21 -15q18 -15 30 -28q6 -6 6 -18q-1 -21 -3.5 -65.5t-3.5 -67.5
q-3 -69 -3 -70q0 -5 1 -16t1 -17v-113q0 -12 2.5 -14t13.5 2q56 20 82 30q11 6 12 16q9 84 16 134q3 23 10 67.5t8 53.5q2 30 6 45q1 4 10 21q2 -2 9 -7.5t9 -9.5q22 -50 29 -69q6 -22 4 -34q-2 -23 -8 -65t-8 -55q-1 -5 -9 -127q-3 -29 -14 -106q-1 -10 -1 -29t-1 -28
q0 -18 -6 -21q-3 -3 -1 -6q6 -29 -9 -53q-2 -4 -6 -14.5t-7 -16.5q-5 -9 -24 -12q-8 -1 -50 4q-1 0 -3 2t-3 2l5 5q11 7 14 25q10 68 13 97q0 3 9 122q0 1 0.5 3t0.5 3q-2 8 -2 12l-12 -6q-4 -7 -9 -11t-17 -7.5t-14 -4.5l-48 -18q-3 -1 -6 -9q-6 -90 -8 -130q-1 -9 1 -24.5
t2 -22.5q-2 -30 -4 -44q-2 -20 -4 -30q-1 -2 -11 -28q0 -1 -2 -1t-3 1q-5 6 -10 -2t-10 -6q-16 0 -26 7t-9 22q0 5 -0.5 15t-0.5 15zM58 34zM234 345q0 1 -4 9q-4 -8 -6 -13q-1 -2 -1 -7q-2 -15 -4 -43q-1 -6 -1.5 -17t-0.5 -17q-1 -16 -1 -48q-2 -42 -5 -63q0 -3 -9 -76
q0 -2 2 -8q0 1 2 3t2 3q1 5 2 13t1 9q1 15 3.5 45.5t4.5 46.5q2 23 8 77q1 10 3.5 39.5t3.5 46.5zM230 402v-5l2.5 -5t2.5 -4q0 1 2 4t2 5q1 5 1 14t1 13q1 5 2 16t1 16q0 1 -4 7q0 -1 -2 -3t-2 -3q-6 -53 -6 -55zM29 188h1q-1 -1 -1 -4q1 -2 1 -5t1 -4q5 7 5 8q1 2 1 6
q2 24 1 36l-3 15q-1 -2 -4 -6.5t-3 -7.5q0 -7 0.5 -19.5t0.5 -18.5zM32 347h1q1 -3 1 -8t1 -7q0 -1 2 -2.5t2 -2.5l1 3q2 2 3 4q1 9 1.5 26.5t0.5 26.5q1 4 -1 13q0 1 -2 3q-1 -1 -1 -3q-6 -24 -9 -53zM57 233q0 -11 -0.5 -34t-0.5 -34q0 -2 2 -6q2 4 2 6q2 66 3 98
q1 5 -2 8q0 -1 -1.5 -3.5t-1.5 -4.5q-1 -10 -1 -30zM239 481q1 -1 2 -3.5t2 -3.5q0 1 1.5 3.5t1.5 4.5q1 7 3.5 22t4.5 22l-3 10q-1 -2 -3 -4t-2 -3q-2 -8 -4 -24zM29 274q2 -4 3 -10t2 -8q0 -1 3 -4l2 4l1 1q2 11 0 16q0 2 -2.5 4t-3.5 3q-4 -5 -5 -6zM61 108h1q-1 7 -5 21
q-1 -4 -2 -11.5t-1 -11.5v-3q2 -5 4 -15q2 10 3 16v4zM35 420l-1 -2q-2 -3 -3 -4q1 0 5 -0.5t5 -0.5q3 0 3 7q-1 1 -2.5 3.5t-2.5 3.5q-1 -1 -2.5 -3.5t-1.5 -3.5zM41 447q0 -1 0.5 -4t0.5 -4q0 2 2 5t2 4t-2 5zM32 151q1 1 2 3l1 1q0 4 -1 6l-3 -1q0 -5 1 -9zM58 45l2 4
q0 3 -1 5v-2q-1 -2 -1 -7zM30 138q1 1 1 3h-1q0 -1 -0.5 -1t-0.5 -1q1 0 1 -1zM58 11h1v1z" />
    <glyph glyph-name="i" unicode="i" horiz-adv-x="188" 
d="M28 152q2 35 6.5 101t6.5 98q1 18 3.5 53.5t3.5 54.5q3 55 10 99q5 41 14 109q1 3 0.5 7.5t-0.5 6.5q2 13 13.5 21.5t24.5 7.5q26 -3 40.5 -23.5t10.5 -48.5q-2 -8 -5 -25t-5 -26q-4 -30 -6 -62q-1 -11 -3 -30.5t-3.5 -35.5t-2.5 -30q-1 -9 0.5 -25.5t1.5 -22.5
q0 -3 -2 -9t-2 -8q-4 -39 -6 -78q0 -2 -3 -73q0 -3 -0.5 -8t-0.5 -7q-2 -34 -2 -49q0 -3 3 -8t3 -7q0 -44 -2 -66q0 -7 -11 -10q-1 0 -6 -1t-8 -1.5t-6.5 1.5t-5.5 6q-1 1 -2.5 1t-2.5 -1q-8 -1 -11 -0.5t-9.5 4t-9.5 4.5q-21 9 -23 40q-1 7 -1 41h-2zM96 288l2 6
q-9 6 -7 27q1 16 3 50q0 1 -1 2.5t-1 2.5q-3 -3 -4 -5q-8 -55 -9 -78q-3 -35 -5 -108q0 -8 2 -22q0 -1 1.5 -2.5t1.5 -2.5q0 1 1 2.5t1 2.5q1 11 1 33q2 22 9 27q2 2 2 9q1 5 1 15t1 15q0 5 0.5 13.5t0.5 12.5zM74 131q0 -1 2 -4t3 -5v11v7q0 2 -1 3q0 -1 -2 -2l-2 -1v-9z
" />
    <glyph glyph-name="j" unicode="j" horiz-adv-x="320" 
d="M206 35l-9 -12v1q-7 -16 -22.5 -21.5t-31.5 0.5q-7 3 -20 7.5t-19 7.5q-20 8 -60 26q-6 2 -32 10q-22 7 -27.5 25t5.5 37q14 25 43 45q17 12 51 34q15 9 25 -2q11 -14 -2 -27q-2 -2 -6 -5.5t-6 -5.5q-30 -22 -37 -54q-5 -25 19 -35q6 -3 18 -7.5t18 -6.5q9 -4 12 5
q19 49 23 61q14 60 19 146q3 44 5 262q1 48 1 146q0 2 -0.5 4.5t-0.5 3.5q0 8 -9 7q-3 -1 -20.5 -4.5t-26.5 -4.5q-14 -3 -31 4q-3 1 -7.5 1.5t-9.5 1t-8 0.5q-3 1 -8.5 1h-8.5q-6 2 -8 8q0 6 5 9q14 6 27 9q57 16 65 17q49 9 84 10q26 1 78 -5q5 0 27 -8q12 -4 10 -11
q-1 -6 -10 -8q-17 -2 -51 -4q-4 -1 -12 -1t-12 -1q-2 0 -4 -2q1 -3 2 -3q9 -4 13.5 -10t5.5 -13t1 -15v-15q1 -6 -0.5 -17.5t-1.5 -15.5q0 -6 -5 -57q-1 -12 -4 -79q0 -53 -2 -63q-3 -12 -1.5 -35.5t-1.5 -34.5q-1 -4 0.5 -13t1.5 -12q-3 -45 -3 -46q-3 -10 -5 -63
q0 -5 -0.5 -20t-1.5 -23q-3 -22 -11 -45q-1 -3 -5 -7t-4 -6q-1 -4 -4 -13t-4 -16t0 -14v-3.5v-3.5l-1 -1q-6 -2 -7.5 -4.5t0.5 -8.5zM227 272h-2v15q0 1 -3 3q-2 -1 -2 -2q-1 -2 -1 -6q-1 0 -2 -2l-1 -2v2l-1 2q-1 20 -1 58v6.5v7v5.5q-1 3 -2.5 8t-1.5 7q-2 -8 -4 -14
q0 -1 -1.5 -4t-0.5 -4q2 -4 2 -8.5t-1 -10.5t-1 -9q0 -5 0.5 -15t0.5 -15q0 -8 -4 -25.5t-3 -27.5q0 -9 -0.5 -19.5t-1.5 -23.5t-1 -20q0 -3 -2 -37t-4 -52q0 -4 1 -11t0.5 -13t-4.5 -10q-2 -1 2 -5q4 0 4 2q6 11 10 23t9 35t6 26q6 26 10 81v17v20.5v17.5zM211 382l2 8
q-1 1 -2 2.5t-1 2.5q-2 -4 -2 -6q0 -1 3 -7zM221 312q1 -2 3 -4q0 1 1 3.5t2 3.5q0 1 -1 1l-1 2q-2 -2 -4 -6zM231 192l4 -4l3 2q0 3 -2 5l-2 -1q-2 -1 -3 -2zM234 179v1q0 1 -1 1v-1zM227 155h-1l1 -1v1zM237 254h1v1q-1 0 -2 -1h1z" />
    <glyph glyph-name="k" unicode="k" horiz-adv-x="335" 
d="M98 151q7 -9 3 -21q-1 -2 2 -17q0 -1 1.5 -4t2 -4.5t0 -3.5t-3.5 -4q-1 0 -1 -1t1 -2q5 -15 7 -43t3 -34q1 -7 -3.5 -11t-12.5 -1q-6 3 -4 9q1 4 -1 10q-3 5 -7 3q-1 0 -6 -5v-5q0 -9 -2 -9.5t-10 2.5q-11 6 -25 9q-19 4 -19 22q0 12 0.5 50t1.5 59q1 8 -0.5 23.5
t-0.5 23.5v49v113q0 37 -2 113v109q-1 28 -1 83q0 6 0.5 20t0.5 21q0 17 19 21q13 2 40 0q15 -3 21 -19q1 -4 4 -8q6 -9 5 -22q-7 -46 -5 -60q7 -49 2 -86q-1 -2 0 -6t1 -5q1 1 4.5 3.5t4.5 4.5q8 18 24 53.5t24 53.5q19 38 35 66q5 10 19 12.5t26 -3.5q14 -6 21 -10
q7 -3 12 -15t1 -19q-2 -5 -17 -32q-2 -2 -2 -3q-4 -15 -12 -29t-19 -30t-16 -26q-4 -6 -9 -19t-6 -15q-2 -3 -8 -11t-8 -13q-3 -4 -7 -14t-6 -14q-4 -6 -11.5 -18.5t-10.5 -18.5q-3 -5 -7 -15q-5 -12 3 -25q25 -32 49 -91q6 -13 18 -41t18 -41q2 -6 6.5 -18t6.5 -18
q1 -3 3 -6.5t4 -7.5l3 -6q7 -13 19 -39q1 -2 5 -11t6 -14q4 -9 12 -25t12 -25q12 -24 18 -37q1 -2 1.5 -6.5t0.5 -6.5q-2 2 -6 4t-5 3l-5 5l-5 5q-3 2 -7 0q-1 -1 -1 -7q1 -3 3 -11q-2 1 -5.5 2.5t-5.5 2.5q-8 6 -13 9q-7 7 -10 0q0 -3 -5 -3q-19 4 -23 22q-6 28 -33 85
q-15 31 -45 91q-7 13 -19.5 40t-18.5 41q-2 6 -4 8q-1 2 -5 6q-1 -1 -2 -2.5t-2 -2.5t-1 -2q-1 -7 -1 -21v-43q-1 -4 -3 -10q0 -3 -4 -3q-1 0 -3 4q0 6 -1 8h-8l-1 -2q-1 0 -2.5 1t-2.5 2t-2 1v-2l-1 -2q2 -5 0 -15.5t1 -16.5q2 -3 -1 -23q-5 -19 -5 -20q3 -6 1 -20t5 -19
q2 -2 2 -11v-2v-3v-3l3 -15q9 12 10 16q0 1 3 65v-1zM53 379q-2 4 -3 7q-1 -1 -3 -4l6 -3q-1 -1 -1 -2q-2 -4 -2 -5l1 -1q0 1 0.5 3t0.5 3t0.5 1t0.5 1zM46 96q0 -9 1 -14q0 -2 2 -4q3 0 3 2q1 4 3 11t3 11.5t0.5 11t-3.5 11.5q-2 3 0 8q0 14 0.5 43.5t0.5 44.5
q0 14 -0.5 42.5t-0.5 42.5q0 8 -0.5 25t-0.5 25l-3 6l-2 -2q-2 -3 -2 -5v-36q-3 -57 -2 -69q1 -13 0.5 -45.5t1.5 -45.5q1 -5 0 -31.5t-1 -31.5zM89 254l4 -12q0 -1 4 -3q0 1 0.5 2t0.5 2q0 3 -1 9t-1 9q0 2 -2 6q0 -1 -2 -2.5t-2 -2.5v-3.5t-1 -4.5zM274 67q2 -2 6 -4
q1 2 2 3l-2 1q-2 1 -2 2zM91 282l4 6l-1 1q-1 1 -1 2q-4 -2 -5 -4q0 -1 3 -5zM87 311q0 1 1 1q-1 0 -2 1v-1zM279 45l1 1v1q-1 0 -1 -1v-1zM253 36l-1 1v-1h1z" />
    <glyph glyph-name="l" unicode="l" horiz-adv-x="245" 
d="M156 37q43 -4 61 -7q10 -1 18 -13q4 -5 1 -11.5t-10 -7.5q-14 -1 -37.5 -3.5t-43.5 -4t-37 -1.5q-9 0 -43 17q-14 7 -19 7q-16 0 -37 21q-2 2 -2 11q1 21 3.5 60t3.5 58q1 26 2.5 78.5t2.5 78.5q1 17 2 48t2 56.5t2 48.5q1 21 4 63t4 62q1 16 0.5 48t-0.5 47q0 16 4 27
q1 6 10 10q25 6 48 -1q2 -1 7 -2.5t8 -2.5q12 -9 12 -11q8 -28 9 -44q0 -8 -2.5 -24t-2.5 -22l-6 -102q-1 -11 -3 -31.5t-2 -30.5q-1 -11 -2.5 -29.5t-2.5 -33.5t-1 -29q-1 -20 -2 -59t-2 -58q0 -6 -3 -17t-3 -16q0 -4 1 -16t0 -18v-13t-1 -16.5t-5 -12.5v-3q6 -16 5 -42.5
t1 -42.5q4 -17 19 -17q12 -1 37 -1v2zM71 96q6 12 6 13q3 39 3 76q-3 36 -6 43q-2 4 -2.5 9.5t0.5 13.5t1 12q0 2 -2 6q-1 -1 -3 -2.5t-3 -2.5l-3 -15q-1 -3 -3.5 -9t-3.5 -9.5t-1 -9t3 -10.5v-3q-2 -46 -4 -70q0 -2 -1 -7.5t-1 -8.5q-1 -21 -3 -65q0 -3 1 -5q5 -14 16 -4
q12 12 12 41q0 1 -6 7zM80 254l-1 1v-1h1z" />
    <glyph glyph-name="m" unicode="m" horiz-adv-x="491" 
d="M73 238q-8 -10 -10 -44q-1 -12 1 -55q1 -5 10 -21q0 -1 2 -2t3 0q3 2 3 5q-6 4 -1 13.5t4 13.5q-1 0 3 4l3 -3q0 -1 1 -5.5t0 -6.5q-3 -28 2 -52q3 -12 0 -14t-14 3q-7 2 -8 2q-5 -1 -9.5 0.5t-10 4t-8.5 3.5q-20 8 -22 34q-1 37 -5 111q-1 23 -2.5 67.5t-1.5 66.5v78
q0 9 -1 34.5t0 39.5q0 1 3 115v22t1 22q2 24 8 39q4 11 17 13q24 4 42.5 -7t22.5 -33q1 -10 12 -19q11 -10 24 -41q5 -13 22 -71q13 -39 20 -68q5 -17 13 -53q8 -49 10 -71q1 -3 -1.5 -11t-2.5 -10l-1 -5q5 -3 7 -1q7 6 7 -4q1 -1 2.5 -3t1.5 -3q5 5 5 6q6 20 13 47
q3 11 9.5 33.5t9.5 33.5q4 12 7 29q7 26 15 34q1 1 4 7q13 54 45 116q3 5 5.5 14.5t4.5 13.5l18 27l3 3q10 19 39 13q8 -2 11 1q16 11 38 -2q20 -13 15 -40q-1 -3 0 -10.5t1 -9.5q-1 -22 -3.5 -66t-3.5 -66q-4 -94 -7 -140q-1 -25 -5 -75q-2 -51 -1 -66q0 -4 1 -12t1.5 -14
t0.5 -12q0 -7 1 -44t0 -44q0 -6 1 -17.5t1 -16.5q1 -10 -2 -23q-1 -2 -3.5 -4.5l-3.5 -3.5q-3 4 -7 10q-1 2 -1 7q-2 -2 -4 -6t-5 -13t-5 -13q0 -2 -2 -2q-1 0 -3 2q-1 2 -2.5 7t-2.5 7q-1 1 -6 4q0 -1 -2 -3t-2 -3q2 -12 4 -18q1 -3 3.5 -8t3.5 -8q1 -4 3.5 -5t6.5 -1h5
q2 -1 7 -6q-4 -4 -7 -4q-19 -3 -26 12q-13 29 -16 42q-20 90 -19 172q0 60 2 176q1 54 5 155q0 2 -1 7t-1 7q-1 -1 -4.5 -6t-4.5 -8q-18 -64 -26 -96q-1 -2 -2 -10t-3 -12q-2 -5 -16 -61q-3 -9 -8.5 -30.5t-8.5 -32.5q-1 -6 -3 -19.5t-5 -23t-10 -17.5q0 -1 0.5 -4.5
t-0.5 -5.5q0 -25 -1 -30q-6 -26 -3 -61q1 -14 1 -42q0 -2 -2.5 -5.5t-2.5 -5.5q-2 2 -5 4.5t-4 3.5l-6 6q-2 -4 -3 -7q-4 -11 -15 -5q-13 9 -28 17h-5q-12 -6 -15 8q-5 23 -13.5 67t-12.5 64t-9 42t-11.5 48.5t-9.5 41.5q-10 46 -16 69q-5 21 -14 49q0 1 -3 4q-1 -1 -2 -2.5
t-1 -2.5q-1 -3 -1 -9v-107q0 -7 -2 -19t-2 -15q0 -2 -1.5 -15.5t0.5 -15.5q5 -37 1 -59q-1 -2 0 -7t1 -7q-1 -1 -2.5 -3t-1.5 -3q-4 2 -5 4q-2 6 -3.5 6t-6.5 -6v10h-1q0 -1 0.5 -4t0.5 -5zM347 615q-3 -2 -9.5 -5t-10.5 -4q-1 -1 -1 -3t1 -2q6 -2 2 -13q-4 -9 -5 -17
q-2 -11 -8 -11q-5 0 -6.5 -0.5t-0.5 -2t4 -5.5q10 -10 -4 -15q-4 0 -4 -4q5 -14 0 -25q0 -1 0.5 -2t2 -3t1.5 -3q4 4 5 7q9 33 13 43q2 5 8 13q2 3 8.5 10.5t10.5 13t5 12.5q0 3 2 7t2 6q4 14 4 23q0 4 -2.5 5t-6.5 0.5t-5 -0.5q-1 1 -4 -4l-1 -3q-1 -6 -1 -18zM380 347
q0 -5 -0.5 -14t-0.5 -16.5t1 -13.5q3 -27 -2 -48v-23q0 -4 2 -12q2 -7 1 -31t5 -31v-4q1 -7 2.5 -20t2.5 -19q0 -3 5 -5q7 -2 4 -6q-5 -6 -6 -12.5t-0.5 -10t3.5 -12.5t3 -11q0 -1 2 -2l2 -1q2 4 2 5q-4 13 -5 17q0 3 2.5 6.5t3.5 3.5q5 -1 6.5 0t1 5t-0.5 5q0 2 -0.5 5.5
t-0.5 6.5t1 5q6 13 3 19q-1 4 0.5 5.5t5.5 -0.5q2 -1 6 -1q-1 2 -1 6q-1 5 -1 14q4 24 0 34q-4 7 -4 24q0 15 3 30q1 8 -1 10t-10 3q-2 0 -5 6q0 4 -0.5 13t-0.5 14q0 20 9 25v2v4l-1 2q-4 0 -5.5 1t-1.5 2t1 4t1 4q4 25 -5 51q-8 24 -7 39q0 9 -2 25t-2 22l-3 3l-3 -1
q-8 -22 -7 -27q0 -6 1 -16.5t1 -19t-2 -16.5q-3 -9 -5 -44q0 -1 1 -2t1 -2zM186 221h-1v-8q4 -6 8 -10q5 10 5 11q0 4 1 14.5t0.5 18.5t-3.5 15q-1 1 0 4q0 9 2 29q0 2 -3 5q-1 1 -3.5 4t-3.5 5q-3 3 -8.5 11t-8.5 11q-1 1 -6 4q-4 -6 -4 -8l5.5 -22t4.5 -19q0 -1 1 -3l1 -2
q-1 -8 0 -15t4.5 -17.5l4.5 -13.5q2 -6 4 -14zM199 319q1 -4 4.5 -14t5.5 -15q2 0 3 1q9 16 1 29q-2 3 -8 7q-4 -6 -6 -8zM82 250q0 2 0.5 3.5t1 2.5t0.5 2q0 11 -1 16q0 2 -4 8q-1 -1 -2.5 -2t-2.5 -2t-1 -2q-5 -5 -3 -8q2 -4 12 -18zM183 336h-1q0 1 -1 3l-1 2
q-15 7 -16 18q-4 1 -6 1q3 -18 4 -20t4.5 -2.5t8.5 -0.5t8 -1zM44 203v6q-2 6 -2 9q-6 -8 -6 -10q-1 -4 1 -14q1 -6 4 -11l3 1q1 4 1 11zM306 479q-1 2 -3 8q-3 0 -3 -1q-4 -9 -7 -20l3 -7q3 1 4 2zM42 228q1 4 5 12q2 2 2 4.5t-1 3.5t-2.5 3t-2.5 3t-4 1l-1 -3q6 -6 0 -16
v-7q0 -1 4 -1zM422 297l5 5l-1 1q-1 2 -2 2q-1 -1 -3 -2.5t-3 -1.5zM436 65q3 3 3 4t-2 3l-3 -1zM288 485l3 6q0 1 -1 3q-2 -1 -4 -3v-2zM435 87q-1 0 -3 1l-1 -1l2 -2zM294 447v1l1 2q0 2 -2 2t-2 -2t3 -3zM37 363q1 -2 3 -4l3 3q0 2 -2 4q-2 -2 -4 -3zM430 217l-1 1h-1v-1
l-1 -1q1 -1 2 -1q0 1 0.5 1t0.5 1zM176 351l3 2q0 1 -1 3l-3 -1q0 -1 0.5 -2t0.5 -2zM357 577q0 -1 1 -2v1h1q0 2 -1 3q0 -1 -0.5 -1t-0.5 -1zM81 85q1 0 1 -1q1 1 1 2q-1 0 -2 -1zM422 110l-1 -1h1v1zM412 49h1v2h-1v-2zM441 330l-1 1l-1 -2h2v1zM280 390l-1 -1h1v1z
M298 410q0 1 -1 2l-1 -1l2 -2v1zM257 316l1 1h-1v-1z" />
    <glyph glyph-name="n" unicode="n" horiz-adv-x="346" 
d="M224 434q0 2 -0.5 6.5t-0.5 6.5q3 19 1 42q0 1 1 3t1 4q2 16 2 23q-2 12 3 17q2 3 1 10.5t-4 12.5h1q1 7 2 29t3 34q1 6 3.5 17.5t3.5 17.5q2 13 4 35q1 6 7 9.5t7 5.5h2q5 -7 13 1q9 5 12 2q2 -2 5 0q1 1 3 2.5t3 2t2.5 -0.5t3.5 -3h2q7 4 9.5 3t5.5 -5t5 -5q2 0 2 -5
q0 -10 -2 -15q-11 -53 -18 -138q0 -2 -6 -113q-1 -14 -1.5 -43t-1.5 -44l-6 -54q-1 -6 -1.5 -18t-0.5 -16q-11 -113 -11 -124q0 -14 -2 -39.5t-2 -34.5q-1 -10 3 -26q1 -7 -5 -10q-13 -5 -35 5q-25 10 -32 9q-12 0 -17 14q-41 109 -69 213q-15 51 -20 69q0 1 -1 2.5t-2 2.5
q-1 -2 -1 -5q-1 -13 -1 -39q2 -30 2 -45q0 -10 -5 -11q-10 -2 0 -8q2 -3 4 -7q0 -3 -1 -3q-10 -5 -4 -10q10 -9 3 -26q-4 -15 3 -21q3 -3 3 -7v-25q-1 -26 0 -26q0 -10 2 -27.5t2 -23.5q0 -9 -4 -12q-1 -1 -4 -4.5t-4 -3t-7 2.5l-7 3.5t-8 4.5l-3 1q-2 -6 -10 -2
q-23 12 -26 15q-1 1 -2 4q-1 2 -1 3q-2 62 -4 95q0 4 -0.5 13t-0.5 14v3q2 11 0 57t-2 57v77q-1 11 -2.5 33.5t-1.5 32.5q-1 31 -3 91q-2 41 0 82q0 19 2 57q2 31 33 26q16 -2 29 -7q21 -7 16 -30q0 -13 5 -23q13 -41 15 -51q3 -11 7 -32.5t6 -29.5q1 -5 9 -40.5t12 -54.5
q3 -11 3 -34q1 -3 1.5 -9.5t1.5 -11.5t4 -8q6 -7 8 -22.5t7 -22.5q4 -5 5.5 -12t3 -17.5t2.5 -14.5q8 -43 10 -46q7 -15 7 -31q-9 21 -11 26l-3 3v-4q6 -20 10 -30q0 -1 5 -8q0 1 -1 4t-1 5v4l8 8q1 17 5 46q1 5 1 14.5v14.5q1 4 2.5 11.5t1.5 9.5v16q4 72 6 107v-1z
M162 230l-6 6q-1 1 -2.5 4t-2.5 4q0 -1 -2 -5l-3 -6q-1 -3 1 -7q1 -1 3.5 -10t5.5 -13q2 -3 2.5 -11.5t6.5 -10.5q1 0 1 -6q-1 -7 0.5 -14t5.5 -14.5t5 -12.5l4 -2q13 4 10 15q-7 29 -16 36l-3 3l-1 3q-8 26 -6 38v12v7q0 1 1 2v2h-6q-2 0 -2 -4q1 -3 2.5 -8.5t1.5 -7.5z
M67 286q2 -27 -2 -33q-2 -2 -2 -7q2 -38 4 -59q0 -3 -1 -4q-4 -5 1 -17q1 -2 3 -8.5t3 -10.5q5 -24 6 -48q0 -1 2 -2l2 -1l1 3q0 26 -4 31q-4 9 0 13q5 1 5 11q0 35 -1 52q0 16 -2 49t-3 50q0 25 -5 36q-2 4 -4 5v-2q-1 -2 -1 -3q0 -9 -0.5 -28t-1.5 -27zM254 336
q1 -3 3 -11q1 2 2 5.5t1 5.5v4q5 45 5 52q-1 8 4 39q0 10 -1 16q0 1 -0.5 4t-0.5 5t2 11.5t2 14.5q1 15 2.5 45t2.5 45q1 22 5 54q0 3 -1 4q-2 3 -6 7q0 -1 -1.5 -3t-1.5 -3q-4 -20 -4 -29q-1 -70 -6 -143q0 -9 -1.5 -28t-1.5 -21v-25.5t-1 -25.5q0 -2 -3 -23zM43 150h1
q0 -10 2 -30q0 -1 2 -7q2 6 2 7v46q-1 4 1 11t1.5 13t-6.5 10v2q0 9 0.5 27t0.5 27q-2 48 -2 70q-1 11 -1 33.5t-1 34.5q0 2 -0.5 5.5t-0.5 4.5q-2 -4 -4 -10v-6q0 -14 1 -42t1 -42q1 -52 3 -154zM131 324q-1 3 -3 8t-3 8q-1 1 -2.5 4.5t-2.5 5.5q-2 -8 -2 -12
q-1 -1 -0.5 -2.5t1.5 -1.5q2 -3 5 -24q1 -8 9 -36q6 -14 10 -20q0 -1 5 -3q2 4 2 8q-1 4 -3 12.5t-3 12.5q-5 14 -7 17q-10 11 -6 23zM263 615q-3 5 -3 6q-6 0 -6 -2q-1 -5 -1 -15q0 -3 0.5 -13t-1.5 -11q-2 -4 -3.5 -12.5t-2.5 -11.5q-2 -5 0.5 -16.5t-0.5 -16.5q1 0 3 -1
q3 0 3 3q1 2 1.5 7t0.5 7q6 52 9 76zM195 97q-2 0 -2 -1v-3q2 -4 2 -5q3 3 3 4q-2 20 -4 29q0 1 -3 2.5t-4 0.5q-4 -4 -4 -8q0 -1 2 -4t2 -4q3 -6 8 -11zM243 473h-2q3 -4 4 -8q5 5 5 7q1 6 -1 18v5q0 1 -0.5 3t-0.5 3q-4 -2 -4 -5q-1 -7 -1 -23zM120 369q-1 2 -5 6
q-3 -3 -3 -4q3 -3 5 -9q2 4 3 7zM256 643q4 -6 6 -8q2 5 2 6t-2 2q-1 1 -1.5 1t-1.5 1q-2 -2 -3 -2zM151 278q0 -7 1 -10q0 -2 2 -4v2l1 2q0 4 -2 10l-1 1l-1 1v-2zM260 654l1 1q2 1 2 2t-2 3l-2 -2q0 -2 1 -4zM87 317q1 0 2 1q-1 1 -1 2h-1l-1 -1q0 -1 1 -2zM80 376v1l-1 1
l-1 -1v-2l1 1h1zM40 416l2 2v1q-1 1 -1 2l-2 -1l1 -2v-2zM251 280l1 -2q2 0 2 2l-1 1q-1 0 -1 -0.5t-1 -0.5zM285 561q-1 0 -1 0.5t-1 0.5l-1 -1q1 -1 1 -2zM163 340q-1 1 -2 1l-1 -1l2 -2q1 0 1 2zM255 306l1 1h-1v-1zM108 403l-1 1h-1v-1l1 -1zM84 54q-1 0 -2 1v-1l1 -2
l1 1v1zM179 267l-1 1zM78 398l1 -1v2z" />
    <glyph glyph-name="o" unicode="o" 
d="M256 572q1 -2 3 -8.5t3 -10.5q3 -18 10 -64v-5q-5 -4 -5.5 -7.5t3 -9.5t3.5 -7q4 -10 4 -32q3 -22 3 -45q0 -2 0.5 -6.5t0.5 -6.5t-2.5 -5t-7.5 -4q-1 0 -1 -11q0 -1 3 -1q2 -1 3 -1q4 -2 4 -5q1 -3 0 -7.5t-1 -5.5h-1q-7 0 -8 -1t-1 -8q-1 -12 -2.5 -36t-1.5 -35
q0 -2 2 -8q5 5 5 7v15q0 2 3 5l4 -4q1 -2 1 -6q-7 -49 -10 -61q-6 -30 -16 -57q-6 -19 -20 -55q-3 -7 -10.5 -25t-12.5 -28q-11 -21 -34 -34q-13 -6 -30 -4q-6 1 -18 6.5t-15 6.5q-4 1 -11 2.5t-10 2.5q-12 5 -13 6q-40 36 -49 85q-5 27 -13 81q-9 81 -9 82q-1 15 2 88
q1 18 5 54v3q-4 17 1 81q6 85 40 171q14 35 72 60q33 14 72 8q17 -2 21 -19q2 -9 5.5 -27t5.5 -27l3 -6t3 -5q4 -10 4 -17q0 -11 4 -14q1 -1 2 -4.5t0 -4.5q-8 -6 1 -15q10 -10 6 -22v1zM75 373h1v1zM271 384q-1 -2 -1 -6h1q0 4 -1 6l4 2q0 1 -1 1q-2 -2 -2 -3zM58 225
q-1 -1 -1 -4q1 -2 1 -5t1 -4l3 1q0 1 -1 4t-1 5l-3 3q7 0 8 -1q7 -7 9 4q1 1 1 4q-2 54 -4 83q0 1 -1 3v2l-1 2l-1 2v-2q-1 -1 -1 -2q0 -14 -2 -46q0 -4 0.5 -15.5t-1 -19t-6.5 -14.5zM97 173q-1 0 -3 -1q1 -5 3.5 -15t3.5 -15q7 -32 10 -43q2 -5 6 -16t6 -16q4 -10 8 0
q10 22 14 33q12 34 18 52q16 52 18 69q9 65 9 109q0 60 -7 144q-3 26 -19 112q-2 11 -8 33q0 1 -1.5 2.5t-1.5 2.5l-4 -4q-16 -27 -19 -38q-2 -8 -10 -30t-10 -34q-3 -17 -6.5 -50t-5.5 -47q-1 -7 0 -13.5t-0.5 -14t-6.5 -12.5v-6q1 -7 2.5 -21t1.5 -21v-27v-33l-3 -3
q-1 0 -3 2t-3 2q0 -7 1 -9q9 -16 3 -38q-1 -3 -0.5 -14t0.5 -15q0 -5 3.5 -14t3.5 -11zM181 645q1 0 3 1q-4 8 -7 10q-1 2 -4 2t-4 -2q-4 -6 -3 -11q1 -6 4 -17.5t4 -17.5q14 -72 20 -109q4 -20 6 -104q0 -18 1 -27q0 -2 5 -7q4 4 4 7v38q0 2 0.5 8t0.5 9q3 10 2 12
q-4 45 -7 70q0 1 -3.5 20.5t-2.5 29.5q0 18 -9 41q-2 6 -10 47zM219 553q2 -14 4 -22q1 -5 3.5 -14t4 -16t1.5 -14q2 -45 4 -135v-31q0 -3 2 -7q2 4 3 5q1 3 1 10q0 4 0.5 16t1.5 19q0 2 1 6.5t1.5 7.5t-0.5 6.5t-5 5.5q-3 2 -1 4q3 5 2.5 14.5t0.5 14.5q4 34 -5 81
q-3 12 -5 38q-2 2 0 2q5 4 5.5 7.5t-2.5 10.5l-4 8q0 1 -3 20q-2 20 -5 28q-1 4 -4.5 12t-5 14t-0.5 13q0 3 -3 5q-3 0 -5 -2q-8 -11 -3 -25q7 -16 7 -22q0 -15 10 -32q2 -7 1 -10q0 -4 -2 -18zM75 185q0 4 0.5 8t0.5 6t-1 4l-2 4q-2 -1 -6.5 -2.5t-6.5 -2.5v-7
q0 -3 3.5 -15t1.5 -20q-3 -17 3 -20q10 -5 4 -13l-2 -2q-1 -3 0 -7q2 -16 4 -22q1 -2 4 -5l2 5q-6 21 3 30q1 1 -1 5q-1 11 -4 30.5t-3 23.5zM43 379h1v12q0 3 -2 7q-4 -4 -4 -7q-2 -26 -2 -39l4 -4q0 1 1.5 2.5t1.5 2.5v26zM35 213h1v-14q0 -1 2 -2.5t2 -2.5q0 1 2 3
q1 1 1 2q0 5 -2 13q-1 3 -2 8.5t-1 8.5q-2 -10 -3 -16zM38 173q-1 0 -1 -1l3.5 -10.5t3.5 -11.5h1v22q0 1 -0.5 4t-1.5 4q0 1 -2 3q-2 -2 -3 -4v-6zM36 265h-1q1 -5 1 -14q0 2 1 6.5t2 6.5q0 1 1.5 3.5t2.5 4.5q0 1 -0.5 3.5t-0.5 3.5t-1 1l-2 1q-3 -6 -3 -7v-9zM234 295v-7
q0 -1 1 -2.5t1 -2.5q0 1 1 2.5t2 2.5t0 4q0 8 -1 12q-2 -7 -4 -9zM87 347q0 2 1.5 5t1.5 4l-3 6q-5 -7 -5 -8q0 -2 5 -7zM36 318h2l3 6q0 3 -1 5l-4 -4v-7zM256 284q0 2 -1 4.5t-2 3.5q-2 -2 -2 -3q0 -3 2 -9q2 2 3 4zM252 391q1 -3 3 -7q0 1 2 3l1 2q-2 6 -3 8zM39 300
q3 3 3 5q-2 2 -3 2q-3 0 -3 -3l1 -2zM46 423q-2 2 -6 4v-3l3 -3l1 1q2 0 2 1zM256 316q0 1 -1 3t-1 3q0 -1 -0.5 -3t-0.5 -4q0 -1 0.5 -3t0.5 -3q1 1 1.5 3.5t0.5 3.5zM47 129q1 0 1 -0.5t1 -0.5l1 1v2v3l-1 2l-2 -1q-1 0 -1 -1v-2q1 -2 1 -3zM251 428l3 1q-1 2 -1 7h-2v-8z
M206 671v3t-1 2q0 1 -2 3q-1 -1 -1 -2zM56 108l-2 4l-2 -2q-1 -1 1 -3q1 0 3 1zM254 371h3v3h-3v-3zM269 440l1 1v1v1l-1 1l-2 -2zM93 62l1 -2q1 0 1 1v2q-1 -1 -2 -1zM87 96q0 2 -1 2t-1 -1t1 -2zM42 409q-1 0 -2 1l-1 -1q1 -1 1 -2zM253 558q1 0 1 1l-1 1h-1zM257 529
q0 -1 1 -1l1 1v1q-1 0 -2 -1zM252 268h1l-1 2h-1q0 -2 1 -2zM74 68v-1l-1 -1q1 -1 2 -1l1 1zM42 338v1l-1 -1v-1q1 0 1 1zM81 112v-1h1v1h-1zM42 458h1v1h-1v-1zM43 435q0 1 1 1l-1 1q-1 0 -1 -0.5t-1 -0.5q1 -1 2 -1zM263 220v1l-1 -1v-1zM262 498l1 1h-1v-1z" />
    <glyph glyph-name="p" unicode="p" horiz-adv-x="278" 
d="M102 239q0 -16 -1.5 -49.5t-2.5 -50.5q0 -27 -1 -40q-1 -11 -3.5 -33t-3.5 -33q0 -1 -0.5 -3t-1 -3.5t-1.5 -2.5q-5 -11 -11 -1q-3 4 -7 12t-7 12q-1 2 -5 4l-3 -6q0 -9 0.5 -27t0.5 -28q0 -3 -3 -6q-14 -6 -37 2q-5 2 -5 12q0 19 2 57q0 16 1 50t2 50q4 84 4 126v82
q1 34 1 102.5t1 102.5v82q0 12 4 38q1 13 21 33q10 8 15 0q5 -9 16 -3q3 2 10 5t11 5q43 17 88 -4q21 -10 39 -33q8 -13 27 -55q10 -26 16 -68q4 -39 -11 -95q-1 -7 -4 -20.5t-5 -20.5l-3 -6q-6 -3 -9.5 -12t-5.5 -11q-6 -8 -16 -25t-20 -30t-22 -21q-3 -2 -8 -7
q-8 -8 -13 1q-4 8 -8 -1l-6 -9q-4 -8 -13 -8q-14 -1 -18 -5t-5 -18v-41h1zM226 479zM69 232q0 -4 -1 -5h2v3l-1 2q7 -5 14 -8q3 -2 6 1q2 8 3 13q-5 2 -7 2q-8 -3 -16 -8zM102 425h1v-52l3 -12q8 5 9 7l3 3t3 2.5l3 1.5t4 1t4 -0.5t4 -2.5q4 0 6 5q10 22 14 33q0 1 2.5 4.5
t3 5t-1 4t-6.5 3.5q-1 0 -1 6q1 6 4 17t4 16q13 39 15 89q1 62 -34 123q-2 3 -6.5 7t-5.5 3q-14 -6 -17 -15q-3 -7 -5 -34q-2 -24 -4 -68q0 -3 -1 -9t-1 -9v-129zM69 101q-1 1 -2 5t-2 6q-4 -6 -8 -13q-1 -1 -1 -3v-7.5t-1 -9t-5 -6.5q0 -5 6 -9q2 -2 8 3q1 6 2.5 18t2.5 16
zM124 328h4q0 1 0.5 3.5t0.5 3.5q0 2 -0.5 6t-0.5 6t5 11q-3 -3 -9 -7q-4 -4 -4 -6q0 -3 2 -8.5t2 -8.5zM63 135l2 2t1 2q-1 3 -3 7l-2 -2q0 -1 2 -9zM81 37q3 9 3 11l-3 3q-3 -3 -3 -5q0 -1 1 -3.5t2 -5.5zM77 286q-1 1 -2.5 3t-1.5 3q-3 -3 -3 -4l4 -4q1 0 3 2zM146 343
q0 1 -1 1l-1 2l-3 -2q1 -2 3 -4zM201 526l4 -4l2 4q-1 1 -3 2l-1 1q0 -1 -2 -3zM44 223q1 1 1 2l-2 2q-1 -1 -1 -3q0 -1 2 -1zM63 121h2l-2 2h-1zM69 264l1 2l-2 1l-1 -1zM208 614l1 1h-2v-1h1zM33 39q1 1 1 2h-2v-1zM89 268v-1l1 1l-1 1v-1zM49 131v1q-1 0 -1 -1h1zM44 171
q1 1 1 2h-1l-1 -1zM70 194v-2h1q0 1 1 1q-1 0 -2 1zM66 202v1v-1zM34 95l-1 -1l1 -1l1 1z" />
    <glyph glyph-name="q" unicode="q" horiz-adv-x="371" 
d="M323 220q2 -24 -5 -39q-2 -6 -5 -17.5t-4 -13.5q-1 -4 1 -9q10 -24 16 -37q6 -14 -5 -22q-11 -6 -10 -19q1 -4 -1 -5t-5 1t-10 7t-10 7q-1 1 -4.5 1.5t-4.5 -0.5q-4 -5 -10 -13.5t-11.5 -15.5t-10.5 -12q-8 -9 -30 -19q-5 -4 -23 -6h-3q-2 -1 -3 -1q-6 2 -19 3.5
t-23.5 4.5t-18.5 9q-2 1 -8 3q-42 9 -68 61q-14 27 -24 96q-2 12 -2 71v61q1 12 4.5 47t6.5 54q5 25 22 97q16 56 24 76q11 31 32 71q7 12 35 29q14 7 44 17q4 5 6 9q12 20 22 27q12 6 18 2h6q18 2 27 2q17 1 28 -18q5 -5 3 -6q-2 -9 2.5 -25t4.5 -22q0 -5 5 -50
q9 -66 11 -88q1 -8 4 -50q1 -2 1 -5v-4q5 -16 1 -21q-1 0 -1 -1.5t1 -2.5q4 -4 4.5 -10t-0.5 -13t-1 -11v-61v-2q3 -19 3 -26.5t-2.5 -26.5t-3.5 -26q-1 -12 -3 -31t-3 -27zM71 104zM252 354h2q-1 13 -2 52.5t-3 61.5q-2 31 -8 89t-7 74q-2 14 -4 19q-1 2 -6 10v-10l-2 -4
q-6 -19 -2 -30q1 -4 -1 -10q-4 -11 -9 -3q-5 4 -10 -1q-8 -11 -12 -32q0 -2 -6 -16q-1 2 -2 7t-2 8q-1 2 -3 4l-1 -1q0 -2 -1 -2q-8 -22 -16 -27q-1 0 -3 -7q-7 -19 -11 -37l-12 -39l-3 -6q-4 -5 -5 -9q0 -1 0.5 -6t-0.5 -7q-2 -18 -4 -31q-1 -10 -4 -27.5t-5 -32t-3 -27.5
q-8 -66 -5 -146v-10.5t1 -10.5q8 -32 13 -47q10 -31 29 -47q9 -12 17 -4q21 18 25 23q8 9 13.5 19.5t12 28t8.5 21.5t0 11q-10 20 -16 30l-11 22t-10 22q-28 59 -31 64q-6 12 -2 23.5t16 14.5q7 0 11 1q22 5 40.5 -5.5t27.5 -33.5q0 -1 2 -2.5t2 -2.5q0 1 1 3t1 3v63z
M256 678h1l1 1q-2 4 -5 12.5t-4 12.5q0 1 -1.5 3.5t-1.5 4.5q0 -2 -1 -3.5t-1.5 -3t-0.5 -2.5q0 -18 2 -50q1 -3 2 -10t1 -10q4 -58 7 -86l3 -12t2 -11q8 -81 10 -89q2 -2 2 -4l4 4q1 5 -0.5 21t1.5 21q-4 10 -5 21t-1 26t-1 22q0 3 0.5 9.5t-0.5 10.5q0 4 -3 11t-3 10
t1 16.5t-2 16.5q-2 8 -2 36q-1 5 -5 22zM283 604q0 -1 -3 -1q5 -13 10 -22q1 -3 5 -3v6q0 2 -0.5 8t-0.5 10q-2 11 -4 32t-3 32q0 2 -4 6h-8q1 -3 3 -7q2 -6 2 -8v-17zM295 505q1 -21 3 -43q0 -3 1 -4l3 -3q2 2 2 3v18v26q0 2 2 6q1 2 1 3t-0.5 2.5t-3.5 2.5q-2 2 0 7
q3 6 3 8.5t-3.5 7.5t-4.5 7q-1 1 -3 1.5t-3 0.5q-1 -2 -1 -6q4 -26 4 -37zM76 149q1 -5 9 -47q1 -2 1 -5.5t1 -5.5q1 -3 5 -5q0 1 0.5 3.5t0.5 3.5q-1 7 -3.5 23t-4.5 25q0 1 -2 5t-1 4h6v4q-1 0 -4.5 1t-5.5 0q-2 0 -2 -6zM49 265v-10q1 -1 3 -5l3 6q0 3 -1 8t-1 7
q0 11 -1 15q0 -2 -1 -8t-2 -8v-5zM71 209q4 -8 5 -11q9 9 9 10q2 3 -1 5.5t-7 2.5l-1 -1q-1 -1 -2.5 -3t-2.5 -3zM58 317v7q0 2 -1 3.5t-1 2.5q-3 -3 -3 -6v-26q0 -1 3 -4q3 3 3 4q0 3 -0.5 9.5t-0.5 9.5zM284 562q10 -6 11 -6q2 0 4 6q0 2 -4 6q-1 0 -2.5 -1t-4 -2.5
t-4.5 -2.5zM309 430q-3 5 -4 11q-4 -6 -4 -9q-1 -2 4 -9q2 4 4 7zM80 174q-4 10 -4 13q-2 -6 -2 -13q0 -2 1 -4l1 -2q1 1 4 6zM284 688q0 1 -0.5 3t-1.5 5t-1 4h-1q0 -10 1 -13l2 -4q0 3 1 5zM301 404q0 -1 1.5 -3t2.5 -3q1 3 1 4t-2 11zM305 196q-1 1 -5 7q0 -1 -1.5 -3.5
t-1.5 -3.5q0 -2 3 -5zM47 220l4 -4q2 0 2 3q0 4 -1 5q-2 0 -5 -4zM53 236h-4q-1 -1 -1 -2l2 -2q2 2 3 4zM302 312q1 0 1 1h-1q-1 0 -1 -1h1zM59 355v-1l1 1h-1z" />
    <glyph glyph-name="r" unicode="r" horiz-adv-x="326" 
d="M92 306v-45.5v-53v-44.5q1 -15 3.5 -42t3.5 -36q1 -3 -2 -14q-1 -2 -3.5 -7.5t-3.5 -8.5q-8 -24 -31 -12q-5 3 -16 5q-19 4 -21 21q-4 36 -5 54q-3 43 -7 134q-1 29 -1 87q1 23 1.5 69.5t0.5 69.5q2 38 8 106q2 49 5 73q3 25 12 49q5 15 26 13q31 -5 55 11q10 5 19 5
q71 0 100 -21q2 -1 9 -6.5t10 -8.5q7 -6 8 -14q7 -43 -17 -70q-13 -15 -38 -45t-38 -44q-11 -13 -35 -35q-8 -6 -1 -11q24 -15 48 -52q7 -13 19 -37t18 -34q2 -4 8 -14.5t9 -16.5q16 -33 20 -68q0 -5 3 -14.5t4 -14.5l6 -39q1 -4 7 -33t8 -44q1 -6 2 -18t1 -13q0 -4 2 -12
t3 -13q0 -4 -1 -12.5t-1 -12.5q-2 -26 -11 -37q-10 -11 -23 -6q-33 9 -34 9q-14 1 -16 16q-7 33 -7 42q0 83 -21 161q-23 88 -57 155q-9 19 -17 33q-1 2 -4.5 4t-4.5 3q0 -1 -1.5 -4.5t-1.5 -5.5v-101zM65 151h-1h1zM188 667q-1 3 -3 10.5t-4 12.5t-6 6q-20 12 -42 1
q-10 -5 -9 -16q0 -3 -1 -9t-1 -10q-1 -7 -1 -22t-1 -22q-3 -11 -9.5 -36.5t-9.5 -39.5q-1 -2 2 -12q1 1 5.5 3.5t6.5 4.5q1 2 14 17t20 23q34 44 39 89zM37 172h-1q3 -28 9 -82q1 -3 6 -8q2 6 2 9q-1 27 -5 83q0 4 -0.5 16.5t-1.5 19.5q-4 26 -2 95q0 14 -6 40q0 2 -4 4
q0 -1 -1 -2.5t-1 -2.5q0 -82 2 -98q1 -11 1.5 -23.5t1 -27.5t0.5 -23zM70 122h-1l-1 1q-1 -1 -1 -2l1 -1z" />
    <glyph glyph-name="s" unicode="s" horiz-adv-x="328" 
d="M215 288q-7 71 -13 113q-3 22 -26 71q-7 15 -30 24q-28 12 -42 20q-10 6 -27.5 18t-22.5 15q-2 0 -2 2q-2 4 -9 15.5t-9 16t-5 17.5t3 20q5 13 13 39.5t12 38.5q7 22 32 37q17 10 55 20q48 13 73 -28q6 -9 15.5 -25.5t11.5 -20.5q7 -12 5 -42q0 -3 -1 -4
q-5 -6 -15.5 -17.5t-16.5 -16.5q-2 -2 -10 -6q-9 -3 -14.5 1.5t-3.5 13.5q5 32 -12 72q-9 25 -26 2q-2 -3 -8.5 -9t-9.5 -10q-10 -13 -14 -26q-6 -16 -16 -48q-6 -16 -2 -25.5t20 -17.5q6 -3 17.5 -6.5t15.5 -4.5q25 -11 31 -15q26 -12 33 -19q13 -11 35 -39q5 -7 13 -21
t12 -20q6 -10 11 -49q7 -37 10 -84q0 -6 -2 -43l-3 -48q-1 -9 -5.5 -27t-6.5 -28q-8 -43 -27 -80q-3 -6 -10.5 -17.5t-10.5 -17.5q-4 -10 -12 -15t-20 -9t-18 -7q-21 -12 -54 4q-5 4 -21 8q-50 14 -82 55q-3 3 -5 13q-16 42 2 107q2 7 5.5 20t6.5 23.5t6 19.5q21 64 46 90
q27 27 53 27q7 0 16.5 -6.5t11.5 -13.5q0 -8 -2 -11q-4 -10 -11 -20q-18 -23 -36 -79q-5 -15 -13.5 -43t-11.5 -37q0 -1 -3 -23v-68q0 -22 20 -13q3 1 28 12q19 10 33 37q32 64 38 135q2 19 4 53h1zM149 344zM132 323v-1h1zM61 262h1v1q-1 0 -2 -1h1zM240 662h1l-1 1v-1z
" />
    <glyph glyph-name="t" unicode="t" horiz-adv-x="272" 
d="M-5 701q6 1 21 4.5t23 5.5q9 2 26 6.5t25 7.5q7 2 10 8q18 29 45 15q7 -4 14 -4.5t17 0.5t14 1q31 0 95 2q1 0 4 -1t5 -1q13 -4 12 -13q0 -13 -15 -17q-16 -3 -47 -9.5t-46 -9.5q-12 -3 -15 -6t-4 -15q0 -3 -0.5 -12t-1.5 -14q-2 -17 -8 -49.5t-8 -49.5q-2 -20 -2 -31
q-2 -31 -7 -92.5t-8 -92.5v-10t-2 -11q-7 -14 0 -21v-3q-3 -12 -3 -34.5t-2 -32.5q-2 -13 -2 -57q-1 -22 -2.5 -66t-2.5 -66q-2 -13 -6 -27q-3 -6 -8 -6q-1 0 -8 7q-1 1 -1 2t-0.5 1.5t-0.5 1.5q-3 -2 -5 -5q-6 -10 -14 -2t-21 10q-8 1 -13 10t-4 19q1 15 3.5 45.5t4.5 46.5
q1 6 1 19v19q1 19 3 59t3 59q1 16 3.5 48.5t3.5 49.5q2 30 6 88q2 23 5.5 66t4.5 64q1 18 5 47q0 7 -2 9.5t-9 1.5q-22 -5 -39 -5q-1 0 -25 6q-6 1 -19.5 3.5t-20.5 4.5l-6 -3q-9 -7 -13 5q-4 17 12 22q7 3 24 5q0 -2 1 -3zM100 66q2 -22 2 -33q1 -9 9 -5q3 0 3 6q0 53 1 59
q7 41 3 138q0 4 -1 6q0 2 -3 2q-2 0 -2 -2q-1 -2 -1 -6l1 -37q0 -38 -1 -38q0 -6 -2.5 -16t-2.5 -14q-2 -18 -4 -54l-3 -6h-3h4zM75 124h1q0 -6 -0.5 -16t-0.5 -16l3 -6q0 1 2 3t2 3q1 5 2 16.5t2 16.5q1 4 2.5 11.5t1.5 10.5q1 2 1 8q0 3 -1 9.5t-1.5 10t1 9t4.5 9.5v7
q0 3 -0.5 8t-1.5 8q-1 20 3 57.5t4 54.5q-1 8 0 22.5t1 18.5q1 4 -2 7l-4 4q0 -1 -2 -3l-1 -2q0 -4 -2.5 -35t-3.5 -47q-4 -53 -10 -169zM91 415l6 -6l2 3q0 4 -2 4q-1 1 -6 -1zM103 459l4 4q0 1 -1 3l-4 -2zM120 287q0 -2 1 -2t2 1l-2 2zM74 309l2 2q-1 0 -1 1l-2 -2
q1 0 1 -1z" />
    <glyph glyph-name="u" unicode="u" horiz-adv-x="314" 
d="M34 207q-13 95 -15 248q-2 30 -2 63.5t1 74.5t1 64q0 16 2 42q3 32 34 30q23 -5 39 -8q22 -6 22 -27q6 -59 -4 -91q-1 -5 -7 -65q-3 -82 -4 -89q-2 -23 3 -118q1 -13 2.5 -40.5t2.5 -40.5q3 -57 17 -105q2 -5 12 -20l15 15l7.5 22.5t8.5 29.5q21 109 23 121q3 24 7 70.5
t6 68.5q6 53 9 106q1 30 -2 70q-2 17 13 23q1 1 9 1q2 0 6.5 -1t7.5 -1q14 -5 15 -13q2 -11 7 -13q16 -9 20 -18.5t2 -28.5q-4 -21 0 -35q2 -4 -1 -31q0 -6 -9 -125q-5 -33 -11 -104v-12.5t-1 -11.5q-1 -11 -3 -37q-2 -12 -5.5 -35t-5.5 -34q-5 -20 -14 -33q-11 -25 -29 -51
q-4 -5 -15 -5q-2 -1 -10.5 -3.5t-11.5 -4.5q-24 -16 -49 -1q-3 3 -15 7q-30 5 -44 32q-22 34 -34 114zM251 576q0 3 -2 3q-4 8 -6 10q-3 -6 -4 -10q-2 -22 -3 -36q-2 -11 0 -23q2 -4 6 -8l4 8q2 36 4 53q1 1 1 3zM239 456q0 2 -0.5 5.5t-0.5 6.5q0 1 -2 1h-3q0 -5 -1 -14
t-1 -13l1 -2q2 -1 3 -2q4 4 4 5v13zM239 503h-1l-1 -1q1 0 1 -0.5t1 -0.5v2zM229 418q2 -1 3 -1t0 1h-3z" />
    <glyph glyph-name="v" unicode="v" horiz-adv-x="343" 
d="M109 647q0 -63 1 -95q0 -8 1.5 -23.5t2.5 -23.5q1 -13 2 -40t2 -40q2 -23 8 -75q0 -5 2 -16t2 -17q2 -6 2 -7q3 2 5 7q3 10 7 32.5t6 32.5q5 28 46 193q7 23 33 122q2 13 6 29q6 10 11 15q3 2 12 4v-3.5v-4.5v-3q1 -2 4 -4l2 -1q2 -2 5 3q4 5 9.5 8t8 3.5t11.5 0t10 -0.5
q20 0 15 -25q-2 -5 -4.5 -17.5t-5.5 -19.5q0 -1 -14 -31q-18 -71 -25 -91q-16 -59 -17 -62q-2 -6 -3 -16.5t-2 -13.5q-11 -67 -19 -105q-1 -5 -5 -23q-1 -3 -3.5 -11t-3 -12t1.5 -13q2 -1 0 -8q-14 -92 -17 -113q-6 -32 -19 -132q-2 -15 -8 -41q-4 -11 -11 -9q-18 2 -36 6
q-17 7 -31 11q-17 6 -18 24q-1 9 -15 124q-6 48 -19 162q-14 114 -23 196q-2 21 -4.5 59t-3.5 50q-3 24 -3 50q0 5 6 11q17 11 42 7.5t36 -15.5q6 -5 9 -23v-15h1zM246 618q1 2 2.5 6.5t2.5 8t1 5.5t6 7q2 -6 2 -9q-1 -6 -3 -17.5t-3 -17.5q0 -1 4 -7q5 5 5 6q6 34 9 50
q1 1 -0.5 3.5t-3.5 2.5q-10 2 -6 18q0 4 1 11.5t2 11.5q0 2 0.5 8t1.5 8q-3 -2 -15 -11q0 -2 -2 -4q-5 -15 -19 -64q-1 -3 -2 -11.5t-2 -12.5t-3.5 -9.5t-7.5 -9.5q-1 -2 -1 -8q-2 -7 -7 -27q-2 -10 -7.5 -27t-7.5 -26q-7 -32 -13 -65q-5 -25 -10 -45q-6 -34 -8 -55v-11
q3 5 5 10t6.5 22.5t7.5 26.5q1 5 4 13.5t5 15.5t3 13q1 2 -5 10q17 13 15 30q-1 2 1 7q2 8 16 58t21 77q0 1 2 3.5t3 4.5zM238 527q2 2 2 4v3q-2 0 -4 -2q0 -1 2 -5zM278 677q0 -2 2 -2q1 0 1 2l-2 2q-1 -1 -1 -2zM236 516l1 1h-1v-1zM160 314v2l-1 -1z" />
    <glyph glyph-name="w" unicode="w" horiz-adv-x="519" 
d="M47 89q2 38 0 76q0 5 -3 80q-6 96 -11 144q0 9 -2 27t-2 25q-1 16 -3.5 63.5t-4.5 75.5q-2 14 -4 46q0 27 18 35q19 13 38 18q12 1 29 -7q15 -4 17 -16q3 -8 0 -45q0 -3 -1.5 -10.5t-0.5 -10.5q-2 -19 -2.5 -56.5t-2.5 -56.5q-2 -16 1 -43.5t3 -37.5q1 -7 2.5 -19
t1.5 -17q0 -2 1 -5t1 -4q4 6 6 10q2 7 11 43q9 34 25.5 96.5t23.5 89.5l4 12t4 15q3 14 14 10q9 3 19 8q2 0 15 5.5t15 -1.5q1 -1 9 -1t11 -3q4 -6 12 -40q6 -70 10 -105q0 -6 0.5 -16.5t1.5 -15.5q3 -26 8 -54q1 -13 3 -40t4 -40q1 -6 3 -16.5t2 -15.5q0 -4 1 -4q4 4 4 5
q1 4 6 29q6 26 16.5 75t15.5 71q27 103 54 197q4 13 14 41q11 22 29 15q1 0 2 -0.5t2 -0.5q9 8 21 8q2 0 6 1.5t6 2t5 -0.5q9 -1 11 -8t-3 -17q-15 -19 -31 -70q-10 -46 -16 -55q-6 -7 -7.5 -20.5t-3.5 -18.5q-3 -7 -6 -22l-4 -20q-3 -10 -6.5 -31t-7.5 -33q-3 -5 -6 -14.5
t-4 -12.5l-2 -4q5 -4 0.5 -23.5t-4.5 -22.5q0 -8 -10 -32q-6 -10 -3 -17q4 -3 0 -9q-2 -6 -3.5 -21.5t-4.5 -23.5q-3 -6 -3.5 -18t-1.5 -17q-1 -10 -5 -30.5t-5 -29.5q0 -11 -2 -15q-12 -84 -14 -101v-3q-3 -15 -4 -16q-12 -6 -17 -6q-4 1 -12 1t-14.5 1t-10.5 5t-13 1
q-14 -3 -15 12q-16 91 -18 105q-8 61 -23 206q-5 27 -9 86q-1 1 -2 3.5t-2 4.5q-3 -5 -3 -9q-10 -35 -27 -97q-5 -16 -13 -46t-12 -44q-3 -11 -11.5 -42t-11.5 -49q-5 -20 -7 -45q-2 -6 -4.5 -20t-4.5 -21q-3 -14 -24 -15q-11 4 -13 6q-13 3 -16 2q-32 -8 -29 24zM352 297
v-1v-1v2zM343 244q-2 0 -2 1q0 -1 2 -1v-1v1zM359 251v-7h1q-1 2 -1 7q8 4 9 11q1 10 8.5 37.5t5.5 43.5q0 2 2 4q13 15 8 31q0 7 2 11q2 7 9.5 31.5t10.5 37.5q1 4 3 16.5t6 19.5q-3 5 4 24q2 6 5 22t7 25q5 10 14 57q3 8 10 44q1 2 -1 6q0 -4 -4 -6q-9 -18 -13 -33
q-4 -20 -13.5 -55t-10.5 -40q-2 -12 -10 -42t-11 -47q-6 -34 -11 -54q-2 -8 -4 -18l-4.5 -22.5t-3.5 -19.5q-3 -12 -6 -26t-6.5 -31.5t-5.5 -26.5zM417 541l-3 4q-3 4 -5 5q-10 -1 -13 -14q0 -6 -1 -10q0 -22 -5 -34q-9 -22 -9 -45q-1 -7 -4 -20t-4 -16q1 -6 -2.5 -17
t-4.5 -15q-2 -2 1 -5q6 0 6 2q4 4 6 13q1 2 1.5 7t0.5 7q2 9 29 114q0 1 1.5 4.5t1.5 5.5q2 6 4 14zM415 560q3 4 4 8q6 13 10 27q9 27 12 46q2 3 -4 11q-3 -3 -3 -9q-6 -15 -8 -34q-10 -29 -12 -41q-1 -1 1 -8zM361 353q1 -3 4 -9q1 3 3 8.5t2 7.5q0 1 -3 4q-2 -3 -6 -11z
M355 281l-9 3q0 -2 -2 -10q0 -1 5 -3q0 1 2 4zM445 658q0 1 1 3.5t1 3.5q-1 1 -1 2q-2 -2 -4 -3l-2 -2q0 -2 5 -4zM360 327q2 4 4 6q-1 2 -6 4v-3q0 -5 2 -7zM464 681l2 2v4l-2 -1v-5zM137 293q2 2 2 0v2h-1q0 -1 -1 -2zM328 266h1v2q-1 -1 -2 -1zM354 209h-2l1 -1z" />
    <glyph glyph-name="x" unicode="x" horiz-adv-x="295" 
d="M65 258q1 2 2 8.5t3 9.5q19 34 7 76q-18 64 -50 194q-7 27 -17 81q-5 22 -13 66q-2 9 8 13q27 11 64 2q32 -10 31 -41q0 -19 10 -39q3 -7 5 -31q1 -18 7 -50l6 -33q2 -6 4 -9q1 2 3 4.5t3 3.5q2 3 6 11q13 37 41 111q20 53 26 64q5 11 23 11q18 2 30 -9q26 -28 22 -47
q0 -9 -2 -12q-13 -22 -28 -66t-20 -55q-49 -113 -53 -126q0 -1 -3.5 -11t-4 -12t-3 -11t-3 -12.5t-1.5 -11t0 -12.5t2 -11.5t4 -12.5q2 -7 1 -9q-2 -7 -1.5 -10.5t3 -9.5t3.5 -9q2 -7 6.5 -20.5t6.5 -20.5q1 -3 6 -27.5t9 -36.5q2 -10 -7 -14l1 2q0 1 -1 3t-1 3h-1
q0 -2 2 -6v-2q5 -7 6 -7q10 1 12 -9q4 -13 7 -32l-9 15q-2 2 -6 4q-2 -4 -2 -7q2 -8 5 -15q1 -2 3.5 -3.5t3.5 -2.5q2 3 4 9q1 -2 7.5 -12.5t8.5 -17.5q2 -10 18 -37l3 -9q0 -1 -8 -14q-1 1 -4 4.5t-5 5.5t-8 6q0 -6 -1 -9q0 -8 -1 -8h-12q-4 3 -11 15q-9 12 -17 0
q-3 -3 -4 -3l-18 9q-6 2 -8 17q-13 41 -20 71q-3 8 -8 23.5t-7 23.5q-5 16 -10 29q0 2 -6 7q-2 -2 -6 -8q-8 -20 -24 -62q-28 -78 -42 -118q-2 -6 -4 -18q-7 -22 -29 -16q-5 1 -15 4t-16 4q-4 1 -8 3.5t-6 5.5t-5 7t-5 6q-8 8 5 14q0 -4 1 -6q3 0 5 2q2 3 10 19q13 36 28 80
h1l2 -1l-1 1h-2q18 44 28 65q1 3 11 13q0 -1 -2 -2.5t-2 -2.5q-1 -1 -1.5 -4t-0.5 -4h5q2 6 2 9l-1 2v2q-1 0 -1 2q-3 3 5 9t-2 10q2 4 6.5 12t6.5 12q3 -2 8 -7q1 2 2 5t2 4q8 14 9 14q6 3 3 10v10l-1 2v3q-1 -1 -4 -3q-10 -15 -11 -17zM208 59q0 -3 1 -3l6 -3l1 1
q-3 3 -5 4q-1 1 -4 1v-1zM132 238q10 -53 11 -58q3 -10 20 -60l12 -36q1 -2 3.5 -5t3.5 -4l6 9q6 11 7 11q12 3 5 14q-2 3 -7 8t-6 7t-2.5 4t-3 3.5t-2 3t-0.5 2.5v28q2 11 -1 19q-3 14 -9 28q-3 5 -5 5q-9 -1 -11 9q-1 4 -2.5 12.5t-2.5 12.5q-1 3 -6 8q-1 -1 -3.5 -3
t-3.5 -3q-3 -9 -3 -15zM83 175q-1 2 -4 5t-4 5q-1 -2 -3 -5t-3 -5q-1 -3 -3.5 -9.5t-3.5 -10.5q-3 -9 -11 -31t-12 -34q-1 -1 0 -3l1 -3q1 0 3 1l2 1q8 14 11 21q4 9 12 29t12 29q2 6 3 10zM52 156l4 6t3.5 5t1.5 4q1 1 -5 7l-6 -15q0 -1 1 -2q1 -3 1 -5zM29 89q5 7 5 8
l-2 2q-6 -5 -6 -7zM232 44q1 2 3 5q1 1 1 2t-2 4t-3 4q-5 -5 -5 -6q1 -2 6 -9zM195 183q-4 6 -6 8l-2 -2l6 -12zM66 187q4 6 5 7l-4 2q-1 -1 -2.5 -3t-2.5 -3q2 -2 4 -3zM176 224q2 -2 4 -3.5t3 -2.5l2 3q-4 4 -6 7l-1 -1q0 -1 -0.5 -2t-1.5 -1zM42 123l-1 3q-2 -1 -3 -2
l1 -2h1zM90 198q3 2 3 3v2l-1 1q-3 0 -3 -2v-2zM33 155v1h-1l-1 -1h2zM47 144h1v1h-1v-1zM208 78l2 4q-1 1 -2 1l-2 -2q0 -1 2 -3zM10 100q0 1 -1 2l-1 -1v-2q2 0 2 1z" />
    <glyph glyph-name="y" unicode="y" horiz-adv-x="362" 
d="M13 368q1 28 1.5 85t0.5 85q0 53 3 107q2 26 11 41q10 16 34 12q28 -2 39 -25q3 -4 5 -21q-7 -40 -1 -58q2 -2 0 -12.5t-2 -13.5q-17 -88 -10 -207q2 -13 7 -25l7 7t7 8q36 66 48 90q26 60 40 100q25 76 27 107q3 41 29 55q2 2 5 2q8 -5 26 -4t26 -5q14 -9 16.5 -19.5
t-0.5 -29.5q-2 -41 -16 -170q-7 -70 -11 -116q-1 -15 -1.5 -43t-1.5 -51.5t-3 -43.5q-2 -68 -9 -87q-1 -3 -0.5 -11.5t0.5 -11.5q0 -30 1 -45q-1 -8 1 -26q4 -29 -17 -33q-8 -1 -19 7q-7 3 -13.5 7t-14 9t-11.5 8q-15 6 -13 22l3 63q0 3 1 7.5t1.5 8.5t0.5 8q6 74 8 111
q1 16 1.5 34.5t1 40.5t0.5 34q1 3 -3 11l-3 -2q-3 -2 -4 -4q-6 -10 -17 -30t-16 -29q-7 -12 -40 -63q-9 -14 -26 -17.5t-31 5.5q-13 11 -30 18q-15 5 -22 28q-5 19 -8 40q-2 9 -3.5 24t-2.5 18h-2zM239 319q-4 14 -4 20q-2 0 -2 -1q2 -10 6 -19q-7 0 -11 -5.5t-1 -13.5
q3 -19 -0.5 -50.5t-3.5 -42.5q1 -21 -2.5 -60.5t-3.5 -53.5t1 -21q0 -2 5 -4q1 3 11 26q-2 5 0 10q0 -1 2 -2.5t3 -3.5q6 -3 7 -5q1 2 2 6t1 5q0 11 2 46t2 53q3 36 3 107q0 1 -0.5 3t-1.5 4.5t-1 3.5q-1 -2 -3 -5t-3 -5q-1 -6 -1.5 -18t-1.5 -18q0 -1 -1 -4t-2 -4l-3 3
q-2 3 -2 5q2 30 3 44zM259 407q0 3 -0.5 7t-0.5 6t-1.5 4.5t-1.5 3.5q-4 -4 -4 -7q0 -6 -1 -17t-1.5 -20t-0.5 -17q0 -5 0.5 -16t0.5 -16q0 -3 5 -6l1 1q8 18 8 24q0 11 -2 30t-2 23zM270 128q-1 0 -1 -2q1 -1 2 -1q1 1 1 2q-1 1 -2 1zM233 391l2 -2q0 1 1 3q-1 1 -2 1
q-1 -1 -1 -2zM236 358l-2 2v-1q0 -1 0.5 -1t0.5 -1q1 0 1 1z" />
    <glyph glyph-name="z" unicode="z" horiz-adv-x="295" 
d="M151 77q33 -4 69 9h14q1 0 5 -2.5t6 -1.5q5 0 9 -3t8 -7.5t7 -6.5q1 -1 1.5 -4t-0.5 -4q-16 -12 -24 -14q-39 -10 -108 -12h-42h-6q-35 -5 -57 19q-3 3 -11.5 6.5t-11.5 5.5q-15 10 -17.5 19t4.5 27q24 66 35 100q6 22 29 106q3 15 11 48.5t12 51.5q4 23 13 68t14 68
q7 36 16 99q1 11 -1 13.5t-12 3.5q-35 1 -73 14q-4 2 -9.5 3t-12.5 2.5t-11 2.5q-2 0 -5 3.5t-3 5.5q0 8 6 14q5 4 11 6t9.5 2.5t11.5 0t10 -0.5q13 -1 39 -3.5t39 -2.5h35.5t43.5 -2q16 -2 26 -15.5t6 -33.5q-5 -19 -14 -60t-14 -62q-2 -7 -14 -48.5t-17 -63.5
q-4 -14 -11 -44.5t-11 -46.5q-13 -52 -27 -98q-4 -19 -11 -47q-3 -11 -9.5 -32.5t-8.5 -28.5t-5.5 -22.5t-3.5 -17.5q-4 -14 9 -14h51zM113 408v8q0 1 -1.5 4t-1.5 4q-1 -1 -3 -3.5t-3 -3.5q-1 -2 -3 -8q-5 -25 -20 -90q-16 -81 -42 -142q-1 -3 -1 -10q-3 -11 -3 -21
q-1 -3 -3.5 -15.5t-3.5 -18.5q0 -3 3.5 -8.5t3.5 -8.5q1 1 4 3.5t4.5 4t2.5 3.5q2 9 10 42q10 29 11 38q3 11 8.5 33t9.5 33q5 15 10 45.5t10 45.5q4 9 5 20t1.5 25t1.5 20zM119 296h1q1 -1 2 -1l1 2l-1 1q-2 0 -2 1q0 -1 -1 -3z" />
    <glyph glyph-name="braceleft" unicode="{" horiz-adv-x="216" 
d="M182 -51q1 -30 -16 -44t-47 -9q-77 16 -129 101q-22 37 -11 96q10 45 34 137q8 30 14 44q5 13 15 63q1 5 4 14t4 14q2 9 4 53q1 8 -10 10q-31 7 -31 42q0 15 12 16q24 4 48 26q26 20 11 49q-25 51 -31 67q-31 83 34 132q3 2 8.5 7.5t8.5 7.5q37 28 92 3q13 -4 13 -23
q0 -3 -6.5 -8.5t-12.5 -5.5q-48 -5 -83 -59q-10 -15 -10 -43q0 -26 25 -74q1 -2 10 -17t13 -23q19 -39 -16 -60q-9 -5 -11.5 -8t-1.5 -6.5t7 -13.5q11 -17 11 -31q-1 -23 -7 -76q-4 -25 -14 -77q-1 -4 -3.5 -10t-3.5 -10q-4 -11 -14 -48t-17 -57t-14 -56.5t-10 -47.5
q-8 -29 14 -56q9 -10 14.5 -10t13.5 10q7 7 20.5 22.5t20.5 23.5q15 15 23 -7l9.5 -19t9.5 -20l2 -6t2 -7t2 -6z" />
    <glyph glyph-name="bar" unicode="|" horiz-adv-x="199" 
d="M26 198q5 109 7 130q6 64 22 205q2 18 7 51t6 43l12 99q0 9 -2 27q-3 40 35 26q25 -10 37 -31.5t7 -47.5q-1 -5 0 -15.5t1 -13.5q0 -41 -1 -62q-4 -46 -6 -68q-1 -12 -4 -35.5t-5 -35.5q-1 -1 -1 -4q-1 -32 -9.5 -90t-10.5 -80q-1 -14 -3.5 -39t-4.5 -45.5t-4 -38.5
q-1 -14 -5 -37.5t-5 -32.5q-1 -17 -1 -52v-4t0.5 -3.5t0.5 -3t-1.5 -3t-4.5 -2.5q-6 -2 -15 0t-12 6q-1 1 -2.5 4.5t-3 4.5t-4 3t-6.5 2q-7 1 -12 21q-10 32 -10 108v14h-2zM43 158q1 -11 2.5 -33.5t2.5 -34.5q1 -3 4 -7.5t3 -5.5q3 12 3 14q-3 79 -3 80q0 14 2 39t2 33
q2 26 4 80v8q-5 -7 -5 -8q-6 -44 -8 -67q-2 -26 -7 -98zM75 204h-1q0 -9 1 -13q0 -2 2 -4q2 2 2 4q1 6 1 18.5t1 18.5q6 76 8 110q0 5 -2 13q-1 -2 -2.5 -5.5t-2.5 -5.5q0 -2 -2 -7t-3 -8q-6 -74 -6 -76q-1 -9 1.5 -25t2.5 -20zM83 490l-5 10q0 -2 -2 -5.5t-2 -5.5
q-1 -3 -1.5 -6t-1 -7t-0.5 -6q-3 -45 -11 -124q0 -1 3 -4q2 2 2 3q1 6 2 18t2 18q0 3 0.5 8.5t1 10t1.5 8.5q1 8 4.5 25t5 30.5t1.5 26.5zM79 157q0 1 -1.5 6.5t-2.5 8.5q-3 -16 -2 -19q0 -5 4 -15q0 3 2 19zM88 375h1l1 1q-1 0 -1 1q0 -1 -0.5 -1t-0.5 -1z" />
    <glyph glyph-name="braceright" unicode="}" horiz-adv-x="216" 
d="M1 -51q0 1 2 8t4 11q3 7 9.5 20l9.5 19q8 22 23 7q7 -8 20.5 -23t20.5 -23q8 -10 13.5 -10t14.5 10q22 27 14 56q-3 11 -10 47.5t-14 56.5t-17 57t-14 48q-1 4 -3.5 10t-3.5 10q-10 52 -14 77q-6 53 -7 76q0 14 11 31q6 10 7 13.5t-1.5 6.5t-11.5 8q-35 21 -16 60
q4 8 13 23t10 17q25 48 25 74q0 28 -10 43q-35 54 -83 59q-6 0 -12.5 5.5t-6.5 8.5q0 19 13 23q55 25 92 -3q3 -2 8.5 -7.5t8.5 -7.5q65 -49 34 -132q-6 -16 -31 -67q-15 -29 11 -49q24 -22 48 -26q12 -1 12 -16q0 -35 -31 -42q-11 -2 -10 -10q2 -44 4 -53q1 -5 4 -14t4 -14
q10 -50 15 -63q6 -14 14 -44q24 -92 34 -137q11 -59 -11 -96q-52 -85 -129 -101q-30 -5 -47 9t-16 44z" />
    <glyph glyph-name="asciitilde" unicode="~" horiz-adv-x="424" 
d="M116 402q43 -11 58 -17q21 -9 48 -31q23 -17 43 -2q5 4 19.5 13t20.5 15q17 16 49 50q4 5 6 6t4 -0.5t6 -6.5q7 -14 -5 -38q-4 -8 -13 -22t-12 -19q-2 -2 -4 -6.5t-3 -6.5q-19 -25 -42 -40q-17 -9 -46 0q-26 10 -67 37q-2 1 -11 7t-14 9q-12 7 -17 -4q-13 -19 -46 -25
q-7 -1 -19.5 5t-12.5 12q-1 9 4 21q6 16 22 28.5t32 14.5z" />
    <glyph glyph-name="uni00A0" unicode="&#xa0;" horiz-adv-x="123" 
d="M81 742q4 0 6 -1q12 -2 14 -11v-2q-3 -1 -4.5 -2.5t-1.5 -3.5v-3.5v-2.5q-2 -11 -4.5 -32t-4.5 -32q-5 -23 -14 -48q0 -3 -1.5 -9.5t-2.5 -10.5q0 -4 -7 -4q-6 0 -7 1q-11 11 -12 22t-5 33q-2 7 -2 35v45q0 4 2 12q0 9 17 13q18 4 27 1zM60 628q3 8 7 24v2l-2 -2
q-4 -16 -8 -23q-5 -8 -7 -26q2 0 2 -2l2 2q1 4 3 12.5t3 12.5z" />
    <glyph glyph-name="exclamdown" unicode="&#xa1;" horiz-adv-x="244" 
d="M70 546q9 35 11 41q5 11 21 15t24 -5q28 -32 29 -54q0 -12 1 -26t2.5 -30.5t2.5 -26.5q0 -4 6 -77q1 -11 1.5 -46t2.5 -53q3 -25 10.5 -71t9.5 -65q1 -14 4 -88q0 -5 -1 -7q-15 -35 -51 -32h-8q-32 0 -32 30q0 6 -1 18t-1 18q-1 11 -6 45.5t-7 53.5q-2 13 -12 128
q-3 30 -5 90q0 7 1 29t0 34q0 15 -2 79zM108 460q0 -2 4 -9q0 1 2 3l1 2q0 3 -2 9zM115 497h-1l1 -1v1zM87 715q-22 2 -26.5 7t-0.5 21q1 3 2.5 8.5t3.5 8.5q12 23 49 29q29 5 37 -25q5 -15 -17 -23l-3 -3q-1 -2 -2 -2q-37 -18 -43 -21z" />
    <glyph glyph-name="cent" unicode="&#xa2;" horiz-adv-x="352" 
d="M15 107v52q0 5 0.5 14.5t0.5 13.5t-2 14.5t-2 16.5q0 11 2 35q6 76 13 111q10 67 39 122q31 54 98 67q32 5 55 -1q2 -1 7 -1t7 -1q22 -6 26 -24q6 -30 2 -57q-3 -16 -3 -34q-2 -7 -9 -10q-15 -9 -42 -24q-2 -1 -8 -3q0 2 -0.5 4t-0.5 3v6q-5 11 -7 23t-2.5 28t-1.5 23v5
q-1 4 -5 8q-7 -2 -8 -6q-24 -24 -47 -82q-14 -38 -21 -88q0 -3 -2 -8t-2 -7q-1 -9 -4 -26.5t-4 -25.5v-36q0 -11 -1 -32.5t-1 -32.5q0 -2 -3 -5q-1 -2 -3.5 -4t-3.5 -3v-7l3 3l2 1l2 2q3 -3 3 -4q0 -5 0.5 -15.5t0.5 -16.5q0 -1 -0.5 -1t-0.5 -1q2 -8 6 -22.5t6 -21.5
q2 -4 3 -7q6 -9 16 -3q23 17 26 21q67 61 92 98q42 60 61 97l9 15q1 1 4 2.5t4 2.5l2 -3q2 -3 2 -4q-1 -6 -3 -18.5t-3.5 -20t-5.5 -18t-10 -18.5q-8 -11 -24 -35q-4 -5 0 -14q4 -22 8 -28q2 -2 -1 -7q-4 -5 -12 -13.5t-13 -13.5q-15 -18 -17 -20q-11 -12 -34 -35
q-6 -5 -16 -8q-5 -2 -16 -7t-19.5 -7.5t-18.5 -1.5q-14 1 -44 7q-10 2 -16 4q-34 6 -49 31q-12 26 -14 52zM86 122q-1 2 -1 4h-2q2 -2 3 -4q-1 0 -2.5 -1.5t-2.5 -1.5q1 0 1 -0.5t1 -0.5q1 1 3 4zM52 205h1q0 12 -1 17q0 3 -3 6q-5 -2 -6 -5q-1 -1 1 -6q0 -2 0.5 -6.5
t0.5 -6.5l-3 -36q0 -1 -0.5 -4t-1.5 -5q0 -1 -2.5 -3t-3 -3.5t0.5 -3.5t6 -3v-3q0 -19 1 -29q0 -32 12 -62q1 -1 3 -2.5t3 -2.5q0 1 1 3t1 3l-3.5 17.5t-3.5 19.5q-1 2 0 6.5t1 5.5q1 -2 5 -12q2 -6 5.5 -18t5.5 -18l5 -5v6q0 3 -5 22t-5 30q0 27 -1 42q0 7 -5 6q-9 -3 -9 7
v43zM30 231h1v-3q1 0 1 -2t1 -2q2 2 3 4q1 0 1 3q1 3 1 11l-3 1q-1 -2 -2.5 -6t-2.5 -6zM57 286h-1v3q0 1 -1.5 2.5t-1.5 2.5l-2 -4q-1 -1 -1 -3q0 -1 1.5 -4.5t1.5 -5.5q1 1 2 4t2 5zM52 234q1 4 1 5t-1 3l-3 -2q0 -2 3 -6zM59 174l2 2l-1 1v1l-2 -1q0 -1 1 -3zM51 261l2 4
l-2 2q-2 -2 -2 -3q-1 0 0 -1zM35 131v1h-1z" />
    <glyph glyph-name="sterling" unicode="&#xa3;" horiz-adv-x="403" 
d="M128 561q1 -36 3 -72q1 -10 11 -9q25 4 41 7q58 10 91 3q9 -1 16.5 -6t17.5 -14t14 -12q2 -1 2 -3.5t-2.5 -5.5t-5.5 -3q-11 -2 -33 -5.5t-33 -4.5q-72 -16 -94 -25q-15 -8 -14 -21q3 -17 10 -101q2 -31 -3 -44q-3 -8 -3.5 -23.5t-2.5 -21.5q-5 -30 -24 -98
q-2 -6 -2 -8.5t2 -3.5t9 -1q8 0 28.5 1.5t31.5 0.5q1 0 61 -6l51 -6q24 -2 31 -10q1 -1 22 -4q14 -3 19.5 -7.5t8.5 -16.5q6 -21 -17 -18q-16 2 -32 6q-25 5 -77 17q-1 0 -3.5 0.5t-3.5 0.5q-7 0 -19.5 0.5t-22.5 0.5t-19 -1q-64 -11 -88 -24q-49 -31 -66 -53
q-13 -15 -30 -9q-20 9 -19 28q2 2 1 6t-7 3l-4 2q1 4 3 11.5t3.5 12t3.5 5.5q21 7 43 42q26 45 40 82q3 9 17 77q9 59 2 135q0 2 -6 13q-2 -1 -6.5 -2.5t-6.5 -2.5q-4 -2 -10 -7t-11 -8t-10 -3q-29 -2 -44 16.5t-8 48.5q1 4 9 9q51 17 61 20q22 8 19 30q-5 93 -2 120
q8 55 37 113q5 11 26 48q12 19 30 14q6 -1 20 1q44 7 69 -13q23 -18 43 -48q5 -8 5 -21q0 -19 -13 -21q-14 -6 -26 12q-3 5 -8 14t-8 14q-18 27 -41 27q-8 2 -17 -5q-19 -27 -29 -49q-18 -35 -22 -57q-1 -5 -9 -67zM249 488q-15 0 -23 -1q-15 -3 -52 -7q-9 0 -5 -7
q3 -4 -2 -7q-4 -1 -14 -3q-1 -1 -2 -3l-1 -2l2 -1q2 -1 4 -1q6 1 20.5 4.5t22.5 5.5l4 4l-6 2q-3 0 -7 2q3 1 10 1q6 0 8 -2q10 -9 26 -4q1 0 9.5 4t13.5 6q3 1 7.5 2t5.5 1q-3 1 -14 5q-3 1 -7 1zM201 84h-9q-4 -2 -7 -2q4 -4 8 -4q23 -4 37 -5l6 3l-2 1q-2 1 -3 2
q-6 1 -16 3t-14 2zM103 59q0 1 -0.5 1t-0.5 1q-3 -1 -3 -2q1 -1 3 -1z" />
    <glyph glyph-name="yen" unicode="&#xa5;" horiz-adv-x="362" 
d="M283 676q4 20 4 29q8 25 -8 36q-7 2 -1 12q2 6 4.5 20t5.5 22q1 4 12 10.5t16 5.5q6 -4 6 -11q1 -11 4.5 -13t13.5 2q15 3 16 -11q0 -1 -0.5 -3.5t-0.5 -4.5q-15 -98 -19 -131q-2 -10 -4.5 -34.5t-5.5 -37.5q-6 -37 -15 -67q-1 -7 -3 -18.5t-4 -20.5t-4 -17
q-7 -20 -20 -45q-22 -44 -40 -55q-9 -9 -9 -20q-1 -18 2 -40q0 -3 0.5 -5t2 -3t2.5 -1.5t4 -1.5l3 -1q42 -12 86 -21q9 -2 9 -17q0 -6 -13 -9q-7 0 -27.5 1t-31.5 0q0 1 -15 0h-15q-14 -1 -18 -16q-19 -117 -20 -207q-2 -3 -2 -10t-2 -11q-3 -14 -7 -15q-11 -6 -26 -2
q-40 18 -35 73q0 22 11 162q0 12 -2 13.5t-13 -0.5q-45 -9 -58 -15q-17 -5 -35 4q-18 4 -24 7q-10 2 -10 9q-2 5 7 12q6 2 26 12t31 13q15 5 43 11t35 8q15 2 14 14q0 3 1 9t1 9t-1 6q-3 3 -12 5.5t-12 3.5q-19 11 -29.5 18.5t-22 21.5t-16.5 31q-1 4 -2.5 9t-4.5 11t-4 10
q-20 86 -2 183q4 24 17 94q4 15 15.5 18.5t24.5 -5.5q12 -5 17 -11q9 -7 9 -15q7 -51 3 -66q-27 -110 -21 -178q0 -23 7 -43q0 -13 15 -11q40 9 54 36q35 63 54 125q5 13 13 37q1 4 5 6l2 -2q1 -2 1 -4q0 -10 7 0q1 2 3.5 4t4.5 2.5t3 -0.5q4 -4 7 -4.5t5 1t5.5 5l4.5 4.5
q4 5 6 18q2 12 6 34t7.5 40t7.5 34q2 6 4 17.5t3 17.5q0 3 -1.5 6.5t-1.5 4.5q-1 0 -4.5 -1t-4.5 -2q-14 -18 -16 -24q0 -1 -2.5 -15t-4.5 -21q-1 -3 -3 -8.5t-4 -9.5t-4 -7q-1 -2 -1 -5t-1 -5l-4 -8q-2 6 -2 8v4h-2zM292 616l-1 1h1v-1z" />
    <glyph glyph-name="section" unicode="&#xa7;" horiz-adv-x="472" 
d="M244 697q3 -1 25 -6t34 -9q26 -11 33 -44q1 -3 3.5 -8.5t3.5 -6.5q3 -7 0 -11q-3 -3 -7 -9q-10 -21 -23 -8q-10 11 -31 16q-12 2 -32 -2t-24 -4q-8 -1 -17 -4t-15 -6t-17 -9t-16 -8q-15 -6 -20 -19q-8 -16 3 -27q47 -34 103 -59q11 -5 32.5 -16t31.5 -16q31 -14 58 -41
q37 -39 48 -72q3 -9 3 -12q1 -8 4.5 -22.5t4.5 -20.5q9 -39 0 -60q-3 -13 1 -18q3 -1 3 -7q0 -5 2.5 -23t2.5 -23t-2 -24q0 -3 -1 -5.5t-2 -5.5t-1 -4q-3 -5 -8.5 -14.5t-10 -16.5t-8.5 -11l-11 -11t-12.5 -12t-11.5 -8.5t-13 -5.5q-4 -1 -11.5 -6.5t-12.5 -6.5t-14 -2
t-14 -2q-2 0 -4.5 -2t-3.5 -2q-5 -4 -11 -4t-13.5 2t-11.5 2q-22 2 -44 6q-12 2 -24 7q-25 10 -39 20q-9 7 -25.5 18.5t-20.5 14.5q-1 0 -1 1q-47 45 -60 59q-5 5 -22 35q-3 13 -3 15q2 25 -2 44l2 8l2 -1q1 -1 1 -2q11 -22 46 -42q31 -22 74 -44q55 -31 56 -31
q8 -2 22.5 -4.5t18.5 -3.5q39 -6 79 11q22 8 41 20q5 4 20 26q2 6 2 8q-2 4 -5 4l-1 -1q-2 -1 -3 -1q-21 -4 -30 3q-3 4 -7.5 5t-11 1.5t-8.5 1.5l-4 4q1 1 2.5 1t2.5 1q2 2 7 4t7 3q2 2 3 2q-1 3 -3 5q-5 5 -9 4q-5 -1 -13 -3t-11 -3q-1 0 -2.5 -1t-3.5 -1q0 1 -3 4
q2 7 3 7q12 3 16 5l4 2l-4 4q-24 11 -25 11q-16 2 -23 9q-4 4 -8 6.5t-10.5 4.5t-8.5 3q-42 22 -62 36q-3 2 -8 5t-8.5 5t-7.5 7t-6 11q-15 39 -14 77q1 8 2 24t2 24q0 9 -6 13q-15 18 -22 52q-2 10 -2 32q-1 45 14 85q1 3 3 8.5t3.5 9t4 7t5.5 4.5q5 3 13 9q57 29 82 33h16
v2zM336 388q5 -5 7 -9q0 3 1 3q-6 6 -7 6h-1h-1h1zM48 154q-3 4 -9 11.5t-9 10.5q0 1 -5 3l3 -9q4 -3 10.5 -8.5t9.5 -7.5v0zM355 115h1q-2 -1 -5.5 -4.5t-5.5 -4.5q-7 -4 -19 -11t-19 -10q-3 -1 -16.5 -7.5t-20.5 -7.5q-35 -7 -63 -4q-9 2 -55 19q-43 18 -73 47
q-2 2 -4 3.5t-5.5 3.5t-5.5 3h-4l1 -2q1 -2 2 -3q27 -22 29 -23q5 -6 19 -16q1 -1 2 -5q-2 0 -3 1q-9 7 -26 18t-23 15q-4 2 -5 2q1 -1 2 -3l1 -3q3 -3 13 -11.5t16 -12.5q26 -18 59 -38q31 -22 57 -25q20 -3 59 -3q12 -3 23 1l6 1q6 1 7.5 2t4.5 6t4 13q0 2 3 2q6 0 4 9
q0 4 3 7q2 2 7 6t8 7q4 4 11 14t11 14zM384 272q4 6 6 11q0 1 -4 10q-5 5 -6 5q-8 8 -22.5 21.5t-21.5 20.5l-2 2l-2 1q-4 2 -8.5 4t-10.5 5t-9 5q-2 1 -16 7.5t-21 9.5q-5 2 -16 7t-17 7q-2 1 -3.5 2.5t-3 3.5t-2.5 3q-5 2 -16 6.5t-16 6.5q-6 3 -9 -1q-1 -2 -10 -6
q-2 0 -9 -11q0 -4 5 -9q1 -4 5 -4q26 -19 51 -32q9 -5 28 -11.5t28 -10.5q8 -3 23 -11t22 -11q8 -5 24.5 -13t24.5 -13q2 -1 8 -5zM114 132h1q-2 4 -4 5q-23 15 -41 30q-3 2 -38 29l-6 3q2 -8 4 -9q14 -16 21 -20q14 -11 42 -29q7 -5 21 -9zM242 88v3h2h4l-2 2l-2 1
q-15 3 -28 3h-13q-7 2 -21 7t-21 7l-3 -1h-3l5 -5q10 -6 17 -7q12 -3 65 -10zM121 128q3 -3 4 -3q3 -3 11 -7t11 -7q1 0 3 1l-2 4q-4 2 -11.5 6.5t-11.5 6.5l-1 -1h-3zM362 364q1 -2 2 -3v3v1l-1 -1h-1zM353 373v-2l1 2q0 1 -1 1v-1zM378 347h-1h1zM172 65q2 2 3 2
q3 -3 6 -4l-2 -2q-4 2 -7 4z" />
    <glyph glyph-name="dieresis" unicode="&#xa8;" horiz-adv-x="196" 
d="M130 765q-11 0 -16.5 4.5t-4.5 11.5q0 7 -4 21.5t-3 22.5q1 4 8.5 8t8.5 7q3 13 15 5q3 -2 10 -4.5t9 -5.5l5.5 -5.5l6 -6t5.5 -6t4 -6.5q4 -16 -8 -25l-8 -8q-3 -6 -14.5 -8.5t-13.5 -4.5zM32 767q-10 0 -18.5 10t-7.5 18t4 14.5t4 13.5q6 19 18 20.5t22 -11.5
q1 -1 7 -6t9 -8.5t4 -8.5q4 -17 -8 -25q-1 -1 -4 -3.5t-4 -4.5q-3 -6 -13.5 -6.5t-12.5 -2.5z" />
    <glyph glyph-name="copyright" unicode="&#xa9;" horiz-adv-x="365" 
d="M168 526q19 0 27 -2q13 -1 28 -16q3 -1 4 -4q5 -13 16 -17q28 -16 32 -22q4 -5 12 -13.5t11 -11.5q11 -13 22 -39q1 -3 1 -10q7 -31 7 -53q0 -11 -5 -23q-12 -37 -34 -63q-1 -4 -4 -8q-4 -9 -10 -10q-3 -2 -10 -5t-11 -5q-9 -3 -13 -8q-2 -3 -9 -5q-8 -4 -22 -8.5
t-18 -5.5q-13 -3 -24 1q-4 2 -12.5 4t-9.5 2q-21 4 -27 8q-3 2 -12.5 8t-14.5 10q-5 3 -12 11t-10 11q-1 1 -11 14q-6 11 -12 33q-1 4 -3 14t-3 16q-1 16 -1 45l3 39q3 15 13 29q12 17 29 36q21 21 39 30l8 6q18 12 36 12zM166 243q12 2 36 4q12 2 17 4q6 2 17.5 7t16.5 7
q1 1 4 2.5t4 3.5q3 4 8 10.5t6 8.5q2 2 6.5 8.5t6.5 9.5q2 5 6 13.5t4 9.5q6 12 6 20q4 14 4 22q0 7 -2 21q-3 22 -18 29q-1 1 -10 5t-14 8q-2 1 -14.5 9t-19.5 12q-4 3 -11.5 8l-10.5 7q-1 1 -3 1h-9q-1 0 -4 0.5t-5 0.5q-4 -1 -17 -2.5t-19 -5.5q-1 -1 -6 -2.5t-8 -3.5
q-9 -6 -17 -14q-24 -17 -49 -49q-12 -16 -10 -41q2 -13 2 -42q0 -14 3 -19q9 -9 16 -15q1 -2 14 -12q9 -9 25 -14q4 -1 33 -8zM301 312l2 2q5 8 11 26q0 3 -1 4l-1 -1q0 -1 -1 -2q-4 -12 -7 -17q0 -2 -1.5 -4.5t-1.5 -4.5v-3zM288 287l2 1l3 3q5 11 7 13v6q0 -1 -1 -2l-2 -2
q-1 -2 -4 -6.5l-5 -7.5q0 -2 -1 -3q1 -1 1 -2zM203 233q1 0 2.5 0.5t3.5 1t4 0.5l1 1h-1l-1 1q-2 0 -10 -2q0 -1 -1 -1q1 -1 2 -1zM240 474l1 1q0 2 -1 2l-1 -1l1 -1v-1zM185 335q23 5 45 6h2q2 0 3 -1q-1 0 -1 -1t-1 -1q-3 -1 -9.5 -2.5t-9.5 -1.5q-6 0 -8 -3l-1 -1
q-2 -1 -4 -3q2 -2 4 -3l1 -2l2 -2v4q0 4 5 4h6h2q-1 0 -1 -1t-1 -2l-1 -1l-2 -2q2 -4 4 -4q4 -1 1 -4q-6 -4 -11 -6q-11 -6 -21 -7q-12 -1 -37 -1q-7 0 -19 4l-12 8l-6 4q-1 2 -3 5t-3 5q-1 1 -2 4t-2.5 5.5t-2.5 4.5q-4 14 0 24q0 2 1 4.5t1 3.5t0.5 5t1.5 5q6 10 12 15
q0 1 2 1l-1 -2q-1 -1 -10 -13v-2q1 0 1 1q5 4 14 13q6 6 18 14l7 7q-1 0 -3.5 -1t-4.5 -1h-1h-2q1 1 2 1q1 2 4.5 4t4.5 3q6 2 33 16q18 10 33 -13q6 -10 6 -18q2 -7 0 -10q-4 -5 -8 -1q-10 5 -25 1q-26 -7 -48 -27q-3 -2 -7.5 -7.5t-6.5 -7.5q-7 -7 2 -10q16 -8 36 -8h21
v-2zM127 406h1h-1zM127 406z" />
    <glyph glyph-name="ordfeminine" unicode="&#xaa;" 
d="M64 153q1 8 2.5 24.5t2.5 24.5l3 51q0 8 2 24t2 24q0 5 0.5 20.5t1.5 23.5q2 52 4 77q8 68 13 101l12 42l3 6q4 4 6 1h6q5 5 12 4q1 0 4.5 1.5t5.5 -0.5q1 -1 4 -1t4 -1q23 -11 41 -41q4 -8 6 -11q7 -11 11 -34q1 -9 3.5 -27t4.5 -28q0 -8 2 -24.5t2 -24.5q1 -11 1.5 -32
t0.5 -28q0 -11 2 -29q2 -16 2 -26q0 -13 -2 -41q0 -24 -1 -36q0 -5 -0.5 -15.5t-0.5 -15.5q0 -2 -2 -6q-1 -3 -5 -1q-2 1 -5 1t-5 1q-6 2 -10 4q-9 4 -17 11q-6 4 -4 9q0 4 1 14t1 15q4 38 5 57v9v10.5v8.5q0 7 -4 3q-3 -2 -32 -10q-7 -2 -22 -2q-6 1 -6 -4l-3 -48
q0 -8 -1.5 -24.5t-2.5 -25.5q0 -5 0.5 -15.5t0.5 -16.5q0 -13 -10 -16q-9 -2 -12 -7q-6 -8 -18 -1q-9 5 -9 19q0 4 1 6h-1zM194 353q0 1 1 2q-1 -1 -1 -3q0 -1 -0.5 -3t-0.5 -3h1v6v1zM113 555v2v-2q0 -2 -1.5 -5.5t-2.5 -5.5t-2 -7t-1 -6q-9 -30 -13 -80q-1 -10 -2.5 -28
t-1.5 -27q-1 -13 -1 -39v-12h1q0 2 -0.5 6t-0.5 6q0 1 1.5 3.5t1.5 4.5q1 6 1 18q1 10 2.5 30t2.5 30q1 3 1 9t1 9q2 20 3 31q2 18 4 25q7 30 7 38zM120 327v-12q-1 -4 0.5 -5t5.5 0t12.5 2.5t11.5 1.5q10 3 28 9q3 1 3 6q0 10 -0.5 29t-0.5 28q0 10 -2 15t-2 14t-1 13
q-2 6 -2 18t-1 17q-5 26 -10 44q-4 18 -15 33q-4 6 -6 -1q-5 -10 -7 -34q-8 -60 -10 -90q-2 -16 -2 -49q-2 -26 -2 -39zM202 357q-2 -14 -6 -16q-2 -1 -2 -8q4 -1 6 -1q3 1 4.5 -1t1.5 -5v-2q-2 -6 -7 -4q-1 0 -3 -3q-2 -8 -2 -12q0 -3 0.5 -4.5t2 -3.5t5.5 0l3 -3
q-2 -2 -3 -2q-6 1 -6 -5v-6q0 -3 -1 -9.5t-0.5 -11t2.5 -8.5q0 -3 -1 -4l-1 -2l-1 -2v-35q0 -2 2 -4q0 -1 1.5 -3t2.5 -3t2 -4.5t2 -4.5l5 -5q2 4 2 5q1 9 1 27q4 33 3 66v36q-1 10 -2.5 31t-1.5 31l-3 24l-1 1l-2 2q-3 -3 -3 -4v-47zM92 338h-1q-1 1 -2 1t-1 -2t1 -3l1 1
q1 1 2 3zM212 165l1 1h-1v-1z" />
    <glyph glyph-name="guillemotleft" unicode="&#xab;" horiz-adv-x="461" 
d="M395 588q3 -12 2 -13q-7 -57 -59 -96q-6 -6 -16.5 -15t-18 -16.5l-13.5 -13.5q-15 -9 -2 -21q7 -9 16 -19t20 -22t17 -18q5 -6 17.5 -20t21.5 -24.5t17 -21.5q6 -7 14.5 -13.5t10.5 -8.5q19 -4 13 -35q-12 -44 -50 -56q-5 -3 -15 -3q-14 -4 -19 9q-8 16 -42 64
q-6 8 -22.5 29.5t-24.5 32.5l-60 60q-16 19 -8 40q9 22 16 35t19.5 27t28.5 21q31 13 72 63q20 25 25 27q5 3 11.5 4.5t15 2t13.5 1.5zM215 588q3 -12 2 -13q-7 -57 -59 -96q-6 -6 -16.5 -15t-18 -16.5l-13.5 -13.5q-15 -9 -2 -21q7 -9 16 -19t20 -22t17 -18q5 -6 17.5 -20
t21.5 -24.5t17 -21.5q6 -7 14.5 -13.5t10.5 -8.5q19 -4 13 -35q-12 -44 -50 -56q-5 -3 -15 -3q-14 -4 -19 9q-8 16 -42 64q-6 8 -22.5 29.5t-24.5 32.5q-9 9 -19 19.5t-22.5 22.5t-18.5 18q-16 19 -8 40q9 22 16 35t19.5 27t28.5 21q31 13 72 63q20 25 25 27q5 3 11.5 4.5
t15 2t13.5 1.5z" />
    <glyph glyph-name="uni00AD" unicode="&#xad;" horiz-adv-x="310" 
d="M98 374q7 0 42 0.5t43 0.5q13 1 29 -2t27 -3q8 0 29 -7q6 -1 8.5 -10t-0.5 -13q-4 -2 -7 -2t-7.5 0.5t-6.5 0.5q-6 0 -7 -1q0 -1 2 -5q1 0 0 -1l-2 -2q-18 -3 -20 -1h-4q-3 -3 -11.5 -4t-15 -0.5t-11.5 -0.5q-12 -1 -38.5 0t-37.5 0q-22 -2 -50 -13q-23 -10 -26 17
q-4 16 0 25q2 8 6 12l12 3q6 1 19.5 3t20.5 3h6z" />
    <glyph glyph-name="registered" unicode="&#xae;" horiz-adv-x="404" 
d="M29 365q1 7 3 19q3 31 18 56q10 16 21 30q17 23 31 31q16 10 39 23q5 4 23 6q16 2 26 2q26 0 39 -2q22 -5 33 -19q1 -1 3 -4q6 -8 8 -11q5 -6 1 -11q-1 -2 -1 -6q1 -2 6 -2q7 2 17 -5q2 -1 6 -3.5t6 -4.5q10 -8 13 -13q9 -15 13 -25q8 -19 8 -37q0 -3 0.5 -8t0.5 -7
t0.5 -8t0.5 -8q0 -20 -2 -30q0 -3 -5 -18q-1 -2 -20 -43q-2 -4 -5 -6q-24 -21 -25 -22q-3 -1 -7 -4.5t-6 -5.5q-5 -5 -12 -7q-13 -1 -35 -10q-1 0 -3 -0.5t-3 -1.5h-1l-2 1q-5 -2 -22 0q-4 1 -13 1q-17 0 -40 9q-11 1 -21 6q-5 1 -27 14q-5 4 -14.5 9.5t-12.5 7.5
q-10 8 -13 14q-10 18 -15 26q-8 24 -8 46zM311 286l2 2l2 2q5 12 17 36v5l-3 -3q-2 -4 -5 -11t-5 -11q-1 -2 -2.5 -6t-2.5 -6q-3 -4 -3 -8q-3 -1 -6 -5q-18 -14 -27 -20q-2 -1 -5 -4l-5 -5v-2h2l20 10q16 11 21 26zM120 429v9v4q-1 11 8 13q8 3 11 0q6 -8 13 -3q13 6 29 6
q12 1 34 -3q8 0 17 -7q7 -4 7 -10q0 -5 2 -7q6 -5 8 -16q0 -1 -0.5 -1t-0.5 -1q-7 -16 -16 -23q-4 -2 -12 -8.5t-11 -8.5q-7 -4 -22 -11t-22 -11q-1 0 -1 -0.5t-1 -0.5q2 -2 2 -3q2 0 3 -1q6 -1 16.5 -3.5t13.5 -3.5q31 -5 42 -32q1 -2 2.5 -3.5t1.5 -2.5q7 -11 8 -23
q0 -2 -4 -6q-1 -1 -4 2q-1 1 -3 4q-6 14 -19 18q-1 0 -6 1.5t-8 2.5q-5 2 -15 4t-15 4l-21 6q-4 1 -4.5 0.5t-0.5 -5.5q0 -3 -0.5 -11t-0.5 -11q-2 -23 -9 -31q-2 -2 1 -4q2 0 4.5 -1t5 -1.5t5.5 -0.5q12 -2 36 -4q15 0 23 2l27 6q9 4 15 8q5 2 13 8t12 8q12 7 18 23l4 8
t5 9q8 8 11 17q5 23 4 40v13q1 13 0 13q0 19 -14 42q-7 12 -18 13q-11 0 -20 9q-1 2 -4.5 4t-3.5 5h-1q-14 8 -16 9q-14 8 -16 9q-12 3 -25 3q-28 2 -46 -5q-16 -6 -23 -11q-2 -2 -8 -5.5t-8 -5.5q-11 -8 -11 -9h-2l-2 -1q-7 -5 -8 -9q-23 -28 -26 -35q-1 -3 -6 -11.5
t-7 -14.5q-6 -19 -11 -39q-2 -15 0 -22q0 -2 2.5 -6t2.5 -6q0 -12 11 -19q6 -5 35 -26q3 -2 6 -3.5t7 -3t6 -2.5q4 0 4 3q0 9 -0.5 27t-0.5 28q-2 5 -5 4q-2 0 -2 1q-7 11 -7 18v14q1 6 6 7q7 2 7 11q-2 38 -2 56zM200 425q-24 0 -39 -9q-10 -4 -9 -13v-14q0 -7 7 -4
q6 2 16 8t13 7q3 2 12 8.5t14 9.5q2 2 2 3q-2 2 -3 2q-8 2 -13 2zM187 391l-5 -2.5t-4 -2.5q-1 0 -4 -1.5t-4 -1.5l-15 -9l-1 -1l-1 -2q2 -2 5 -1q1 0 3.5 1.5t4.5 1.5q8 6 12 8q3 2 9 5q2 0 2 3q-2 0 -2 2zM193 331h-3l1 -1q1 -2 2 -2q3 -1 13 -3.5t15 -4.5h2l-1 1v1
q-7 7 -18 9h-2h-9zM250 245l-1 1h-2q-2 -1 -8 -3v-1q2 -2 4 -2q1 1 3.5 2.5t3.5 2.5zM213 235l2 2q-2 0 -2 2q-2 0 -2 -2zM228 237q2 2 4 3v1q-1 0 -2 -1h-2h-1l-1 -1v-1q1 0 2 -1zM195 392h-1h-1l1 -1q1 0 1 1z" />
    <glyph glyph-name="macron" unicode="&#xaf;" horiz-adv-x="310" 
d="M117 829q5 0 30 0.5t30 0.5h5q7 0 17 -2t18 -2q3 0 21 -5q6 -1 6 -14q0 -5 -1 -6q-2 -2 -5 -2q-2 0 -5 0.5t-4 0.5h-3q-2 0 -2 -2q0 -1 1 -3q1 0 0 -1l-2 -2l-9 -3q-1 0 -5 2h-2q-4 -4 -16 -4h-12q-1 0 -5 -0.5t-6 -0.5q-6 0 -17 1t-16 1q-2 0 -5.5 -0.5t-4.5 -0.5
q-16 -3 -35 -11q-3 -2 -7 -2q-10 0 -12 16q-2 8 -2 13q0 3 2 9q2 8 5 10l8 3q5 1 15 2.5t13 1.5h5z" />
    <glyph glyph-name="degree" unicode="&#xb0;" horiz-adv-x="156" 
d="M137 679q3 -23 -21 -55q-7 -10 -30 -20q-33 -16 -67 2q-25 13 -27 45v9q-1 18 20 51q4 3 22 26q6 9 18 11.5t21 -2.5q4 -3 13 -3v13q-1 1 -2 3t-1.5 4t-1.5 2q-7 5 2 5q5 1 15 1q4 0 10 -2q5 -9 11 -13q5 -11 8.5 -23t6 -30t3.5 -24zM63 639q29 18 31 60q0 5 -5 9
q-1 2 -3.5 1t-4.5 -4q-19 -13 -36 -41q-2 -3 -5 -11t-6 -11q1 -9 4 -12.5t8 0.5q15 2 17 9zM109 739l1 2q-6 8 -9 10q-1 0 -2 -2zM110 726h1h-1zM111 712h3h-3z" />
    <glyph glyph-name="plusminus" unicode="&#xb1;" horiz-adv-x="284" 
d="M167 503l-3 -42q-1 -1 -1 -3q0 -8 2 -9.5t10 -0.5q30 4 46 6q1 0 4.5 1.5t5.5 2.5q13 3 21 -8q2 -3 7.5 -9t8.5 -9q1 -2 2.5 -6t2.5 -6q2 -10 3 -14q2 -11 -11 -13q-4 -1 -13 -1t-14 -1q-8 -1 -25 -2.5t-26 -2.5q-4 0 -12 -2l-12 -3q-6 0 -8 -9q-2 -30 4 -92l3 -12
q1 -2 1.5 -5t0.5 -5t1 -6.5t1 -6.5q2 -7 -1 -10.5t-10 -2.5l-15 3q-25 21 -29 40q-6 36 -8 88v6t-1 3t-3 1t-6 -1q-18 -3 -52 -11q-16 -5 -27 8l-15 24q-2 4 -4 6q-3 3 -4 7.5t1.5 8t7.5 4.5q4 1 12 2.5t12 2.5q9 1 25.5 3.5t24.5 4.5q3 0 10 1t11 1q10 2 11 11l3 102
q0 16 18 18q23 3 34 -21q6 -14 6 -41zM117 345h1v-24q4 -30 7 -45l3 -6q0 1 0.5 3.5t0.5 3.5q0 21 -2 63q0 5 -0.5 14.5t-1.5 14.5q0 8 -3 8q-5 0 -5 -7v-25zM136 325q0 1 -1 3t-1 3q0 -1 -0.5 -3.5t-0.5 -4.5t1 -3q0 1 2 5zM100 206q40 2 59 2q16 1 27 -3t26 -4q5 0 37 -8
q7 -2 11 -13t-1 -17q-3 -3 -9 -3q-3 0 -9 1t-8 1q-9 0 -9 -3q0 -2 2 -5q2 0 -2 -4q-3 0 -9 -2t-9 -2t-9 3q-3 0 -4 -1q-4 -4 -8.5 -5t-12 -1h-9.5q-15 -2 -24 0t-24 0q-25 -2 -64 -17q-29 -11 -34 22q-4 21 0 32q4 12 9 16q1 1 15 4q9 1 26.5 3.5t25.5 3.5h7z" />
    <glyph glyph-name="twosuperior" unicode="&#xb2;" horiz-adv-x="229" 
d="M178 401q0 -38 -18 -85q-18 -45 -44 -101q-12 -31 -29 -58q-2 -4 -10.5 -19.5t-11.5 -24.5q-1 -3 -4 -10.5t-4 -11.5q-2 -5 -0.5 -7t6.5 0q7 1 21.5 3t21.5 3l54 9q15 2 19 -9q4 -10 18 -12q10 -1 13.5 -4t4.5 -14q1 -7 -0.5 -8.5t-9.5 -3.5q-8 -1 -23.5 -2.5t-23.5 -2.5
q-8 -2 -30 -7t-34 -7q-18 -3 -54 -7q-4 0 -8 4q-22 19 -26 31q-1 2 -2 5t-2 5q-2 7 -4 8q-8 7 -4 18q2 6 6 20t8 25t9 20t12 26t10 24q4 9 13 26t13 26q9 18 36 81q3 7 6 14.5t6.5 16.5t5.5 14q0 1 1 2l1 1v16l-12 -6l-16 -16t-21 -19q-15 -15 -31 -11q-22 5 -25 27
q-1 9 9 23q32 43 69 61q6 4 27 6q6 0 8 -4q3 -7 20 -11q19 -5 26 -31q3 -8 3 -23zM74 253q-1 -3 -4 -8t-5 -9.5t-4 -8.5v-4l1 1q2 0 2 1q11 21 10 29q8 0 5 -5q-29 -67 -35 -83q-5 -12 -13.5 -36t-10.5 -28q0 -1 -3 -11q4 4 7 10q1 0 1 1l1 2q1 4 6 14.5t7 16.5q1 3 4.5 8.5
t5.5 10.5t3 10q0 2 8 17q23 48 29 65q5 12 9 38l-1 2l-2 2q-5 -2 -3 -4q1 -4 -7 -12q-1 -1 -11 -19z" />
    <glyph glyph-name="threesuperior" unicode="&#xb3;" horiz-adv-x="225" 
d="M120 438q-16 1 -52 -12q-16 -7 -35 -12q-19 -6 -28 9q-9 17 3 31q16 19 56 28q31 6 59 -1q6 -1 18 -9q2 -1 8 -5.5t9 -6.5q21 -12 27 -49q3 -24 -12 -44q-22 -30 -33 -42q-3 -4 -7 -8t-10 -9t-9 -7q-6 -5 1 -7q4 -2 11.5 -5t11.5 -5q1 -1 8 -7t11 -9q15 -12 17 -13
q19 -14 25 -50q5 -28 -12 -71q-11 -27 -39 -56q-26 -31 -43 -34q-3 -1 -4 -4q-22 -15 -44 0q-30 19 -36 56v3q0 1 1 4t1 5q1 -1 3.5 -2.5t3.5 -2.5q4 -4 7 -10q12 -17 30 -8q39 19 60 54q12 22 17 34q8 14 12 45q2 15 -14 24q-20 11 -50 16q-4 2 -22 -1q-16 -4 -22.5 -0.5
t-14.5 18.5q-1 1 -1 3.5v3.5v6q-10 16 7 27q12 8 18 13t17 15t20 18t17 15q22 24 28 52q3 10 -8 10h-3h-4.5h-3.5zM127 99q0 6 -1 7l-3 9q-1 -1 -3.5 -3t-3.5 -3l-33 -36l-2 -4q1 0 2 0.5t2 0.5q2 0 4 0.5t3 0.5q0 -2 -1.5 -4.5t-1.5 -3.5q-1 -2 -5 -4q-4 -4 -5 -6q3 1 8 1
q1 0 2.5 1t2.5 2q13 6 29 33q1 1 2.5 3t2.5 3.5t1 2.5zM117 359q-1 1 -1 3l-1 2q-2 0 -4 -2q-7 -6 -13 -13q-24 -22 -34 -32q-2 -1 -2 -6q4 0 6 1l36 30q3 3 7.5 9.5t5.5 7.5zM91 320q-2 1 -4 1q-6 -4 -8 -6l-3 -6q7 -2 8 -1t2 3t2.5 4.5t2.5 4.5zM65 57q1 1 2.5 1t2.5 1
l-1 2q-4 -2 -5 -3q0 -1 1 -1zM103 334h1h-1zM96 326v1l-1 -1h1z" />
    <glyph glyph-name="acute" unicode="&#xb4;" horiz-adv-x="185" 
d="M63 780q-11 9 -16 25q-9 16 -2 21l9 9q4 3 15.5 11t18.5 12q19 14 29 17q25 11 28 13q8 4 25 1q2 0 5 -6q4 -6 1 -8q-7 -6 -12 -14q-18 -26 -29 -37q-8 -9 -23.5 -23.5t-19.5 -18.5q-1 -1 -3 -2q-5 -3 -2 -9l-2 -2q-10 -2 -17 6zM137 859q3 3 5.5 6t5 6.5t4.5 5.5
q0 2 1 3q-1 -1 -2 -0.5t-1 1.5q-13 -13 -16 -20q-2 -7 -12 -19q0 -2 -1 -3l3 1q2 3 6.5 9.5t6.5 9.5z" />
    <glyph glyph-name="paragraph" unicode="&#xb6;" horiz-adv-x="408" 
d="M257 15q-41 3 -78 6q-14 1 -30 -2q-50 -13 -65 35q-7 20 3 42q5 13 19 10q8 -2 10 0t3 13q2 84 4 125v11.5t0.5 12t2 10.5t5.5 10v6q-5 20 -5 24q1 9 2 26.5t2 31.5t2 26q2 11 -9 14q-36 11 -58 31q-16 14 -20 23q-22 46 -26 64q-7 35 12 59q54 70 135 77q47 6 87 -5
q44 -15 74 -52q4 -6 2 -15q-4 -9 7 -16q23 -17 15 -42q-16 -66 -23 -149q-1 -22 -2.5 -47t-3.5 -55.5t-3 -47.5q-2 -24 -3.5 -50.5t-3 -59t-2.5 -50.5v-12v-12q2 -23 -14 -25q-7 0 -7 -7q-4 -13 -21 -10h-11zM190 110q-1 -9 0.5 -11.5t8.5 -2.5q10 -2 38 -7q6 0 6 6
q5 43 3 58q-5 33 4 63q2 9 7 78v43q5 17 5.5 50.5t4.5 48.5q1 1 0 3.5t-1 3.5q0 5 -1 17.5t0 19.5q4 25 17 97q4 15 -9 20q-16 7 -41 14q-4 1 -5 0t0 -6q2 -13 0 -25q-1 -4 -6.5 -23t-6.5 -30q-10 -98 -14 -177q-3 -42 -10 -240zM155 595q1 6 -1 7.5t-8 0.5q-7 -2 -18 -8
t-14 -7q-30 -14 -53 -57q-2 -3 -3 -9t1 -9q20 -17 28 -21q7 -3 21 -6.5t21 -5.5q9 -2 10 5q1 12 5 34q3 26 11 76zM267 181q2 -4 3 -5q0 1 0.5 2.5t0.5 2.5v3q-3 -3 -4 -3z" />
    <glyph glyph-name="periodcentered" unicode="&#xb7;" horiz-adv-x="343" 
d="M167 274q-43 0 -40 27q1 13 -6.5 39.5t-4.5 40.5q0 5 13.5 12.5t15.5 13.5q7 23 28 8q5 -3 17 -7.5t16 -9.5q4 -4 13.5 -12t15 -15t8.5 -15q7 -30 -14 -44q-2 -4 -7.5 -8.5t-6.5 -6.5q-6 -11 -25 -15t-23 -8z" />
    <glyph glyph-name="cedilla" unicode="&#xb8;" horiz-adv-x="305" 
d="M192 -56q0 -9 -2 -12q-8 -23 -20 -33q-3 -3 -10.5 -8.5t-10.5 -8.5q-8 -8 -40 -15q-5 0 -5 1q-16 12 -23 18q-3 3 -8 9.5t-7 9.5q-5 5 -18.5 19t-19.5 22q-10 13 -7 24q1 8 3 9t9 -1q35 -11 75 -41q4 -3 15 -11.5t18 -13.5q7 -6 9 4q2 6 -1 11q-1 3 -9 22q-13 33 -37 54
q-4 4 -6 12q0 22 19 33q18 10 28 -5q8 -13 15.5 -24.5t10.5 -16t3 -5.5q14 -23 19 -53z" />
    <glyph glyph-name="onesuperior" unicode="&#xb9;" horiz-adv-x="152" 
d="M98 54q-19 2 -23 8q-5 -1 -10 3t-6 4q-2 1 -5 1t-4.5 1t-1.5 4l-3 12q0 31 -1 44q-3 45 -3 86q-2 30 -3 85t-2 73q0 8 -0.5 16.5t-1.5 19t-1 16.5q-1 5 2.5 10t8.5 5q4 0 13 -7q3 -1 10 -6t12 -6q12 -3 18 -18q4 -11 4 -47q1 -15 1 -44q2 -52 2 -77q2 -70 3 -106
q0 -21 2 -67q0 -10 -11 -10zM71 231v27q0 1 -1 2l-1 2q-3 -3 -3 -4q-1 -1 -1 -4q1 -32 1 -93q0 -2 1.5 -6.5t1.5 -6.5l2 -1q2 0 2 1q0 2 0.5 7t0.5 8q0 4 -1.5 29t-1.5 39z" />
    <glyph glyph-name="guillemotright" unicode="&#xbb;" horiz-adv-x="461" 
d="M52 588q5 -1 13.5 -1.5t15 -2t11.5 -4.5q5 -2 25 -27q41 -50 72 -63q23 -10 36.5 -30t27.5 -53q8 -21 -8 -40l-60 -60q-8 -11 -24.5 -32.5t-22.5 -29.5q-34 -48 -42 -64q-5 -13 -19 -9q-10 0 -15 3q-38 12 -50 56q-6 31 13 35q2 2 10.5 8.5t14.5 13.5q8 11 17 21.5
t21.5 24.5t17.5 20q6 6 17 18t20 22t16 19q13 12 -2 21l-13.5 13.5t-18 16.5t-16.5 15q-52 39 -59 96q-1 2 -1 3.5t1.5 4.5t1.5 5zM232 588q5 -1 13.5 -1.5t15 -2t11.5 -4.5q5 -2 25 -27q41 -50 72 -63q23 -10 36.5 -30t27.5 -53q8 -21 -8 -40q-6 -6 -18.5 -18t-22.5 -22.5
t-19 -19.5q-8 -11 -24.5 -32.5t-22.5 -29.5q-34 -48 -42 -64q-5 -13 -19 -9q-10 0 -15 3q-38 12 -50 56q-6 31 13 35q2 2 10.5 8.5t14.5 13.5q8 11 17 21.5t21.5 24.5t17.5 20q6 6 17 18t20 22t16 19q13 12 -2 21l-13.5 13.5t-18 16.5t-16.5 15q-52 39 -59 96q-1 2 -1 3.5
t1.5 4.5t1.5 5z" />
    <glyph glyph-name="onequarter" unicode="&#xbc;" horiz-adv-x="859" 
d="M218 306q-22 4 -25 10q-5 -2 -10.5 3t-6.5 5q-2 1 -4.5 1t-3.5 0.5t-2.5 2t-1.5 4.5q0 2 -1.5 7t-2.5 8q0 37 -2 53q-2 72 -2 105q-3 66 -5 193q0 13 -2 34.5t-2 28.5q-1 7 2.5 13t8.5 6q4 0 15 -8q23 -15 25 -15q14 -4 19 -23q4 -10 4 -57q1 -18 1 -54q2 -31 2 -94
q0 -21 1.5 -64t2.5 -65q0 -13 0.5 -40t0.5 -42q1 -7 -1.5 -9.5t-9.5 -2.5zM188 522v33q0 2 -1 3l-1 2q-3 -3 -3 -5q-1 -1 -1 -5q1 -38 1 -114q0 -2 1.5 -7.5t1.5 -8.5l2 -1l2 1q0 4 1 10t1 9q-2 31 -4 83zM201 85q4 40 31 124q26 80 33 99l18 51q11 33 56 155q21 57 63 169
q5 12 16.5 41t17.5 46q4 11 7 11q17 -2 23 -7q9 -5 22 -22q20 -27 6 -62q-3 -8 -16 -45q-4 -10 -18 -44.5t-21 -53.5q-4 -9 -11 -27.5t-11 -27.5q-1 -4 -1 -12t-1 -12q-5 -13 -27.5 -74.5t-33.5 -94.5q-3 -7 -21 -59q-4 -9 -16 -36.5t-18 -43.5q-13 -33 -24 -71
q-7 -18 -14 -54q-2 -23 -1 -35q2 -17 -9 -21q-6 -2 -14.5 1t-9.5 10q-5 11 -14 11q-4 0 -9 14q-9 21 -3 62v8zM332 331v-16l-4.5 -4.5t-4.5 -6.5q-28 -76 -31 -83v-5v-7l5 5q1 3 3 11q6 15 31 90q1 5 1 17q4 3 8 11v1q-4 -8 -7 -11q0 -1 -1 -2zM213 66l1 -1q0 -16 -1 -25
q0 -2 3 -6l2 4l1 2l6 27q3 20 9.5 40.5t16.5 48t14 37.5q5 18 12 38t16 43.5t14 37.5q4 11 8 31q0 10 1 15q4 13 14 37.5t15 36.5q3 10 9 29t10 29q2 6 7 18t7 18q1 2 0 6.5t-1 6.5q-1 -2 -4 -5.5t-4 -4.5q-3 -5 -7 -14t-5 -12q-2 -5 -6.5 -17t-6.5 -17t-6.5 -20t-7.5 -23
q-2 -7 -19 -50.5t-21 -67.5q0 -4 -2 -6q-6 -15 -15.5 -41t-11.5 -32q-18 -46 -21 -64q-3 -12 -27 -99zM351 373q1 3 3 7q15 41 18 50v6q-4 -2 -4 -4q-14 -36 -20 -54q0 -2 3 -5zM386 472q3 11 5 14l-2 2q-2 1 -3 2q0 -1 -1.5 -4.5t-1.5 -5.5zM275 158l-1 1v1q-2 -2 -2 -3
q1 -1 1 -3zM377 459q-1 -2 -1 -3l-1 -2l1 -1v-2q2 2 2 3zM344 357q3 1 3 3v4q-3 0 -3 -3v-4zM539 72v48q0 9 -8 6q-4 -1 -20 -2t-25 -5q-8 -6 -21 5q-30 22 -24 55q7 42 22 149q3 24 9 72.5t10 73.5q0 5 1 13.5t1 12.5q1 9 10 6q11 -6 21 -21q0 -4 3 -5q14 -12 10 -37
q0 -4 -3.5 -31.5t-5.5 -42.5q-1 -6 -4 -18t-4 -18q-1 -3 -1 -8v-8q-2 -11 -5 -33.5t-4 -33.5q-4 -22 -10 -76q-1 -7 6 -7q14 1 40 3q4 0 6 7q0 3 0.5 8.5t1 10t1.5 8.5q1 6 3.5 20t4.5 21q1 2 4.5 5.5l4.5 4.5q2 -1 5 -3.5t4 -3.5q5 -6 7.5 -13t4 -16.5t3.5 -14.5
q1 -3 4 -13q1 -8 2 -8.5t9 1.5l30 6q10 2 12 -7q0 -8 4 -7h3q5 1 15 -5q0 -5 -2 -6q-3 -1 -10.5 -5t-11.5 -6q-6 -2 -19 -6t-19 -6t-9 -2q-11 1 -13 -12q-2 -10 -5 -15q-5 -9 -15 -50q-2 -10 -6 -15q-1 -6 -10 -8q-5 0 -8 6q-1 1 -3 16q0 4 2 10h2zM635 174l-5 4
q-25 -4 -33 -5l-1 -1q-1 -2 -2 -2l3 -1q15 6 30 2q1 -1 8 3z" />
    <glyph glyph-name="onehalf" unicode="&#xbd;" horiz-adv-x="733" 
d="M188 323q-1 0 -7.5 1t-9.5 2.5t-5 6.5q-5 -2 -9.5 2.5t-5.5 4.5q-2 1 -4 1t-3.5 0.5t-2.5 2t-1 3.5q0 1 -1.5 6t-1.5 8q0 33 -2 49q-2 66 -2 95q-2 34 -3 95t-2 81q0 9 -0.5 18.5t-1.5 21t-1 18.5q-1 5 2.5 10.5t7.5 5.5t13 -7q2 -1 9.5 -7t12.5 -7q12 -3 17 -20
q4 -11 4 -52v-49q2 -29 2 -86q2 -78 4 -117q0 -49 1 -75q0 -12 -10 -12zM161 521v29q0 2 -1 4v1q-3 -3 -3 -5q-1 0 -1 -4q1 -35 1 -103q0 -3 1.5 -8t1.5 -7l1 -1q2 0 2 1q0 3 1 8.5t1 8.5q-2 28 -4 76zM161 65q4 40 31 124q26 80 33 99l18 51q11 33 56 155q21 57 63 169
q5 12 16.5 41t17.5 46q4 11 7 11q17 -2 23 -7q9 -5 22 -22q20 -27 6 -62q-3 -7 -16 -45q-4 -10 -18 -44.5t-21 -53.5q-4 -9 -11.5 -27.5t-10.5 -27.5q-1 -3 -1 -11.5t-1 -12.5q-5 -13 -27.5 -74.5t-33.5 -94.5q-3 -7 -21 -59q-4 -9 -16 -36.5t-18 -43.5q-13 -33 -24 -71
q-7 -18 -14 -54q-2 -23 -1 -35q2 -17 -9 -21q-6 -2 -14.5 1t-9.5 10q-5 11 -14 11q-4 0 -9 14q-9 21 -3 62v8zM292 311v-16l-4.5 -4.5t-4.5 -6.5q-28 -76 -31 -83v-5v-7l5 5q1 3 3 11q6 15 31 90q1 5 1 17q4 3 8 11v1q-4 -8 -7 -11q0 -1 -1 -2zM173 46l1 -1q0 -16 -1 -25
q0 -2 3 -6l2 4l1 2q1 3 2.5 8.5t2.5 10t1 8.5q3 20 9.5 40.5t16.5 48t14 37.5q5 18 12 38t16 43.5t14 37.5q4 11 8 31q0 10 1 15q5 12 15 37t14 37q4 10 9.5 29t9.5 29q2 6 7 18t7 18q1 2 0 6.5t-1 6.5q-1 -2 -4 -5.5t-4 -4.5q-3 -5 -7 -14.5t-5 -11.5q-2 -6 -6.5 -17.5
t-6.5 -16.5t-6.5 -20t-7.5 -23q-2 -7 -19 -50.5t-21 -67.5q0 -4 -2 -6q-6 -15 -15.5 -41t-11.5 -32q-18 -46 -21 -64q-3 -12 -27 -99zM311 353q1 3 3 7q15 41 18 50v6q-4 -2 -4 -4q-14 -36 -20 -54q0 -2 3 -5zM346 452q3 11 5 14l-2 2q-2 1 -3 2q0 -1 -1.5 -4.5t-1.5 -5.5z
M235 138l-1 1v1q-2 -2 -2 -3q1 -1 1 -3zM337 439q-1 -1 -1 -3l-1 -2l1 -1v-2q2 2 2 3zM304 337q3 1 3 3v4q-3 0 -3 -3v-4zM579 441q0 -38 -19 -89q-9 -21 -45 -104q-20 -43 -30 -60q-20 -35 -23 -45q-1 -3 -4 -10.5t-4 -11.5q-2 -5 -1 -7t7 -1t21.5 3.5t23.5 3.5q34 6 55 8
q15 3 20 -9q3 -11 19 -11q10 -2 13.5 -5t4.5 -14q1 -7 -0.5 -9t-9.5 -3q-17 -2 -49 -6l-31.5 -7t-34.5 -7q-9 -2 -56 -7q-4 0 -8 4q-20 17 -27 31q-1 2 -2 5.5t-2 5.5q-2 7 -4 8q-7 8 -4 18q17 54 24 68q5 9 12.5 26.5l10.5 24.5q4 10 13 27t13 27q13 27 37 83q4 9 10 26
t8 21q2 2 2 3q0 11 1 17q-8 -3 -13 -7q-30 -30 -37 -36q-17 -15 -32 -11q-24 5 -27 28q0 9 10 23q32 44 71 64q5 2 28 5q6 2 8 -3q3 -8 20 -12q18 -5 28 -32q1 -5 2 -13t1 -10zM472 288q-10 -18 -14 -27v-4q1 1 3 1q11 23 10 31q5 0 6 -0.5t-1 -5.5q-24 -56 -36 -85
q-16 -44 -25 -66q-2 -8 -2 -12q3 6 7 10l1 2q1 1 1 2q1 3 6 14t7 17q1 3 6.5 13.5t6.5 17.5q1 3 4.5 9t4.5 8q26 57 30 67q5 13 9 39q1 1 -1 3q-2 1 -2 2q-5 -2 -3 -4q1 -5 -7 -13q-5 -5 -11 -19z" />
    <glyph glyph-name="threequarters" unicode="&#xbe;" horiz-adv-x="984" 
d="M298 684q-15 1 -51 -12q-20 -8 -35 -12q-19 -5 -28 9q-9 17 3 31q17 19 55 28q31 6 59 -1q8 -1 18 -9q3 -2 8.5 -6t8.5 -6q21 -12 27 -49q3 -24 -12 -44q-20 -28 -33 -42q-3 -4 -25 -23q-6 -5 0 -8q16 -6 23 -10q3 -2 19 -15q3 -2 8.5 -7t8.5 -7q19 -12 25 -49
q5 -28 -12 -70q-12 -28 -38 -56q-2 -2 -7 -8t-8 -8.5t-8 -7t-10 -7t-10 -3.5q-2 -1 -5 -4q-21 -15 -43 0q-30 19 -36 56v3q0 1 1 4t1 4q1 -1 3.5 -2.5t3.5 -2.5q3 -3 7 -9q11 -17 30 -8q39 19 59 53q4 6 10.5 18.5t7.5 15.5q9 17 12 45q1 15 -14 24q-22 11 -50 16
q-7 2 -22 -2q-16 -4 -23 0t-14 19q-1 1 -1 3v4v6q-10 17 7 26q4 3 17 13q32 27 54 49t29 51q1 6 -0.5 8t-7.5 2h-12zM306 346l-2 8q0 1 -1 4t-1 5q-6 -4 -8 -6q-5 -6 -15.5 -18t-16.5 -18q-2 -2 -2 -4l2 1h2t3.5 0.5t3.5 0.5q-2 -6 -4 -8l-4 -4q-4 -4 -5 -6q5 0 8 1l2 1
q2 1 2 2q14 6 30 33q4 6 6 8zM296 605q-1 1 -1.5 3t-1.5 2h-1q-2 -1 -3 -1q-6 -7 -13 -13q-22 -22 -33 -32q-2 -1 -2 -7l3 1q2 0 3 1l36 30q3 3 7 8t6 8zM269 567h-3q-6 -4 -8 -6l-3 -6h7q3 1 7 12zM244 305q1 0 5 2l-1 2q-1 -1 -3 -2t-3 -2h2zM282 581h1h-1zM274 573h-1h1z
M326 85q4 40 31 124q26 80 33 99q2 8 5 16.5t7 18.5t6 16q11 33 56 155q21 57 63 169q5 12 16.5 41t17.5 46q4 11 7 11q17 -2 23 -7q9 -5 22 -22q20 -27 6 -62q-3 -8 -16 -45q-4 -10 -18 -44.5t-21 -53.5q-4 -9 -11.5 -27.5t-10.5 -27.5q-1 -4 -1 -12t-1 -12
q-5 -13 -27.5 -74.5t-33.5 -94.5q-3 -7 -21 -59q-4 -9 -16 -36.5t-18 -43.5q-13 -33 -24 -71q-7 -18 -14 -54q-2 -23 -1 -35q2 -17 -9 -21q-6 -2 -14.5 1t-9.5 10q-5 11 -14 11q-4 0 -9 14q-9 21 -3 62v8zM457 331v-16l-4.5 -4.5t-4.5 -6.5q-28 -76 -31 -83v-5v-7l5 5
q1 3 3 11q6 15 31 90q1 5 1 17q4 3 8 11v1q-4 -8 -7 -11q0 -1 -1 -2zM338 66l1 -1q0 -16 -1 -25q0 -2 3 -6l2 4l1 2q1 3 2.5 8.5t2.5 10t1 8.5q3 20 9.5 40.5t16.5 48t14 37.5q5 18 12 38t16 43.5t14 37.5q4 11 8 31q0 10 1 15q4 13 14 37.5t15 36.5q3 10 9 29t10 29
q2 6 6.5 18t7.5 18q1 2 0 6.5t-1 6.5q-1 -2 -4.5 -5.5t-3.5 -4.5q-3 -5 -7 -14t-5 -12q-2 -5 -6.5 -17t-6.5 -17t-6.5 -20t-7.5 -23q-2 -7 -19 -50.5t-21 -67.5q0 -4 -2 -6q-6 -15 -15.5 -41t-11.5 -32q-18 -46 -21 -64q-3 -12 -27 -99zM476 373q1 3 3 7q15 41 18 50v6
q-4 -2 -4 -4q-14 -36 -20 -54q0 -2 3 -5zM511 472q3 11 5 14l-2 2q-2 1 -3 2q0 -1 -1.5 -4.5t-1.5 -5.5zM400 158v1l-1 1q-2 -2 -2 -3q1 -1 1 -3zM502 459q0 -2 -1 -3l-1 -2v-1q1 -1 1 -2q2 2 2 3q1 0 -1 5zM469 357q3 1 3 3v4q-3 0 -3 -3v-4zM665 83v49q0 9 -7 6
q-2 0 -17.5 -1.5t-23.5 -6.5q-6 -3 -20 6q-27 22 -21 56q7 51 19 151q3 22 6 47t6.5 54.5t5.5 46.5q0 4 1 12.5t1 13.5q2 9 9 5q12 -5 19 -20l3 -6q13 -12 9 -36q-1 -12 -3.5 -37.5t-4.5 -38.5q-1 -6 -4 -18t-4 -18v-5v-6.5v-5.5q-2 -11 -5 -33.5t-4 -33.5l-9 -78q0 -6 4 -6
h2q4 0 11.5 0.5t13.5 1t12 1.5q2 0 5 6q1 5 1 14t1 14q1 7 3.5 21t4.5 21q1 2 4 5.5t4 4.5q1 -1 3 -2.5t3 -3t2 -2.5q5 -6 7 -13t3.5 -16.5t3.5 -14.5q3 -6 3 -13q1 -10 11 -7l27 6q6 1 7.5 0t3.5 -8q0 -7 3 -7q1 1 3 1q1 0 14 -5q0 -5 -2 -6q-6 -4 -20 -12q-11 -4 -35 -12
q-6 -2 -8 -2q-6 1 -8.5 -2.5t-3.5 -9.5q-2 -10 -4 -15q-4 -8 -14 -51q-2 -11 -5 -15q-1 -5 -9 -8q-2 0 -8 6q-2 5 -2 16q0 7 1 10h2zM752 186l-4 5q-19 -4 -30 -5q-2 -2 -2 -4h2q12 5 27 2z" />
    <glyph glyph-name="questiondown" unicode="&#xbf;" horiz-adv-x="421" 
d="M65 72q-4 51 1 79q6 29 30 86q9 20 28.5 57.5t22.5 43.5q2 3 11.5 23t15.5 29q6 13 20 36.5t19 33.5q2 4 3 11.5t2 11.5q10 46 20 58q10 11 8 38q0 2 -1 5.5t-1.5 5.5t0.5 5t5 4q3 0 5 0.5t4.5 -1.5t3.5 -3.5t3.5 -4l3.5 -3.5q1 -2 6 -6.5t7 -8.5q12 -12 14 -18
q7 -25 13 -60h-3q0 -8 1 -11t-1.5 -10.5t-3 -10t-4.5 -9.5t-5.5 -9t-6 -9t-6.5 -10q-8 -11 -22 -33t-16 -26q-20 -32 -29 -49q-14 -26 -19 -41q-3 -8 -14.5 -30t-14.5 -37q-1 -9 -8 -25t-9 -21q-2 -6 -4 -27q0 -20 -8 -25l-2 -5q0 -6 -0.5 -19t1 -22.5t5.5 -18.5
q12 -25 44 -11q26 10 36 19q53 44 71 79q13 21 34 21q3 0 9 2t9 2.5t10 -1.5q15 -7 11 -17q-9 -47 -42 -85q-25 -31 -62 -55q-40 -28 -83 -16q-36 9 -45 12q-25 6 -38 28q-2 3 -9 11.5t-10 14.5q-9 14 -10 22zM142 281q-7 -16 -10 -31q-2 -9 -5 -26t-5 -26q8 4 11 6
q2 3 6.5 9.5t5.5 7.5q12 14 15 22q8 15 12 25q8 15 36 66.5t44 79.5q25 44 30 73l3 9l3 9q0 2 -2 6l-5 -5v-4q-12 -24 -18 -35h-4q-1 5 -3 6t-3.5 0t-3.5 -3l-2 -3q-9 -10 -25 -32q-4 -5 -9.5 -15.5t-11.5 -19t-15 -14.5v-4q3 -4 3.5 -5t-2.5 -4t-4 -5q0 -1 -12 -12t-7 -23
q0 -1 -2 -5t-2 -7q-5 -8 -11 -23q-5 -7 -7 -17zM123 195q-1 -3 -1 -12h3v13q0 1 -1 1l-2 1v-1q1 -1 1 -2zM248 704q-18 14 -12 24q-2 16 5.5 22t21.5 1q8 -2 9 -2q34 -4 42 -38q1 -3 0 -7.5t-2 -7.5t-2.5 -8t-2.5 -9q0 -4 -5 -4q-4 1 -15 2.5t-17.5 4.5t-10.5 12
q-1 2 -11 10z" />
    <glyph glyph-name="Agrave" unicode="&#xc0;" 
d="M-6 34q4 54 7 81q1 14 3 42.5t3 43.5l6 81q1 12 1.5 37t1.5 37q4 86 8 128q9 87 21 170q2 9 20 70q1 4 5 10q6 8 11 2q5 -2 9 0q10 8 21 6q2 0 8 2.5t9 -0.5q2 -1 6.5 -1.5t6.5 -1.5q41 -21 69 -69q5 -11 10 -19q9 -15 18 -57q6 -35 13 -92q6 -52 8 -82q1 -17 1.5 -50.5
t1.5 -50.5l3 -48q3 -42 3 -43l-3 -69q0 -41 -1 -61l-3 -51q0 -4 -2 -10q-3 -5 -9 -2q-3 1 -9 2t-8 2q-8 1 -16 6q-19 10 -30 18q-8 6 -6 15q0 9 2 26.5t2 22.5q6 64 8 96v47q0 10 -7 5t-15.5 -8.5t-21 -6t-16.5 -3.5q-15 -4 -38 -2q-9 1 -10 -8q-2 -52 -4 -79q-6 -56 -8 -85
q0 -8 0.5 -16.5t1.5 -19.5t1 -17q0 -21 -18 -27q-15 -4 -20 -11q-10 -15 -30 -2q-16 9 -14 31q0 7 1 11h-1zM211 368l2 4q-1 -1 -1 -2.5t-1 -2.5q0 -1 -0.5 -5t-0.5 -5h2q0 1 -0.5 4.5t-0.5 5.5v1zM75 707l1 1v3v-4q-6 -12 -8 -18q-1 -2 -2 -10t-3 -12q-13 -44 -21 -135
q-1 -11 -2.5 -29.5t-2.5 -33.5t-1 -29q-2 -21 -2 -64v-21h1q0 3 -0.5 10t-0.5 11q5 10 5 12q1 5 1 15.5t1 15.5q2 37 8 101q1 5 2 14.5t1 14.5q1 9 2.5 26t2.5 26q0 1 2 18t4 25q12 50 12 63zM87 325v-20q-1 -6 1.5 -8t9.5 -1t20.5 3.5t19.5 4.5q23 6 46 15q6 2 6 10
q0 2 -3 95q0 17 -3 25q-2 8 -2.5 23t-2.5 22q-3 11 -3.5 31t-1.5 28q-4 25 -16 73q-8 33 -26 56q-5 9 -10 -1q-8 -18 -12 -58q-12 -100 -16 -150q-1 -13 -4 -82q0 -7 -1 -21t-1.5 -25t-0.5 -20zM224 375v-8.5t-2 -11.5t-7 -7q-3 -1 -3 -13q6 -2 9 -2q6 1 8.5 -1.5t1.5 -7.5
q0 -1 -1 -6t-2.5 -5t-8.5 1l-5 -5q-2 -14 -2 -21v-8.5t3.5 -5t9.5 -0.5l5 -5q-1 0 -3 -2q-1 -1 -2 -1q-10 2 -10 -8q0 -2 -0.5 -5.5t-0.5 -4.5q0 -5 -1.5 -15.5t-1 -18.5t4.5 -15q1 -1 -1 -6l-2 -3q-2 -3 -2 -4v-59q0 -3 4 -7q6 -8 6 -10q1 -2 3 -7.5t4 -7.5q1 -1 2 -2.5
t3 -3t3 -2.5q4 6 4 9q0 8 1 23t1 22q7 61 4 110v30v30q-4 70 -7 105q-2 26 -4 39q0 1 -3 3q-2 1 -3 2q-5 -5 -5 -6v-79zM41 343q-4 2 -6 2t-2 -4q0 -1 2 -5q1 2 6 7zM242 54l1 1h-1v-1zM106 898q1 0 2.5 2t2.5 2q8 7 18 3q0 -1 1 -2q-1 -5 -1 -6t3 -3l4 -3q6 -7 20 -24
t21 -26q13 -15 27 -42q6 -10 12 -16q3 -3 -2 -8q-2 -5 -5 -5q-17 0 -25 6q-4 3 -8.5 6t-10 6.5t-8.5 5.5q-6 3 -28 22q-5 4 -10.5 9t-12 11.5t-10.5 9.5q-4 4 -8 10q-6 6 2 21q7 15 16 21zM178 806q-2 4 -7 11t-6 10l-2 2v-3q10 -14 12 -21q3 -8 15 -23q0 1 1 1t2 -1l-1 3
q-2 4 -7 11t-7 10z" />
    <glyph glyph-name="Aacute" unicode="&#xc1;" 
d="M-6 34h1q-1 -4 -1 -11q-2 -22 14 -31q20 -13 30 2q5 7 20 11q18 6 18 27q0 1 -1.5 22t-1.5 31q2 29 8 85q2 27 4 79q1 9 10 8q23 -2 38 2q4 1 16.5 3.5t21 6t15.5 8.5t7 -5v-47q-2 -32 -8 -96q0 -5 -2 -22.5t-2 -26.5q-2 -9 6 -15q11 -8 30 -18q8 -5 16 -6q2 -1 8 -2
t9 -2q6 -3 9 2q2 6 2 10l3 51q1 20 1 61l3 69q0 1 -3 43l-3 48q-1 17 -1.5 50.5t-1.5 50.5q-2 30 -8 82q-7 57 -13 92q-9 42 -18 57q-5 8 -10 19q-28 48 -69 69q-2 1 -6.5 1.5t-6.5 1.5q-3 3 -9 0.5t-8 -2.5q-11 2 -21 -6q-4 -2 -9 0q-5 6 -11 -2q-4 -6 -5 -10
q-18 -61 -20 -70q-12 -83 -21 -170q-4 -42 -8 -128q-1 -12 -1.5 -37t-1.5 -37l-6 -81q-1 -15 -3 -43.5t-3 -42.5q-3 -27 -7 -81zM211 368v-1q0 -2 0.5 -5.5t0.5 -4.5h-2q0 1 0.5 5t0.5 5q1 1 1 2.5t1 2.5zM75 707q0 -13 -12 -63q-2 -8 -4 -25t-2 -18q-1 -9 -2.5 -26
t-2.5 -26q0 -5 -1 -14.5t-2 -14.5q-6 -64 -8 -101q-1 -5 -1 -15.5t-1 -15.5q0 -2 -5 -12q0 -4 0.5 -11t0.5 -10h-1v21q0 43 2 64q0 14 1 29t2.5 33.5t2.5 29.5q8 91 21 135q2 4 3 12t2 10q2 6 8 18v4v-3zM87 325q0 9 0.5 20t1.5 25t1 21q3 69 4 82q4 50 16 150q4 40 12 58
q5 10 10 1q18 -23 26 -56q12 -48 16 -73q1 -8 1.5 -28t3.5 -31q2 -7 2.5 -22t2.5 -23q3 -8 3 -25q3 -93 3 -95q0 -8 -6 -10q-23 -9 -46 -15q-6 -2 -19.5 -4.5t-20.5 -3.5t-9.5 1t-1.5 8v20zM224 375v79q0 1 5 6q1 -1 3 -2q3 -2 3 -3q2 -13 4 -39q3 -35 7 -105v-30v-30
q3 -49 -4 -110q0 -7 -1 -22t-1 -23q0 -3 -4 -9q-1 1 -3 2.5t-3 3t-2 2.5q-2 2 -4 7.5t-3 7.5q0 2 -6 10q-4 4 -4 7v59q0 1 2 4l2 3q2 5 1 6q-4 7 -4.5 15t1 18.5t1.5 15.5q0 1 0.5 4.5t0.5 5.5q0 10 10 8q1 0 2 1l1.5 1.5t1.5 0.5l-5 5q-6 -2 -9.5 0.5t-3.5 5v8.5q0 7 2 21
l5 5q7 -1 8.5 -1t2.5 5t1 6q1 5 -1.5 7.5t-8.5 1.5l-9 2q0 12 3 13q5 3 7 7t2 11.5v8.5zM41 343q-5 -5 -6 -7q-2 4 -2 5q0 4 2 4t6 -2zM242 54v1h1zM103 780q-11 9 -16 25q-9 16 -2 21l9 9q4 3 15.5 11t18.5 12q19 14 29 17q25 11 28 13q8 4 25 1q2 0 5 -6q4 -6 1 -8
q-7 -6 -12 -14q-18 -26 -29 -37q-8 -9 -23.5 -23.5t-19.5 -18.5q-1 -1 -3 -2q-5 -3 -2 -9l-2 -2q-10 -2 -17 6zM177 859q3 3 5.5 6t5 6.5t4.5 5.5q0 2 1 3q-1 -1 -2 -0.5t-1 1.5q-13 -13 -16 -20q-2 -7 -12 -19q0 -2 -1 -3l3 1q2 3 6.5 9.5t6.5 9.5z" />
    <glyph glyph-name="Acircumflex" unicode="&#xc2;" 
d="M-6 34q4 54 7 81q1 14 3 42.5t3 43.5l6 81q1 12 1.5 37t1.5 37q4 86 8 128q9 87 21 170q2 9 20 70q1 4 5 10q6 8 11 2q5 -2 9 0q10 8 21 6q2 0 8 2.5t9 -0.5q2 -1 6.5 -1.5t6.5 -1.5q41 -21 69 -69q5 -11 10 -19q9 -15 18 -57q6 -35 13 -92q6 -52 8 -82q1 -17 1.5 -50.5
t1.5 -50.5l3 -48q3 -42 3 -43l-3 -69q0 -41 -1 -61l-3 -51q0 -4 -2 -10q-3 -5 -9 -2q-3 1 -9 2t-8 2q-8 1 -16 6q-19 10 -30 18q-8 6 -6 15q0 9 2 26.5t2 22.5q6 64 8 96v47q0 10 -7 5t-15.5 -8.5t-21 -6t-16.5 -3.5q-15 -4 -38 -2q-9 1 -10 -8q-2 -52 -4 -79q-6 -56 -8 -85
q0 -8 0.5 -16.5t1.5 -19.5t1 -17q0 -21 -18 -27q-15 -4 -20 -11q-10 -15 -30 -2q-16 9 -14 31q0 7 1 11h-1zM211 368l2 4q-1 -1 -1 -2.5t-1 -2.5q0 -1 -0.5 -5t-0.5 -5h2q0 1 -0.5 4.5t-0.5 5.5v1zM75 707l1 1v3v-4q-6 -12 -8 -18q-1 -2 -2 -10t-3 -12q-13 -44 -21 -135
q-1 -11 -2.5 -29.5t-2.5 -33.5t-1 -29q-2 -21 -2 -64v-21h1q0 3 -0.5 10t-0.5 11q5 10 5 12q1 5 1 15.5t1 15.5q2 37 8 101q1 5 2 14.5t1 14.5q1 9 2.5 26t2.5 26q0 1 2 18t4 25q12 50 12 63zM87 325v-20q-1 -6 1.5 -8t9.5 -1t20.5 3.5t19.5 4.5q23 6 46 15q6 2 6 10
q0 2 -3 95q0 17 -3 25q-2 8 -2.5 23t-2.5 22q-3 11 -3.5 31t-1.5 28q-4 25 -16 73q-8 33 -26 56q-5 9 -10 -1q-8 -18 -12 -58q-12 -100 -16 -150q-1 -13 -4 -82q0 -7 -1 -21t-1.5 -25t-0.5 -20zM224 375v-8.5t-2 -11.5t-7 -7q-3 -1 -3 -13q6 -2 9 -2q6 1 8.5 -1.5t1.5 -7.5
q0 -1 -1 -6t-2.5 -5t-8.5 1l-5 -5q-2 -14 -2 -21v-8.5t3.5 -5t9.5 -0.5l5 -5q-1 0 -3 -2q-1 -1 -2 -1q-10 2 -10 -8q0 -2 -0.5 -5.5t-0.5 -4.5q0 -5 -1.5 -15.5t-1 -18.5t4.5 -15q1 -1 -1 -6l-2 -3q-2 -3 -2 -4v-59q0 -3 4 -7q6 -8 6 -10q1 -2 3 -7.5t4 -7.5q1 -1 2 -2.5
t3 -3t3 -2.5q4 6 4 9q0 8 1 23t1 22q7 61 4 110v30v30q-4 70 -7 105q-2 26 -4 39q0 1 -3 3q-2 1 -3 2q-5 -5 -5 -6v-79zM41 343q-4 2 -6 2t-2 -4q0 -1 2 -5q1 2 6 7zM242 54l1 1h-1v-1zM204 806q-5 -2 -6 -2q-24 1 -46 23l-22 22q-6 4 -10 -1t-11.5 -15t-11.5 -15
q-24 -30 -26 -32q-5 -6 -8 -14q-1 -9 -16 -7q-18 3 -27 21q0 1 -1 3t-1 3q-3 5 3 11q9 7 26 24t25 27q5 6 23 32q8 9 17 7q31 -9 41 -26q8 -16 32 -32q11 -7 13 -10q1 -1 6 -19z" />
    <glyph glyph-name="Atilde" unicode="&#xc3;" 
d="M-6 34q4 54 7 81q1 14 3 42.5t3 43.5l6 81q1 12 1.5 37t1.5 37q4 86 8 128q9 87 21 170q2 9 20 70q1 4 5 10q6 8 11 2q5 -2 9 0q10 8 21 6q2 0 8 2.5t9 -0.5q2 -1 6.5 -1.5t6.5 -1.5q41 -21 69 -69q5 -11 10 -19q9 -15 18 -57q6 -35 13 -92q6 -52 8 -82q1 -17 1.5 -50.5
t1.5 -50.5l3 -48q3 -42 3 -43l-3 -69q0 -41 -1 -61l-3 -51q0 -4 -2 -10q-3 -5 -9 -2q-3 1 -9 2t-8 2q-8 1 -16 6q-19 10 -30 18q-8 6 -6 15q0 9 2 26.5t2 22.5q6 64 8 96v47q0 10 -7 5t-15.5 -8.5t-21 -6t-16.5 -3.5q-15 -4 -38 -2q-9 1 -10 -8q-2 -52 -4 -79q-6 -56 -8 -85
q0 -8 0.5 -16.5t1.5 -19.5t1 -17q0 -21 -18 -27q-15 -4 -20 -11q-10 -15 -30 -2q-16 9 -14 31q0 7 1 11h-1zM211 368l2 4q-1 -1 -1 -2.5t-1 -2.5q0 -1 -0.5 -5t-0.5 -5h2q0 1 -0.5 4.5t-0.5 5.5v1zM75 707l1 1v3v-4q-6 -12 -8 -18q-1 -2 -2 -10t-3 -12q-13 -44 -21 -135
q-1 -11 -2.5 -29.5t-2.5 -33.5t-1 -29q-2 -21 -2 -64v-21h1q0 3 -0.5 10t-0.5 11q5 10 5 12q1 5 1 15.5t1 15.5q2 37 8 101q1 5 2 14.5t1 14.5q1 9 2.5 26t2.5 26q0 1 2 18t4 25q12 50 12 63zM87 325v-20q-1 -6 1.5 -8t9.5 -1t20.5 3.5t19.5 4.5q23 6 46 15q6 2 6 10
q0 2 -3 95q0 17 -3 25q-2 8 -2.5 23t-2.5 22q-3 11 -3.5 31t-1.5 28q-4 25 -16 73q-8 33 -26 56q-5 9 -10 -1q-8 -18 -12 -58q-12 -100 -16 -150q-1 -13 -4 -82q0 -7 -1 -21t-1.5 -25t-0.5 -20zM224 375v-8.5t-2 -11.5t-7 -7q-3 -1 -3 -13q6 -2 9 -2q6 1 8.5 -1.5t1.5 -7.5
q0 -1 -1 -6t-2.5 -5t-8.5 1l-5 -5q-2 -14 -2 -21v-8.5t3.5 -5t9.5 -0.5l5 -5q-1 0 -3 -2q-1 -1 -2 -1q-10 2 -10 -8q0 -2 -0.5 -5.5t-0.5 -4.5q0 -5 -1.5 -15.5t-1 -18.5t4.5 -15q1 -1 -1 -6l-2 -3q-2 -3 -2 -4v-59q0 -3 4 -7q6 -8 6 -10q1 -2 3 -7.5t4 -7.5q1 -1 2 -2.5
t3 -3t3 -2.5q4 6 4 9q0 8 1 23t1 22q7 61 4 110v30v30q-4 70 -7 105q-2 26 -4 39q0 1 -3 3q-2 1 -3 2q-5 -5 -5 -6v-79zM41 343q-4 2 -6 2t-2 -4q0 -1 2 -5q1 2 6 7zM242 54l1 1h-1v-1zM83 878q29 -8 40 -13q12 -6 32 -23q15 -12 29 -2q4 4 14 11t13 10q19 23 32 37
q5 8 11 0q4 -9 -3 -29q-3 -6 -9 -16t-8 -14l-2.5 -5l-2.5 -5q-12 -19 -28 -30q-12 -7 -31 0q-23 10 -44 28q-3 2 -9 6.5t-8 5.5q-8 5 -12 -3q-8 -15 -31 -19q-4 -1 -12.5 4t-8.5 9q-1 5 3 15q4 12 14.5 21.5t20.5 11.5z" />
    <glyph glyph-name="Adieresis" unicode="&#xc4;" 
d="M-6 34q4 54 7 81q1 14 3 42.5t3 43.5l6 81q1 12 1.5 37t1.5 37q4 86 8 128q9 87 21 170q2 9 20 70q1 4 5 10q6 8 11 2q5 -2 9 0q10 8 21 6q2 0 8 2.5t9 -0.5q2 -1 6.5 -1.5t6.5 -1.5q41 -21 69 -69q5 -11 10 -19q9 -15 18 -57q6 -35 13 -92q6 -52 8 -82q1 -17 1.5 -50.5
t1.5 -50.5l3 -48q3 -42 3 -43l-3 -69q0 -41 -1 -61l-3 -51q0 -4 -2 -10q-3 -5 -9 -2q-3 1 -9 2t-8 2q-8 1 -16 6q-19 10 -30 18q-8 6 -6 15q0 9 2 26.5t2 22.5q6 64 8 96v47q0 10 -7 5t-15.5 -8.5t-21 -6t-16.5 -3.5q-15 -4 -38 -2q-9 1 -10 -8q-2 -52 -4 -79q-6 -56 -8 -85
q0 -8 0.5 -16.5t1.5 -19.5t1 -17q0 -21 -18 -27q-15 -4 -20 -11q-10 -15 -30 -2q-16 9 -14 31q0 7 1 11h-1zM211 368l2 4q-1 -1 -1 -2.5t-1 -2.5q0 -1 -0.5 -5t-0.5 -5h2q0 1 -0.5 4.5t-0.5 5.5v1zM75 707l1 1v3v-4q-6 -12 -8 -18q-1 -2 -2 -10t-3 -12q-13 -44 -21 -135
q-1 -11 -2.5 -29.5t-2.5 -33.5t-1 -29q-2 -21 -2 -64v-21h1q0 3 -0.5 10t-0.5 11q5 10 5 12q1 5 1 15.5t1 15.5q2 37 8 101q1 5 2 14.5t1 14.5q1 9 2.5 26t2.5 26q0 1 2 18t4 25q12 50 12 63zM87 325v-20q-1 -6 1.5 -8t9.5 -1t20.5 3.5t19.5 4.5q23 6 46 15q6 2 6 10
q0 2 -3 95q0 17 -3 25q-2 8 -2.5 23t-2.5 22q-3 11 -3.5 31t-1.5 28q-4 25 -16 73q-8 33 -26 56q-5 9 -10 -1q-8 -18 -12 -58q-12 -100 -16 -150q-1 -13 -4 -82q0 -7 -1 -21t-1.5 -25t-0.5 -20zM224 375v-8.5t-2 -11.5t-7 -7q-3 -1 -3 -13q6 -2 9 -2q6 1 8.5 -1.5t1.5 -7.5
q0 -1 -1 -6t-2.5 -5t-8.5 1l-5 -5q-2 -14 -2 -21v-8.5t3.5 -5t9.5 -0.5l5 -5q-1 0 -3 -2q-1 -1 -2 -1q-10 2 -10 -8q0 -2 -0.5 -5.5t-0.5 -4.5q0 -5 -1.5 -15.5t-1 -18.5t4.5 -15q1 -1 -1 -6l-2 -3q-2 -3 -2 -4v-59q0 -3 4 -7q6 -8 6 -10q1 -2 3 -7.5t4 -7.5q1 -1 2 -2.5
t3 -3t3 -2.5q4 6 4 9q0 8 1 23t1 22q7 61 4 110v30v30q-4 70 -7 105q-2 26 -4 39q0 1 -3 3q-2 1 -3 2q-5 -5 -5 -6v-79zM41 343q-4 2 -6 2t-2 -4q0 -1 2 -5q1 2 6 7zM242 54l1 1h-1v-1zM190 765q-11 0 -16.5 4.5t-4.5 11.5q0 7 -4 21.5t-3 22.5q1 4 8.5 8t8.5 7q3 13 15 5
q3 -2 10 -4.5t9 -5.5l5.5 -5.5l6 -6t5.5 -6t4 -6.5q4 -16 -8 -25l-8 -8q-3 -6 -14.5 -8.5t-13.5 -4.5zM92 767q-10 0 -18.5 10t-7.5 18t4 14.5t4 13.5q6 19 18 20.5t22 -11.5q1 -1 7 -6t9 -8.5t4 -8.5q4 -17 -8 -25q-1 -1 -4 -3.5t-4 -4.5q-3 -6 -13.5 -6.5t-12.5 -2.5z" />
    <glyph glyph-name="Aring" unicode="&#xc5;" 
d="M-6 34h1q-1 -4 -1 -11q-2 -22 14 -31q20 -13 30 2q5 7 20 11q18 6 18 27q0 1 -1.5 22t-1.5 31q2 29 8 85q2 27 4 79q1 9 10 8q23 -2 38 2q4 1 16.5 3.5t21 6t15.5 8.5t7 -5v-47q-2 -32 -8 -96q0 -5 -2 -22.5t-2 -26.5q-2 -9 6 -15q11 -8 30 -18q8 -5 16 -6q2 -1 8 -2
t9 -2q6 -3 9 2q2 6 2 10l3 51q1 20 1 61l3 69q0 1 -3 43l-3 48q-1 17 -1.5 50.5t-1.5 50.5q-2 30 -8 82q-7 57 -13 92q-9 42 -18 57q-5 8 -10 19q-28 48 -69 69q-2 1 -6.5 1.5t-6.5 1.5q-3 3 -9 0.5t-8 -2.5q-11 2 -21 -6q-4 -2 -9 0q-5 6 -11 -2q-4 -6 -5 -10
q-18 -61 -20 -70q-12 -83 -21 -170q-4 -42 -8 -128q-1 -12 -1.5 -37t-1.5 -37l-6 -81q-1 -15 -3 -43.5t-3 -42.5q-3 -27 -7 -81zM211 368v-1q0 -2 0.5 -5.5t0.5 -4.5h-2q0 1 0.5 5t0.5 5q1 1 1 2.5t1 2.5zM75 707q0 -13 -12 -63q-2 -8 -4 -25t-2 -18q-1 -9 -2.5 -26
t-2.5 -26q0 -5 -1 -14.5t-2 -14.5q-6 -64 -8 -101q-1 -5 -1 -15.5t-1 -15.5q0 -2 -5 -12q0 -4 0.5 -11t0.5 -10h-1v21q0 43 2 64q0 14 1 29t2.5 33.5t2.5 29.5q8 91 21 135q2 4 3 12t2 10q2 6 8 18v4v-3zM87 325q0 9 0.5 20t1.5 25t1 21q3 69 4 82q4 50 16 150q4 40 12 58
q5 10 10 1q18 -23 26 -56q12 -48 16 -73q1 -8 1.5 -28t3.5 -31q2 -7 2.5 -22t2.5 -23q3 -8 3 -25q3 -93 3 -95q0 -8 -6 -10q-23 -9 -46 -15q-6 -2 -19.5 -4.5t-20.5 -3.5t-9.5 1t-1.5 8v20zM224 375v79q0 1 5 6q1 -1 3 -2q3 -2 3 -3q2 -13 4 -39q3 -35 7 -105v-30v-30
q3 -49 -4 -110q0 -7 -1 -22t-1 -23q0 -3 -4 -9q-1 1 -3 2.5t-3 3t-2 2.5q-2 2 -4 7.5t-3 7.5q0 2 -6 10q-4 4 -4 7v59q0 1 2 4l2 3q2 5 1 6q-4 7 -4.5 15t1 18.5t1.5 15.5q0 1 0.5 4.5t0.5 5.5q0 10 10 8q1 0 2 1l1.5 1.5t1.5 0.5l-5 5q-6 -2 -9.5 0.5t-3.5 5v8.5q0 7 2 21
l5 5q7 -1 8.5 -1t2.5 5t1 6q1 5 -1.5 7.5t-8.5 1.5l-9 2q0 12 3 13q5 3 7 7t2 11.5v8.5zM41 343q-5 -5 -6 -7q-2 4 -2 5q0 4 2 4t6 -2zM242 54v1h1zM191 851v-5q0 -15 -15 -34q-5 -8 -21 -14q-12 -6 -22 -6q-11 0 -25 7q-17 9 -19 32v2v4v2q0 14 14 34q5 5 15 19q6 8 18 8
q7 0 10 -2q4 -2 9 -2v9q-3 7 -4 7l-2 2q0 1 4 1q3 1 10 1q5 0 7 -2l3 -4q3 -4 5 -5q6 -11 13 -54zM139 822q20 14 22 43q0 3 -4 6q0 1 -1 1q-2 0 -5 -3q-15 -10 -25 -29q-1 -1 -3.5 -7t-4.5 -8q1 -10 6 -10q2 0 3 1q10 2 12 6zM171 893l1 1q-4 6 -6 7q-1 0 -2 -1
q1 -2 3.5 -3.5t3.5 -3.5zM172 884h1h-1z" />
    <glyph glyph-name="AE" unicode="&#xc6;" horiz-adv-x="539" 
d="M-6 34q4 54 7 81l6 86l6 81q1 12 1.5 37t1.5 37q4 86 8 128q9 87 21 170q2 9 20 70q1 4 5 10q6 8 11 2q5 -2 9 0q10 8 21 6q2 0 8 2.5t9 -0.5q2 -1 6.5 -1.5t6.5 -1.5q41 -21 69 -69q5 -11 10 -19q9 -15 18 -57q6 -35 13 -92q6 -52 8 -82q1 -17 1.5 -50.5t1.5 -50.5
q0 -12 2 -34q2 50 4 75q1 17 2.5 48t3 56.5t3.5 48.5q2 39 10 115l3 30q8 31 41 23q6 -2 10 0q8 10 44 14q30 5 73 7q5 0 35 -2q4 -1 6.5 -7.5t0.5 -10.5q-6 -8 -10 -9q-6 -2 -27 -10t-35 -11.5t-29 -4.5q-10 0 -14 1q-9 2 -11 0.5t1 -10.5q7 -16 2 -45q-3 -26 -7.5 -73
t-6.5 -62q-1 -8 2 -10t11 1q36 12 54 20q15 7 25 -6q6 -8 2 -16q-2 -3 -6.5 -9.5t-7 -10.5t-7 -9t-9 -8t-10.5 -5q-24 -8 -48 -8q-10 0 -10 -7v-23.5v-28.5v-24q0 -8 -1 -22.5t-1.5 -26t-0.5 -22.5q0 -9 -1.5 -37.5t-0.5 -44.5q7 -54 25 -92q6 -13 22 -14q37 0 84 20
q6 2 15 -0.5t12 -8.5q4 -5 -1 -17q-13 -24 -46 -31q-11 -3 -33 -5q-45 -6 -88 14q-64 29 -77 92q-2 6 -2 9q0 -5 -0.5 -15t-0.5 -15l-3 -51q0 -4 -2 -10q-3 -5 -9 -2q-3 1 -9 2t-8 2q-8 1 -16 6q-19 10 -30 18q-8 6 -6 15q0 9 2 26.5t2 22.5q6 64 8 96v47q0 10 -7 5
t-15.5 -8.5t-21 -6t-16.5 -3.5q-15 -4 -38 -2q-9 1 -10 -8q-2 -52 -4 -79q-6 -56 -8 -85q0 -8 0.5 -16.5t1.5 -19.5t1 -17q0 -21 -18 -27q-15 -4 -20 -11q-10 -15 -30 -2q-16 9 -14 31v11zM90 391l-3 -66v-20q-1 -6 1.5 -8t9.5 -1l40 8q23 6 46 15q6 2 6 10q0 2 -3 95
q0 17 -3 25q-2 8 -2.5 23t-2.5 22q-3 11 -3.5 31t-1.5 28q-4 25 -16 73q-8 33 -26 56q-5 9 -10 -1q-8 -18 -12 -58q-12 -100 -16 -150q-1 -13 -4 -82zM224 375v-8.5t-2 -11.5t-7 -7q-3 -1 -3 -13q6 -2 9 -2q6 1 8.5 -1.5t1.5 -7.5q0 -1 -1 -6t-2.5 -5t-8.5 1l-5 -5
q-2 -14 -2 -21v-8.5t3.5 -5t9.5 -0.5l5 -5q-1 0 -3 -2q-1 -1 -2 -1q-10 2 -10 -8q0 -2 -0.5 -5.5t-0.5 -4.5q0 -5 -1.5 -15.5t-1 -18.5t4.5 -15q1 -1 -1 -6l-2 -3q-2 -3 -2 -4v-59q0 -3 4 -7q6 -8 6 -10q1 -2 3 -7.5t4 -7.5q1 -1 2 -2.5t3 -3t3 -2.5q4 6 4 9l2 45
q7 61 4 110v30v30q-4 70 -7 105q-2 26 -4 39q0 1 -3 3q-2 1 -3 2q-5 -5 -5 -6v-79zM75 705l-7 -16q-1 -2 -2 -10t-3 -12q-13 -44 -21 -135q-1 -11 -2.5 -29.5t-2.5 -33.5t-1 -29q-2 -21 -2 -64q5 10 5 12l2 31q2 37 8 101l3 29l5 52q0 1 2 18t4 25q11 45 12 61zM308 148
q2 -4 3 -7q0 1 1.5 5t1.5 6q0 10 0.5 30.5t0.5 31.5q0 12 1 19q0 2 -3 5q0 -2 -2 -4q-2 -6 -1 -9q-2 -50 -2 -77zM319 357l-2 6q-2 -4 -2 -7q-2 -21 -4 -67l3 -9l3 8q2 44 2 69zM41 343q-4 2 -6 2t-2 -4q0 -1 2 -5q1 2 6 7zM35 355q0 3 -0.5 8t-0.5 7zM210 357h2
q0 1 -0.5 3.5t-0.5 4.5q-1 -3 -1 -8zM315 265l2 1q1 1 -1 3v-1q-1 -1 -1 -3zM320 403l1 2q0 1 -0.5 1t-0.5 1q-2 -2 0 -4zM242 54l1 1zM213 372q-1 -1 -1 -3q0 2 1 3z" />
    <glyph glyph-name="Ccedilla" unicode="&#xc7;" horiz-adv-x="352" 
d="M221 -56q0 -9 -2 -12q-8 -23 -20 -33q-3 -3 -10.5 -8.5t-10.5 -8.5q-8 -8 -40 -15q-5 0 -5 1l-23 18l-15 19q-4 5 -18 19t-20 22q-10 13 -7 24q2 8 3 9t9 -1q35 -11 75 -41q4 -3 15 -11.5t18 -13.5q7 -6 9 4q1 6 -1 11q-1 3 -9 22q-13 33 -37 54q-4 4 -6 12v9q-8 1 -37 8
q-4 1 -17 5q-39 10 -53 41q-14 34 -16 70v69q0 7 0.5 19t0.5 18q0 5 -2 19t-2 22q0 15 2 47q9 116 14 147q11 90 43 162q33 73 106 89q36 7 59 -1q3 -1 8 -1t7 -1q24 -10 28 -32q7 -39 3 -76q-4 -30 -4 -45q-1 -10 -9 -14q-21 -15 -46 -31q-2 -2 -8 -4q-2 6 -2 9v8
q-6 14 -8 30t-2 37t-1 31v7q-1 3 -6 11q-7 -4 -9 -8q-26 -35 -50 -110q-16 -52 -23 -116l-4 -20q-1 -5 -4.5 -30.5t-4.5 -39.5v-48l-2 -86q0 -3 -3 -6q-1 -2 -4 -5t-4 -5v-9l8 8q0 -1 1.5 -2.5t1.5 -2.5q0 -7 0.5 -21t0.5 -22v-1l-1 -2q7 -36 13 -58l3 -9q6 -13 17 -4
q23 21 28 27q71 79 100 130q48 84 66 129q6 14 10 20q1 2 4 5l4 2q5 -8 5 -9q-1 -8 -3.5 -25t-4 -27t-6 -23.5t-10.5 -24.5q-5 -9 -14 -25.5t-12 -21.5q-4 -5 0 -18q4 -29 9 -37q2 -5 -2 -9l-26 -36q-15 -22 -19 -27q-18 -25 -37 -46q-3 -4 -17 -11l-17 -9q6 -11 12 -20
t9 -13t3 -5q14 -23 19 -53zM43 278q2 12 0 23q0 2 -3 8q-6 -5 -6 -7q-1 -2 1 -8q0 -3 0.5 -9t0.5 -9l-3 -47q0 -1 -0.5 -5.5t-1.5 -6.5q0 -1 -3 -4.5t-3.5 -4.5t1 -3.5t6.5 -4.5v-4q0 -26 1 -39q0 -44 13 -82q0 -2 6 -7q0 2 1 4t1 4l-7 49q-1 3 0 8.5t1 7.5l5 -16l12 -48
q1 -1 6 -7v8q-11 63 -11 70q0 36 -1 55v1q0 9 -6 7q-7 -3 -8.5 0t-1.5 9v58zM20 313l1 -4l2 -6l3 5q1 1 1 4q1 5 1 15l-3 1zM49 385q-1 1 -1 3v2l-3 6l-3 -5q-1 -1 -1 -4l4 -14zM43 317l2 6l-2 4l-3 -3q0 -2 3 -7zM42 352q0 2 1 3t1 2t-2 3q-2 -2 -2 -4zM51 237q1 1 1 5
l-2 -1q0 -2 1 -4zM80 168l-5 -5q1 0 1 -0.5t1 -0.5zM77 173l2 -4v4h-2zM25 180l-1 1z" />
    <glyph glyph-name="Egrave" unicode="&#xc8;" horiz-adv-x="286" 
d="M11 168q1 9 2.5 49t3.5 63q2 56 4 84l9 153q2 39 10 115l3 30q8 31 41 23q6 -2 10 0q8 10 44 14q30 5 73 7q5 0 35 -2q4 -1 6.5 -7.5t0.5 -10.5q-6 -8 -10 -9q-6 -2 -27 -10t-35 -11.5t-29 -4.5q-10 0 -14 1q-9 2 -11 0.5t1 -10.5q7 -16 2 -45q-3 -26 -7.5 -73t-6.5 -62
q-1 -8 2 -10t11 1q36 12 54 20q15 7 25 -6q6 -8 2 -16q-2 -3 -6.5 -9.5t-7 -10.5t-7 -9t-9 -8t-10.5 -5q-24 -8 -48 -8q-10 0 -10 -7v-23.5v-28.5v-24q0 -8 -1 -22.5t-1.5 -26t-0.5 -22.5q0 -9 -1.5 -37.5t-0.5 -44.5q7 -54 25 -92q6 -13 22 -14q37 0 84 20q6 2 15 -0.5
t12 -8.5q4 -5 -1 -17q-13 -24 -46 -31q-11 -3 -33 -5q-45 -6 -88 14q-64 29 -77 92q-2 7 -4.5 21.5t-4.5 23.5zM61 150q2 -4 3 -7q0 1 1.5 5t1.5 6q0 10 0.5 30.5t0.5 31.5q0 12 1 19q0 2 -3 5q0 -2 -2 -4q-2 -6 -1 -9q-2 -50 -2 -77zM72 359l-2 6q-2 -4 -2 -7
q-2 -21 -4 -67l3 -9q1 1 2 4t1 4q2 44 2 69zM73 405l1 2q0 1 -0.5 1t-0.5 1l-2 -2zM68 267l2 1q1 1 -1 3q0 -1 -0.5 -1t-0.5 -1v-2zM98 908q1 0 2.5 2t2.5 2q8 7 18 3q0 -1 1 -2q-1 -5 -1 -6t3 -3l4 -3q6 -7 20 -24t21 -26q13 -15 27 -42q6 -10 12 -16q3 -3 -2 -8
q-2 -5 -5 -5q-17 0 -25 6l-27 18q-6 3 -28 22q-5 4 -10.5 9t-12 11.5t-10.5 9.5q-4 4 -8 10q-6 6 2 21q7 15 16 21zM170 816q-2 5 -7 11.5t-6 9.5l-2 2v-3q10 -14 12 -21q3 -8 15 -23q0 1 1 1t2 -1l-1 3q-2 4 -7 11t-7 10z" />
    <glyph glyph-name="Eacute" unicode="&#xc9;" horiz-adv-x="286" 
d="M11 168q2 -9 4.5 -23.5t4.5 -21.5q13 -63 77 -92q43 -20 88 -14q22 2 33 5q33 7 46 31q5 12 1 17q-3 6 -12 8.5t-15 0.5q-47 -20 -84 -20q-16 1 -22 14q-18 38 -25 92q-1 16 0.5 44.5t1.5 37.5q0 11 0.5 22.5t1.5 26t1 22.5v24v28.5v23.5q0 7 10 7q24 0 48 8
q7 2 13.5 7.5t9.5 9t9.5 13.5t7.5 12q4 8 -2 16q-10 13 -25 6q-18 -8 -54 -20q-8 -3 -11 -1t-2 10q2 15 6.5 62t7.5 73q5 29 -2 45q-4 9 -1.5 11t11.5 -1q4 -1 14 -1q15 1 29 4.5t35 11.5t27 10q4 1 10 9q2 4 -0.5 10.5t-6.5 7.5q-30 2 -35 2q-43 -2 -73 -7q-36 -4 -44 -14
q-4 -2 -10 0q-33 8 -41 -23l-3 -30q-8 -76 -10 -115l-9 -153q-2 -28 -4 -84q-2 -23 -3.5 -63t-2.5 -49zM61 150q0 27 2 77q-1 3 1 9q2 2 2 4q3 -3 3 -5q-1 -7 -1 -19q0 -11 -0.5 -31.5t-0.5 -30.5q0 -2 -1.5 -6t-1.5 -5zM72 359q0 -25 -2 -69q0 -1 -1 -4t-2 -4l-3 9
q2 46 4 67q0 3 2 7zM73 405l-2 2l2 2q0 -1 0.5 -1t0.5 -1q-1 -1 -1 -2zM68 267v2q0 1 0.5 1t0.5 1q2 -2 1 -3t-2 -1zM95 780q-11 9 -16 25q-9 16 -2 21l9 9q4 3 15.5 11t18.5 12q19 14 29 17q26 11 28 13q8 4 25 1q2 0 5 -6q4 -6 1 -8q-7 -6 -12 -14q-18 -26 -29 -37
q-8 -9 -23.5 -23.5t-19.5 -18.5q-1 -1 -3 -2q-5 -3 -2 -9l-2 -2q-10 -2 -17 6zM169 859q3 3 5.5 6t5 6.5t4.5 5.5q0 2 1 3q-1 -1 -2 -0.5t-1 1.5q-13 -13 -16 -20q-2 -7 -12 -19q0 -2 -1 -3l3 1q2 3 6.5 9.5t6.5 9.5z" />
    <glyph glyph-name="Ecircumflex" unicode="&#xca;" horiz-adv-x="286" 
d="M11 168q1 9 2.5 49t3.5 63q2 56 4 84l9 153q2 39 10 115l3 30q8 31 41 23q6 -2 10 0q8 10 44 14q30 5 73 7q5 0 35 -2q4 -1 6.5 -7.5t0.5 -10.5q-6 -8 -10 -9q-6 -2 -27 -10t-35 -11.5t-29 -4.5q-10 0 -14 1q-9 2 -11 0.5t1 -10.5q7 -16 2 -45q-3 -26 -7.5 -73t-6.5 -62
q-1 -8 2 -10t11 1q36 12 54 20q15 7 25 -6q6 -8 2 -16q-2 -3 -6.5 -9.5t-7 -10.5t-7 -9t-9 -8t-10.5 -5q-24 -8 -48 -8q-10 0 -10 -7v-23.5v-28.5v-24q0 -8 -1 -22.5t-1.5 -26t-0.5 -22.5q0 -9 -1.5 -37.5t-0.5 -44.5q7 -54 25 -92q6 -13 22 -14q37 0 84 20q6 2 15 -0.5
t12 -8.5q4 -5 -1 -17q-13 -24 -46 -31q-11 -3 -33 -5q-45 -6 -88 14q-64 29 -77 92q-2 7 -4.5 21.5t-4.5 23.5zM61 150q2 -4 3 -7q0 1 1.5 5t1.5 6q0 10 0.5 30.5t0.5 31.5q0 12 1 19q0 2 -3 5q0 -2 -2 -4q-2 -6 -1 -9q-2 -50 -2 -77zM72 359l-2 6q-2 -4 -2 -7
q-2 -21 -4 -67l3 -9q1 1 2 4t1 4q2 44 2 69zM73 405l1 2q0 1 -0.5 1t-0.5 1l-2 -2zM68 267l2 1q1 1 -1 3q0 -1 -0.5 -1t-0.5 -1v-2zM239 800q-5 -2 -6 -2q-24 1 -46 23q-4 3 -7.5 7t-8 8.5l-6.5 6.5q-6 4 -10 -1t-11.5 -15t-11.5 -15q-24 -30 -26 -32q-5 -6 -8 -14
q-1 -9 -16 -7q-18 3 -27 21q-1 1 -1 3t-1 3q-3 5 3 11q9 7 26 24t25 27q5 6 23 32q8 9 17 7q31 -9 41 -26q8 -16 32 -32q11 -7 13 -10q1 -1 6 -19z" />
    <glyph glyph-name="Edieresis" unicode="&#xcb;" horiz-adv-x="286" 
d="M11 168q1 9 2.5 49t3.5 63q2 56 4 84l9 153q2 39 10 115l3 30q8 31 41 23q6 -2 10 0q8 10 44 14q30 5 73 7q5 0 35 -2q4 -1 6.5 -7.5t0.5 -10.5q-6 -8 -10 -9q-6 -2 -27 -10t-35 -11.5t-29 -4.5q-10 0 -14 1q-9 2 -11 0.5t1 -10.5q7 -16 2 -45q-3 -26 -7.5 -73t-6.5 -62
q-1 -8 2 -10t11 1q36 12 54 20q15 7 25 -6q6 -8 2 -16q-2 -3 -6.5 -9.5t-7 -10.5t-7 -9t-9 -8t-10.5 -5q-24 -8 -48 -8q-10 0 -10 -7v-23.5v-28.5v-24q0 -8 -1 -22.5t-1.5 -26t-0.5 -22.5q0 -9 -1.5 -37.5t-0.5 -44.5q7 -54 25 -92q6 -13 22 -14q37 0 84 20q6 2 15 -0.5
t12 -8.5q4 -5 -1 -17q-13 -24 -46 -31q-11 -3 -33 -5q-45 -6 -88 14q-64 29 -77 92q-2 7 -4.5 21.5t-4.5 23.5zM61 150q2 -4 3 -7q0 1 1.5 5t1.5 6q0 10 0.5 30.5t0.5 31.5q0 12 1 19q0 2 -3 5q0 -2 -2 -4q-2 -6 -1 -9q-2 -50 -2 -77zM72 359l-2 6q-2 -4 -2 -7
q-2 -21 -4 -67l3 -9q1 1 2 4t1 4q2 44 2 69zM73 405l1 2q0 1 -0.5 1t-0.5 1l-2 -2zM68 267l2 1q1 1 -1 3q0 -1 -0.5 -1t-0.5 -1v-2zM182 765q-11 0 -16.5 4.5t-4.5 11.5q0 7 -4 21.5t-3 22.5q1 4 8.5 8t8.5 7q3 13 15 5q3 -2 10 -4.5t9 -5.5l5.5 -5.5l6 -6t5.5 -6t4 -6.5
q4 -16 -8 -25l-8 -8q-3 -6 -14.5 -8.5t-13.5 -4.5zM84 767q-10 0 -18.5 10t-7.5 18t4 14.5t4 13.5q6 19 18 20.5t22 -11.5q1 -1 7 -6t9 -8.5t4 -8.5q4 -17 -8 -25q-1 -1 -4 -3.5t-4 -4.5q-3 -6 -13.5 -6.5t-12.5 -2.5z" />
    <glyph glyph-name="Igrave" unicode="&#xcc;" horiz-adv-x="188" 
d="M28 152q2 35 6.5 101t6.5 98q1 18 3.5 53.5t3.5 54.5q3 55 10 99q5 41 14 109q1 3 0.5 7.5t-0.5 6.5q2 13 13.5 21.5t24.5 7.5q26 -3 40.5 -23.5t10.5 -48.5q-2 -8 -5 -25t-5 -26q-4 -30 -6 -62q-1 -11 -3 -30.5t-3.5 -35.5t-2.5 -30q-1 -9 0.5 -25.5t1.5 -22.5
q0 -3 -2 -9t-2 -8q-4 -39 -6 -78q0 -2 -3 -73q0 -3 -0.5 -8t-0.5 -7q-2 -34 -2 -49q0 -3 3 -8t3 -7q0 -44 -2 -66q0 -7 -11 -10q-1 0 -6 -1t-8 -1.5t-6.5 1.5t-5.5 6q-1 1 -2.5 1t-2.5 -1q-8 -1 -11 -0.5t-9.5 4t-9.5 4.5q-21 9 -23 40q-1 7 -1 41h-2zM96 288l2 6
q-9 6 -7 27q1 16 3 50q0 1 -1 2.5t-1 2.5q-3 -3 -4 -5q-8 -55 -9 -78q-3 -35 -5 -108q0 -8 2 -22q0 -1 1.5 -2.5t1.5 -2.5q0 1 1 2.5t1 2.5q1 11 1 33q2 22 9 27q2 2 2 9q1 5 1 15t1 15q0 5 0.5 13.5t0.5 12.5zM74 131q0 -1 2 -4t3 -5v11v7q0 2 -1 3q0 -1 -2 -2l-2 -1v-9z
M48 908q1 0 2.5 2t2.5 2q8 7 18 3q0 -1 1 -2q-1 -5 -1 -6t3 -3l4 -3q6 -7 20 -24t21 -26q13 -15 27 -42q6 -10 12 -16q3 -3 -2 -8q-2 -5 -5 -5q-17 0 -25 6l-27 18q-6 3 -28 22q-5 4 -10.5 9t-12 11.5t-10.5 9.5q-4 4 -8 10q-6 6 2 21q7 15 16 21zM120 816q-2 5 -7 11.5
t-6 9.5l-2 2v-3q10 -14 12 -21q3 -8 15 -23q0 1 1 1t2 -1l-1 3q-3 4 -7 11t-7 10z" />
    <glyph glyph-name="Iacute" unicode="&#xcd;" horiz-adv-x="188" 
d="M28 152h2q0 -35 1 -41q2 -31 23 -40q3 -1 9.5 -4.5t9.5 -4t11 0.5q1 1 2.5 1t2.5 -1q2 -4 5.5 -6t6.5 -1.5t8 1.5t6 1q11 3 11 10q2 22 2 66q0 2 -3 7t-3 8q0 15 2 49q0 2 0.5 7t0.5 8q3 71 3 73q2 39 6 78q0 2 2 8t2 9q0 6 -1.5 22.5t-0.5 25.5l9 96q2 32 6 62q2 9 5 26
t5 25q4 28 -10.5 48.5t-40.5 23.5q-13 1 -24.5 -7.5t-13.5 -21.5q0 -2 0.5 -6.5t-0.5 -7.5q-9 -68 -14 -109q-7 -44 -10 -99q-1 -19 -3.5 -54.5t-3.5 -53.5q-2 -32 -6.5 -98t-6.5 -101zM96 288q0 -4 -0.5 -12.5t-0.5 -13.5q-1 -5 -1 -15t-1 -15q0 -7 -2 -9q-7 -5 -9 -27
q0 -22 -1 -33q0 -1 -1 -2.5t-1 -2.5q0 1 -1.5 2.5t-1.5 2.5q-2 14 -2 22q2 73 5 108q1 23 9 78q1 2 4 5q0 -1 1 -2.5t1 -2.5q-2 -34 -3 -50q-2 -21 7 -27zM74 131v9l2 1q2 1 2 2q1 -1 1 -3v-7v-11q-1 2 -3 5t-2 4zM66 780q-11 9 -16 25q-9 16 -2 21l9 9q4 3 15.5 11t18.5 12
q19 14 29 17q25 11 28 13q8 4 25 1q2 0 5 -6q4 -6 1 -8q-7 -6 -12 -14q-18 -26 -29 -37q-8 -9 -23.5 -23.5t-19.5 -18.5q-1 -1 -3 -2q-5 -3 -2 -9l-2 -2q-10 -2 -17 6zM140 859l15 18q0 2 1 3q-1 -1 -2 -0.5t-1 1.5q-13 -13 -16 -20q-2 -7 -12 -19q0 -2 -1 -3l3 1
q2 3 6.5 9.5t6.5 9.5z" />
    <glyph glyph-name="Icircumflex" unicode="&#xce;" horiz-adv-x="188" 
d="M28 152q2 35 6.5 101t6.5 98q1 18 3.5 53.5t3.5 54.5q3 55 10 99q5 41 14 109q1 3 0.5 7.5t-0.5 6.5q2 13 13.5 21.5t24.5 7.5q26 -3 40.5 -23.5t10.5 -48.5q-2 -8 -5 -25t-5 -26q-4 -30 -6 -62q-1 -11 -3 -30.5t-3.5 -35.5t-2.5 -30q-1 -9 0.5 -25.5t1.5 -22.5
q0 -3 -2 -9t-2 -8q-4 -39 -6 -78q0 -2 -3 -73q0 -3 -0.5 -8t-0.5 -7q-2 -34 -2 -49q0 -3 3 -8t3 -7q0 -44 -2 -66q0 -7 -11 -10q-1 0 -6 -1t-8 -1.5t-6.5 1.5t-5.5 6q-1 1 -2.5 1t-2.5 -1q-8 -1 -11 -0.5t-9.5 4t-9.5 4.5q-21 9 -23 40q-1 7 -1 41h-2zM96 288l2 6
q-9 6 -7 27q1 16 3 50q0 1 -1 2.5t-1 2.5q-3 -3 -4 -5q-8 -55 -9 -78q-3 -35 -5 -108q0 -8 2 -22q0 -1 1.5 -2.5t1.5 -2.5q0 1 1 2.5t1 2.5q1 11 1 33q2 22 9 27q2 2 2 9q1 5 1 15t1 15q0 5 0.5 13.5t0.5 12.5zM74 131q0 -1 2 -4t3 -5v11v7q0 2 -1 3q0 -1 -2 -2l-2 -1v-9z
M198 800q-5 -2 -6 -2q-24 1 -46 23q-4 3 -7.5 7t-8 8.5l-6.5 6.5q-6 4 -10 -1t-11.5 -15t-11.5 -15q-24 -30 -26 -32q-5 -6 -8 -14q-1 -9 -16 -7q-18 3 -27 21q0 1 -1 3t-1 3q-3 5 3 11q9 7 26 24t25 27q5 6 23 32q8 9 17 7q31 -9 41 -26q8 -16 32 -32q11 -7 13 -10
q1 -1 6 -19z" />
    <glyph glyph-name="Idieresis" unicode="&#xcf;" horiz-adv-x="188" 
d="M28 152q2 35 6.5 101t6.5 98q1 18 3.5 53.5t3.5 54.5q3 55 10 99q5 41 14 109q1 3 0.5 7.5t-0.5 6.5q2 13 13.5 21.5t24.5 7.5q26 -3 40.5 -23.5t10.5 -48.5q-2 -8 -5 -25t-5 -26q-4 -30 -6 -62q-1 -11 -3 -30.5t-3.5 -35.5t-2.5 -30q-1 -9 0.5 -25.5t1.5 -22.5
q0 -3 -2 -9t-2 -8q-4 -39 -6 -78q0 -2 -3 -73q0 -3 -0.5 -8t-0.5 -7q-2 -34 -2 -49q0 -3 3 -8t3 -7q0 -44 -2 -66q0 -7 -11 -10q-1 0 -6 -1t-8 -1.5t-6.5 1.5t-5.5 6q-1 1 -2.5 1t-2.5 -1q-8 -1 -11 -0.5t-9.5 4t-9.5 4.5q-21 9 -23 40q-1 7 -1 41h-2zM96 288l2 6
q-9 6 -7 27q1 16 3 50q0 1 -1 2.5t-1 2.5q-3 -3 -4 -5q-8 -55 -9 -78q-3 -35 -5 -108q0 -8 2 -22q0 -1 1.5 -2.5t1.5 -2.5q0 1 1 2.5t1 2.5q1 11 1 33q2 22 9 27q2 2 2 9q1 5 1 15t1 15q0 5 0.5 13.5t0.5 12.5zM74 131q0 -1 2 -4t3 -5v11v7q0 2 -1 3q0 -1 -2 -2l-2 -1v-9z
M133 765q-11 0 -16.5 4.5t-4.5 11.5q0 7 -4 21.5t-3 22.5q1 4 8.5 8t8.5 7q3 13 15 5q3 -2 10 -4.5t9 -5.5l5.5 -5.5l6 -6t5.5 -6t4 -6.5q4 -16 -8 -25l-8 -8q-3 -6 -14.5 -8.5t-13.5 -4.5zM35 767q-10 0 -18.5 10t-7.5 18t4 14.5t4 13.5q6 19 18 20.5t22 -11.5q1 -1 7 -6
t9 -8.5t4 -8.5q4 -17 -8 -25q-1 -1 -4 -3.5t-4 -4.5q-3 -6 -13.5 -6.5t-12.5 -2.5z" />
    <glyph glyph-name="Eth" unicode="&#xd0;" horiz-adv-x="305" 
d="M3 724l37 2q61 6 107 -24q40 -26 52 -51q4 -8 19 -37.5t21 -45.5q26 -67 30 -95q1 -7 5.5 -22t5.5 -23q3 -15 3 -46q0 -1 -0.5 -3t-1.5 -4.5t-1 -3.5t-1 -3q-3 -4 -2 -6q2 -9 -1.5 -25.5t-3.5 -19.5q-1 -19 -16 -67l-19 -54l-5 -16q-2 -3 -6 -8.5t-5 -7.5q-1 -1 -4 -7
q-1 -1 -2 -4q-1 -2 -2 -2q-6 -1 -3 -7q1 -4 -0.5 -4.5t-4.5 1.5h-6q0 -4 1 -5q9 -14 -3 -26l-15 -19l-47 -60q-3 -5 -6 -6q-1 -1 -8 -3q0 1 0.5 4.5t1.5 4.5q3 5 11 14t10 12q1 2 9 20q1 1 -0.5 2.5t-2.5 1.5t-4 -1t-4 -1.5t-2.5 -2.5t-1.5 -6q1 -10 -19.5 -35t-30.5 -27
q-29 -5 -48 4q-11 5 -3 13q9 9 -5 13q-13 4 -16.5 9t-2.5 19q3 41 7 130q4 105 7 161q-5 -1 -13 -4.5t-10 -4.5q-10 -5 -17.5 1t-9.5 20q-4 18 0 31q2 10 7 15q1 1 12 4l34 5l7 110l3 144q0 12 -10 13l-30 6q-4 1 -5.5 1t-4 1.5t-3.5 3.5t-1 6q2 15 17 15zM199 429
q-2 53 -35 132q-4 9 -13 25t-12 22q-2 2 -4 8q-4 -6 -4 -9q-10 -80 -11 -96l-5 -88q8 -2 17 -2q5 0 29 -8q6 -2 9 -12.5t-1 -16.5q-1 -3 -7 -3q-2 0 -6.5 1t-6.5 1h-1q-4 0 -5.5 -0.5t0.5 -6.5q-1 0 -1 -4q-2 0 -7.5 -2t-7.5 -2t-7 3q-2 0 -3 -1l-4 -4v-3l-4 -54
q-1 -26 -5 -73v-28q-1 -21 -1 -63v-15q0 -1 0.5 -3.5t0.5 -4.5l6 6l2 3q48 81 70 166q20 72 17 132zM195 178l-12 -29q3 -7 5 -9l4 4q11 19 12 22q9 18 14 33q7 20 31 91q0 1 -0.5 3.5t-0.5 3.5l-4 -5q-1 -4 -5 -17q0 -2 -4 -4l-1 2v3l-2 7q-6 -3 -7 -5q-10 -23 -12 -29
q-3 -9 -10 -47q-2 -8 -8 -24zM152 116v4q10 3 4 15q0 3 1 5l13 33l2 11q0 3 -2 5l-1 -1q-1 0 -2 -0.5t-1 -1.5l-21 -40q-2 -3 -10 -19t-13 -23q-21 -30 -24 -58v-8q4 4 5 4q17 2 14 18q0 1 8 9q-4 5 1 12l6 7q2 16 20 28zM53 99q2 20 4 31q0 5 -2 6q-14 10 -3 26q3 4 4.5 12
t2.5 10q7 9 -5 9q-13 0 -2 7q13 7 9 26q0 6 -3 6q-12 2 -13 -6q0 -1 -0.5 -2.5t-0.5 -2.5q-2 -68 -4 -102q-1 -18 13 -20zM54 250q-3 8 -2.5 11.5t3 11.5t3.5 12v7q-6 2 -6 13l2 23q0 1 -1.5 2.5t-1.5 2.5q-2 -2 -2 -5q-4 -52 -5 -79q0 -9 5 -9q7 0 5 10zM82 152q0 8 -1 11
l-3 3v-1q-1 -1 -1 -2q-2 -22 -2 -35q0 -1 2 -3l1 1q2 1 2 2q2 16 2 24zM65 15q5 -3 6 -2l10 14l-5 3q-3 -3 -11 -15zM84 203q0 3 -0.5 7t-0.5 5q-4 -8 -4 -12q0 -1 2 -8q0 1 1.5 4t1.5 4zM152 116q-2 -4 -2 -5v-7q2 0 3 1q0 1 0.5 3t0.5 3t-2 5zM84 185l-6 5q-2 -2 -3 -2
l6 -6q0 2 3 3zM55 251l7 8q-1 1 -1 2zM74 85q1 -2 1 -5q1 2 1 6q2 2 -1 4q0 -3 -1 -5zM75 112l2 -1q-1 0 -1 0.5t-1 0.5zM176 202l1 1l-1 1v-2zM53 99l-3 -2l1 -1q0 1 2 3z" />
    <glyph glyph-name="Ntilde" unicode="&#xd1;" horiz-adv-x="346" 
d="M224 434q0 2 -0.5 6.5t-0.5 6.5q3 19 1 42q0 1 1 3t1 4q2 16 2 23q-2 12 3 17q2 3 1 10.5t-4 12.5h1q1 7 2 29t3 34q1 6 3.5 17.5t3.5 17.5q2 13 4 35q1 6 7 9.5t7 5.5h2q5 -7 13 1q9 5 12 2q2 -2 5 0q1 1 3 2.5t3 2t2.5 -0.5t3.5 -3h2q7 4 9.5 3t5.5 -5t5 -5q2 0 2 -5
q0 -10 -2 -15q-11 -53 -18 -138q0 -2 -6 -113q-1 -14 -1.5 -43t-1.5 -44l-6 -54q-1 -6 -1.5 -18t-0.5 -16q-11 -113 -11 -124q0 -14 -2 -39.5t-2 -34.5q-1 -10 3 -26q1 -7 -5 -10q-13 -5 -35 5q-25 10 -32 9q-12 0 -17 14q-41 109 -69 213q-15 51 -20 69q0 1 -1 2.5t-2 2.5
q-1 -2 -1 -5q-1 -13 -1 -39q2 -30 2 -45q0 -10 -5 -11q-10 -2 0 -8q2 -3 4 -7q0 -3 -1 -3q-10 -5 -4 -10q10 -9 3 -26q-4 -15 3 -21q3 -3 3 -7v-25q-1 -26 0 -26q0 -10 2 -27.5t2 -23.5q0 -9 -4 -12q-1 -1 -4 -4.5t-4 -3t-7 2.5l-7 3.5t-8 4.5l-3 1q-2 -6 -10 -2
q-23 12 -26 15q-1 1 -2 4q-1 2 -1 3q-2 62 -4 95q0 4 -0.5 13t-0.5 14v3q2 11 0 57t-2 57v77q-1 11 -2.5 33.5t-1.5 32.5q-1 31 -3 91q-2 41 0 82q0 19 2 57q2 31 33 26q16 -2 29 -7q21 -7 16 -30q0 -13 5 -23q13 -41 15 -51q3 -11 7 -32.5t6 -29.5q1 -5 9 -40.5t12 -54.5
q3 -11 3 -34q1 -3 1.5 -9.5t1.5 -11.5t4 -8q6 -7 8 -22.5t7 -22.5q4 -5 5.5 -12t3 -17.5t2.5 -14.5q8 -43 10 -46q7 -15 7 -31q-9 21 -11 26l-3 3v-4q6 -20 10 -30q0 -1 5 -8q0 1 -1 4t-1 5v4l8 8q1 17 5 46q1 5 1 14.5v14.5q1 4 2.5 11.5t1.5 9.5v16q4 72 6 107v-1z
M162 230l-6 6q-1 1 -2.5 4t-2.5 4q0 -1 -2 -5l-3 -6q-1 -3 1 -7q1 -1 3.5 -10t5.5 -13q2 -3 2.5 -11.5t6.5 -10.5q1 0 1 -6q-1 -7 0.5 -14t5.5 -14.5t5 -12.5l4 -2q13 4 10 15q-7 29 -16 36l-3 3l-1 3q-8 26 -6 38v12v7q0 1 1 2v2h-6q-2 0 -2 -4q1 -3 2.5 -8.5t1.5 -7.5z
M67 286q2 -27 -2 -33q-2 -2 -2 -7q2 -38 4 -59q0 -3 -1 -4q-4 -5 1 -17q1 -2 3 -8.5t3 -10.5q5 -24 6 -48q0 -1 2 -2l2 -1l1 3q0 26 -4 31q-4 9 0 13q5 1 5 11q0 35 -1 52q0 16 -2 49t-3 50q0 25 -5 36q-2 4 -4 5v-2q-1 -2 -1 -3q0 -9 -0.5 -28t-1.5 -27zM254 336
q1 -3 3 -11q1 2 2 5.5t1 5.5v4q5 45 5 52q-1 8 4 39q0 10 -1 16q0 1 -0.5 4t-0.5 5t2 11.5t2 14.5q1 15 2.5 45t2.5 45q1 22 5 54q0 3 -1 4q-2 3 -6 7q0 -1 -1.5 -3t-1.5 -3q-4 -20 -4 -29q-1 -70 -6 -143q0 -9 -1.5 -28t-1.5 -21v-25.5t-1 -25.5q0 -2 -3 -23zM43 150h1
q0 -10 2 -30q0 -1 2 -7q2 6 2 7v46q-1 4 1 11t1.5 13t-6.5 10v2q0 9 0.5 27t0.5 27q-2 48 -2 70q-1 11 -1 33.5t-1 34.5q0 2 -0.5 5.5t-0.5 4.5q-2 -4 -4 -10v-6q0 -14 1 -42t1 -42q1 -52 3 -154zM131 324q-1 3 -3 8t-3 8q-1 1 -2.5 4.5t-2.5 5.5q-2 -8 -2 -12
q-1 -1 -0.5 -2.5t1.5 -1.5q2 -3 5 -24q1 -8 9 -36q6 -14 10 -20q0 -1 5 -3q2 4 2 8q-1 4 -3 12.5t-3 12.5q-5 14 -7 17q-10 11 -6 23zM263 615q-3 5 -3 6q-6 0 -6 -2q-1 -5 -1 -15q0 -3 0.5 -13t-1.5 -11q-2 -4 -3.5 -12.5t-2.5 -11.5q-2 -5 0.5 -16.5t-0.5 -16.5q1 0 3 -1
q3 0 3 3q1 2 1.5 7t0.5 7q6 52 9 76zM195 97q-2 0 -2 -1v-3q2 -4 2 -5q3 3 3 4q-2 20 -4 29q0 1 -3 2.5t-4 0.5q-4 -4 -4 -8q0 -1 2 -4t2 -4q3 -6 8 -11zM243 473h-2q3 -4 4 -8q5 5 5 7q1 6 -1 18v5q0 1 -0.5 3t-0.5 3q-4 -2 -4 -5q-1 -7 -1 -23zM120 369q-1 2 -5 6
q-3 -3 -3 -4q3 -3 5 -9q2 4 3 7zM256 643q4 -6 6 -8q2 5 2 6t-2 2q-1 1 -1.5 1t-1.5 1q-2 -2 -3 -2zM151 278q0 -7 1 -10q0 -2 2 -4v2l1 2q0 4 -2 10l-1 1l-1 1v-2zM260 654l1 1q2 1 2 2t-2 3l-2 -2q0 -2 1 -4zM87 317q1 0 2 1q-1 1 -1 2h-1l-1 -1q0 -1 1 -2zM80 376v1l-1 1
l-1 -1v-2l1 1h1zM40 416l2 2v1q-1 1 -1 2l-2 -1l1 -2v-2zM251 280l1 -2q2 0 2 2l-1 1q-1 0 -1 -0.5t-1 -0.5zM285 561q-1 0 -1 0.5t-1 0.5l-1 -1q1 -1 1 -2zM163 340q-1 1 -2 1l-1 -1l2 -2q1 0 1 2zM255 306l1 1h-1v-1zM108 403l-1 1h-1v-1l1 -1zM84 54q-1 0 -2 1v-1l1 -2
l1 1v1zM179 267l-1 1zM78 398l1 -1v2zM105 838q29 -8 40 -13q12 -6 32 -23q15 -12 29 -2q4 4 14 11t13 10q19 23 32 37q5 8 11 0q4 -9 -3 -29q-3 -6 -9 -16t-8 -14l-2.5 -5l-2.5 -5q-12 -19 -28 -30q-12 -7 -31 0q-23 10 -44 28q-3 2 -9 6.5t-8 5.5q-8 5 -12 -3
q-8 -15 -31 -19q-4 -1 -12.5 4t-8.5 9q-1 5 3 15q4 12 14.5 21.5t20.5 11.5z" />
    <glyph glyph-name="Ograve" unicode="&#xd2;" 
d="M256 572q1 -2 3 -8.5t3 -10.5q3 -18 10 -64v-5q-5 -4 -5.5 -7.5t3 -9.5t3.5 -7q4 -10 4 -32q3 -22 3 -45q0 -2 0.5 -6.5t0.5 -6.5t-2.5 -5t-7.5 -4q-1 0 -1 -11q0 -1 3 -1q2 -1 3 -1q4 -2 4 -5q1 -3 0 -7.5t-1 -5.5h-1q-7 0 -8 -1t-1 -8q-1 -12 -2.5 -36t-1.5 -35
q0 -2 2 -8q5 5 5 7v15q0 2 3 5l4 -4q1 -2 1 -6q-7 -49 -10 -61q-6 -30 -16 -57q-6 -19 -20 -55q-3 -7 -10.5 -25t-12.5 -28q-11 -21 -34 -34q-13 -6 -30 -4q-6 1 -18 6.5t-15 6.5q-4 1 -11 2.5t-10 2.5q-12 5 -13 6q-40 36 -49 85q-5 27 -13 81q-9 81 -9 82q-1 15 2 88
q1 18 5 54v3q-4 17 1 81q6 85 40 171q14 35 72 60q33 14 72 8q17 -2 21 -19q2 -9 5.5 -27t5.5 -27l3 -6t3 -5q4 -10 4 -17q0 -11 4 -14q1 -1 2 -4.5t0 -4.5q-8 -6 1 -15q10 -10 6 -22v1zM75 373h1v1zM271 384q-1 -2 -1 -6h1q0 4 -1 6l4 2q0 1 -1 1q-2 -2 -2 -3zM58 225
q-1 -1 -1 -4q1 -2 1 -5t1 -4l3 1q0 1 -1 4t-1 5l-3 3q7 0 8 -1q7 -7 9 4q1 1 1 4q-2 54 -4 83q0 1 -1 3v2l-1 2l-1 2v-2q-1 -1 -1 -2q0 -14 -2 -46q0 -4 0.5 -15.5t-1 -19t-6.5 -14.5zM97 173q-1 0 -3 -1q1 -5 3.5 -15t3.5 -15q7 -32 10 -43q2 -5 6 -16t6 -16q4 -10 8 0
q10 22 14 33q12 34 18 52q16 52 18 69q9 65 9 109q0 60 -7 144q-3 26 -19 112q-2 11 -8 33q0 1 -1.5 2.5t-1.5 2.5l-4 -4q-16 -27 -19 -38q-2 -8 -10 -30t-10 -34q-3 -17 -6.5 -50t-5.5 -47q-1 -7 0 -13.5t-0.5 -14t-6.5 -12.5v-6q1 -7 2.5 -21t1.5 -21v-27v-33l-3 -3
q-1 0 -3 2t-3 2q0 -7 1 -9q9 -16 3 -38q-1 -3 -0.5 -14t0.5 -15q0 -5 3.5 -14t3.5 -11zM181 645q1 0 3 1q-4 8 -7 10q-1 2 -4 2t-4 -2q-4 -6 -3 -11q1 -6 4 -17.5t4 -17.5q14 -72 20 -109q4 -20 6 -104q0 -18 1 -27q0 -2 5 -7q4 4 4 7v38q0 2 0.5 8t0.5 9q3 10 2 12
q-4 45 -7 70q0 1 -3.5 20.5t-2.5 29.5q0 18 -9 41q-2 6 -10 47zM219 553q2 -14 4 -22q1 -5 3.5 -14t4 -16t1.5 -14q2 -45 4 -135v-31q0 -3 2 -7q2 4 3 5q1 3 1 10q0 4 0.5 16t1.5 19q0 2 1 6.5t1.5 7.5t-0.5 6.5t-5 5.5q-3 2 -1 4q3 5 2.5 14.5t0.5 14.5q4 34 -5 81
q-3 12 -5 38q-2 2 0 2q5 4 5.5 7.5t-2.5 10.5l-4 8q0 1 -3 20q-2 20 -5 28q-1 4 -4.5 12t-5 14t-0.5 13q0 3 -3 5q-3 0 -5 -2q-8 -11 -3 -25q7 -16 7 -22q0 -15 10 -32q2 -7 1 -10q0 -4 -2 -18zM75 185q0 4 0.5 8t0.5 6t-1 4l-2 4q-2 -1 -6.5 -2.5t-6.5 -2.5v-7
q0 -3 3.5 -15t1.5 -20q-3 -17 3 -20q10 -5 4 -13l-2 -2q-1 -3 0 -7q2 -16 4 -22q1 -2 4 -5l2 5q-6 21 3 30q1 1 -1 5q-1 11 -4 30.5t-3 23.5zM43 379h1v12q0 3 -2 7q-4 -4 -4 -7q-2 -26 -2 -39l4 -4q0 1 1.5 2.5t1.5 2.5v26zM35 213h1v-14q0 -1 2 -2.5t2 -2.5q0 1 2 3
q1 1 1 2q0 5 -2 13q-1 3 -2 8.5t-1 8.5q-2 -10 -3 -16zM38 173q-1 0 -1 -1l3.5 -10.5t3.5 -11.5h1v22q0 1 -0.5 4t-1.5 4q0 1 -2 3q-2 -2 -3 -4v-6zM36 265h-1q1 -5 1 -14q0 2 1 6.5t2 6.5q0 1 1.5 3.5t2.5 4.5q0 1 -0.5 3.5t-0.5 3.5t-1 1l-2 1q-3 -6 -3 -7v-9zM234 295v-7
q0 -1 1 -2.5t1 -2.5q0 1 1 2.5t2 2.5t0 4q0 8 -1 12q-2 -7 -4 -9zM87 347q0 2 1.5 5t1.5 4l-3 6q-5 -7 -5 -8q0 -2 5 -7zM36 318h2l3 6q0 3 -1 5l-4 -4v-7zM256 284q0 2 -1 4.5t-2 3.5q-2 -2 -2 -3q0 -3 2 -9q2 2 3 4zM252 391q1 -3 3 -7q0 1 2 3l1 2q-2 6 -3 8zM39 300
q3 3 3 5q-2 2 -3 2q-3 0 -3 -3l1 -2zM46 423q-2 2 -6 4v-3l3 -3l1 1q2 0 2 1zM256 316q0 1 -1 3t-1 3q0 -1 -0.5 -3t-0.5 -4q0 -1 0.5 -3t0.5 -3q1 1 1.5 3.5t0.5 3.5zM47 129q1 0 1 -0.5t1 -0.5l1 1v2v3l-1 2l-2 -1q-1 0 -1 -1v-2q1 -2 1 -3zM251 428l3 1q-1 2 -1 7h-2v-8z
M206 671v3t-1 2q0 1 -2 3q-1 -1 -1 -2zM56 108l-2 4l-2 -2q-1 -1 1 -3q1 0 3 1zM254 371h3v3h-3v-3zM269 440l1 1v1v1l-1 1l-2 -2zM93 62l1 -2q1 0 1 1v2q-1 -1 -2 -1zM87 96q0 2 -1 2t-1 -1t1 -2zM42 409q-1 0 -2 1l-1 -1q1 -1 1 -2zM253 558q1 0 1 1l-1 1h-1zM257 529
q0 -1 1 -1l1 1v1q-1 0 -2 -1zM252 268h1l-1 2h-1q0 -2 1 -2zM74 68v-1l-1 -1q1 -1 2 -1l1 1zM42 338v1l-1 -1v-1q1 0 1 1zM81 112v-1h1v1h-1zM42 458h1v1h-1v-1zM43 435q0 1 1 1l-1 1q-1 0 -1 -0.5t-1 -0.5q1 -1 2 -1zM263 220v1l-1 -1v-1zM262 498l1 1h-1v-1zM106 908
q1 0 2.5 2t2.5 2q8 7 18 3q0 -1 1 -2q-1 -5 -1 -6t3 -3l4 -3q6 -7 20 -24t21 -26q13 -15 27 -42q6 -10 12 -16q3 -3 -2 -8q-2 -5 -5 -5q-17 0 -25 6q-4 3 -8.5 6t-10 6.5t-8.5 5.5q-6 3 -28 22q-5 4 -10.5 9t-12 11.5t-10.5 9.5q-4 4 -8 10q-6 6 2 21q7 15 16 21zM178 816
q-2 5 -7 11.5t-6 9.5l-2 2v-3q10 -14 12 -21q3 -8 15 -23q0 1 1 1t2 -1l-1 3q-2 4 -7 11t-7 10z" />
    </font>
</defs>
</svg>
