<svg id="Line" xmlns="http://www.w3.org/2000/svg" viewBox="0 0 1331.33 496.72"><defs><style>.cls-1,.cls-2{fill:none;stroke:#fefefe;stroke-miterlimit:10;}.cls-2{stroke-width:3px;}.cls-3{fill:#f4f4f4;}</style></defs><title>linethrough</title><path class="cls-1" d="M-101.49,264.5"/><path class="cls-2" d="M32,23"/><path class="cls-3" d="M530.42,169.81c.41-.1-3.57,0,0,0Z"/><path class="cls-3" d="M739.81,351.06c-.13,0,0,0,0,0l12.55.82Q745.69,351.5,739.81,351.06Z"/><path class="cls-3" d="M652.68,355.63l-2,.12C657.24,355.52,664.17,355.31,652.68,355.63Z"/><path class="cls-3" d="M768.19,247.14c-1.19-.09-4.3-.09-8.21-.06C763.13,247.08,766,247.09,768.19,247.14Z"/><path class="cls-3" d="M931.58,89.61l1.51.23c0-.28-.21-.55.13-.87Z"/><path class="cls-3" d="M944.11,90.27c.95.81-.8.82-3.38.58s-5.93-.75-7.64-1c0,2,7.08,3.38,15.77,4.7C954.05,94.13,941.65,91.33,944.11,90.27Z"/><path class="cls-3" d="M317.05,6.68l7.35-.37C321.37,6.4,319.11,6.54,317.05,6.68Z"/><path class="cls-3" d="M205.79,268.68l-28.27-1C190.46,268.27,199,268.53,205.79,268.68Z"/><path class="cls-3" d="M703,7.6l4.23-1.47C703.49,6.74,702.64,7.2,703,7.6Z"/><path class="cls-3" d="M752.35,351.89l5.12.29Z"/><path class="cls-3" d="M907.53,361.89c.25.46,1.79.85,3.6,1.2l1.92.05Z"/><path class="cls-3" d="M458.21,377.7a5.52,5.52,0,0,0,1.81.59l13.69-.89C466.5,377.41,461.47,377.52,458.21,377.7Z"/><path class="cls-3" d="M583.63,442.69a26.81,26.81,0,0,0-3.14.71c15.93-.49,57.9-3,111.57-6.27l3.17-2Z"/><path class="cls-3" d="M490.66,482.05l-99.51.17L603,473.29c63.06-2.68,120.09-5.14,175.68-7.77s109.76-5.42,167.08-9c28.67-1.79,58.12-3.78,89-6.14s63-5.08,97.31-8.74l-15.12,2.2c10-.7,18.87-1.87,33.51-3.93,7.33-1,16.08-2.29,27.3-4.09,5.63-.92,11.82-1.94,19.1-3.45,1.84-.38,3.74-.8,5.79-1.3s4.23-1.07,6.87-1.93a49.58,49.58,0,0,0,4.77-1.83,32.82,32.82,0,0,0,3.72-2,25.17,25.17,0,0,0,2.91-2.08,24.11,24.11,0,0,0,2-1.79c.41-.42.8-.86,1.19-1.31l.65-.81.65-.9a22.43,22.43,0,0,0,2.67-5.22c.17-.49.38-1.15.54-1.77s.3-1.28.41-1.92a21.6,21.6,0,0,0-.22-8.29,19.62,19.62,0,0,0-.53-2c-.22-.71-.4-1.17-.59-1.63a24.5,24.5,0,0,0-1.38-2.76,19.31,19.31,0,0,0-1.51-2.26,24.77,24.77,0,0,0-2.66-2.94c-.62-.56-1.26-1.1-1.93-1.61l-.51-.37-.43-.3-.71-.46c-.47-.3-1-.59-1.44-.86a34.39,34.39,0,0,0-6.61-2.73c-.89-.28-1.57-.46-2.35-.68s-1.44-.36-2.11-.51c-1.36-.31-2.66-.58-3.92-.82-2.53-.48-5-.87-7.41-1.23-4.88-.7-9.79-1.27-14.89-1.8-10.18-1.05-21.08-1.94-32.94-2.8-23.7-1.71-51.23-3.3-83.55-5-64.63-3.36-148.41-7.08-258.22-11.73v-.37c-15.25-.23-15.16.49-45.6-1l75.91,3.69c-45.51,0-85.32,1-145.95.26-12.88-.6-17.28-1.41-18.53-2q-74.35-.82-148.72-1.37l-45.55-2.86c-45.47.81-24.81,5.9-146.37,2,45.8,3.82-60.35,1.54-45.35,3.42-6.13-.47-20.06-1.22-31.27-1.89-72.28-.19-208.47-.06-242.16,1.54,0,0,70.71,2.18,150.92,5s169.93,6.28,208,8.48c-101.77-1.84-26.84.18-6.78,1.51l6.77-.79c61,1.41,61,3.6,91.43,4.51,0-.17-.92-.39-1.77-.62l-3.9.25c-2.87-.41-1.17-.66,2.09-.84-.74-.47,2.08-.81,18.68-.5l-3.18.2c25.48,0,69.45.81,88.59,1.21l.36,1.81c22.61-1.44,98.54.83,176.38,3.94s157.57,7.1,187.88,8c30.43,1.95,64.54,2.79,100.54,3.81s73.89,2.17,111.71,5.26c15.07,1.09,27.27,2.22,37.16,3.39a189.1,189.1,0,0,1,23,3.8,30,30,0,0,1,3.44,1.07c.19.09.45.17.58.25l.23.11a1.17,1.17,0,0,0,.13.08s.09.06,0,.05a15.56,15.56,0,0,1,1.13-1.74,6.36,6.36,0,0,1,1-1.3,3.77,3.77,0,0,1,.87-.83c.16-.1.18-.15.3-.21a1.19,1.19,0,0,1,.29-.12s.21,0,.11,0a2.68,2.68,0,0,1-1.18-.7,14.81,14.81,0,0,1-1.87-2.2l-.5-.74-.26-.39-.12-.19h0l-.06,0c-.26.1-.94.34-1.56.51a36.56,36.56,0,0,1-3.72.81c-1.13.19-2.13.32-3,.42-3.6.37-5.5.3-10.13.66s-12.08,1.08-27.09,2.46c-18.76,1.87-27.25,2.58-29.81,3s.79.39,5.55.26c9.51-.25,24.66-1.08,9.59.61-30.15,2.3-60.44,3.89-90.73,5.32,26.34-2.09,32.32-3,30.53-3.19s-11.38.07-16.23.09c-39.18,2.88-89.81,5.3-133.63,7.49s-80.85,4.25-92.84,6.71c-53.07,2-79.7,2.43-98.74,2.77s-30.49.47-53.24,1.44c7.64,0,19-.24,28.54-.37s17.15-.17,17.3.18c-42.57.45-20.29,1.37-2.88.89C699,434.16,614.77,436.42,537,438.26s-149.14,3.42-155.89,5.64l0-.72c-15,3.49,9.33,5.5-35.9,8.73l-30.27-.28-45.48,2.76c-30.55,0-15.56-1.26-15.57-1.61-37.05,1.82-81.46,3.06-127.79,3.76-23.16.34-46.84.59-70.17.43-5.82-.05-11.64-.13-17.28-.32-1.41,0-2.8-.1-4.14-.18s-2.69-.17-3.61-.28l-.28,0-.08,0h0s0,0,0,0l-.17,1c-.39,2.34-.89,4.59-1.31,6.23a10.24,10.24,0,0,1-1.34,3.47.21.21,0,0,1-.11.1s-.08,0,0,0,0,0,.08,0a.5.5,0,0,1,.15.14,2.47,2.47,0,0,1,.37.53,8.91,8.91,0,0,1,.43.82l.44,1c.16.38.29.75.42,1.16.36.94.64,1.83.94,2.85s.68,2.24,1,3.37a3,3,0,0,0,.16.55h0l.2,0c.82-.17,2.18-.38,3.47-.55,5.33-.71,11.06-1.27,16.66-1.79l16.81-1.48c-7.92,0-15.84.08-23.68.25-3.9.09-7.85.2-11.51.42l-2.45.19-.35,0h0l-.59-1.91q-.3-1-.66-1.92a13.8,13.8,0,0,0-.6-1.55c-.13-.28-.18-.44-.27-.65a5.18,5.18,0,0,0-.31-.57,2.72,2.72,0,0,0-.25-.43l-.24-.31a.86.86,0,0,0-.18-.14h0a.05.05,0,0,0,0,0c.11,0,.23-.22.39-.51A30,30,0,0,0,29.78,460l.11-.57c0-.1,0,0,0,0h0s0,0,0,0a.5.5,0,0,0,.16.05l.49.13c.36.08.78.16,1.21.23.87.15,1.79.29,2.73.41,7.59,1,15.56,1.66,23.44,2.33s15.84,1.26,23.77,1.84c-9.47-.12-19.9-.28-30.88-.6-5.48-.17-11.14-.36-16.73-.75-1.38-.1-2.79-.22-4-.39-.3-.05-.58-.09-.78-.14l-.1,0h0c0,.06,0-.16,0,.17l-.17.65a10.42,10.42,0,0,1-1.35,3.51.27.27,0,0,1-.11.1s-.07,0,0,0,0,0,.09,0a.5.5,0,0,1,.15.14,2.32,2.32,0,0,1,.37.54,8.89,8.89,0,0,1,.44.82l.44,1c.16.39.28.75.42,1.17l.22.57h0l.68-.14c1.18-.21,2.61-.4,4-.57s2.85-.31,4.3-.45c11.65-1.1,23.74-1.86,35.67-2.63l35.14-2.1c45.47-2.63,83.38-4.9,90.83-6.73l45.63-.4c76-2.5,102.45-4.7,117.47-6.7s18.62-3.67,48.94-4.82l76.4-1.86-75.84,4.72c75.93-3.3,106.32-4.21,166.92-6,0,0,.66-.1.66-.12a58.42,58.42,0,0,1-7.45,0l10.59-.72c9.11-2,48.6-5.47,102-8.62,75.92-4.18,135.13-9.93,256.52-14l30-4.8,91.1-3.58.14,2.39c-89.16,5.1-256.87,16-371.42,23.06l-2,1.21c67.94-4.12,145.16-9.81,190.06-12.25,21.92-.83,78.07-1.66,37.53,2.37l41.83-4.84c127.16-7.67,183.49-11.06,252-14.65l-.71-38.12c-50.49-1.38-109.15-3.25-213.26-6.61l20.56,1.63c-47-.27-93.94-.56-107-2.78-35.58-.84-71.48-1.76-106.76-2.74L778,359.6l-11.51-.35-3.25-.18c-4.24-.25-8.11-.52-11.5-.79-6.78-.54-11.58-1.13-13.65-1.75s-1.43-1.27,2.29-1.95q-12.87,1.14-27.72,2.25c-1.24-.07-.28-.34,1.67-.66s4.84-.69,6.79-.94c3.83-.52,3.8-.6-21.66.85l-13.25.3-17.13.32c-1.66-.09-4.71-.09-8.32-.07l-11.35.07c-3.58,0-6.61,0-7.67-.11s-.14-.28,4.58-.59h.1l4.18-.24-4.26.14c3.94-1.16-50.14,1.49-44,0,9-.31,8.22-.36,1.39-.27l-33.87.55-42.7.63c-12.57.14-22,.17-22.66,0l43.86-1.11,59-1.24,21.39-.59c4.62-.14,7.06-.24,8.06-.33,2-.16-1.68-.25-5.95-.38a95.23,95.23,0,0,1-10.28-.58c-.56-.14-.17-.31,1.58-.52s4.87-.44,9.6-.7c10.66-.23,22.16-.38,33.63-.44s23,0,34.15.07,22.18.25,33.13.43l33.37.49-18.74-.28-11-.24c-5.4-.13-7.75-.21-9.43-.3s-2.78-.09-4.45-.18-3.76-.21-6.37-.44l36.3,1.22c4.78.18,5.5.28,4.75.28s-3.25-.09-6-.22l-8.22-.41a15.3,15.3,0,0,1-3.09-.25c-5.75-.4-12-.88-18-1.39s-11.61-1.05-16.26-1.55-8.31-1-10.5-1.37-2.91-.66-1.87-.77l-12.61-.2a86.88,86.88,0,0,1,9.31-1.5c4.08-.48,9.12-1,14.79-1.36s12-.76,18.48-1,13.11-.39,19.26-.37a9.14,9.14,0,0,0-.34,1.47l2.74-.24,8.32-.55L773,340.94l57.64-3.55L841,338.67l168.59-9.91-25.67.92,42.8-2.59,62.55-3.65c45.59-2.59,96.14-5.31,138.1-7.15l7.76.6,4.15-.17a233.63,233.63,0,0,0,31.36-5.82c7.5-2,13.08-4.08,18.72-6.17s11.27-4.18,18.06-6.31,14.68-4.28,23.92-6.5c-8-1.83-17.09-3.71-26.55-5.69q6.15.58,10.92,1.25a27.54,27.54,0,0,0-5.81-2,41.84,41.84,0,0,0-5.76-.54c-2.15-.1-4.58-.22-7.71-.6a75.65,75.65,0,0,1-11.3-2.22l10.62-.86c-7.43-.86-13-1.58-16.39-2.3s-4.56-1.42-4.27-2.15,2-1.49,3.85-2.3,4-1.67,4.76-2.58q-11.94,1.47-21.92,2.83-8.16-2.82-14.68-5.73c-.73-.44-1.2-.84-1.12-1.13-64.06-3.37-77.76-5-68.41-5.67,4.65-.35,15.09-.46,27.28-.46l36.84.15-156.83-4q-5.44-1.72-13-3.54c-15.09-.21-27.63-.42-38.64-.67s-20.46-.51-29.22-.81c-17.48-.61-32.18-1.35-49.51-2.26L926,249.13l-33.19-1.6c-9.59-.47-21.63-.88-37.7-1.1-5.23-1.35,11-1.31-10.77-2.72l-53-.15-26.5-.08-13.25,0h-7l.1,0,.19,0,.38.08.73.16-.89-.15-.46-.08s-.07,0,0,0h1.75l8,.11,16,.21,32,.43-8,4c-16.65.12-30.61-.09-42.91-.49l-6.95-.24a.75.75,0,0,0,.2,0l.67-.18a15.72,15.72,0,0,1,2.75-.46c1-.09,2.06-.06,1.34.22,1.4-.38,2.05-.78,2-1.22a19.13,19.13,0,0,0,4.12.49c1.51,0,3.52-.06,6.16-.17,5.26-.23,12.86-.61,22.25-.69l-8.29.31c-2.74.12-5.33.25-7.58.39-4.5.29-7.66.6-9.07.82-.26.11,3.77-.1,9-.35s11.57-.55,16.33-.58l-28.76,1.45-8.63.33-2.71.08c-3.33-.17-4.79-.39-3.4-.64l19.15-.26-16.79,0c-4.54,0-7.22-.13-4.47-.37l59.85-.68q-30.74.23-66.05.26c2-.13.12-.23-3.41-.32l-12.8-.24c-4.13-.08-7.21-.15-6.28-.21s5.91-.11,17.68-.15l17.77.11q-19.43-1.22-32.94-2.19l72.17.49c-25.77-.2-37.92-.36-43.31-.48s-3.83-.2-2.64-.26c5.79,0,10.32,0,5.35-.14l-15.53-.24-36.13-.43c20,.14,28.66.14,33.09.07s4.72-.21,6.94-.31,6.15-.17,16.56-.05l21.13.32,35.28.67c4.76,0,5.43-.15,4.44-.31s-3.68-.36-6.26-.6a59.09,59.09,0,0,1-6.14-.77c-1.08-.26-.73-.52,1.89-.73,2.31-.18,6.42-.33,12.45-.39s13.92,0,23.16.13l31.17,1.53c7.05.31,11.38.45,14.91.49s6.24,0,9.06-.08l46.75-1L1323.94,229l-.12-46.22c-55.62-.48-120.76-1.16-195-2-134-8.31-334.55-3.9-478.81-9.82l-9.89.42-.62,0h-.25l-.29.07-.58.14-1.24.27q-2.6.54-6,1.07a114.47,114.47,0,0,0-12.59-1.56c-4.3-.3-9.08-.43-14.64-.5l-18.36-.11c-6.44,0-13-.13-17.92-.32a40.85,40.85,0,0,1-6.48-.56c-.84-.25-.12-.56,3.19-1-10.35.33-18.25.53-23.73.65l-10.22.18c-.2.06-1.54.17-5.6.41s-10.81.61-21.94,1.16c1.13-.24-.53-.39-3-.5s-5.78-.2-7.56-.32-1.94-.28,2.12-.52,12.45-.57,27.21-1l7.9-.17,14.78-.54c2.75-.13,3.58-.19,3-.22-1-.07-7.62,0-15.11.09-1.16-.11-1.65-.28,1.73-.53s10.39-.58,23.44-.94l-63.51,1.66,28.39-1.63c1.68.07,3.49.14,5.45.2-4.88-.38-4.56-1-1.5-1.6s9-1.34,16-2c-8.4.54-15.62,1.05-22.4,1.56s-13.12,1-19.53,1.6l-9.66.86-4.93.45-1.25.11,2.57-.18,6.27-.44L543,163.8l49.41-3.43,56-4,142-10.75L937,134.26c5.78-2.55,11.14-5.21,16.93-8s12.05-5.7,20.23-8.72a.68.68,0,0,0,.47,1,3,3,0,0,0,1.61-.1c1.31-.36,3.12-1.25,5.7-2.26,5-2,13.71-4.51,16.51-4.63a64.47,64.47,0,0,0,10.17-3.62c-3.37-1.38-6.21-2.74-9.73-4a91.49,91.49,0,0,0-12.75-3.57c-5.08-1.1-11.12-2.09-17.64-3s-13.43-1.82-19.64-2.74a46.19,46.19,0,0,1-5.67,0q-17.18-3.85-33-7.83L856.3,84.85l63.4,1.09c3.74.08,5.48.1,5.86,0s-.62-.16-2.57-.3L748.68,82c-23.35-.48-38.1-.79-36.81-.82.68,0,5.39,0,15.57.2l49.26.82-82.75-3-20.47-.89-41.76-1.74-86.45-3.35L500.73,71.6l-11.26-.39-5.65-.2L482.41,71h.19l.65,0,2.6.08,21,.65,85.84,2.76L478.91,71.22c14.46-.83,30-1.68,46.56-2.51s33.94-1.64,51.47-2.34l-21.51-.09c7.83-.36,14.61-.77,21.41-1.21l16.09-1c5.51-.35,11.25-.7,17.19-1,11.86-.6,24.64-1,36.33-.91a147.16,147.16,0,0,0,17-.58c4.35-.44,8.21-1.11,12.48-1.87s8.81-1.6,13.25-2.31l3.25-.51,1.56-.23.75-.1.37-.06h.09l.2,0,.42,0c4.44-.4,8.23-.7,11.25-.89C775.2,49.7,837.51,50.61,808.2,52c64.55-4,125.52-10.79,209-14.76l-.77-28.6q-16.21-.09-33.71-.41c-17.33-2-86.49-1-151.71-.11S704.53,9.91,703,7.6L701.9,8C572,4.75,449.52,10.27,309.65,7.33c0,0,2.66-.34,7.4-.65l-284.64,14,81.07,15.39L360.21,48.54l656.2-2.66L1015.18,0l-12.42.72L736.18,12.59l-33.32,1.48-22.73,1.07-31.72,1.55L519.75,23,253.93,36,40.82,47.62A106.47,106.47,0,0,1,28.24,75.94a164,164,0,0,0,23,27.52l501.21,16.16,95.58,3,39.35,1.23-184.33-6.09,14.52.29q28.66-.8,68.51-1.23l-5.35.46-46.65,2c-10,.47-16.09.85-21.5,1.28l116.75-8.77-92.15,7.38-51.82,4.11L351.65,133.56,70.4,155c-9.16,4.72-19.76,9.33-28.41,13.81l14.91.8a98.68,98.68,0,0,1-9.31,4c-2.58,1-4.57,1.61-6.17,2.09-3.17,1-5,1.25-6.63,2.13-2.15,1.7-4.33,3.41-6.57,5.13a372,372,0,0,0,43.41,25.46L1323,228.79l-.11-45.73c-131.65,3.12-261.44,6.06-388.65,8.74l-309.82,6.6L279,205.47c-50.47.44-129.53,1.95-215.49,3.73-3.38,1.1-6.37,2.27-9.28,3.42s-5.72,2.28-8.56,3.32a78.27,78.27,0,0,1-17.8,4.55c3.84,2.77,3.68,5.41,1.15,8s-7.46,5-13.44,7.46c4.89,2.09,10.5,4.17,16.3,6.24l17.58,6.22c5.8,2.06,11.42,4.13,16.67,6.19s10.13,4.11,14.62,6.15l-5.8-.39q5.22,1.37,10.85,2.72l126.73,5.09c6.45.52,3.39.74-6.77.54,72.61,2.43,147.46,5.29,225.51,8.51S590.67,284,675.2,287.81l63.89,2.92,30.4,1.52,56.77,2.93,55.51,2.9,6.79.35,3.38.17-2.37-.07-10.84-.34-21.81-.71,5.78.57-92.76-3.91c9.19.39,19.26.74,31.82,1.14l-24.13,1.87c-1.47.2-3.6.45-6.5.73l-4.93.47-1.41.12-.36,0-2.94.17-10.13.58-69.26,3.93L73.68,337.52c-9.17,4.59-19.29,9.16-30,13.72s-21.95,9.13-33.18,13.7c11.27,4.14,22.5,8.3,32.88,12.52a228.92,228.92,0,0,1,27.5,12.91l431.08,10c82.72,2.33,170.86,4.59,261.91,6.78L836.63,409l72.81,1.68c97.77,2.17,198.25,4,300.42,5.87l-1-53.15c-208,12.73-423,26.14-636.68,37.22-19.45.46-87.51,4.21-179.85,9.9-46.17,2.85-98.41,6.18-153.69,9.92-27.64,1.87-56,3.84-84.84,5.94s-58,4.3-87.34,6.88c-7.36.66-14.73,1.34-22.23,2.12-3.77.4-7.54.82-11.57,1.34-2,.27-4.07.54-6.67,1-.65.11-1.39.25-2.25.43l-1.51.34-1,.25-1.31.37c-.58.18-1.15.36-2.06.7a30.31,30.31,0,0,0-4.35,2c.34,3.5-15.35-1.33-13.34,33.94,12.48,22.28,14.65,14.61,16.88,18A30.11,30.11,0,0,0,20.93,495c.89.22,1.38.32,1.92.43l1.26.22,1,.15c1.15.15,2,.23,2.69.3l2,.16c1.22.08,2.33.13,3.4.18,2.13.09,4.11.14,6.06.18,3.9.08,7.65.11,11.38.12,7.45,0,14.77,0,22.06-.12,29.09-.34,57.55-1.05,85.26-1.79,55.41-1.52,107.65-3.34,153.79-5.06C404,486.28,471.74,483.14,490.66,482.05Z"/><path class="cls-3" d="M670.92,359.33l3.31,0C674.1,358.1,669.16,358.5,670.92,359.33Z"/><path class="cls-3" d="M74.21,473.08l-5.54.45,21,0Z"/><path class="cls-3" d="M1112.63,408.45c-25.28,2.06-38.55,3-44.57,3.58s-4.81.66-1.23.64C1085.15,411.33,1101.16,409.89,1112.63,408.45Z"/><path class="cls-3" d="M254.52,357.19c-26.78-.31-16.58.52-.86,1.48l46.3.14C285,358.39,269.94,357.61,254.52,357.19Z"/><path class="cls-3" d="M363.59,375.19l-8.36.95C371,376,370.35,375.65,363.59,375.19Z"/></svg>