<?xml version="1.0" encoding="UTF-8"?>
<svg width="300px" height="200px" viewBox="0 0 300 200" version="1.1" xmlns="http://www.w3.org/2000/svg" xmlns:xlink="http://www.w3.org/1999/xlink">
    <title>hamster</title>
    <defs>
        <linearGradient x1="96.6262426%" y1="15.4265083%" x2="40.5955752%" y2="53.5401481%" id="linearGradient-1">
            <stop stop-color="#F9F6EE" offset="0%"></stop>
            <stop stop-color="#E9E9E9" offset="100%"></stop>
        </linearGradient>
    </defs>
    <g id="Page-1" stroke="none" stroke-width="1" fill="none" fill-rule="evenodd">
        <g id="Artboard" transform="translate(-256.000000, -311.000000)">
            <g id="hamster" transform="translate(256.000000, 311.262579)">
                <path d="M207.945986,0.100576007 C216.045225,1.10391697 222.309605,8.99457047 226.739127,23.7725365 C229.594333,24.636416 232.369158,25.6296339 235.052325,26.7432813 L236,26.7374208 C246.383153,26.7374208 256.188799,28.9202654 264.860243,32.7944972 C285.052893,38.5094841 296.410114,51.8517978 298.93155,72.8221707 L298.953924,73.0090305 C299.641044,76.3263573 300,79.7448822 300,83.2374208 C300,100.142889 291.589666,115.314214 278.26125,125.668391 L226.141868,170.824076 C208.898348,187.59071 178.332256,198.737421 143.5,198.737421 C118.031675,198.737421 94.8440872,192.778271 77.4770566,183.020172 C71.8066819,184.784967 65.766471,185.737421 59.5,185.737421 C26.6390574,185.737421 0,159.546079 0,127.237421 C0,107.201796 10.2444062,89.5186673 25.8641321,78.9752872 C29.4996846,72.4217883 34.4535297,66.5488298 40.4182643,61.6293424 C33.1523541,52.2666549 32.1059837,45.9622133 37.2780119,42.7157735 C42.8769972,39.2013363 50.8063046,41.5988038 61.065934,49.9081761 L61.065934,49.9081761 L60.8465352,50.0727424 C68.6130985,47.2770805 77.1040816,45.7374208 86,45.7374208 C101.388474,45.7374208 115.565247,50.3445909 126.876735,58.0904488 C130.092854,51.897684 134.534859,46.2096091 139.962424,41.2172154 C135.28497,26.6517504 136.297231,15.7572761 143,8.53383051 C149.930679,1.06477029 163.49095,5.30605115 183.680814,21.2576731 L183.338365,20.9876101 C183.977211,20.8841033 184.618898,20.7868035 185.263321,20.6957936 L185.155731,20.9300094 C192.000046,6.00941555 199.596798,-0.933728916 207.945986,0.100576007 Z" id="Hamster" fill="url(#linearGradient-1)"></path>
                <path d="M269,104.737421 C275.075132,104.737421 279.594378,89.506187 281.001129,80.8082196 C281.967967,74.8302417 283.483542,69.2270775 278.975481,71.223757 C276.162959,72.4694596 256.835476,72.4694596 254.930022,72.4694596 C248.85489,72.4694596 251.79545,75.7374208 253.537525,84.5370331 C255.2796,93.3366453 262.924868,104.737421 269,104.737421 Z" id="Oval" fill="#555555"></path>
                <ellipse id="Oval" fill="#555555" transform="translate(207.000000, 58.737421) rotate(25.000000) translate(-207.000000, -58.737421) " cx="207" cy="58.7374208" rx="10" ry="14"></ellipse>
                <ellipse id="Oval" fill="#EEEEEE" transform="translate(209.000000, 56.237421) rotate(25.000000) translate(-209.000000, -56.237421) " cx="209" cy="56.2374208" rx="3" ry="4.5"></ellipse>
                <path d="M272.29363,53.0785076 C268.001958,55.0190853 265.856122,56.4473819 265.856122,57.3633975 C265.856122,58.279413 270.094137,61.2045327 278.570168,66.1387566 L280.730099,55.1749954 C281.451921,51.6397172 280.731944,50.2117791 278.570168,50.891181 C276.408392,51.5705829 274.316213,52.2996918 272.29363,53.0785076 Z" id="Path-12" fill="#555555"></path>
                <path d="M276.368572,74.2163013 L272.474365,83.2374208 C271.543183,84.8635529 270.490573,85.676619 269.316536,85.676619 C268.1425,85.676619 266.633461,84.8635529 264.789419,83.2374208 L259.985452,75.6519125 L276.368572,74.2163013 Z" id="Path-13" fill="#EEEEEE"></path>
                <path d="M247.207183,69.1094998 C258.177723,71.2711093 265.823851,72.147083 270.145569,71.7374208 C274.31157,71.3425192 278.916014,69.2337571 283.958899,65.4111348 C284.855187,64.7317481 286.069993,64.6514809 287.04787,65.2070472 C287.827947,65.6502356 288.101048,66.6418875 287.65786,67.4219637 C287.614912,67.497558 287.565965,67.5695824 287.511474,67.6373301 C284.950438,70.8229749 282.920709,72.8138178 281.422287,73.6098588 C278.760057,75.0241772 274.291042,75.4057554 271.584491,75.7374208 C267.044568,76.293751 262.057912,77.1837389 252.957898,75.2374208 C251.790648,74.9877686 249.0654,74.0486679 244.782153,72.4201188 C244.055743,72.143905 243.690765,71.3311282 243.966958,70.604711 C244.017202,70.4725644 244.087074,70.3487441 244.174219,70.2374208 C244.892146,69.3203085 246.06446,68.8843398 247.207183,69.1094998 Z" id="Rectangle" fill="#555555"></path>
                <path d="M263.487411,87.2357386 C266.98764,88.0090657 268.442812,89.2741918 270.483359,90.9190127 C272.523906,92.5638336 272.824215,94.7344946 271.653787,95.7149862 C270.483359,96.6954777 268.083876,99.8215048 265.226153,96.7983725 C263.321005,94.7829509 261.78197,92.095967 260.609049,88.7374208 C260.194471,87.2207479 261.153925,86.7201872 263.487411,87.2357386 Z" id="Path-14" fill-opacity="0.5" fill="#D63031"></path>
                <path d="M158.93748,19.2836793 L165.724499,32.354975 C166.488003,33.8254267 165.914909,35.6364053 164.444457,36.3999091 C164.01738,36.6216604 163.543226,36.7374208 163.062011,36.7374208 L144.291993,36.7374208 C143.187423,36.7374208 142.291993,35.8419903 142.291993,34.7374208 C142.291993,34.4166107 142.369166,34.100508 142.517,33.8157903 L150.06252,19.2836793 C151.335026,16.8329266 154.353324,15.8777691 156.804076,17.1502753 C157.71792,17.6247713 158.462984,18.3698353 158.93748,19.2836793 Z" id="Triangle" fill-opacity="0.8" fill="#954243" transform="translate(154.500000, 23.737421) rotate(-35.000000) translate(-154.500000, -23.737421) "></path>
                <path d="M211.429158,10.1930855 L215.699418,18.3453998 C216.46821,19.8130936 215.901638,21.6261235 214.433944,22.3949154 C214.004433,22.6198973 213.52679,22.7374208 213.041923,22.7374208 L199.305385,22.7374208 C198.200815,22.7374208 197.305385,21.8419903 197.305385,20.7374208 C197.305385,20.4141759 197.383734,20.0957474 197.533722,19.8094068 L202.570842,10.1930855 C203.852162,7.74692924 206.873879,6.80264284 209.320035,8.08396278 C210.221285,8.55604635 210.957074,9.29183503 211.429158,10.1930855 Z" id="Triangle" fill-opacity="0.8" fill="#954243" transform="translate(207.000000, 12.237421) rotate(-5.000000) translate(-207.000000, -12.237421) "></path>
            </g>
        </g>
    </g>
</svg>