<?xml version="1.0" encoding="UTF-8"?>
<svg width="159px" height="124px" viewBox="0 0 159 124" version="1.1" xmlns="http://www.w3.org/2000/svg" xmlns:xlink="http://www.w3.org/1999/xlink">
    <title>Combined Shape</title>
    <defs>
        <linearGradient x1="67.0766472%" y1="41.2266572%" x2="-21.3076507%" y2="111.753018%" id="linearGradient-1">
            <stop stop-color="#E9E9E9" offset="0%"></stop>
            <stop stop-color="#BBBAB8" offset="100%"></stop>
        </linearGradient>
    </defs>
    <g id="Page-1" stroke="none" stroke-width="1" fill="none" fill-rule="evenodd">
        <g id="Artboard" transform="translate(-219.000000, -378.000000)" fill="url(#linearGradient-1)">
            <path d="M316.22877,375.385144 C350.470425,375.385144 378.22877,403.14349 378.22877,437.385144 C378.22877,471.626799 350.470425,499.385144 316.22877,499.385144 C303.909826,499.385144 292.430022,495.792361 282.780022,489.597458 C273.447856,499.215728 265.728867,501.6603 259.62273,496.932526 C252.008735,491.03727 252.867578,481.332023 262.19926,467.816785 C261.335714,466.288285 260.535689,464.718993 259.802218,463.11293 C243.540225,475.791291 233.100903,480.730828 228.483853,477.932312 C223.706319,475.036523 222.844485,470.276592 225.898352,463.652518 C232.146215,451.944419 237.134583,443.537755 240.863457,438.432526 C244.124442,433.967888 248.683989,431.530776 254.542098,431.12119 C257.681647,399.821178 284.101538,375.385144 316.22877,375.385144 Z" id="Combined-Shape" transform="translate(301.170416, 437.385144) rotate(10.000000) translate(-301.170416, -437.385144) "></path>
        </g>
    </g>
</svg>