<?xml version="1.0" encoding="UTF-8"?>
<svg width="483px" height="483px" viewBox="0 0 483 483" version="1.1" xmlns="http://www.w3.org/2000/svg" xmlns:xlink="http://www.w3.org/1999/xlink">
    <title>Wheel</title>
    <defs>
        <linearGradient x1="50%" y1="0%" x2="50%" y2="100%" id="linearGradient-1">
            <stop stop-color="#70B7FE" offset="0%"></stop>
            <stop stop-color="#0D86E4" offset="100%"></stop>
        </linearGradient>
        <radialGradient cx="50%" cy="50%" fx="50%" fy="50%" r="48.635965%" id="radialGradient-2">
            <stop stop-color="#0984E3" offset="0%"></stop>
            <stop stop-color="#74B9FF" offset="100%"></stop>
        </radialGradient>
        <radialGradient cx="50%" cy="50%" fx="50%" fy="50%" r="50%" id="radialGradient-3">
            <stop stop-color="#74B9FF" offset="0%"></stop>
            <stop stop-color="#0984E3" offset="100%"></stop>
        </radialGradient>
    </defs>
    <g id="Page-1" stroke="none" stroke-width="1" fill="none" fill-rule="evenodd">
        <g id="Artboard" transform="translate(-160.000000, -145.000000)">
            <g id="Wheel" transform="translate(160.000000, 145.000000)">
                <rect id="Rectangle" stroke="#0260A9" stroke-width="5" fill="url(#linearGradient-1)" transform="translate(245.000000, 246.767949) scale(-1, 1) rotate(60.000000) translate(-245.000000, -246.767949) " x="44.5" y="232.767949" width="401" height="28"></rect>
                <path d="M241.5,2.5 C307.498028,2.5 367.248028,29.2509862 410.498521,72.5014793 C453.749014,115.751972 480.5,175.501972 480.5,241.5 C480.5,307.498028 453.749014,367.248028 410.498521,410.498521 C367.248028,453.749014 307.498028,480.5 241.5,480.5 C175.501972,480.5 115.751972,453.749014 72.5014793,410.498521 C29.2509862,367.248028 2.5,307.498028 2.5,241.5 C2.5,175.501972 29.2509862,115.751972 72.5014793,72.5014793 C115.751972,29.2509862 175.501972,2.5 241.5,2.5 Z M242,44.5 C187.461881,44.5 138.086881,66.6059405 102.346411,102.346411 C66.6059405,138.086881 44.5,187.461881 44.5,242 C44.5,296.538119 66.6059405,345.913119 102.346411,381.653589 C138.086881,417.39406 187.461881,439.5 242,439.5 C296.538119,439.5 345.913119,417.39406 381.653589,381.653589 C417.39406,345.913119 439.5,296.538119 439.5,242 C439.5,187.461881 417.39406,138.086881 381.653589,102.346411 C345.913119,66.6059405 296.538119,44.5 242,44.5 Z" id="Combined-Shape" stroke="#0260A9" stroke-width="5" fill="url(#radialGradient-2)"></path>
                <path d="M240,22 C361.502645,22 460,120.497355 460,242 C460,363.502645 361.502645,462 240,462 C118.497355,462 20,363.502645 20,242 C20,120.497355 118.497355,22 240,22 Z M242,47 C134.304474,47 47,134.304474 47,242 C47,349.695526 134.304474,437 242,437 C349.695526,437 437,349.695526 437,242 C437,134.304474 349.695526,47 242,47 Z" id="Combined-Shape" fill="url(#radialGradient-3)"></path>
                <path d="" id="Combined-Shape" stroke="#0260A9" stroke-width="5" fill="#74B9FF"></path>
                <path d="M242,437 L243.999019,436.983 L244,482 L239,482 L238.998962,436.977376 C239.997506,436.992441 240.99787,437 242,437 Z M310.617344,424.584957 L325.934066,466.671179 L321.235603,468.381279 L305.914337,426.28423 C307.491296,425.737378 309.059063,425.170856 310.617344,424.584957 Z M177.199356,425.974469 L161.764397,468.381279 L157.065934,466.671179 L172.504177,424.252222 C174.059782,424.845746 175.62494,425.419927 177.199356,425.974469 Z M368.961275,390.010785 L397.684137,424.243697 L393.853915,427.457635 L365.12491,393.220503 C366.417569,392.166738 367.696461,391.096728 368.961275,390.010785 Z M118.282371,392.735392 L89.1460848,427.457635 L85.3158626,424.243697 L114.459128,389.511188 C115.719523,390.601909 116.994041,391.676748 118.282371,392.735392 Z M412.01874,337.562063 L450.596097,359.834936 L448.096097,364.165064 L409.508964,341.886951 C410.363447,340.457077 411.20014,339.015346 412.01874,337.562063 Z M74.23555,341.45818 L34.9039031,364.165064 L32.4039031,359.834936 L71.7362387,337.125759 C72.5513151,338.581525 73.3845208,340.025768 74.23555,341.45818 Z M434.470988,273.487391 L478.287981,281.213543 L477.41974,286.137582 L433.606022,278.413683 C433.914845,276.778707 434.203258,275.136518 434.470988,273.487391 Z M50.361756,278.242674 L5.58025972,286.137582 L4.71201883,281.213543 L49.5012337,273.315799 C49.7674801,274.965109 50.0544125,276.607492 50.361756,278.242674 Z M5.58025972,197.862418 L50.361756,205.757326 C50.0544125,207.392508 49.7674801,209.034891 49.5012337,210.684201 L4.71201883,202.786457 L5.58025972,197.862418 Z M477.41974,197.862418 L478.287981,202.786457 L434.470988,210.512609 C434.203258,208.863482 433.914845,207.221293 433.606022,205.586317 L477.41974,197.862418 Z M34.9039031,119.834936 L74.23555,142.54182 C73.3845208,143.974232 72.5513151,145.418475 71.7362387,146.874241 L32.4039031,124.165064 L34.9039031,119.834936 Z M448.096097,119.834936 L450.596097,124.165064 L412.01874,146.437937 C411.20014,144.984654 410.363447,143.542923 409.508964,142.113049 L448.096097,119.834936 Z M89.1460848,56.5423646 L118.282371,91.2646076 C116.994041,92.3232523 115.719523,93.398091 114.459128,94.4888124 L85.3158626,59.7563027 L89.1460848,56.5423646 Z M393.853915,56.5423646 L397.684137,59.7563027 L368.961275,93.9892146 C367.696461,92.9032719 366.417569,91.8332622 365.12491,90.7794967 L393.853915,56.5423646 Z M161.764397,15.6187207 L177.199356,58.0255312 C175.62494,58.5800733 174.059782,59.1542537 172.504177,59.7477781 L157.065934,17.3288214 L161.764397,15.6187207 Z M321.235603,15.6187207 L325.934066,17.3288214 L310.617344,59.4150433 C309.059063,58.8291442 307.491296,58.262622 305.914337,57.7157702 L321.235603,15.6187207 Z M244,2 L244.001269,47.010057 C243.334974,47.0033577 242.667879,47 242,47 L238.999019,47.024 L239,2 L244,2 Z" id="Combined-Shape" fill="#0260A9"></path>
            </g>
        </g>
    </g>
</svg>