<?xml version="1.0" encoding="UTF-8"?>
<svg width="1286px" height="464px" viewBox="0 0 1286 464" version="1.1" xmlns="http://www.w3.org/2000/svg" xmlns:xlink="http://www.w3.org/1999/xlink">
    <!-- Generator: Sketch 51.3 (57544) - http://www.bohemiancoding.com/sketch -->
    <title>REACTIONS SPEAK LOUD</title>
    <desc>Created with Sketch.</desc>
    <defs></defs>
    <g id="Page-1" stroke="none" stroke-width="1" fill="none" fill-rule="evenodd">
        <path d="M65.171875,50.5683594 C68.3632972,50.6243492 71.0507703,49.8684974 73.234375,48.3007812 C75.4179797,46.7330651 76.5097656,44.4935041 76.5097656,41.5820312 C76.5097656,38.6705584 75.4179797,36.4309974 73.234375,34.8632812 C71.0507703,33.2955651 68.3632972,32.5117188 65.171875,32.5117188 L44.0078125,32.5117188 L44.0078125,50.5683594 L65.171875,50.5683594 Z M44.0078125,80.8867188 L44.0078125,117 L9.32226562,117 L9.32226562,2.27734375 L70.546875,2.27734375 C83.4805334,2.27734375 93.5865521,6.02860832 100.865234,13.53125 C108.143917,21.0338917 111.783203,30.4120531 111.783203,41.6660156 C111.783203,50.6243937 109.739604,57.9589558 105.652344,63.6699219 C101.565084,69.3808879 96.7220332,73.6360537 91.1230469,76.4355469 L111.951172,117 L72.3945312,117 L56.6054688,80.8867188 L44.0078125,80.8867188 Z M211.900391,117 L124.892578,117 L124.892578,2.27734375 L211.900391,2.27734375 L211.900391,32.5117188 L159.578125,32.5117188 L159.578125,43.9335938 L210.724609,43.9335938 L210.724609,74.1679688 L159.578125,74.1679688 L159.578125,86.765625 L211.900391,86.765625 L211.900391,117 Z M289.425781,73.328125 L278.087891,36.2910156 L266.75,73.328125 L289.425781,73.328125 Z M342.251953,117 L302.863281,117 L298.748047,103.5625 L257.427734,103.5625 L253.3125,117 L213.923828,117 L256.251953,2.27734375 L299.923828,2.27734375 L342.251953,117 Z M399.201172,119.099609 C381.060456,119.099609 365.999409,113.556696 354.017578,102.470703 C342.035747,91.3847102 336.072916,77.1075092 336.128906,59.6386719 C336.128906,42.1698345 342.091737,27.9206281 354.017578,16.890625 C365.943419,5.86062193 381.004466,0.345703125 399.201172,0.345703125 C412.974678,0.345703125 424.088499,3.56507197 432.542969,10.0039062 C440.997438,16.4427405 447.268209,24.3651873 451.355469,33.7714844 L421.457031,47.7128906 C419.945305,43.065732 417.117859,39.1185058 412.974609,35.8710938 C408.831359,32.6236817 404.24026,31 399.201172,31 C390.970662,31 384.279974,33.7434621 379.128906,39.2304688 C373.977839,44.7174754 371.402344,51.5481362 371.402344,59.7226562 C371.402344,67.8971763 373.977839,74.7278371 379.128906,80.2148438 C384.279974,85.7018504 390.970662,88.4453125 399.201172,88.4453125 C404.24026,88.4453125 408.831359,86.8216308 412.974609,83.5742188 C417.117859,80.3268067 419.945305,76.3795805 421.457031,71.7324219 L451.355469,85.5058594 C447.604148,94.1282983 441.865273,101.574838 434.138672,107.845703 C425.012324,115.348345 413.366607,119.099609 399.201172,119.099609 Z M520.482422,117 L485.712891,117 L485.712891,32.5117188 L454.974609,32.5117188 L454.974609,2.27734375 L551.136719,2.27734375 L551.136719,32.5117188 L520.482422,32.5117188 L520.482422,117 Z M597.167969,117 L562.482422,117 L562.482422,2.27734375 L597.167969,2.27734375 L597.167969,117 Z M651.429688,80.2148438 C656.524765,85.7018504 663.13147,88.4453125 671.25,88.4453125 C679.36853,88.4453125 686.003229,85.7018504 691.154297,80.2148438 C696.249374,74.7278371 698.796875,67.8971763 698.796875,59.7226562 C698.796875,51.5481362 696.249374,44.7174754 691.154297,39.2304688 C686.059219,33.7434621 679.42452,31 671.25,31 C663.07548,31 656.468775,33.7434621 651.429688,39.2304688 C646.33461,44.7174754 643.787109,51.5481362 643.787109,59.7226562 C643.787109,67.8971763 646.33461,74.7278371 651.429688,80.2148438 Z M671.25,119.099609 C653.389234,119.099609 638.468159,113.556696 626.486328,102.470703 C614.504497,91.3847102 608.513672,77.1355037 608.513672,59.7226562 C608.513672,42.3098088 614.504497,28.0606023 626.486328,16.9746094 C638.468159,5.88861645 653.389234,0.345703125 671.25,0.345703125 C689.166756,0.345703125 704.115826,5.88861645 716.097656,16.9746094 C728.079487,28.0606023 734.070312,42.3098088 734.070312,59.7226562 C734.070312,77.1355037 728.079487,91.3847102 716.097656,102.470703 C704.115826,113.556696 689.166756,119.099609 671.25,119.099609 Z M855.771484,117 L822.429688,117 L780.101562,58.8828125 L780.101562,117 L745.416016,117 L745.416016,2.27734375 L781.193359,2.27734375 L821.085938,56.6152344 L821.085938,2.27734375 L855.771484,2.27734375 L855.771484,117 Z M917.927734,119.099609 C895.923718,119.099609 878.147203,112.996806 864.597656,100.791016 L882.654297,75.0078125 C892.956432,84.8620284 905.302011,89.7890625 919.691406,89.7890625 C928.201865,89.7890625 932.429037,87.7454631 932.373047,83.6582031 C932.373047,81.6985579 930.16148,80.2148488 925.738281,79.2070312 C921.371072,78.1992137 916.052115,77.1074278 909.78125,75.9316406 C903.510385,74.8678332 897.239615,73.216157 890.96875,70.9765625 C884.697885,68.736968 879.378928,64.8737254 875.011719,59.3867188 C870.58852,53.8997121 868.376953,46.9570732 868.376953,38.5585938 C868.376953,28.1444792 872.604124,19.2142299 881.058594,11.7675781 C889.513063,4.32092631 901.15878,0.59765625 915.996094,0.59765625 C935.368586,0.59765625 951.605403,5.91661348 964.707031,16.5546875 L946.146484,41.1621094 C936.180289,33.6034778 924.926495,29.8242188 912.384766,29.8242188 C906.56182,29.8242188 903.650391,31.531884 903.650391,34.9472656 C903.650391,37.9147284 909.025337,40.1262948 919.775391,41.5820312 C930.525444,43.0377677 940.911408,46.229142 950.933594,51.15625 C955.636742,53.4518344 959.555974,57.0351319 962.691406,61.90625 C965.826839,66.7773681 967.422526,72.516243 967.478516,79.1230469 C967.478516,91.7207661 963.083377,101.54684 954.292969,108.601562 C945.50256,115.656285 933.380937,119.155599 917.927734,119.099609 Z M53.8339844,291.099609 C31.8299681,291.099609 14.0534532,284.996806 0.50390625,272.791016 L18.5605469,247.007812 C28.8626817,256.862028 41.2082614,261.789062 55.5976562,261.789062 C64.1081155,261.789062 68.3352867,259.745463 68.2792969,255.658203 C68.2792969,253.698558 66.0677304,252.214849 61.6445312,251.207031 C57.2773219,250.199214 51.9583647,249.107428 45.6875,247.931641 C39.4166353,246.867833 33.1458647,245.216157 26.875,242.976562 C20.6041353,240.736968 15.2851781,236.873725 10.9179688,231.386719 C6.49476955,225.899712 4.28320312,218.957073 4.28320312,210.558594 C4.28320312,200.144479 8.51037439,191.21423 16.9648438,183.767578 C25.4193131,176.320926 37.06503,172.597656 51.9023438,172.597656 C71.2748364,172.597656 87.5116532,177.916613 100.613281,188.554688 L82.0527344,213.162109 C72.0865387,205.603478 60.832745,201.824219 48.2910156,201.824219 C42.4680698,201.824219 39.5566406,203.531884 39.5566406,206.947266 C39.5566406,209.914728 44.9315869,212.126295 55.6816406,213.582031 C66.4316944,215.037768 76.8176582,218.229142 86.8398438,223.15625 C91.5429923,225.451834 95.4622239,229.035132 98.5976562,233.90625 C101.733089,238.777368 103.328776,244.516243 103.384766,251.123047 C103.384766,263.720766 98.9896273,273.54684 90.1992188,280.601562 C81.4088102,287.656285 69.2871866,291.155599 53.8339844,291.099609 Z M170.412109,222.568359 C173.491552,222.568359 176.039052,221.812508 178.054688,220.300781 C180.014333,218.733065 180.994141,216.493504 180.994141,213.582031 C180.994141,210.670558 180.014333,208.430997 178.054688,206.863281 C176.095042,205.295565 173.547542,204.511719 170.412109,204.511719 L148.408203,204.511719 L148.408203,222.568359 L170.412109,222.568359 Z M148.408203,289 L113.722656,289 L113.722656,174.277344 L174.947266,174.277344 C187.880924,174.277344 197.986943,178.028608 205.265625,185.53125 C212.544307,193.033892 216.183594,202.384059 216.183594,213.582031 C216.183594,224.780004 212.544307,234.130171 205.265625,241.632812 C197.986943,249.135454 187.880924,252.886719 174.947266,252.886719 L148.408203,252.886719 L148.408203,289 Z M313.529297,289 L226.521484,289 L226.521484,174.277344 L313.529297,174.277344 L313.529297,204.511719 L261.207031,204.511719 L261.207031,215.933594 L312.353516,215.933594 L312.353516,246.167969 L261.207031,246.167969 L261.207031,258.765625 L313.529297,258.765625 L313.529297,289 Z M391.054688,245.328125 L379.716797,208.291016 L368.378906,245.328125 L391.054688,245.328125 Z M443.880859,289 L404.492188,289 L400.376953,275.5625 L359.056641,275.5625 L354.941406,289 L315.552734,289 L357.880859,174.277344 L401.552734,174.277344 L443.880859,289 Z M483.78125,289 L449.095703,289 L449.095703,174.277344 L483.78125,174.277344 L483.78125,217.277344 L513.931641,174.277344 L556.427734,174.277344 L513.007812,227.607422 L558.275391,289 L515.947266,289 L490.164062,248.603516 L483.78125,257.169922 L483.78125,289 Z M684.519531,289 L606.330078,289 L606.330078,174.277344 L641.015625,174.277344 L641.015625,258.765625 L684.519531,258.765625 L684.519531,289 Z M730.71875,252.214844 C735.813828,257.70185 742.420532,260.445312 750.539062,260.445312 C758.657593,260.445312 765.292292,257.70185 770.443359,252.214844 C775.538437,246.727837 778.085938,239.897176 778.085938,231.722656 C778.085938,223.548136 775.538437,216.717475 770.443359,211.230469 C765.348282,205.743462 758.713583,203 750.539062,203 C742.364542,203 735.757838,205.743462 730.71875,211.230469 C725.623672,216.717475 723.076172,223.548136 723.076172,231.722656 C723.076172,239.897176 725.623672,246.727837 730.71875,252.214844 Z M750.539062,291.099609 C732.678296,291.099609 717.757221,285.556696 705.775391,274.470703 C693.79356,263.38471 687.802734,249.135504 687.802734,231.722656 C687.802734,214.309809 693.79356,200.060602 705.775391,188.974609 C717.757221,177.888616 732.678296,172.345703 750.539062,172.345703 C768.455819,172.345703 783.404888,177.888616 795.386719,188.974609 C807.368549,200.060602 813.359375,214.309809 813.359375,231.722656 C813.359375,249.135504 807.368549,263.38471 795.386719,274.470703 C783.404888,285.556696 768.455819,291.099609 750.539062,291.099609 Z M923.722656,277.578125 C914.204379,286.592493 900.095146,291.099609 881.394531,291.099609 C862.693917,291.099609 848.584683,286.592493 839.066406,277.578125 C829.548129,268.563757 824.761068,256.66609 824.705078,241.884766 L824.705078,174.277344 L859.894531,174.277344 L859.894531,240.708984 C859.894531,246.47594 861.770164,251.207013 865.521484,254.902344 C869.272805,258.597675 874.563768,260.445312 881.394531,260.445312 C888.225295,260.445312 893.488263,258.56968 897.183594,254.818359 C900.934915,251.067039 902.782552,246.363961 902.726562,240.708984 L902.726562,174.277344 L938,174.277344 L938,241.716797 C938,256.610101 933.240933,268.563757 923.722656,277.578125 Z M1006.79102,258.765625 C1015.1895,258.765625 1021.90818,256.134141 1026.94727,250.871094 C1031.98635,245.608047 1034.50586,239.029336 1034.50586,231.134766 C1034.50586,223.240195 1032.15432,216.829452 1027.45117,211.902344 C1022.74802,206.975236 1015.91736,204.511719 1006.95898,204.511719 L990.246094,204.511719 L990.246094,258.765625 L1006.79102,258.765625 Z M1006.95898,289 L955.560547,289 L955.560547,174.277344 L1006.79102,174.277344 C1025.37965,174.277344 1040.52468,179.34435 1052.22656,189.478516 C1063.87245,199.612681 1069.69531,213.637931 1069.69531,231.554688 C1069.69531,249.471444 1063.87245,263.524689 1052.22656,273.714844 C1040.52468,283.904999 1025.43564,289 1006.95898,289 Z M1168.13281,289 L1081.125,289 L1081.125,174.277344 L1168.13281,174.277344 L1168.13281,204.511719 L1115.81055,204.511719 L1115.81055,215.933594 L1166.95703,215.933594 L1166.95703,246.167969 L1115.81055,246.167969 L1115.81055,258.765625 L1168.13281,258.765625 L1168.13281,289 Z M1238.43555,222.568359 C1241.62697,222.624349 1244.31444,221.868497 1246.49805,220.300781 C1248.68165,218.733065 1249.77344,216.493504 1249.77344,213.582031 C1249.77344,210.670558 1248.68165,208.430997 1246.49805,206.863281 C1244.31444,205.295565 1241.62697,204.511719 1238.43555,204.511719 L1217.27148,204.511719 L1217.27148,222.568359 L1238.43555,222.568359 Z M1217.27148,252.886719 L1217.27148,289 L1182.58594,289 L1182.58594,174.277344 L1243.81055,174.277344 C1256.74421,174.277344 1266.85022,178.028608 1274.12891,185.53125 C1281.40759,193.033892 1285.04688,202.412053 1285.04688,213.666016 C1285.04688,222.624394 1283.00328,229.958956 1278.91602,235.669922 C1274.82876,241.380888 1269.98571,245.636054 1264.38672,248.435547 L1285.21484,289 L1245.6582,289 L1229.86914,252.886719 L1217.27148,252.886719 Z M68.6152344,461 L33.8457031,461 L33.8457031,376.511719 L3.10742188,376.511719 L3.10742188,346.277344 L99.2695312,346.277344 L99.2695312,376.511719 L68.6152344,376.511719 L68.6152344,461 Z M221.138672,461 L186.453125,461 L186.453125,417.160156 L145.300781,417.160156 L145.300781,461 L110.615234,461 L110.615234,346.277344 L145.300781,346.277344 L145.300781,386.841797 L186.453125,386.841797 L186.453125,346.277344 L221.138672,346.277344 L221.138672,461 Z M301.855469,417.328125 L290.517578,380.291016 L279.179688,417.328125 L301.855469,417.328125 Z M354.681641,461 L315.292969,461 L311.177734,447.5625 L269.857422,447.5625 L265.742188,461 L226.353516,461 L268.681641,346.277344 L312.353516,346.277344 L354.681641,461 Z M470.251953,461 L436.910156,461 L394.582031,402.882812 L394.582031,461 L359.896484,461 L359.896484,346.277344 L395.673828,346.277344 L435.566406,400.615234 L435.566406,346.277344 L470.251953,346.277344 L470.251953,461 Z M654.697266,461 L618.248047,461 L603.466797,395.996094 L588.685547,461 L552.236328,461 L519.314453,346.277344 L558.199219,346.277344 L572.980469,416.488281 L590.365234,346.277344 L616.568359,346.277344 L633.869141,416.488281 L648.482422,346.277344 L687.535156,346.277344 L654.697266,461 Z M727.015625,424.214844 C732.110703,429.70185 738.717407,432.445312 746.835938,432.445312 C754.954468,432.445312 761.589167,429.70185 766.740234,424.214844 C771.835312,418.727837 774.382812,411.897176 774.382812,403.722656 C774.382812,395.548136 771.835312,388.717475 766.740234,383.230469 C761.645157,377.743462 755.010458,375 746.835938,375 C738.661417,375 732.054713,377.743462 727.015625,383.230469 C721.920547,388.717475 719.373047,395.548136 719.373047,403.722656 C719.373047,411.897176 721.920547,418.727837 727.015625,424.214844 Z M746.835938,463.099609 C728.975171,463.099609 714.054096,457.556696 702.072266,446.470703 C690.090435,435.38471 684.099609,421.135504 684.099609,403.722656 C684.099609,386.309809 690.090435,372.060602 702.072266,360.974609 C714.054096,349.888616 728.975171,344.345703 746.835938,344.345703 C764.752694,344.345703 779.701763,349.888616 791.683594,360.974609 C803.665424,372.060602 809.65625,386.309809 809.65625,403.722656 C809.65625,421.135504 803.665424,435.38471 791.683594,446.470703 C779.701763,457.556696 764.752694,463.099609 746.835938,463.099609 Z M876.851562,394.568359 C880.042985,394.624349 882.730458,393.868497 884.914062,392.300781 C887.097667,390.733065 888.189453,388.493504 888.189453,385.582031 C888.189453,382.670558 887.097667,380.430997 884.914062,378.863281 C882.730458,377.295565 880.042985,376.511719 876.851562,376.511719 L855.6875,376.511719 L855.6875,394.568359 L876.851562,394.568359 Z M855.6875,424.886719 L855.6875,461 L821.001953,461 L821.001953,346.277344 L882.226562,346.277344 C895.160221,346.277344 905.26624,350.028608 912.544922,357.53125 C919.823604,365.033892 923.462891,374.412053 923.462891,385.666016 C923.462891,394.624394 921.419291,401.958956 917.332031,407.669922 C913.244771,413.380888 908.401721,417.636054 902.802734,420.435547 L923.630859,461 L884.074219,461 L868.285156,424.886719 L855.6875,424.886719 Z M987.802734,430.765625 C996.201214,430.765625 1002.9199,428.134141 1007.95898,422.871094 C1012.99807,417.608047 1015.51758,411.029336 1015.51758,403.134766 C1015.51758,395.240195 1013.16604,388.829452 1008.46289,383.902344 C1003.75974,378.975236 996.929081,376.511719 987.970703,376.511719 L971.257812,376.511719 L971.257812,430.765625 L987.802734,430.765625 Z M987.970703,461 L936.572266,461 L936.572266,346.277344 L987.802734,346.277344 C1006.39137,346.277344 1021.5364,351.34435 1033.23828,361.478516 C1044.88417,371.612681 1050.70703,385.637931 1050.70703,403.554688 C1050.70703,421.471444 1044.88417,435.524689 1033.23828,445.714844 C1021.5364,455.904999 1006.44736,461 987.970703,461 Z M1106.64844,463.099609 C1084.64442,463.099609 1066.86791,456.996806 1053.31836,444.791016 L1071.375,419.007812 C1081.67713,428.862028 1094.02271,433.789062 1108.41211,433.789062 C1116.92257,433.789062 1121.14974,431.745463 1121.09375,427.658203 C1121.09375,425.698558 1118.88218,424.214849 1114.45898,423.207031 C1110.09178,422.199214 1104.77282,421.107428 1098.50195,419.931641 C1092.23109,418.867833 1085.96032,417.216157 1079.68945,414.976562 C1073.41859,412.736968 1068.09963,408.873725 1063.73242,403.386719 C1059.30922,397.899712 1057.09766,390.957073 1057.09766,382.558594 C1057.09766,372.144479 1061.32483,363.21423 1069.7793,355.767578 C1078.23377,348.320926 1089.87948,344.597656 1104.7168,344.597656 C1124.08929,344.597656 1140.32611,349.916613 1153.42773,360.554688 L1134.86719,385.162109 C1124.90099,377.603478 1113.6472,373.824219 1101.10547,373.824219 C1095.28252,373.824219 1092.37109,375.531884 1092.37109,378.947266 C1092.37109,381.914728 1097.74604,384.126295 1108.49609,385.582031 C1119.24615,387.037768 1129.63211,390.229142 1139.6543,395.15625 C1144.35745,397.451834 1148.27668,401.035132 1151.41211,405.90625 C1154.54754,410.777368 1156.14323,416.516243 1156.19922,423.123047 C1156.19922,435.720766 1151.80408,445.54684 1143.01367,452.601562 C1134.22326,459.656285 1122.10164,463.155599 1106.64844,463.099609 Z" id="REACTIONS-SPEAK-LOUD" fill="#FFFFFF"></path>
    </g>
</svg>