<?xml version="1.0" encoding="utf-8"?>
<!-- Generator: Adobe Illustrator 21.0.2, SVG Export Plug-In . SVG Version: 6.00 Build 0)  -->
<svg version="1.2" baseProfile="tiny" id="Layer_1" xmlns="http://www.w3.org/2000/svg" xmlns:xlink="http://www.w3.org/1999/xlink"
	 x="0px" y="0px" viewBox="0 0 30 30" overflow="scroll" xml:space="preserve">
<polygon fill="#E74C3C" points="12,28 15,30 18,28 "/>
<polygon fill="#E74C3C" points="9,27 8,25 10,25 "/>
<polygon fill="#E74C3C" points="21,27 20,25 22,25 "/>
<polygon fill="#E67E22" points="16,28 15,30 14,28 "/>
<polygon fill="#E6E6E6" points="15,0 19,30 15,29 "/>
<polygon fill="#CCCCCC" points="15,0 11,30 15,29 "/>
<polygon fill="#CCCCCC" points="26,26 28,30 28,10 "/>
<polygon fill="#E6E6E6" points="2,30 4,26 2,10 "/>
<polygon fill="#E6E6E6" points="28,30 30,26 28,10 "/>
<polygon fill="#CCCCCC" points="2,30 0,26 2,10 "/>
<polygon fill="#E6E6E6" points="9,18 10,19.5 9,19.3 "/>
<polygon fill="#E6E6E6" points="22,19.1 21,18 21,19.3 "/>
<polygon fill="#CCCCCC" points="8,19.1 9,18 9,20 "/>
<polygon fill="#CCCCCC" points="20,19.5 21,18 21,20 "/>
<polygon fill="#B3B3B3" points="3,28 11.5,26 12.3,20 3,18 4,26 "/>
<polygon fill="#B3B3B3" points="18.5,26 27,28 26,26 27,18 17.7,20 "/>
<polygon fill="#E74C3C" points="15,14 15,12 16,14 "/>
<polygon fill="#E74C3C" points="15,14 15,12 14,14 "/>
</svg>
