<svg xmlns="http://www.w3.org/2000/svg" viewBox="0 0 122.849 219.951">
  <defs>
    <style>
      .cls-1 {
        fill: #fff;
      }
    </style>
  </defs>
  <path id="text-two" class="cls-1" d="M4.074-3.568H.485V-4.9H4.074Zm11.115-.677H10.828V0H9.167V-9.953h6.72V-8.62H10.828v3.042h4.361ZM18.847,0H17.186V-7.4h1.661Zm0-9.208H17.186v-1.456h1.661ZM27.2-3.452a4.181,4.181,0,0,1-.755,2.608,2.525,2.525,0,0,1-2.129.988,2.45,2.45,0,0,1-1.2-.28,2.34,2.34,0,0,1-.851-.82L22.1,0H20.706V-10.664h1.661v4.108a2.385,2.385,0,0,1,.82-.725A2.35,2.35,0,0,1,24.3-7.533a2.461,2.461,0,0,1,2.143,1.08A4.891,4.891,0,0,1,27.2-3.6ZM25.539-3.6a3.819,3.819,0,0,0-.4-1.866,1.337,1.337,0,0,0-1.258-.711,1.645,1.645,0,0,0-.926.246,1.72,1.72,0,0,0-.591.684v3.1a1.629,1.629,0,0,0,.588.687,1.707,1.707,0,0,0,.943.243,1.377,1.377,0,0,0,1.251-.6,3,3,0,0,0,.39-1.637ZM32.32-5.9l-.711-.027a1.49,1.49,0,0,0-.81.205,1.351,1.351,0,0,0-.5.581V0H28.636V-7.4h1.518l.109,1.073a2.372,2.372,0,0,1,.721-.889A1.679,1.679,0,0,1,32-7.533a1.548,1.548,0,0,1,.28.024,2.047,2.047,0,0,1,.239.058ZM36.654.144A3.216,3.216,0,0,1,34.149-.885a3.782,3.782,0,0,1-.933-2.642V-3.8a3.927,3.927,0,0,1,.926-2.676,2.93,2.93,0,0,1,2.321-1.056,2.891,2.891,0,0,1,2.293.906,3.549,3.549,0,0,1,.8,2.43v.978H34.938l-.014.034a2.316,2.316,0,0,0,.516,1.438,1.635,1.635,0,0,0,1.316.559,3.557,3.557,0,0,0,1.148-.164,3.763,3.763,0,0,0,.923-.472l.533,1.089a3.436,3.436,0,0,1-1.107.625A4.618,4.618,0,0,1,36.654.144ZM36.463-6.2a1.246,1.246,0,0,0-1.012.489,2.407,2.407,0,0,0-.492,1.241l.014.034h2.933v-.171a1.77,1.77,0,0,0-.359-1.148A1.31,1.31,0,0,0,36.463-6.2Zm11.6.3-.711-.027a1.49,1.49,0,0,0-.81.205,1.351,1.351,0,0,0-.5.581V0H44.379V-7.4H45.9l.109,1.073a2.372,2.372,0,0,1,.721-.889,1.679,1.679,0,0,1,1.015-.321,1.548,1.548,0,0,1,.28.024,2.047,2.047,0,0,1,.239.058ZM52.4.144A3.216,3.216,0,0,1,49.892-.885a3.782,3.782,0,0,1-.933-2.642V-3.8a3.927,3.927,0,0,1,.926-2.676,2.93,2.93,0,0,1,2.321-1.056,2.891,2.891,0,0,1,2.293.906,3.549,3.549,0,0,1,.8,2.43v.978H50.682l-.014.034a2.316,2.316,0,0,0,.516,1.438,1.635,1.635,0,0,0,1.316.559,3.557,3.557,0,0,0,1.148-.164,3.763,3.763,0,0,0,.923-.472L55.1-.736A3.436,3.436,0,0,1,54-.111,4.618,4.618,0,0,1,52.4.144ZM52.206-6.2a1.246,1.246,0,0,0-1.012.489A2.407,2.407,0,0,0,50.7-4.471l.014.034h2.933v-.171a1.77,1.77,0,0,0-.359-1.148A1.31,1.31,0,0,0,52.206-6.2Zm6.2,6.2H56.745V-7.4h1.661Zm0-9.208H56.745v-1.456h1.661ZM61.77-7.4l.1,1.066a2.646,2.646,0,0,1,.913-.885,2.435,2.435,0,0,1,1.241-.318,2.328,2.328,0,0,1,1.8.7,3.143,3.143,0,0,1,.646,2.184V0H64.8V-4.635a1.662,1.662,0,0,0-.345-1.186,1.41,1.41,0,0,0-1.049-.352,1.74,1.74,0,0,0-.868.215,1.8,1.8,0,0,0-.629.591V0H60.252V-7.4ZM68.735,0V-6.166H67.607V-7.4h1.128v-.861a2.545,2.545,0,0,1,.667-1.887,2.535,2.535,0,0,1,1.87-.663,3.211,3.211,0,0,1,.485.038q.246.038.554.106L72.14-9.379q-.137-.027-.3-.048a2.958,2.958,0,0,0-.359-.021,1.021,1.021,0,0,0-.81.308,1.3,1.3,0,0,0-.27.882V-7.4h1.5v1.23H70.4V0ZM72.8-3.767a4.029,4.029,0,0,1,.9-2.707,3.111,3.111,0,0,1,2.481-1.06,3.1,3.1,0,0,1,2.5,1.06,3.994,3.994,0,0,1,.909,2.707v.144A4.014,4.014,0,0,1,78.682-.9,3.1,3.1,0,0,1,76.2.144a3.124,3.124,0,0,1-2.5-1.053,4.023,4.023,0,0,1-.9-2.714Zm1.661.14a3.3,3.3,0,0,0,.424,1.761,1.43,1.43,0,0,0,1.313.676,1.437,1.437,0,0,0,1.3-.676,3.214,3.214,0,0,0,.438-1.761V-3.77A3.172,3.172,0,0,0,77.5-5.511,1.442,1.442,0,0,0,76.187-6.2a1.429,1.429,0,0,0-1.3.689,3.274,3.274,0,0,0-.424,1.741ZM84.725-5.9l-.711-.027a1.49,1.49,0,0,0-.81.205,1.351,1.351,0,0,0-.5.581V0H81.04V-7.4h1.518l.109,1.073a2.372,2.372,0,0,1,.721-.889A1.679,1.679,0,0,1,84.4-7.533a1.548,1.548,0,0,1,.28.024,2.047,2.047,0,0,1,.239.058Zm4.218,4.71a1.522,1.522,0,0,0,1.025-.357,1.128,1.128,0,0,0,.417-.894h1.5L91.9-2.4a2.184,2.184,0,0,1-.844,1.791,3.144,3.144,0,0,1-2.116.752A3.068,3.068,0,0,1,86.437-.909a4.041,4.041,0,0,1-.872-2.666v-.239a4.044,4.044,0,0,1,.872-2.663,3.063,3.063,0,0,1,2.505-1.056,3.042,3.042,0,0,1,2.164.776,2.5,2.5,0,0,1,.8,1.972l-.014.041H90.385a1.449,1.449,0,0,0-.4-1.032A1.368,1.368,0,0,0,88.942-6.2a1.4,1.4,0,0,0-1.326.679,3.383,3.383,0,0,0-.39,1.7v.239a3.39,3.39,0,0,0,.39,1.717A1.407,1.407,0,0,0,88.942-1.189ZM96.407.144A3.216,3.216,0,0,1,93.9-.885a3.782,3.782,0,0,1-.933-2.642V-3.8A3.927,3.927,0,0,1,93.9-6.477a2.93,2.93,0,0,1,2.321-1.056,2.891,2.891,0,0,1,2.293.906,3.549,3.549,0,0,1,.8,2.43v.978H94.691l-.014.034a2.316,2.316,0,0,0,.516,1.438,1.635,1.635,0,0,0,1.316.559,3.557,3.557,0,0,0,1.148-.164,3.763,3.763,0,0,0,.923-.472l.533,1.089a3.436,3.436,0,0,1-1.107.625A4.618,4.618,0,0,1,96.407.144ZM96.216-6.2a1.246,1.246,0,0,0-1.012.489,2.407,2.407,0,0,0-.492,1.241l.014.034h2.933v-.171A1.77,1.77,0,0,0,97.3-5.756,1.31,1.31,0,0,0,96.216-6.2Zm4.122,2.6A4.878,4.878,0,0,1,101.1-6.45a2.454,2.454,0,0,1,2.133-1.083,2.333,2.333,0,0,1,1.077.243,2.437,2.437,0,0,1,.824.694v-4.067h1.661V0H105.4l-.164-.916a2.445,2.445,0,0,1-.854.79,2.4,2.4,0,0,1-1.162.27A2.517,2.517,0,0,1,101.1-.848a4.17,4.17,0,0,1-.759-2.6ZM102-3.452a2.979,2.979,0,0,0,.393,1.634,1.376,1.376,0,0,0,1.248.608,1.668,1.668,0,0,0,.892-.226,1.717,1.717,0,0,0,.6-.643V-5.3a1.749,1.749,0,0,0-.6-.639,1.626,1.626,0,0,0-.875-.229,1.339,1.339,0,0,0-1.251.714A3.769,3.769,0,0,0,102-3.6ZM2.748,15.227V19H1.087V9.047h3.89A3.687,3.687,0,0,1,7.557,9.9a2.886,2.886,0,0,1,.933,2.239,2.881,2.881,0,0,1-.933,2.246,3.706,3.706,0,0,1-2.581.844Zm0-1.333H4.977A1.821,1.821,0,0,0,6.364,13.4a1.749,1.749,0,0,0,.465-1.251,1.8,1.8,0,0,0-.465-1.265,1.793,1.793,0,0,0-1.388-.506H2.748Zm6.768,1.34a4.029,4.029,0,0,1,.9-2.707,3.111,3.111,0,0,1,2.481-1.06,3.1,3.1,0,0,1,2.5,1.06,3.994,3.994,0,0,1,.909,2.707v.144a4.014,4.014,0,0,1-.909,2.721,3.1,3.1,0,0,1-2.481,1.046,3.124,3.124,0,0,1-2.5-1.053,4.023,4.023,0,0,1-.9-2.714Zm1.661.14a3.3,3.3,0,0,0,.424,1.761,1.43,1.43,0,0,0,1.313.676,1.437,1.437,0,0,0,1.3-.676,3.214,3.214,0,0,0,.438-1.761V15.23a3.172,3.172,0,0,0-.437-1.741A1.442,1.442,0,0,0,12.9,12.8a1.429,1.429,0,0,0-1.3.689,3.274,3.274,0,0,0-.424,1.741ZM19.523,19H17.862V8.336h1.661Zm4.313-2.967.164.738h.041l1.62-5.168H27.48l-3.062,8.518a3.8,3.8,0,0,1-.827,1.319,2.013,2.013,0,0,1-1.511.547,2.582,2.582,0,0,1-.441-.041q-.236-.041-.455-.1l.185-1.285.253.021q.164.014.246.014a.912.912,0,0,0,.721-.308,2.614,2.614,0,0,0,.441-.711l.273-.67L20.617,11.6h1.812ZM30.249,19H28.588V8.336h1.661Zm3.63,0H32.218V11.6h1.661Zm0-9.208H32.218V8.336h1.661Zm3.924.014v1.8h1.326v1.23H37.8v4.088a.891.891,0,0,0,.2.653.718.718,0,0,0,.526.195,1.469,1.469,0,0,0,.267-.024,1.62,1.62,0,0,0,.246-.065l.178,1.217a1.9,1.9,0,0,1-.506.181,2.812,2.812,0,0,1-.608.065,1.9,1.9,0,0,1-1.436-.537,2.35,2.35,0,0,1-.52-1.685V12.834H35.021V11.6h1.128v-1.8Zm5.975,9.338a3.216,3.216,0,0,1-2.505-1.029,3.782,3.782,0,0,1-.933-2.642V15.2a3.927,3.927,0,0,1,.926-2.676,2.93,2.93,0,0,1,2.321-1.056,2.891,2.891,0,0,1,2.293.906,3.549,3.549,0,0,1,.8,2.43v.978H42.062l-.014.034a2.316,2.316,0,0,0,.516,1.438,1.635,1.635,0,0,0,1.316.559,3.557,3.557,0,0,0,1.148-.164,3.763,3.763,0,0,0,.923-.472l.533,1.089a3.436,3.436,0,0,1-1.107.625A4.618,4.618,0,0,1,43.777,19.144ZM43.586,12.8a1.246,1.246,0,0,0-1.012.489,2.407,2.407,0,0,0-.492,1.241l.014.034h2.933v-.171a1.77,1.77,0,0,0-.359-1.148A1.31,1.31,0,0,0,43.586,12.8Zm12.072,4.19a.772.772,0,0,0-.328-.636,3.273,3.273,0,0,0-1.224-.444,5.079,5.079,0,0,1-2.006-.8,1.669,1.669,0,0,1-.68-1.4,2,2,0,0,1,.786-1.586,3.126,3.126,0,0,1,2.071-.656,3.244,3.244,0,0,1,2.15.667,1.974,1.974,0,0,1,.762,1.651l-.014.041H55.583a1.042,1.042,0,0,0-.349-.786,1.34,1.34,0,0,0-.957-.328,1.369,1.369,0,0,0-.916.27.838.838,0,0,0-.314.66.74.74,0,0,0,.3.619,3.193,3.193,0,0,0,1.207.407,5.083,5.083,0,0,1,2.068.81,1.708,1.708,0,0,1,.673,1.425,1.939,1.939,0,0,1-.824,1.62,3.51,3.51,0,0,1-2.17.622,3.313,3.313,0,0,1-2.276-.738,2.085,2.085,0,0,1-.793-1.7l.014-.041h1.545a1.108,1.108,0,0,0,.465.937,1.868,1.868,0,0,0,1.066.294,1.7,1.7,0,0,0,.991-.246A.772.772,0,0,0,55.658,16.99Zm4.765-4.43a2.637,2.637,0,0,1,.9-.807,2.42,2.42,0,0,1,1.172-.287,2.329,2.329,0,0,1,1.835.742,3.366,3.366,0,0,1,.66,2.287V19H63.328V14.481a1.873,1.873,0,0,0-.349-1.265,1.332,1.332,0,0,0-1.046-.39,1.855,1.855,0,0,0-.872.2,1.792,1.792,0,0,0-.639.557V19H58.762V8.336h1.661Zm9.461,6.583a3.216,3.216,0,0,1-2.505-1.029,3.782,3.782,0,0,1-.933-2.642V15.2a3.927,3.927,0,0,1,.926-2.676,2.93,2.93,0,0,1,2.321-1.056,2.891,2.891,0,0,1,2.293.906,3.549,3.549,0,0,1,.8,2.43v.978H68.168l-.014.034a2.316,2.316,0,0,0,.516,1.438,1.635,1.635,0,0,0,1.316.559,3.557,3.557,0,0,0,1.148-.164,3.763,3.763,0,0,0,.923-.472l.533,1.089a3.436,3.436,0,0,1-1.107.625A4.618,4.618,0,0,1,69.884,19.144ZM69.692,12.8a1.246,1.246,0,0,0-1.012.489,2.407,2.407,0,0,0-.492,1.241l.014.034h2.933v-.171a1.77,1.77,0,0,0-.359-1.148A1.31,1.31,0,0,0,69.692,12.8Zm6.2,6.2H74.231V8.336h1.661Zm3.63,0H77.861V8.336h1.661ZM4.074,34.432H.485V33.1H4.074Zm7.246-6.385L14.185,35.7h.041L17.1,28.047H19.25V38H17.589V34.609l.164-4.313-.041-.007L14.759,38H13.645l-2.939-7.69-.041.007.164,4.293V38H9.167V28.047ZM23.188,38H21.526V28.047h1.661Zm3.931-3.773V38H25.457V28.047h3.89a3.687,3.687,0,0,1,2.581.851,3.16,3.16,0,0,1,0,4.484,3.706,3.706,0,0,1-2.581.844Zm0-1.333h2.229a1.821,1.821,0,0,0,1.388-.492A1.749,1.749,0,0,0,31.2,31.15a1.678,1.678,0,0,0-1.853-1.771H27.118Zm12.776,2.542a1.274,1.274,0,0,0-.461-1.014,4.343,4.343,0,0,0-1.63-.708,6.9,6.9,0,0,1-2.567-1.159,2.307,2.307,0,0,1-.9-1.89,2.414,2.414,0,0,1,.995-1.982A4.039,4.039,0,0,1,37.9,27.9a3.817,3.817,0,0,1,2.635.885,2.641,2.641,0,0,1,.96,2.123l-.014.041H39.888a1.6,1.6,0,0,0-.52-1.241,2.121,2.121,0,0,0-1.483-.475,2.172,2.172,0,0,0-1.4.4A1.256,1.256,0,0,0,36,30.655a1.118,1.118,0,0,0,.53.941,5.874,5.874,0,0,0,1.753.709,5.839,5.839,0,0,1,2.44,1.189,2.5,2.5,0,0,1,.834,1.935,2.335,2.335,0,0,1-.995,1.979,4.3,4.3,0,0,1-2.615.735,4.618,4.618,0,0,1-2.734-.831,2.549,2.549,0,0,1-1.142-2.266l.014-.041h1.6a1.555,1.555,0,0,0,.629,1.357,2.754,2.754,0,0,0,1.634.448,2.414,2.414,0,0,0,1.436-.371A1.175,1.175,0,0,0,39.895,35.436ZM48.351,38H46.689V27.336h1.661Zm3.63,0H50.319V30.6H51.98Zm0-9.208H50.319V27.336H51.98ZM55.344,30.6l.1,1.066a2.646,2.646,0,0,1,.913-.885,2.435,2.435,0,0,1,1.241-.318,2.328,2.328,0,0,1,1.8.7,3.143,3.143,0,0,1,.646,2.184V38H58.379V33.365a1.661,1.661,0,0,0-.345-1.186,1.41,1.41,0,0,0-1.049-.352,1.74,1.74,0,0,0-.868.215,1.8,1.8,0,0,0-.629.591V38H53.826V30.6Zm9.6,7.54a3.216,3.216,0,0,1-2.505-1.029,3.782,3.782,0,0,1-.933-2.642V34.2a3.927,3.927,0,0,1,.926-2.676,2.93,2.93,0,0,1,2.321-1.056,2.891,2.891,0,0,1,2.293.906,3.549,3.549,0,0,1,.8,2.43v.978H63.226l-.014.034a2.316,2.316,0,0,0,.516,1.438,1.635,1.635,0,0,0,1.316.559,3.557,3.557,0,0,0,1.148-.164,3.763,3.763,0,0,0,.923-.472l.533,1.089a3.436,3.436,0,0,1-1.107.625A4.618,4.618,0,0,1,64.941,38.144ZM64.75,31.8a1.246,1.246,0,0,0-1.012.489,2.407,2.407,0,0,0-.492,1.241l.014.034h2.933v-.171a1.77,1.77,0,0,0-.359-1.148A1.31,1.31,0,0,0,64.75,31.8Zm8.114.3-.711-.027a1.49,1.49,0,0,0-.81.205,1.351,1.351,0,0,0-.5.581V38H69.18V30.6H70.7l.109,1.073a2.372,2.372,0,0,1,.721-.889,1.679,1.679,0,0,1,1.015-.321,1.548,1.548,0,0,1,.28.024,2.047,2.047,0,0,1,.239.058ZM4.074,53.432H.485V52.1H4.074ZM15.436,57H8.825V55.853l3.24-3.528A7.866,7.866,0,0,0,13.159,50.9a2.286,2.286,0,0,0,.3-1.09,1.655,1.655,0,0,0-.39-1.121,1.32,1.32,0,0,0-1.053-.451,1.622,1.622,0,0,0-1.3.492,2.007,2.007,0,0,0-.424,1.354H8.688l-.014-.041a2.925,2.925,0,0,1,.868-2.232,3.337,3.337,0,0,1,2.475-.906,3.158,3.158,0,0,1,2.27.793,2.728,2.728,0,0,1,.834,2.071,3.06,3.06,0,0,1-.482,1.634,13.766,13.766,0,0,1-1.494,1.894l-2.215,2.331.021.041h4.484ZM17.1,52.55l.574-5.5h5.257v1.436H19.059l-.3,2.5a2.638,2.638,0,0,1,.68-.359,2.775,2.775,0,0,1,.872-.154,2.731,2.731,0,0,1,2.194.889,3.609,3.609,0,0,1,.793,2.468,3.447,3.447,0,0,1-.834,2.393,3.074,3.074,0,0,1-2.413.93,3.449,3.449,0,0,1-2.218-.721,2.381,2.381,0,0,1-.872-2.047l.014-.034,1.552-.055a1.472,1.472,0,0,0,.424,1.123,1.535,1.535,0,0,0,1.1.4,1.383,1.383,0,0,0,1.179-.543,2.343,2.343,0,0,0,.407-1.439,2.4,2.4,0,0,0-.417-1.466,1.391,1.391,0,0,0-1.189-.564,1.836,1.836,0,0,0-1.015.224,1.264,1.264,0,0,0-.482.644ZM30.926,54.5l.123.6h.041l.13-.6,1.47-4.895h1.716L31.78,57H30.338L27.7,49.6h1.716Zm7.6,2.646a3.216,3.216,0,0,1-2.505-1.029,3.782,3.782,0,0,1-.933-2.642V53.2a3.927,3.927,0,0,1,.926-2.676,2.93,2.93,0,0,1,2.321-1.056,2.891,2.891,0,0,1,2.293.906,3.549,3.549,0,0,1,.8,2.43v.978H36.812l-.014.034a2.316,2.316,0,0,0,.516,1.438,1.635,1.635,0,0,0,1.316.559,3.557,3.557,0,0,0,1.148-.164,3.763,3.763,0,0,0,.923-.472l.533,1.089a3.436,3.436,0,0,1-1.107.625A4.618,4.618,0,0,1,38.527,57.144ZM38.336,50.8a1.246,1.246,0,0,0-1.012.489,2.407,2.407,0,0,0-.492,1.241l.014.034h2.933v-.171a1.77,1.77,0,0,0-.359-1.148A1.31,1.31,0,0,0,38.336,50.8Zm5.934-1.2.1,1.066a2.646,2.646,0,0,1,.913-.885,2.435,2.435,0,0,1,1.241-.318,2.328,2.328,0,0,1,1.8.7,3.143,3.143,0,0,1,.646,2.184V57H47.3V52.365a1.661,1.661,0,0,0-.345-1.186,1.41,1.41,0,0,0-1.049-.352,1.74,1.74,0,0,0-.868.215,1.8,1.8,0,0,0-.629.591V57H42.752V49.6Zm8.49-1.8v1.8h1.326v1.23H52.76v4.088a.891.891,0,0,0,.2.653.718.718,0,0,0,.526.195,1.469,1.469,0,0,0,.267-.024A1.62,1.62,0,0,0,54,55.681l.178,1.217a1.9,1.9,0,0,1-.506.181,2.812,2.812,0,0,1-.608.065,1.9,1.9,0,0,1-1.436-.537,2.35,2.35,0,0,1-.52-1.685V50.834H49.978V49.6h1.128v-1.8Zm6.959,7.185a.772.772,0,0,0-.328-.636,3.273,3.273,0,0,0-1.224-.444,5.079,5.079,0,0,1-2.006-.8,1.669,1.669,0,0,1-.68-1.4,2,2,0,0,1,.786-1.586,3.126,3.126,0,0,1,2.071-.656,3.244,3.244,0,0,1,2.15.667,1.974,1.974,0,0,1,.762,1.651l-.014.041H59.644a1.042,1.042,0,0,0-.349-.786,1.34,1.34,0,0,0-.957-.328,1.369,1.369,0,0,0-.916.27.838.838,0,0,0-.314.66.74.74,0,0,0,.3.619,3.193,3.193,0,0,0,1.207.407,5.083,5.083,0,0,1,2.068.81,1.708,1.708,0,0,1,.673,1.425,1.939,1.939,0,0,1-.824,1.62,3.51,3.51,0,0,1-2.17.622,3.313,3.313,0,0,1-2.276-.738,2.085,2.085,0,0,1-.793-1.7l.014-.041h1.545a1.108,1.108,0,0,0,.465.937,1.868,1.868,0,0,0,1.066.294,1.7,1.7,0,0,0,.991-.246A.772.772,0,0,0,59.719,54.99ZM4.074,72.432H.485V71.1H4.074ZM12.729,65.9a4.621,4.621,0,0,1,1.025.112,4.336,4.336,0,0,1,.882.294l-.314,1.276a5.077,5.077,0,0,0-.745-.256,3.426,3.426,0,0,0-.841-.092,1.934,1.934,0,0,0-1.6.774,3.3,3.3,0,0,0-.6,2.083v.048a2.923,2.923,0,0,1,.954-.581,3.353,3.353,0,0,1,1.193-.205,2.6,2.6,0,0,1,2.109.933,3.994,3.994,0,0,1-.113,4.877,3,3,0,0,1-2.331.978,3.224,3.224,0,0,1-2.492-1.066,4.258,4.258,0,0,1-.974-2.98V70.2a4.385,4.385,0,0,1,1.1-3.117A3.613,3.613,0,0,1,12.729,65.9Zm-.465,4.744a2.338,2.338,0,0,0-1.066.222,1.617,1.617,0,0,0-.67.6v.71a3.206,3.206,0,0,0,.509,1.945,1.56,1.56,0,0,0,1.3.682,1.306,1.306,0,0,0,1.142-.621,2.681,2.681,0,0,0,.417-1.529,2.292,2.292,0,0,0-.437-1.454A1.436,1.436,0,0,0,12.264,70.647Zm10.808-1.976A2.254,2.254,0,0,1,22.661,70a2.607,2.607,0,0,1-1.114.889,2.912,2.912,0,0,1,1.3.943,2.317,2.317,0,0,1,.482,1.449,2.562,2.562,0,0,1-.916,2.123,3.7,3.7,0,0,1-2.386.735,3.729,3.729,0,0,1-2.406-.735,2.562,2.562,0,0,1-.916-2.123,2.339,2.339,0,0,1,.475-1.449,2.9,2.9,0,0,1,1.3-.95,2.518,2.518,0,0,1-1.114-.878,2.276,2.276,0,0,1-.4-1.336,2.555,2.555,0,0,1,.837-2.047,3.27,3.27,0,0,1,2.211-.721,3.3,3.3,0,0,1,2.211.721A2.536,2.536,0,0,1,23.071,68.672ZM21.67,73.2a1.585,1.585,0,0,0-.468-1.187,1.637,1.637,0,0,0-1.193-.457A1.559,1.559,0,0,0,18.361,73.2a1.552,1.552,0,0,0,.451,1.18,1.682,1.682,0,0,0,1.21.43,1.66,1.66,0,0,0,1.189-.433A1.542,1.542,0,0,0,21.67,73.2Zm-.26-4.467a1.521,1.521,0,0,0-.39-1.077,1.448,1.448,0,0,0-2.027-.014,1.552,1.552,0,0,0-.373,1.09A1.525,1.525,0,0,0,19,69.817a1.33,1.33,0,0,0,1.022.407,1.313,1.313,0,0,0,1.008-.407A1.525,1.525,0,0,0,21.41,68.733Zm3.65,2.816.574-5.5h5.257v1.436H27.016l-.3,2.5a2.638,2.638,0,0,1,.68-.359,2.776,2.776,0,0,1,.872-.154,2.731,2.731,0,0,1,2.194.889,3.609,3.609,0,0,1,.793,2.468,3.447,3.447,0,0,1-.834,2.393,3.074,3.074,0,0,1-2.413.93,3.449,3.449,0,0,1-2.218-.721,2.381,2.381,0,0,1-.872-2.047l.014-.034,1.552-.055a1.472,1.472,0,0,0,.424,1.123,1.535,1.535,0,0,0,1.1.4,1.383,1.383,0,0,0,1.179-.543,2.343,2.343,0,0,0,.407-1.439,2.4,2.4,0,0,0-.417-1.466,1.391,1.391,0,0,0-1.189-.564,1.836,1.836,0,0,0-1.015.224,1.264,1.264,0,0,0-.482.644Zm10.951.854a4.816,4.816,0,0,1,.772-2.851,2.486,2.486,0,0,1,2.146-1.087,2.33,2.33,0,0,1,1.166.284,2.463,2.463,0,0,1,.851.817l.164-.964h1.381V76a2.791,2.791,0,0,1-.882,2.208,3.657,3.657,0,0,1-2.5.779,4.9,4.9,0,0,1-1.166-.154,5.414,5.414,0,0,1-1.131-.407l.355-1.306a4.021,4.021,0,0,0,.906.332,4.34,4.34,0,0,0,1.022.12,1.9,1.9,0,0,0,1.319-.386A1.542,1.542,0,0,0,40.831,76v-.759a2.324,2.324,0,0,1-.824.673,2.482,2.482,0,0,1-1.09.229,2.554,2.554,0,0,1-2.133-.991,4.118,4.118,0,0,1-.772-2.6Zm1.661.144a2.9,2.9,0,0,0,.407,1.63,1.408,1.408,0,0,0,1.261.612,1.7,1.7,0,0,0,.9-.222,1.64,1.64,0,0,0,.591-.639v-3.24a1.775,1.775,0,0,0-.6-.632,1.622,1.622,0,0,0-.878-.229,1.366,1.366,0,0,0-1.268.718,3.7,3.7,0,0,0-.414,1.859ZM47.927,70.1l-.711-.027a1.49,1.49,0,0,0-.81.205,1.351,1.351,0,0,0-.5.581V76H44.242V68.6H45.76l.109,1.073a2.372,2.372,0,0,1,.721-.889,1.679,1.679,0,0,1,1.015-.321,1.548,1.548,0,0,1,.28.024,2.047,2.047,0,0,1,.239.058ZM53.539,76q-.089-.28-.147-.547a3.909,3.909,0,0,1-.079-.533,2.935,2.935,0,0,1-.9.872,2.287,2.287,0,0,1-1.248.352,2.459,2.459,0,0,1-1.774-.595,2.16,2.16,0,0,1-.619-1.634,1.93,1.93,0,0,1,.848-1.671,4.093,4.093,0,0,1,2.386-.6H53.3V71a1.2,1.2,0,0,0-.342-.909,1.356,1.356,0,0,0-.978-.328,1.385,1.385,0,0,0-.9.273.868.868,0,0,0-.335.7h-1.6l-.007-.041a1.832,1.832,0,0,1,.783-1.552,3.317,3.317,0,0,1,2.164-.677,3.164,3.164,0,0,1,2.085.656,2.31,2.31,0,0,1,.793,1.887V74.3a6.064,6.064,0,0,0,.062.878,4.665,4.665,0,0,0,.2.824ZM51.5,74.811a2.088,2.088,0,0,0,1.131-.314,1.583,1.583,0,0,0,.667-.718V72.685H51.98a1.666,1.666,0,0,0-1.135.359,1.09,1.09,0,0,0-.41.844.861.861,0,0,0,.277.673A1.14,1.14,0,0,0,51.5,74.811Zm6.72-6.207.089.964a2.507,2.507,0,0,1,.909-.813,2.681,2.681,0,0,1,1.265-.287,2.282,2.282,0,0,1,1.244.328,1.983,1.983,0,0,1,.779.984,2.591,2.591,0,0,1,.9-.964,2.434,2.434,0,0,1,1.313-.349,2.186,2.186,0,0,1,1.76.762,3.514,3.514,0,0,1,.646,2.314V76H65.468V71.536a2.076,2.076,0,0,0-.325-1.326,1.206,1.206,0,0,0-.974-.383,1.425,1.425,0,0,0-.9.287,1.6,1.6,0,0,0-.533.772q0,.1.007.178t.007.144V76H61.086V71.536a2.053,2.053,0,0,0-.332-1.309,1.193,1.193,0,0,0-.974-.4,1.749,1.749,0,0,0-.858.195,1.436,1.436,0,0,0-.557.55V76H56.7V68.6ZM73.035,73.99a.772.772,0,0,0-.328-.636,3.273,3.273,0,0,0-1.224-.444,5.079,5.079,0,0,1-2.006-.8,1.669,1.669,0,0,1-.68-1.4,2,2,0,0,1,.786-1.586,3.126,3.126,0,0,1,2.071-.656,3.244,3.244,0,0,1,2.15.667,1.974,1.974,0,0,1,.762,1.651l-.014.041H72.96a1.042,1.042,0,0,0-.349-.786,1.34,1.34,0,0,0-.957-.328,1.369,1.369,0,0,0-.916.27.838.838,0,0,0-.314.66.74.74,0,0,0,.3.619,3.193,3.193,0,0,0,1.207.407,5.083,5.083,0,0,1,2.068.81,1.708,1.708,0,0,1,.673,1.425,1.939,1.939,0,0,1-.824,1.62,3.51,3.51,0,0,1-2.17.622,3.313,3.313,0,0,1-2.276-.738,2.085,2.085,0,0,1-.793-1.7l.014-.041h1.545a1.108,1.108,0,0,0,.465.937A1.868,1.868,0,0,0,71.7,74.9a1.7,1.7,0,0,0,.991-.246A.772.772,0,0,0,73.035,73.99ZM8.347,110.7l.014.041a3.134,3.134,0,0,1-.981,2.458,3.829,3.829,0,0,1-2.731.947,3.692,3.692,0,0,1-2.833-1.172,4.227,4.227,0,0,1-1.09-3V108.08a4.274,4.274,0,0,1,1.077-3A3.615,3.615,0,0,1,4.6,103.9a3.967,3.967,0,0,1,2.779.926,3.128,3.128,0,0,1,.988,2.492l-.014.041H6.747A2.155,2.155,0,0,0,6.2,105.8a2.134,2.134,0,0,0-1.6-.561,1.909,1.909,0,0,0-1.617.806,3.3,3.3,0,0,0-.6,2.022v1.906A3.27,3.27,0,0,0,3,112a1.965,1.965,0,0,0,1.651.806,2.079,2.079,0,0,0,1.565-.552,2.154,2.154,0,0,0,.533-1.56Zm3.3-.472V114H9.987v-9.953h3.89a3.687,3.687,0,0,1,2.581.851,3.16,3.16,0,0,1,0,4.484,3.706,3.706,0,0,1-2.581.844Zm0-1.333h2.229a1.821,1.821,0,0,0,1.388-.492,1.749,1.749,0,0,0,.465-1.251,1.678,1.678,0,0,0-1.853-1.771H11.648Zm12.776,2.542a1.274,1.274,0,0,0-.461-1.014,4.343,4.343,0,0,0-1.63-.708,6.9,6.9,0,0,1-2.567-1.159,2.307,2.307,0,0,1-.9-1.89,2.414,2.414,0,0,1,.995-1.982,4.039,4.039,0,0,1,2.567-.779,3.817,3.817,0,0,1,2.635.885,2.641,2.641,0,0,1,.96,2.123l-.014.041H24.418a1.6,1.6,0,0,0-.52-1.241,2.121,2.121,0,0,0-1.483-.475,2.172,2.172,0,0,0-1.4.4,1.256,1.256,0,0,0-.489,1.023,1.118,1.118,0,0,0,.53.941,5.874,5.874,0,0,0,1.753.709,5.839,5.839,0,0,1,2.44,1.189,2.5,2.5,0,0,1,.834,1.935,2.335,2.335,0,0,1-.995,1.979,4.3,4.3,0,0,1-2.615.735,4.618,4.618,0,0,1-2.734-.831,2.549,2.549,0,0,1-1.142-2.266l.014-.041h1.6a1.555,1.555,0,0,0,.629,1.357,2.754,2.754,0,0,0,1.634.448,2.414,2.414,0,0,0,1.436-.371A1.175,1.175,0,0,0,24.425,111.436ZM35.1,110.7l.014.041a3.134,3.134,0,0,1-.981,2.458,3.829,3.829,0,0,1-2.731.947,3.692,3.692,0,0,1-2.833-1.172,4.227,4.227,0,0,1-1.09-3V108.08a4.274,4.274,0,0,1,1.077-3,3.615,3.615,0,0,1,2.8-1.179,3.967,3.967,0,0,1,2.779.926,3.128,3.128,0,0,1,.988,2.492l-.014.041H33.5a1.928,1.928,0,0,0-2.146-2.126,1.909,1.909,0,0,0-1.617.806,3.3,3.3,0,0,0-.6,2.022v1.906A3.27,3.27,0,0,0,29.747,112a1.965,1.965,0,0,0,1.651.806,2.079,2.079,0,0,0,1.565-.552,2.154,2.154,0,0,0,.533-1.56Zm8.948,3.3H42.383v-8.374H40.359V104.4l3.685-.355Zm10.4,0h-6.61v-1.147l3.24-3.528a7.865,7.865,0,0,0,1.094-1.425,2.286,2.286,0,0,0,.3-1.09,1.655,1.655,0,0,0-.39-1.121,1.32,1.32,0,0,0-1.053-.451,1.622,1.622,0,0,0-1.3.492,2.007,2.007,0,0,0-.424,1.354H47.7l-.014-.041a2.925,2.925,0,0,1,.868-2.232,3.337,3.337,0,0,1,2.475-.906,3.158,3.158,0,0,1,2.27.793,2.728,2.728,0,0,1,.834,2.071,3.06,3.06,0,0,1-.482,1.634,13.765,13.765,0,0,1-1.494,1.894l-2.215,2.331.021.041h4.484Zm7.841-3.835a4.422,4.422,0,0,1-.875,2.96,3.3,3.3,0,0,1-4.771,0,4.4,4.4,0,0,1-.882-2.96v-2.276a4.438,4.438,0,0,1,.875-2.96,3.288,3.288,0,0,1,4.771,0,4.415,4.415,0,0,1,.882,2.96Zm-1.661-2.531a3.192,3.192,0,0,0-.41-1.81,1.508,1.508,0,0,0-2.389,0,3.214,3.214,0,0,0-.407,1.81V110.4a3.2,3.2,0,0,0,.414,1.82,1.373,1.373,0,0,0,1.2.591,1.35,1.35,0,0,0,1.189-.587,3.266,3.266,0,0,0,.4-1.824Zm5.045.638h1.155a1.485,1.485,0,0,0,1.162-.4,1.647,1.647,0,0,0,.355-1.131,1.526,1.526,0,0,0-.383-1.111,1.505,1.505,0,0,0-1.128-.393,1.583,1.583,0,0,0-1.1.386,1.3,1.3,0,0,0-.427,1.015H63.7l-.014-.041a2.323,2.323,0,0,1,.851-1.917,3.338,3.338,0,0,1,2.273-.776,3.468,3.468,0,0,1,2.324.738,2.6,2.6,0,0,1,.868,2.1,2.216,2.216,0,0,1-.39,1.23,2.554,2.554,0,0,1-1.107.923,2.368,2.368,0,0,1,1.248.916,2.514,2.514,0,0,1,.4,1.4,2.647,2.647,0,0,1-.94,2.15,4.056,4.056,0,0,1-4.724.048,2.336,2.336,0,0,1-.9-2.034l.014-.041h1.6a1.383,1.383,0,0,0,.444,1.068,1.679,1.679,0,0,0,1.183.408,1.709,1.709,0,0,0,1.217-.416,1.538,1.538,0,0,0,.444-1.18,1.668,1.668,0,0,0-.407-1.238,1.741,1.741,0,0,0-1.261-.4H65.673Zm7.772,5.517-1.06,2.133H71.333l.479-2.194v-1.354h1.634ZM8.347,129.7l.014.041a3.134,3.134,0,0,1-.981,2.458,3.829,3.829,0,0,1-2.731.947,3.692,3.692,0,0,1-2.833-1.172,4.227,4.227,0,0,1-1.09-3V127.08a4.274,4.274,0,0,1,1.077-3A3.615,3.615,0,0,1,4.6,122.9a3.967,3.967,0,0,1,2.779.926,3.128,3.128,0,0,1,.988,2.492l-.014.041H6.747A2.155,2.155,0,0,0,6.2,124.8a2.134,2.134,0,0,0-1.6-.561,1.909,1.909,0,0,0-1.617.806,3.3,3.3,0,0,0-.6,2.022v1.906A3.27,3.27,0,0,0,3,131a1.965,1.965,0,0,0,1.651.806,2.079,2.079,0,0,0,1.565-.552,2.154,2.154,0,0,0,.533-1.56ZM16,128.522H11.648v3.145H16.7V133H9.987v-9.953h6.665v1.333h-5v2.81H16Zm11.6,0H23.249v3.145H28.3V133H21.588v-9.953h6.665v1.333h-5v2.81H27.6ZM37.475,133H35.82L31.4,125.733l-.041.014V133H29.7v-9.953h1.661l4.416,7.26.041-.014v-7.246h1.654Zm6,0H41.815v-8.374H39.792V123.4l3.685-.355Zm10.288-3.835a4.422,4.422,0,0,1-.875,2.96,3.3,3.3,0,0,1-4.771,0,4.4,4.4,0,0,1-.882-2.96v-2.276a4.438,4.438,0,0,1,.875-2.96,3.288,3.288,0,0,1,4.771,0,4.415,4.415,0,0,1,.882,2.96ZM52.1,126.634a3.192,3.192,0,0,0-.41-1.81,1.508,1.508,0,0,0-2.389,0,3.214,3.214,0,0,0-.407,1.81V129.4a3.2,3.2,0,0,0,.414,1.82,1.373,1.373,0,0,0,1.2.591,1.35,1.35,0,0,0,1.189-.587,3.266,3.266,0,0,0,.4-1.824Zm9.728-2.254a12.739,12.739,0,0,0-2.317,3.637,17.2,17.2,0,0,0-.875,3.931l-.1,1.053H56.875l.1-1.053a14.433,14.433,0,0,1,1.066-4.091,14.2,14.2,0,0,1,2.181-3.476H54.954v-1.333h6.877Zm7.643,1.292a2.254,2.254,0,0,1-.41,1.333,2.607,2.607,0,0,1-1.114.889,2.912,2.912,0,0,1,1.3.943,2.317,2.317,0,0,1,.482,1.449,2.562,2.562,0,0,1-.916,2.123,4.273,4.273,0,0,1-4.792,0,2.562,2.562,0,0,1-.916-2.123,2.339,2.339,0,0,1,.475-1.449,2.9,2.9,0,0,1,1.3-.95,2.518,2.518,0,0,1-1.114-.878,2.276,2.276,0,0,1-.4-1.336,2.555,2.555,0,0,1,.837-2.047,3.751,3.751,0,0,1,4.423,0A2.536,2.536,0,0,1,69.474,125.672Zm-1.4,4.529a1.585,1.585,0,0,0-.468-1.187,1.637,1.637,0,0,0-1.193-.457,1.559,1.559,0,0,0-1.647,1.644,1.552,1.552,0,0,0,.451,1.18,1.682,1.682,0,0,0,1.21.43,1.66,1.66,0,0,0,1.189-.433A1.542,1.542,0,0,0,68.072,130.2Zm-.26-4.467a1.521,1.521,0,0,0-.39-1.077,1.448,1.448,0,0,0-2.027-.014,1.552,1.552,0,0,0-.373,1.09,1.525,1.525,0,0,0,.379,1.083,1.33,1.33,0,0,0,1.022.407,1.313,1.313,0,0,0,1.008-.407A1.525,1.525,0,0,0,67.813,125.733Zm5.065,7.055-1.06,2.133H70.766l.479-2.194v-1.354h1.634ZM6.48,149.676h-3.9L1.791,152H.109l3.657-9.953H5.339L8.955,152H7.267Zm-3.418-1.388H6.009l-1.442-4.252H4.525ZM15.5,149.436a1.274,1.274,0,0,0-.461-1.014,4.343,4.343,0,0,0-1.63-.708,6.9,6.9,0,0,1-2.567-1.159,2.307,2.307,0,0,1-.9-1.89,2.414,2.414,0,0,1,.995-1.982,4.039,4.039,0,0,1,2.567-.779,3.817,3.817,0,0,1,2.635.885,2.641,2.641,0,0,1,.96,2.123l-.014.041H15.5a1.6,1.6,0,0,0-.52-1.241,2.121,2.121,0,0,0-1.483-.475,2.172,2.172,0,0,0-1.4.4,1.256,1.256,0,0,0-.489,1.023,1.118,1.118,0,0,0,.53.941,5.874,5.874,0,0,0,1.753.709,5.839,5.839,0,0,1,2.44,1.189,2.5,2.5,0,0,1,.834,1.935,2.335,2.335,0,0,1-.995,1.979,4.3,4.3,0,0,1-2.615.735,4.618,4.618,0,0,1-2.734-.831,2.549,2.549,0,0,1-1.142-2.266l.014-.041h1.6a1.555,1.555,0,0,0,.629,1.357,2.754,2.754,0,0,0,1.634.448,2.415,2.415,0,0,0,1.436-.371A1.175,1.175,0,0,0,15.5,149.436Zm10.213-6.056H22.709V152H21.048v-8.62H18.04v-1.333h7.677Zm3.452-1.333,2.864,7.656h.041l2.871-7.656H37.1V152H35.438v-3.391L35.6,144.3l-.041-.007L32.607,152H31.493l-2.939-7.69-.041.007.164,4.293V152H27.016v-9.953Zm19.619,5.708H44.427V152H42.766v-9.953h6.72v1.333H44.427v3.042h4.361ZM54.708,152H53.047v-8.374H51.023V142.4l3.685-.355Zm6.569-1.189a1.777,1.777,0,0,0,1.436-.658,2.935,2.935,0,0,0,.547-1.92v-.458a2.2,2.2,0,0,1-.817.694,2.37,2.37,0,0,1-1.056.236,2.9,2.9,0,0,1-2.246-.9,3.509,3.509,0,0,1-.824-2.464,3.44,3.44,0,0,1,.923-2.464,3.019,3.019,0,0,1,2.283-.974,3.172,3.172,0,0,1,2.468,1.015,4.2,4.2,0,0,1,.923,2.922v2.331A4.023,4.023,0,0,1,63.9,151.1a3.5,3.5,0,0,1-2.622,1.042,5.718,5.718,0,0,1-1.06-.1,4.446,4.446,0,0,1-1-.309l.219-1.276a3.658,3.658,0,0,0,.854.273A5.411,5.411,0,0,0,61.277,150.811Zm.267-3.4a2.13,2.13,0,0,0,1.06-.246,1.665,1.665,0,0,0,.656-.636v-.889a3.035,3.035,0,0,0-.444-1.794,1.47,1.47,0,0,0-1.265-.612,1.358,1.358,0,0,0-1.121.6,2.433,2.433,0,0,0-.451,1.507,2.5,2.5,0,0,0,.414,1.5A1.342,1.342,0,0,0,61.544,147.413Zm5.236.137.574-5.5h5.257v1.436H68.735l-.3,2.5a2.639,2.639,0,0,1,.68-.359,2.775,2.775,0,0,1,.872-.154,2.731,2.731,0,0,1,2.194.889,3.609,3.609,0,0,1,.793,2.468,3.447,3.447,0,0,1-.834,2.393,3.074,3.074,0,0,1-2.413.93,3.449,3.449,0,0,1-2.218-.721,2.381,2.381,0,0,1-.872-2.047l.014-.034,1.552-.055a1.472,1.472,0,0,0,.424,1.123,1.535,1.535,0,0,0,1.1.4,1.383,1.383,0,0,0,1.179-.543,2.343,2.343,0,0,0,.407-1.439,2.4,2.4,0,0,0-.417-1.466,1.391,1.391,0,0,0-1.189-.564,1.836,1.836,0,0,0-1.015.224,1.264,1.264,0,0,0-.482.644ZM81.026,152h-6.61v-1.147l3.24-3.528A7.866,7.866,0,0,0,78.75,145.9a2.286,2.286,0,0,0,.3-1.09,1.655,1.655,0,0,0-.39-1.121,1.32,1.32,0,0,0-1.053-.451,1.622,1.622,0,0,0-1.3.492,2.007,2.007,0,0,0-.424,1.354H74.279l-.014-.041a2.925,2.925,0,0,1,.868-2.232,3.337,3.337,0,0,1,2.475-.906,3.158,3.158,0,0,1,2.27.793,2.728,2.728,0,0,1,.834,2.071,3.06,3.06,0,0,1-.482,1.634,13.766,13.766,0,0,1-1.494,1.894l-2.215,2.331.021.041h4.484Zm3.083-.212-1.06,2.133H82l.479-2.194v-1.354h1.634ZM6.48,168.676h-3.9L1.791,171H.109l3.657-9.953H5.339L8.955,171H7.267Zm-3.418-1.388H6.009l-1.442-4.252H4.525ZM15.5,168.436a1.274,1.274,0,0,0-.461-1.014,4.343,4.343,0,0,0-1.63-.708,6.9,6.9,0,0,1-2.567-1.159,2.307,2.307,0,0,1-.9-1.89,2.414,2.414,0,0,1,.995-1.982,4.039,4.039,0,0,1,2.567-.779,3.817,3.817,0,0,1,2.635.885,2.641,2.641,0,0,1,.96,2.123l-.014.041H15.5a1.6,1.6,0,0,0-.52-1.241,2.121,2.121,0,0,0-1.483-.475,2.172,2.172,0,0,0-1.4.4,1.256,1.256,0,0,0-.489,1.023,1.118,1.118,0,0,0,.53.941,5.874,5.874,0,0,0,1.753.709,5.839,5.839,0,0,1,2.44,1.189,2.5,2.5,0,0,1,.834,1.935,2.335,2.335,0,0,1-.995,1.979,4.3,4.3,0,0,1-2.615.735,4.618,4.618,0,0,1-2.734-.831,2.549,2.549,0,0,1-1.142-2.266l.014-.041h1.6a1.555,1.555,0,0,0,.629,1.357,2.754,2.754,0,0,0,1.634.448,2.415,2.415,0,0,0,1.436-.371A1.175,1.175,0,0,0,15.5,168.436Zm10.213-6.056H22.709V171H21.048v-8.62H18.04v-1.333h7.677Zm3.452-1.333,2.864,7.656h.041l2.871-7.656H37.1V171H35.438v-3.391L35.6,163.3l-.041-.007L32.607,171H31.493l-2.939-7.69-.041.007.164,4.293V171H27.016v-9.953Zm19.619,5.708H44.427V171H42.766v-9.953h6.72v1.333H44.427v3.042h4.361ZM57.155,171h-6.61v-1.147l3.24-3.528a7.866,7.866,0,0,0,1.094-1.425,2.286,2.286,0,0,0,.3-1.09,1.655,1.655,0,0,0-.39-1.121,1.32,1.32,0,0,0-1.053-.451,1.622,1.622,0,0,0-1.3.492,2.007,2.007,0,0,0-.424,1.354H50.408l-.014-.041a2.925,2.925,0,0,1,.868-2.232,3.337,3.337,0,0,1,2.475-.906,3.158,3.158,0,0,1,2.27.793,2.728,2.728,0,0,1,.834,2.071,3.06,3.06,0,0,1-.482,1.634,13.766,13.766,0,0,1-1.494,1.894l-2.215,2.331.021.041h4.484ZM65,167.165a4.422,4.422,0,0,1-.875,2.96,3.3,3.3,0,0,1-4.771,0,4.4,4.4,0,0,1-.882-2.96v-2.276a4.438,4.438,0,0,1,.875-2.96,3.288,3.288,0,0,1,4.771,0,4.415,4.415,0,0,1,.882,2.96Zm-1.661-2.531a3.192,3.192,0,0,0-.41-1.81,1.508,1.508,0,0,0-2.389,0,3.214,3.214,0,0,0-.407,1.81V167.4a3.2,3.2,0,0,0,.414,1.82,1.373,1.373,0,0,0,1.2.591,1.35,1.35,0,0,0,1.189-.587,3.266,3.266,0,0,0,.4-1.824Zm5.045.638h1.155a1.485,1.485,0,0,0,1.162-.4,1.647,1.647,0,0,0,.355-1.131,1.526,1.526,0,0,0-.383-1.111,1.505,1.505,0,0,0-1.128-.393,1.583,1.583,0,0,0-1.1.386,1.3,1.3,0,0,0-.427,1.015h-1.6L66.4,163.6a2.323,2.323,0,0,1,.851-1.917,3.338,3.338,0,0,1,2.273-.776,3.468,3.468,0,0,1,2.324.738,2.6,2.6,0,0,1,.868,2.1,2.216,2.216,0,0,1-.39,1.23,2.554,2.554,0,0,1-1.107.923,2.368,2.368,0,0,1,1.248.916,2.514,2.514,0,0,1,.4,1.4,2.647,2.647,0,0,1-.94,2.15,4.056,4.056,0,0,1-4.724.048,2.336,2.336,0,0,1-.9-2.034l.014-.041h1.6a1.383,1.383,0,0,0,.444,1.068,1.679,1.679,0,0,0,1.183.408,1.709,1.709,0,0,0,1.217-.416,1.538,1.538,0,0,0,.444-1.18,1.668,1.668,0,0,0-.407-1.238,1.741,1.741,0,0,0-1.261-.4H68.38ZM81.026,171h-6.61v-1.147l3.24-3.528A7.866,7.866,0,0,0,78.75,164.9a2.286,2.286,0,0,0,.3-1.09,1.655,1.655,0,0,0-.39-1.121,1.32,1.32,0,0,0-1.053-.451,1.622,1.622,0,0,0-1.3.492,2.007,2.007,0,0,0-.424,1.354H74.279l-.014-.041a2.925,2.925,0,0,1,.868-2.232,3.337,3.337,0,0,1,2.475-.906,3.158,3.158,0,0,1,2.27.793,2.728,2.728,0,0,1,.834,2.071,3.06,3.06,0,0,1-.482,1.634,13.766,13.766,0,0,1-1.494,1.894l-2.215,2.331.021.041h4.484Zm3.083-.212-1.06,2.133H82l.479-2.194v-1.354h1.634ZM5.325,190q-.089-.28-.147-.547a3.909,3.909,0,0,1-.079-.533,2.935,2.935,0,0,1-.9.872,2.287,2.287,0,0,1-1.248.352,2.459,2.459,0,0,1-1.774-.595,2.16,2.16,0,0,1-.619-1.634,1.93,1.93,0,0,1,.848-1.671,4.093,4.093,0,0,1,2.386-.6H5.086V185a1.2,1.2,0,0,0-.342-.909,1.356,1.356,0,0,0-.978-.328,1.384,1.384,0,0,0-.9.273.868.868,0,0,0-.335.7H.93L.923,184.7a1.832,1.832,0,0,1,.783-1.552,3.317,3.317,0,0,1,2.164-.677,3.164,3.164,0,0,1,2.085.656,2.31,2.31,0,0,1,.793,1.887V188.3a6.064,6.064,0,0,0,.062.878,4.664,4.664,0,0,0,.2.824Zm-2.037-1.189a2.088,2.088,0,0,0,1.131-.314,1.583,1.583,0,0,0,.667-.718v-1.094H3.767a1.666,1.666,0,0,0-1.135.359,1.09,1.09,0,0,0-.41.844.861.861,0,0,0,.277.673A1.14,1.14,0,0,0,3.288,188.811ZM9.994,182.6l.1,1.066a2.646,2.646,0,0,1,.913-.885,2.435,2.435,0,0,1,1.241-.318,2.328,2.328,0,0,1,1.8.7,3.143,3.143,0,0,1,.646,2.184V190H13.029v-4.635a1.662,1.662,0,0,0-.345-1.186,1.41,1.41,0,0,0-1.049-.352,1.74,1.74,0,0,0-.868.215,1.8,1.8,0,0,0-.629.591V190H8.477v-7.4Zm6.118,3.8a4.878,4.878,0,0,1,.759-2.854A2.454,2.454,0,0,1,19,182.467a2.333,2.333,0,0,1,1.077.243,2.437,2.437,0,0,1,.824.694v-4.067h1.661V190H21.171l-.164-.916a2.444,2.444,0,0,1-.854.79,2.4,2.4,0,0,1-1.162.27,2.517,2.517,0,0,1-2.119-.991,4.17,4.17,0,0,1-.759-2.6Zm1.661.144a2.979,2.979,0,0,0,.393,1.634,1.376,1.376,0,0,0,1.248.608,1.668,1.668,0,0,0,.892-.226,1.717,1.717,0,0,0,.6-.643V184.7a1.749,1.749,0,0,0-.6-.639,1.626,1.626,0,0,0-.875-.229,1.339,1.339,0,0,0-1.251.714,3.769,3.769,0,0,0-.4,1.863Zm15.668,1.128h-3.9L28.752,190H27.07l3.657-9.953H32.3L35.916,190H34.228Zm-3.418-1.388H32.97l-1.442-4.252h-.041Zm12.441,1.148A1.274,1.274,0,0,0,42,186.422a4.343,4.343,0,0,0-1.63-.708,6.9,6.9,0,0,1-2.567-1.159,2.307,2.307,0,0,1-.9-1.89,2.414,2.414,0,0,1,.995-1.982,4.039,4.039,0,0,1,2.567-.779,3.817,3.817,0,0,1,2.635.885,2.641,2.641,0,0,1,.96,2.123l-.014.041H42.458a1.6,1.6,0,0,0-.52-1.241,2.121,2.121,0,0,0-1.483-.475,2.172,2.172,0,0,0-1.4.4,1.256,1.256,0,0,0-.489,1.023,1.118,1.118,0,0,0,.53.941,5.874,5.874,0,0,0,1.753.709,5.839,5.839,0,0,1,2.44,1.189,2.5,2.5,0,0,1,.834,1.935,2.335,2.335,0,0,1-.995,1.979,4.3,4.3,0,0,1-2.615.735,4.618,4.618,0,0,1-2.734-.831,2.549,2.549,0,0,1-1.142-2.266l.014-.041h1.6a1.555,1.555,0,0,0,.629,1.357,2.754,2.754,0,0,0,1.634.448,2.414,2.414,0,0,0,1.436-.371A1.175,1.175,0,0,0,42.465,187.436Zm3.862,3.419H44.8l3.917-10.808h1.524ZM59.384,190H57.729l-4.416-7.267-.041.014V190H51.611v-9.953h1.661l4.416,7.26.041-.014v-7.246h1.654Zm3.671-1.333h5.2V190H61.079v-1.044l5-7.576H61.12v-1.333h6.959v1Zm12.216-1.231a1.274,1.274,0,0,0-.461-1.014,4.343,4.343,0,0,0-1.63-.708,6.9,6.9,0,0,1-2.567-1.159,2.307,2.307,0,0,1-.9-1.89,2.414,2.414,0,0,1,.995-1.982,4.039,4.039,0,0,1,2.567-.779,3.817,3.817,0,0,1,2.635.885,2.641,2.641,0,0,1,.96,2.123l-.014.041H75.264a1.6,1.6,0,0,0-.52-1.241,2.121,2.121,0,0,0-1.483-.475,2.172,2.172,0,0,0-1.4.4,1.256,1.256,0,0,0-.489,1.023,1.118,1.118,0,0,0,.53.941,5.874,5.874,0,0,0,1.753.709A5.839,5.839,0,0,1,76.1,185.5a2.5,2.5,0,0,1,.834,1.935,2.335,2.335,0,0,1-.995,1.979,4.3,4.3,0,0,1-2.615.735,4.618,4.618,0,0,1-2.734-.831,2.549,2.549,0,0,1-1.142-2.266l.014-.041h1.6a1.555,1.555,0,0,0,.629,1.357,2.754,2.754,0,0,0,1.634.448,2.414,2.414,0,0,0,1.436-.371A1.175,1.175,0,0,0,75.271,187.436ZM7.355,209H.745v-1.147l3.24-3.528A7.866,7.866,0,0,0,5.079,202.9a2.286,2.286,0,0,0,.3-1.09,1.655,1.655,0,0,0-.39-1.121,1.32,1.32,0,0,0-1.053-.451,1.622,1.622,0,0,0-1.3.492,2.007,2.007,0,0,0-.424,1.354H.608l-.014-.041a2.925,2.925,0,0,1,.868-2.232,3.337,3.337,0,0,1,2.475-.906,3.158,3.158,0,0,1,2.27.793,2.728,2.728,0,0,1,.834,2.071,3.06,3.06,0,0,1-.482,1.634,13.766,13.766,0,0,1-1.494,1.894l-2.215,2.331.021.041H7.355Zm7.841-3.835a4.422,4.422,0,0,1-.875,2.96,2.973,2.973,0,0,1-2.379,1.019,3,3,0,0,1-2.393-1.019,4.4,4.4,0,0,1-.882-2.96v-2.276a4.438,4.438,0,0,1,.875-2.96,2.972,2.972,0,0,1,2.386-1.025,2.985,2.985,0,0,1,2.386,1.025,4.415,4.415,0,0,1,.882,2.96Zm-1.661-2.531a3.192,3.192,0,0,0-.41-1.81,1.367,1.367,0,0,0-1.2-.587,1.359,1.359,0,0,0-1.193.587,3.214,3.214,0,0,0-.407,1.81V205.4a3.2,3.2,0,0,0,.414,1.82,1.373,1.373,0,0,0,1.2.591,1.35,1.35,0,0,0,1.189-.587,3.266,3.266,0,0,0,.4-1.824Zm7.027-3.73a4.621,4.621,0,0,1,1.025.112,4.336,4.336,0,0,1,.882.294l-.314,1.276a5.077,5.077,0,0,0-.745-.256,3.426,3.426,0,0,0-.841-.092,1.934,1.934,0,0,0-1.6.774,3.294,3.294,0,0,0-.6,2.083v.048a2.922,2.922,0,0,1,.954-.581,3.353,3.353,0,0,1,1.193-.205,2.6,2.6,0,0,1,2.109.933,3.994,3.994,0,0,1-.113,4.877,3,3,0,0,1-2.331.978,3.224,3.224,0,0,1-2.492-1.066,4.258,4.258,0,0,1-.974-2.98v-1.9a4.385,4.385,0,0,1,1.1-3.117A3.613,3.613,0,0,1,20.563,198.9Zm-.465,4.744a2.338,2.338,0,0,0-1.066.222,1.617,1.617,0,0,0-.67.6v.71a3.206,3.206,0,0,0,.509,1.945,1.56,1.56,0,0,0,1.3.682,1.306,1.306,0,0,0,1.142-.621,2.681,2.681,0,0,0,.417-1.529,2.292,2.292,0,0,0-.437-1.454A1.436,1.436,0,0,0,20.1,203.647Zm6.439-.376h1.155a1.485,1.485,0,0,0,1.162-.4,1.647,1.647,0,0,0,.355-1.131,1.526,1.526,0,0,0-.383-1.111,1.505,1.505,0,0,0-1.128-.393,1.583,1.583,0,0,0-1.1.386,1.3,1.3,0,0,0-.427,1.015h-1.6l-.014-.041a2.323,2.323,0,0,1,.851-1.917,3.338,3.338,0,0,1,2.273-.776,3.468,3.468,0,0,1,2.324.738,2.6,2.6,0,0,1,.868,2.1,2.216,2.216,0,0,1-.39,1.23,2.554,2.554,0,0,1-1.107.923,2.368,2.368,0,0,1,1.248.916,2.514,2.514,0,0,1,.4,1.4,2.647,2.647,0,0,1-.94,2.15,4.056,4.056,0,0,1-4.724.048,2.336,2.336,0,0,1-.9-2.034l.014-.041h1.6a1.383,1.383,0,0,0,.444,1.068,1.679,1.679,0,0,0,1.183.408,1.709,1.709,0,0,0,1.217-.416,1.538,1.538,0,0,0,.444-1.18,1.668,1.668,0,0,0-.407-1.238,1.741,1.741,0,0,0-1.261-.4H26.537Zm9.365,2.16H32.313V204.1H35.9ZM43.777,209h-6.61v-1.147l3.24-3.528A7.866,7.866,0,0,0,41.5,202.9a2.286,2.286,0,0,0,.3-1.09,1.655,1.655,0,0,0-.39-1.121,1.32,1.32,0,0,0-1.053-.451,1.622,1.622,0,0,0-1.3.492,2.007,2.007,0,0,0-.424,1.354H37.03l-.014-.041a2.925,2.925,0,0,1,.868-2.232,3.337,3.337,0,0,1,2.475-.906,3.158,3.158,0,0,1,2.27.793,2.728,2.728,0,0,1,.834,2.071,3.06,3.06,0,0,1-.482,1.634,13.766,13.766,0,0,1-1.494,1.894l-2.215,2.331.021.041h4.484Zm7.841-3.835a4.422,4.422,0,0,1-.875,2.96,3.3,3.3,0,0,1-4.771,0,4.4,4.4,0,0,1-.882-2.96v-2.276a4.438,4.438,0,0,1,.875-2.96,3.288,3.288,0,0,1,4.771,0,4.415,4.415,0,0,1,.882,2.96Zm-1.661-2.531a3.192,3.192,0,0,0-.41-1.81,1.508,1.508,0,0,0-2.389,0,3.214,3.214,0,0,0-.407,1.81V205.4a3.2,3.2,0,0,0,.414,1.82,1.373,1.373,0,0,0,1.2.591,1.35,1.35,0,0,0,1.189-.587,3.266,3.266,0,0,0,.4-1.824Zm9.618,2.531a4.422,4.422,0,0,1-.875,2.96,3.3,3.3,0,0,1-4.771,0,4.4,4.4,0,0,1-.882-2.96v-2.276a4.438,4.438,0,0,1,.875-2.96,3.288,3.288,0,0,1,4.771,0,4.415,4.415,0,0,1,.882,2.96Zm-1.661-2.531a3.192,3.192,0,0,0-.41-1.81,1.508,1.508,0,0,0-2.389,0,3.214,3.214,0,0,0-.407,1.81V205.4a3.2,3.2,0,0,0,.414,1.82,1.373,1.373,0,0,0,1.2.591,1.35,1.35,0,0,0,1.189-.587,3.266,3.266,0,0,0,.4-1.824Zm9.413-.962a2.254,2.254,0,0,1-.41,1.333,2.607,2.607,0,0,1-1.114.889,2.912,2.912,0,0,1,1.3.943,2.317,2.317,0,0,1,.482,1.449,2.562,2.562,0,0,1-.916,2.123,4.273,4.273,0,0,1-4.792,0,2.562,2.562,0,0,1-.916-2.123,2.339,2.339,0,0,1,.475-1.449,2.9,2.9,0,0,1,1.3-.95,2.518,2.518,0,0,1-1.114-.878,2.276,2.276,0,0,1-.4-1.336,2.555,2.555,0,0,1,.837-2.047,3.751,3.751,0,0,1,4.423,0A2.536,2.536,0,0,1,67.327,201.672Zm-1.4,4.529a1.585,1.585,0,0,0-.468-1.187,1.637,1.637,0,0,0-1.193-.457,1.559,1.559,0,0,0-1.647,1.644,1.552,1.552,0,0,0,.451,1.18,1.682,1.682,0,0,0,1.21.43,1.66,1.66,0,0,0,1.189-.433A1.542,1.542,0,0,0,65.926,206.2Zm-.26-4.467a1.521,1.521,0,0,0-.39-1.077,1.448,1.448,0,0,0-2.027-.014,1.552,1.552,0,0,0-.373,1.09,1.525,1.525,0,0,0,.379,1.083,1.33,1.33,0,0,0,1.022.407,1.313,1.313,0,0,0,1.008-.407A1.525,1.525,0,0,0,65.666,201.733Zm10,6.077a1.522,1.522,0,0,0,1.025-.357,1.128,1.128,0,0,0,.417-.894h1.5l.014.041a2.184,2.184,0,0,1-.844,1.791,3.144,3.144,0,0,1-2.116.752,3.068,3.068,0,0,1-2.505-1.053,4.041,4.041,0,0,1-.872-2.666v-.239a4.044,4.044,0,0,1,.872-2.663,3.456,3.456,0,0,1,4.669-.28,2.5,2.5,0,0,1,.8,1.972l-.014.041H77.109a1.449,1.449,0,0,0-.4-1.032,1.368,1.368,0,0,0-1.042-.424,1.4,1.4,0,0,0-1.326.679,3.383,3.383,0,0,0-.39,1.7v.239a3.39,3.39,0,0,0,.39,1.717A1.407,1.407,0,0,0,75.667,207.811Zm7.465,1.333a3.216,3.216,0,0,1-2.505-1.029,3.782,3.782,0,0,1-.933-2.642V205.2a3.927,3.927,0,0,1,.926-2.676,2.93,2.93,0,0,1,2.321-1.056,2.891,2.891,0,0,1,2.293.906,3.549,3.549,0,0,1,.8,2.43v.978H81.416l-.014.034a2.316,2.316,0,0,0,.516,1.438,1.635,1.635,0,0,0,1.316.559,3.557,3.557,0,0,0,1.148-.164,3.763,3.763,0,0,0,.923-.472l.533,1.089a3.436,3.436,0,0,1-1.107.625A4.618,4.618,0,0,1,83.132,209.144ZM82.94,202.8a1.246,1.246,0,0,0-1.012.489,2.407,2.407,0,0,0-.492,1.241l.014.034h2.933v-.171a1.77,1.77,0,0,0-.359-1.148A1.31,1.31,0,0,0,82.94,202.8Zm8.114.3-.711-.027a1.49,1.49,0,0,0-.81.205,1.351,1.351,0,0,0-.5.581V209H87.37v-7.4h1.518L89,202.677a2.372,2.372,0,0,1,.721-.889,1.679,1.679,0,0,1,1.015-.321,1.548,1.548,0,0,1,.28.024,2.047,2.047,0,0,1,.239.058Zm3.37-3.295v1.8h1.326v1.23H94.425v4.088a.891.891,0,0,0,.2.653.718.718,0,0,0,.526.195,1.469,1.469,0,0,0,.267-.024,1.62,1.62,0,0,0,.246-.065l.178,1.217a1.9,1.9,0,0,1-.506.181,2.813,2.813,0,0,1-.608.065,1.9,1.9,0,0,1-1.436-.537,2.35,2.35,0,0,1-.52-1.685v-4.088H91.643V201.6h1.128v-1.8ZM99,209H97.337v-7.4H99Zm0-9.208H97.337v-1.456H99ZM101.4,209v-6.166H100.27V201.6H101.4v-.861a2.313,2.313,0,0,1,2.536-2.55,3.21,3.21,0,0,1,.485.038q.246.038.554.106l-.171,1.285q-.137-.027-.3-.048a2.958,2.958,0,0,0-.359-.021,1.021,1.021,0,0,0-.81.308,1.3,1.3,0,0,0-.27.882v.861h1.5v1.23h-1.5V209Zm6.146,0h-1.661v-7.4h1.661Zm0-9.208h-1.661v-1.456h1.661Zm5.031,9.352a3.216,3.216,0,0,1-2.505-1.029,3.782,3.782,0,0,1-.933-2.642V205.2a3.927,3.927,0,0,1,.926-2.676,2.93,2.93,0,0,1,2.321-1.056,2.891,2.891,0,0,1,2.293.906,3.549,3.549,0,0,1,.8,2.43v.978h-4.614l-.014.034a2.316,2.316,0,0,0,.516,1.438,1.635,1.635,0,0,0,1.316.559,3.557,3.557,0,0,0,1.148-.164,3.763,3.763,0,0,0,.923-.472l.533,1.089a3.436,3.436,0,0,1-1.107.625A4.618,4.618,0,0,1,112.574,209.144Zm-.191-6.344a1.246,1.246,0,0,0-1.012.489,2.407,2.407,0,0,0-.492,1.241l.014.034h2.933v-.171a1.77,1.77,0,0,0-.359-1.148A1.31,1.31,0,0,0,112.383,202.8Zm4.122,2.6a4.878,4.878,0,0,1,.759-2.854,2.454,2.454,0,0,1,2.133-1.083,2.333,2.333,0,0,1,1.077.243,2.437,2.437,0,0,1,.824.694v-4.067h1.661V209h-1.395l-.164-.916a2.444,2.444,0,0,1-.854.79,2.4,2.4,0,0,1-1.162.27,2.517,2.517,0,0,1-2.119-.991,4.17,4.17,0,0,1-.759-2.6Zm1.661.144a2.979,2.979,0,0,0,.393,1.634,1.376,1.376,0,0,0,1.248.608,1.668,1.668,0,0,0,.892-.226,1.717,1.717,0,0,0,.6-.643V203.7a1.749,1.749,0,0,0-.6-.639,1.626,1.626,0,0,0-.875-.229,1.339,1.339,0,0,0-1.251.714,3.769,3.769,0,0,0-.4,1.863Z" transform="translate(-0.109 10.808)"/>
</svg>
