<svg xmlns="http://www.w3.org/2000/svg" viewBox="0 0 130.938 120.602">
  <defs>
    <style>
      .cls-1 {
        fill: #fff;
      }
    </style>
  </defs>
  <path id="text-one" class="cls-1" d="M9.016-9.852H5.578V0H3.68V-9.852H.242v-1.523H9.016Zm3.117,2.492a3.013,3.013,0,0,1,1.027-.922,2.766,2.766,0,0,1,1.34-.328,2.662,2.662,0,0,1,2.1.848,3.847,3.847,0,0,1,.754,2.613V0h-1.9V-5.164a2.14,2.14,0,0,0-.4-1.445,1.522,1.522,0,0,0-1.2-.445,2.12,2.12,0,0,0-1,.23,2.047,2.047,0,0,0-.73.637V0h-1.9V-12.187h1.9ZM22.945.164a3.675,3.675,0,0,1-2.863-1.176,4.322,4.322,0,0,1-1.066-3.02v-.312A4.488,4.488,0,0,1,20.074-7.4a3.348,3.348,0,0,1,2.652-1.207,3.3,3.3,0,0,1,2.621,1.035,4.056,4.056,0,0,1,.91,2.777V-3.68H20.984l-.016.039A2.647,2.647,0,0,0,21.559-2a1.868,1.868,0,0,0,1.5.638,4.065,4.065,0,0,0,1.313-.187,4.3,4.3,0,0,0,1.055-.539l.609,1.245a3.927,3.927,0,0,1-1.266.715A5.278,5.278,0,0,1,22.945.164Zm-.219-7.25a1.424,1.424,0,0,0-1.156.559,2.75,2.75,0,0,0-.562,1.418l.016.039h3.352v-.2a2.023,2.023,0,0,0-.41-1.312A1.5,1.5,0,0,0,22.727-7.086ZM33.492-8.453,33.6-7.234a3.024,3.024,0,0,1,1.043-1.012,2.783,2.783,0,0,1,1.418-.363,2.66,2.66,0,0,1,2.059.8,3.592,3.592,0,0,1,.738,2.5V0h-1.9V-5.3a1.9,1.9,0,0,0-.395-1.355,1.611,1.611,0,0,0-1.2-.4,1.988,1.988,0,0,0-.992.246,2.051,2.051,0,0,0-.719.676V0h-1.9V-8.453ZM44.461.164A3.675,3.675,0,0,1,41.6-1.012a4.322,4.322,0,0,1-1.066-3.02v-.312A4.488,4.488,0,0,1,41.59-7.4a3.348,3.348,0,0,1,2.652-1.207,3.3,3.3,0,0,1,2.621,1.035,4.056,4.056,0,0,1,.91,2.777V-3.68H42.5l-.016.039A2.647,2.647,0,0,0,43.074-2a1.868,1.868,0,0,0,1.5.638,4.065,4.065,0,0,0,1.313-.187,4.3,4.3,0,0,0,1.055-.539l.609,1.245a3.927,3.927,0,0,1-1.266.715A5.278,5.278,0,0,1,44.461.164Zm-.219-7.25a1.424,1.424,0,0,0-1.156.559,2.75,2.75,0,0,0-.562,1.418l.016.039h3.352v-.2a2.023,2.023,0,0,0-.41-1.312A1.5,1.5,0,0,0,44.242-7.086Zm12.5,4.648.047-.008,1.32-6.008h1.82L57.617,0H56.063l-1.8-5.773-.016-.078-.008.078L52.461,0H50.906L48.594-8.453h1.82l1.352,5.922.047.008,1.758-5.93h1.383ZM7.406,18.069a1.456,1.456,0,0,0-.527-1.159A4.963,4.963,0,0,0,5.016,16.1a7.882,7.882,0,0,1-2.934-1.324,2.636,2.636,0,0,1-1.027-2.16,2.759,2.759,0,0,1,1.137-2.266,4.616,4.616,0,0,1,2.934-.891,4.362,4.362,0,0,1,3.012,1.012,3.019,3.019,0,0,1,1.1,2.426l-.016.047H7.4A1.832,1.832,0,0,0,6.8,11.527a2.424,2.424,0,0,0-1.7-.543,2.483,2.483,0,0,0-1.6.452,1.435,1.435,0,0,0-.559,1.169,1.278,1.278,0,0,0,.605,1.076,6.713,6.713,0,0,0,2,.811,6.673,6.673,0,0,1,2.789,1.359A2.857,2.857,0,0,1,9.3,18.063a2.668,2.668,0,0,1-1.137,2.262,4.908,4.908,0,0,1-2.988.84,5.278,5.278,0,0,1-3.125-.949,2.913,2.913,0,0,1-1.3-2.59l.016-.047H2.594a1.777,1.777,0,0,0,.719,1.551,3.148,3.148,0,0,0,1.867.512,2.759,2.759,0,0,0,1.641-.424A1.343,1.343,0,0,0,7.406,18.069Zm6.016-7.577v2.055h1.516v1.406H13.422v4.672a1.019,1.019,0,0,0,.227.746.821.821,0,0,0,.6.223,1.679,1.679,0,0,0,.3-.027,1.852,1.852,0,0,0,.281-.074l.2,1.391a2.177,2.177,0,0,1-.578.207,3.214,3.214,0,0,1-.7.074,2.177,2.177,0,0,1-1.641-.613,2.686,2.686,0,0,1-.594-1.926V13.953H10.242V12.547h1.289V10.492ZM21.711,21q-.1-.32-.168-.625a4.468,4.468,0,0,1-.09-.609,3.354,3.354,0,0,1-1.027,1,2.614,2.614,0,0,1-1.426.4,2.81,2.81,0,0,1-2.027-.68,2.468,2.468,0,0,1-.707-1.867,2.206,2.206,0,0,1,.969-1.91,4.678,4.678,0,0,1,2.727-.684h1.477v-.742a1.372,1.372,0,0,0-.391-1.039,1.55,1.55,0,0,0-1.117-.375,1.582,1.582,0,0,0-1.031.313.992.992,0,0,0-.383.8H16.688l-.008-.047a2.094,2.094,0,0,1,.895-1.773,3.79,3.79,0,0,1,2.473-.773,3.616,3.616,0,0,1,2.383.75,2.64,2.64,0,0,1,.906,2.156v3.758a6.93,6.93,0,0,0,.07,1,5.331,5.331,0,0,0,.227.941Zm-2.328-1.359a2.387,2.387,0,0,0,1.293-.359,1.81,1.81,0,0,0,.762-.82v-1.25H19.93a1.9,1.9,0,0,0-1.3.41,1.246,1.246,0,0,0-.469.965.984.984,0,0,0,.316.77A1.3,1.3,0,0,0,19.383,19.641Zm5.6-2.75a5.5,5.5,0,0,1,.883-3.258,2.842,2.842,0,0,1,2.453-1.242,2.663,2.663,0,0,1,1.332.324,2.815,2.815,0,0,1,.973.934l.188-1.1h1.578V21a3.19,3.19,0,0,1-1.008,2.523,4.179,4.179,0,0,1-2.859.891,5.6,5.6,0,0,1-1.332-.176,6.188,6.188,0,0,1-1.293-.465l.406-1.492a4.6,4.6,0,0,0,1.035.379,4.96,4.96,0,0,0,1.168.137,2.169,2.169,0,0,0,1.508-.441A1.762,1.762,0,0,0,30.492,21v-.867a2.656,2.656,0,0,1-.941.77,2.836,2.836,0,0,1-1.246.262,2.919,2.919,0,0,1-2.437-1.133,4.707,4.707,0,0,1-.883-2.977Zm1.9.164a3.318,3.318,0,0,0,.465,1.863,1.609,1.609,0,0,0,1.441.7,1.945,1.945,0,0,0,1.027-.254,1.874,1.874,0,0,0,.676-.73v-3.7a2.029,2.029,0,0,0-.684-.723,1.854,1.854,0,0,0-1-.262,1.561,1.561,0,0,0-1.449.82,4.224,4.224,0,0,0-.473,2.125Zm11.133,4.109a3.675,3.675,0,0,1-2.863-1.176,4.322,4.322,0,0,1-1.066-3.02v-.312A4.488,4.488,0,0,1,35.145,13.6,3.348,3.348,0,0,1,37.8,12.391a3.3,3.3,0,0,1,2.621,1.035,4.056,4.056,0,0,1,.91,2.777V17.32H36.055l-.016.039A2.647,2.647,0,0,0,36.629,19a1.868,1.868,0,0,0,1.5.638,4.065,4.065,0,0,0,1.313-.187,4.3,4.3,0,0,0,1.055-.539l.609,1.245a3.927,3.927,0,0,1-1.266.715A5.278,5.278,0,0,1,38.016,21.164Zm-.219-7.25a1.424,1.424,0,0,0-1.156.559,2.75,2.75,0,0,0-.562,1.418l.016.039h3.352v-.2a2.023,2.023,0,0,0-.41-1.312A1.5,1.5,0,0,0,37.8,13.914Zm10.922-.273a3.014,3.014,0,0,1,1.027-.922,2.766,2.766,0,0,1,1.34-.328,2.662,2.662,0,0,1,2.1.848,3.847,3.847,0,0,1,.754,2.613V21h-1.9V15.836a2.14,2.14,0,0,0-.4-1.445,1.522,1.522,0,0,0-1.2-.445,2.12,2.12,0,0,0-1,.23,2.047,2.047,0,0,0-.73.637V21h-1.9V8.813h1.9Zm10.813,7.523a3.675,3.675,0,0,1-2.863-1.176,4.322,4.322,0,0,1-1.066-3.02v-.312A4.488,4.488,0,0,1,56.66,13.6a3.348,3.348,0,0,1,2.652-1.207,3.3,3.3,0,0,1,2.621,1.035,4.056,4.056,0,0,1,.91,2.777V17.32H57.57l-.016.039A2.647,2.647,0,0,0,58.145,19a1.868,1.868,0,0,0,1.5.638,4.065,4.065,0,0,0,1.313-.187,4.3,4.3,0,0,0,1.055-.539l.609,1.245a3.927,3.927,0,0,1-1.266.715A5.278,5.278,0,0,1,59.531,21.164Zm-.219-7.25a1.424,1.424,0,0,0-1.156.559,2.75,2.75,0,0,0-.562,1.418l.016.039h3.352v-.2a2.023,2.023,0,0,0-.41-1.312A1.5,1.5,0,0,0,59.313,13.914ZM66.4,21H64.5V8.813h1.9Zm3.859-8.453.1,1.1a2.865,2.865,0,0,1,1.039-.93,3.065,3.065,0,0,1,1.445-.328,2.608,2.608,0,0,1,1.422.375,2.266,2.266,0,0,1,.891,1.125,2.962,2.962,0,0,1,1.031-1.1,2.781,2.781,0,0,1,1.5-.4,2.5,2.5,0,0,1,2.012.871,4.016,4.016,0,0,1,.738,2.645V21h-1.9V15.9a2.372,2.372,0,0,0-.371-1.516,1.378,1.378,0,0,0-1.113-.437,1.629,1.629,0,0,0-1.031.328,1.828,1.828,0,0,0-.609.883q0,.117.008.2t.008.164V21h-1.9V15.9a2.347,2.347,0,0,0-.379-1.5,1.363,1.363,0,0,0-1.113-.457,2,2,0,0,0-.98.223,1.642,1.642,0,0,0-.637.629V21h-1.9V12.547Zm15.8,8.617A3.675,3.675,0,0,1,83.2,19.988a4.322,4.322,0,0,1-1.066-3.02v-.312A4.488,4.488,0,0,1,83.191,13.6a3.348,3.348,0,0,1,2.652-1.207,3.3,3.3,0,0,1,2.621,1.035,4.056,4.056,0,0,1,.91,2.777V17.32H84.1l-.016.039A2.647,2.647,0,0,0,84.676,19a1.868,1.868,0,0,0,1.5.638,4.065,4.065,0,0,0,1.313-.187,4.3,4.3,0,0,0,1.055-.539l.609,1.245a3.927,3.927,0,0,1-1.266.715A5.278,5.278,0,0,1,86.063,21.164Zm-.219-7.25a1.424,1.424,0,0,0-1.156.559,2.75,2.75,0,0,0-.562,1.418l.016.039h3.352v-.2a2.023,2.023,0,0,0-.41-1.312A1.5,1.5,0,0,0,85.844,13.914Zm7.422-3.422v2.055h1.516v1.406H93.266v4.672a1.019,1.019,0,0,0,.227.746.821.821,0,0,0,.6.223,1.679,1.679,0,0,0,.3-.027,1.852,1.852,0,0,0,.281-.074l.2,1.391a2.177,2.177,0,0,1-.578.207,3.214,3.214,0,0,1-.7.074,2.177,2.177,0,0,1-1.641-.613,2.686,2.686,0,0,1-.594-1.926V13.953H90.086V12.547h1.289V10.492Zm14.609,6.563a4.778,4.778,0,0,1-.863,2.98,2.886,2.886,0,0,1-2.434,1.129,2.8,2.8,0,0,1-1.371-.32,2.674,2.674,0,0,1-.973-.937L102.047,21h-1.594V8.813h1.9v4.7a2.726,2.726,0,0,1,.938-.828,2.686,2.686,0,0,1,1.273-.289,2.813,2.813,0,0,1,2.449,1.234,5.59,5.59,0,0,1,.863,3.266Zm-1.9-.164a4.365,4.365,0,0,0-.453-2.133,1.528,1.528,0,0,0-1.437-.812,1.88,1.88,0,0,0-1.059.281,1.966,1.966,0,0,0-.676.781v3.547a1.862,1.862,0,0,0,.672.785,1.951,1.951,0,0,0,1.078.277,1.574,1.574,0,0,0,1.43-.691,3.424,3.424,0,0,0,.445-1.871Zm6.258.719.188.844h.047l1.852-5.906H116.4l-3.5,9.734a4.34,4.34,0,0,1-.945,1.508,2.3,2.3,0,0,1-1.727.625,2.95,2.95,0,0,1-.5-.047q-.27-.047-.52-.109l.211-1.469.289.023q.188.016.281.016a1.042,1.042,0,0,0,.824-.352,2.988,2.988,0,0,0,.5-.812l.313-.766-3.07-8.352h2.07ZM9.016,32.148H5.578V42H3.68V32.148H.242V30.625H9.016Zm4.906,3.109-.812-.031a1.7,1.7,0,0,0-.926.234,1.544,1.544,0,0,0-.574.664V42h-1.9V33.547h1.734l.125,1.227a2.711,2.711,0,0,1,.824-1.016,1.919,1.919,0,0,1,1.16-.367,1.769,1.769,0,0,1,.32.027,2.339,2.339,0,0,1,.273.066ZM14.9,37.7A4.6,4.6,0,0,1,15.93,34.6a3.556,3.556,0,0,1,2.836-1.211A3.545,3.545,0,0,1,21.617,34.6,4.564,4.564,0,0,1,22.656,37.7v.164a4.587,4.587,0,0,1-1.039,3.109,3.548,3.548,0,0,1-2.836,1.2,3.57,3.57,0,0,1-2.852-1.2,4.6,4.6,0,0,1-1.031-3.1Zm1.9.16a3.766,3.766,0,0,0,.484,2.013,1.634,1.634,0,0,0,1.5.772,1.642,1.642,0,0,0,1.484-.772,3.673,3.673,0,0,0,.5-2.013v-.164a3.625,3.625,0,0,0-.5-1.99,1.807,1.807,0,0,0-2.984,0,3.741,3.741,0,0,0-.484,1.99Zm10.2.754.188.844h.047l1.852-5.906h2.078l-3.5,9.734a4.34,4.34,0,0,1-.945,1.508,2.3,2.3,0,0,1-1.727.625,2.95,2.95,0,0,1-.5-.047q-.27-.047-.52-.109l.211-1.469.289.023q.188.016.281.016a1.042,1.042,0,0,0,.824-.352,2.988,2.988,0,0,0,.5-.812l.313-.766-3.07-8.352h2.07Zm11.43,1.867h5.227V42H36.523V30.625h1.9Zm10.141,1.688A3.675,3.675,0,0,1,45.7,40.988a4.322,4.322,0,0,1-1.066-3.02v-.312A4.488,4.488,0,0,1,45.691,34.6a3.348,3.348,0,0,1,2.652-1.207,3.3,3.3,0,0,1,2.621,1.035,4.056,4.056,0,0,1,.91,2.777V38.32H46.6l-.016.039A2.647,2.647,0,0,0,47.176,40a1.868,1.868,0,0,0,1.5.638,4.065,4.065,0,0,0,1.313-.187,4.3,4.3,0,0,0,1.055-.539l.609,1.245a3.927,3.927,0,0,1-1.266.715A5.278,5.278,0,0,1,48.563,42.164Zm-.219-7.25a1.424,1.424,0,0,0-1.156.559,2.75,2.75,0,0,0-.562,1.418l.016.039h3.352v-.2a2.023,2.023,0,0,0-.41-1.312A1.5,1.5,0,0,0,48.344,34.914Zm8.688,7.25a3.675,3.675,0,0,1-2.863-1.176,4.322,4.322,0,0,1-1.066-3.02v-.312A4.488,4.488,0,0,1,54.16,34.6a3.348,3.348,0,0,1,2.652-1.207,3.3,3.3,0,0,1,2.621,1.035,4.056,4.056,0,0,1,.91,2.777V38.32H55.07l-.016.039A2.647,2.647,0,0,0,55.645,40a1.868,1.868,0,0,0,1.5.638,4.065,4.065,0,0,0,1.313-.187,4.3,4.3,0,0,0,1.055-.539l.609,1.245a3.927,3.927,0,0,1-1.266.715A5.278,5.278,0,0,1,57.031,42.164Zm-.219-7.25a1.424,1.424,0,0,0-1.156.559,2.75,2.75,0,0,0-.562,1.418l.016.039h3.352v-.2a2.023,2.023,0,0,0-.41-1.312A1.5,1.5,0,0,0,56.813,34.914ZM66.1,42V30.625h3.688a4.769,4.769,0,0,1,3.52,1.352,4.7,4.7,0,0,1,1.355,3.477V37.18a4.682,4.682,0,0,1-1.355,3.477A4.784,4.784,0,0,1,69.789,42ZM68,32.148v8.328h1.734a2.8,2.8,0,0,0,2.223-.921,3.476,3.476,0,0,0,.809-2.381v-1.74a3.453,3.453,0,0,0-.809-2.365,2.8,2.8,0,0,0-2.223-.921ZM80,42.164a3.675,3.675,0,0,1-2.863-1.176,4.322,4.322,0,0,1-1.066-3.02v-.312A4.488,4.488,0,0,1,77.129,34.6a3.348,3.348,0,0,1,2.652-1.207A3.3,3.3,0,0,1,82.4,34.426a4.056,4.056,0,0,1,.91,2.777V38.32H78.039l-.016.039A2.647,2.647,0,0,0,78.613,40a1.868,1.868,0,0,0,1.5.638,4.065,4.065,0,0,0,1.313-.187,4.3,4.3,0,0,0,1.055-.539l.609,1.245a3.927,3.927,0,0,1-1.266.715A5.278,5.278,0,0,1,80,42.164Zm-.219-7.25a1.424,1.424,0,0,0-1.156.559,2.75,2.75,0,0,0-.562,1.418l.016.039H81.43v-.2a2.023,2.023,0,0,0-.41-1.312A1.5,1.5,0,0,0,79.781,34.914ZM89.594,39.7a.883.883,0,0,0-.375-.727,3.74,3.74,0,0,0-1.4-.508,5.8,5.8,0,0,1-2.293-.91,1.908,1.908,0,0,1-.777-1.605,2.284,2.284,0,0,1,.9-1.812,3.573,3.573,0,0,1,2.367-.75,3.707,3.707,0,0,1,2.457.762,2.256,2.256,0,0,1,.871,1.887l-.016.047h-1.82a1.191,1.191,0,0,0-.4-.9,1.532,1.532,0,0,0-1.094-.375,1.565,1.565,0,0,0-1.047.309.958.958,0,0,0-.359.754.846.846,0,0,0,.34.707,3.649,3.649,0,0,0,1.379.465,5.81,5.81,0,0,1,2.363.926,1.952,1.952,0,0,1,.77,1.629,2.216,2.216,0,0,1-.941,1.852,4.011,4.011,0,0,1-2.48.711,3.786,3.786,0,0,1-2.6-.844,2.383,2.383,0,0,1-.906-1.937l.016-.047h1.766a1.266,1.266,0,0,0,.531,1.07,2.135,2.135,0,0,0,1.219.336,1.946,1.946,0,0,0,1.133-.281A.882.882,0,0,0,89.594,39.7ZM95.188,42h-1.9V33.547h1.9Zm0-10.523h-1.9V29.813h1.9Zm1.781,6.414a5.5,5.5,0,0,1,.883-3.258,2.842,2.842,0,0,1,2.453-1.242,2.663,2.663,0,0,1,1.332.324,2.815,2.815,0,0,1,.973.934l.188-1.1h1.578V42a3.19,3.19,0,0,1-1.008,2.523,4.179,4.179,0,0,1-2.859.891,5.6,5.6,0,0,1-1.332-.176,6.188,6.188,0,0,1-1.293-.465l.406-1.492a4.6,4.6,0,0,0,1.035.379,4.96,4.96,0,0,0,1.168.137A2.169,2.169,0,0,0,102,43.355,1.762,1.762,0,0,0,102.477,42v-.867a2.656,2.656,0,0,1-.941.77,2.836,2.836,0,0,1-1.246.262,2.919,2.919,0,0,1-2.437-1.133,4.707,4.707,0,0,1-.883-2.977Zm1.9.164a3.318,3.318,0,0,0,.465,1.863,1.609,1.609,0,0,0,1.441.7,1.945,1.945,0,0,0,1.027-.254,1.874,1.874,0,0,0,.676-.73v-3.7a2.029,2.029,0,0,0-.684-.723,1.854,1.854,0,0,0-1-.262,1.561,1.561,0,0,0-1.449.82,4.224,4.224,0,0,0-.473,2.125Zm9.227-4.508.109,1.219a3.023,3.023,0,0,1,1.043-1.012,2.783,2.783,0,0,1,1.418-.363,2.66,2.66,0,0,1,2.059.8,3.592,3.592,0,0,1,.738,2.5V42h-1.9V36.7a1.9,1.9,0,0,0-.395-1.355,1.611,1.611,0,0,0-1.2-.4,1.988,1.988,0,0,0-.992.246,2.051,2.051,0,0,0-.719.676V42h-1.9V33.547ZM120.188,39.7a.883.883,0,0,0-.375-.727,3.74,3.74,0,0,0-1.4-.508,5.8,5.8,0,0,1-2.293-.91,1.908,1.908,0,0,1-.777-1.605,2.284,2.284,0,0,1,.9-1.812,3.573,3.573,0,0,1,2.367-.75,3.707,3.707,0,0,1,2.457.762,2.256,2.256,0,0,1,.871,1.887l-.016.047H120.1a1.191,1.191,0,0,0-.4-.9,1.532,1.532,0,0,0-1.094-.375,1.565,1.565,0,0,0-1.047.309.958.958,0,0,0-.359.754.846.846,0,0,0,.34.707,3.649,3.649,0,0,0,1.379.465,5.81,5.81,0,0,1,2.363.926,1.952,1.952,0,0,1,.77,1.629,2.216,2.216,0,0,1-.941,1.852,4.011,4.011,0,0,1-2.48.711,3.786,3.786,0,0,1-2.6-.844,2.383,2.383,0,0,1-.906-1.937l.016-.047h1.766a1.266,1.266,0,0,0,.531,1.07,2.135,2.135,0,0,0,1.219.336,1.946,1.946,0,0,0,1.133-.281A.882.882,0,0,0,120.188,39.7ZM3.141,79.281V84h-1.9V72.625h4.2a4.5,4.5,0,0,1,2.945.859A3,3,0,0,1,9.43,75.938a2.537,2.537,0,0,1-.457,1.52,3.136,3.136,0,0,1-1.332,1.02,2.38,2.38,0,0,1,1.383,1,3.206,3.206,0,0,1,.422,1.7v.945a3.833,3.833,0,0,0,.125.977,1.372,1.372,0,0,0,.422.727V84H8.039a1.272,1.272,0,0,1-.4-.812,6.786,6.786,0,0,1-.09-1.086v-.914a1.913,1.913,0,0,0-.5-1.391,1.826,1.826,0,0,0-1.375-.516Zm0-1.523h2.2a2.576,2.576,0,0,0,1.664-.437,1.642,1.642,0,0,0,.523-1.336,1.767,1.767,0,0,0-.516-1.348,2.212,2.212,0,0,0-1.57-.488h-2.3ZM13.617,84h-1.9V75.547h1.9Zm0-10.523h-1.9V71.813h1.9Zm1.773,6.414a5.574,5.574,0,0,1,.867-3.262A2.8,2.8,0,0,1,18.7,75.391a2.666,2.666,0,0,1,1.23.277,2.785,2.785,0,0,1,.941.793V71.813h1.9V84H21.172l-.187-1.047a2.794,2.794,0,0,1-.977.9,2.748,2.748,0,0,1-1.328.309,2.876,2.876,0,0,1-2.422-1.133,4.766,4.766,0,0,1-.867-2.977Zm1.9.164a3.4,3.4,0,0,0,.449,1.867,1.573,1.573,0,0,0,1.426.7,1.906,1.906,0,0,0,1.02-.258,1.963,1.963,0,0,0,.684-.734V77.938a2,2,0,0,0-.687-.73,1.859,1.859,0,0,0-1-.262,1.531,1.531,0,0,0-1.43.816,4.308,4.308,0,0,0-.461,2.129ZM28.43,84.164a3.675,3.675,0,0,1-2.863-1.176,4.322,4.322,0,0,1-1.066-3.02v-.312A4.488,4.488,0,0,1,25.559,76.6a3.348,3.348,0,0,1,2.652-1.207,3.3,3.3,0,0,1,2.621,1.035,4.056,4.056,0,0,1,.91,2.777V80.32H26.469l-.016.039A2.647,2.647,0,0,0,27.043,82a1.868,1.868,0,0,0,1.5.638,4.065,4.065,0,0,0,1.313-.187,4.3,4.3,0,0,0,1.055-.539l.609,1.245a3.927,3.927,0,0,1-1.266.715A5.278,5.278,0,0,1,28.43,84.164Zm-.219-7.25a1.424,1.424,0,0,0-1.156.559,2.75,2.75,0,0,0-.562,1.418l.016.039h3.352v-.2a2.023,2.023,0,0,0-.41-1.312A1.5,1.5,0,0,0,28.211,76.914Zm16.164,1.969H39.4v3.594h5.773V84H37.5V72.625h7.617v1.523H39.4v3.211h4.977Zm3.875-3.336.109,1.219A3.024,3.024,0,0,1,49.4,75.754a2.783,2.783,0,0,1,1.418-.363,2.66,2.66,0,0,1,2.059.8,3.592,3.592,0,0,1,.738,2.5V84h-1.9V78.7a1.9,1.9,0,0,0-.395-1.355,1.611,1.611,0,0,0-1.2-.4,1.988,1.988,0,0,0-.992.246,2.051,2.051,0,0,0-.719.676V84h-1.9V75.547Zm6.992,4.344a5.574,5.574,0,0,1,.867-3.262,2.8,2.8,0,0,1,2.438-1.238,2.666,2.666,0,0,1,1.23.277,2.785,2.785,0,0,1,.941.793V71.813h1.9V84H61.023l-.187-1.047a2.794,2.794,0,0,1-.977.9,2.748,2.748,0,0,1-1.328.309,2.876,2.876,0,0,1-2.422-1.133,4.766,4.766,0,0,1-.867-2.977Zm1.9.164a3.4,3.4,0,0,0,.449,1.867,1.573,1.573,0,0,0,1.426.7,1.906,1.906,0,0,0,1.02-.258,1.963,1.963,0,0,0,.684-.734V77.938a2,2,0,0,0-.687-.73,1.859,1.859,0,0,0-1-.262,1.531,1.531,0,0,0-1.43.816,4.308,4.308,0,0,0-.461,2.129Zm12.781,2.711A2.892,2.892,0,0,1,68.914,83.8a2.985,2.985,0,0,1-3.531-.5,3.994,3.994,0,0,1-.766-2.7V75.547h1.891v5.07a2.534,2.534,0,0,0,.359,1.555,1.312,1.312,0,0,0,1.086.445,2.442,2.442,0,0,0,1.152-.246,1.787,1.787,0,0,0,.73-.715V75.547h1.9V84H70.078Zm8.008-5.508-.812-.031a1.7,1.7,0,0,0-.926.234,1.543,1.543,0,0,0-.574.664V84h-1.9V75.547h1.734l.125,1.227a2.711,2.711,0,0,1,.824-1.016,1.919,1.919,0,0,1,1.16-.367,1.769,1.769,0,0,1,.32.027,2.339,2.339,0,0,1,.273.066Zm.977,2.438A4.6,4.6,0,0,1,79.938,76.6a3.945,3.945,0,0,1,5.688,0A4.564,4.564,0,0,1,86.664,79.7v.164a4.587,4.587,0,0,1-1.039,3.109,3.971,3.971,0,0,1-5.687-.008,4.6,4.6,0,0,1-1.031-3.1Zm1.9.16a3.766,3.766,0,0,0,.484,2.013,1.828,1.828,0,0,0,2.984,0,3.673,3.673,0,0,0,.5-2.013v-.164a3.625,3.625,0,0,0-.5-1.99,1.807,1.807,0,0,0-2.984,0,3.741,3.741,0,0,0-.484,1.99Zm-73.4,22.214a1.456,1.456,0,0,0-.527-1.159,4.963,4.963,0,0,0-1.863-.809,7.882,7.882,0,0,1-2.934-1.324,2.636,2.636,0,0,1-1.027-2.16,2.759,2.759,0,0,1,1.137-2.266,4.616,4.616,0,0,1,2.934-.891,4.362,4.362,0,0,1,3.012,1.012,3.019,3.019,0,0,1,1.1,2.426l-.016.047H7.4A1.832,1.832,0,0,0,6.8,95.527a2.424,2.424,0,0,0-1.7-.543,2.483,2.483,0,0,0-1.6.452,1.435,1.435,0,0,0-.559,1.169,1.278,1.278,0,0,0,.605,1.076,6.713,6.713,0,0,0,2,.811,6.673,6.673,0,0,1,2.789,1.359,2.857,2.857,0,0,1,.953,2.211,2.668,2.668,0,0,1-1.137,2.262,4.908,4.908,0,0,1-2.988.84,5.278,5.278,0,0,1-3.125-.949,2.913,2.913,0,0,1-1.3-2.59l.016-.047H2.594a1.777,1.777,0,0,0,.719,1.551,3.148,3.148,0,0,0,1.867.512,2.759,2.759,0,0,0,1.641-.424A1.343,1.343,0,0,0,7.406,102.069ZM16.148,105q-.1-.32-.168-.625a4.468,4.468,0,0,1-.09-.609,3.354,3.354,0,0,1-1.027,1,2.614,2.614,0,0,1-1.426.4,2.81,2.81,0,0,1-2.027-.68,2.468,2.468,0,0,1-.707-1.867,2.206,2.206,0,0,1,.969-1.91,4.678,4.678,0,0,1,2.727-.684h1.477v-.742a1.372,1.372,0,0,0-.391-1.039,1.55,1.55,0,0,0-1.117-.375,1.582,1.582,0,0,0-1.031.313.992.992,0,0,0-.383.8H11.125l-.008-.047a2.094,2.094,0,0,1,.895-1.773,3.79,3.79,0,0,1,2.473-.773,3.616,3.616,0,0,1,2.383.75,2.64,2.64,0,0,1,.906,2.156v3.758a6.93,6.93,0,0,0,.07,1,5.331,5.331,0,0,0,.227.941Zm-2.328-1.359a2.387,2.387,0,0,0,1.293-.359,1.81,1.81,0,0,0,.762-.82v-1.25H14.367a1.9,1.9,0,0,0-1.3.41,1.246,1.246,0,0,0-.469.965.984.984,0,0,0,.316.77A1.3,1.3,0,0,0,13.82,103.641ZM20.383,105V97.953H19.094V96.547h1.289v-.984a2.644,2.644,0,0,1,2.9-2.914,3.669,3.669,0,0,1,.555.043q.281.043.633.121l-.2,1.469q-.156-.031-.348-.055a3.381,3.381,0,0,0-.41-.023,1.167,1.167,0,0,0-.926.352,1.481,1.481,0,0,0-.309,1.008v.984H24v1.406H22.281V105Zm8.625.164a3.675,3.675,0,0,1-2.863-1.176,4.322,4.322,0,0,1-1.066-3.02v-.312A4.488,4.488,0,0,1,26.137,97.6a3.348,3.348,0,0,1,2.652-1.207,3.3,3.3,0,0,1,2.621,1.035,4.056,4.056,0,0,1,.91,2.777v1.117H27.047l-.016.039a2.647,2.647,0,0,0,.59,1.643,1.868,1.868,0,0,0,1.5.638,4.065,4.065,0,0,0,1.313-.187,4.3,4.3,0,0,0,1.055-.539l.609,1.245a3.927,3.927,0,0,1-1.266.715A5.278,5.278,0,0,1,29.008,105.164Zm-.219-7.25a1.424,1.424,0,0,0-1.156.559,2.75,2.75,0,0,0-.562,1.418l.016.039h3.352v-.2a2.023,2.023,0,0,0-.41-1.312A1.5,1.5,0,0,0,28.789,97.914ZM35.875,105h-1.9V92.813h1.9Zm4.93-3.391.188.844h.047l1.852-5.906h2.078l-3.5,9.734a4.34,4.34,0,0,1-.945,1.508,2.3,2.3,0,0,1-1.727.625,2.95,2.95,0,0,1-.5-.047q-.27-.047-.52-.109l.211-1.469.289.023q.188.016.281.016a1.042,1.042,0,0,0,.824-.352,2.988,2.988,0,0,0,.5-.812l.313-.766-3.07-8.352H39.2ZM55.18,105q-.1-.32-.168-.625a4.468,4.468,0,0,1-.09-.609,3.354,3.354,0,0,1-1.027,1,2.614,2.614,0,0,1-1.426.4,2.81,2.81,0,0,1-2.027-.68,2.468,2.468,0,0,1-.707-1.867,2.206,2.206,0,0,1,.969-1.91,4.678,4.678,0,0,1,2.727-.684h1.477v-.742a1.372,1.372,0,0,0-.391-1.039,1.55,1.55,0,0,0-1.117-.375,1.582,1.582,0,0,0-1.031.313.992.992,0,0,0-.383.8H50.156l-.008-.047a2.094,2.094,0,0,1,.895-1.773,3.79,3.79,0,0,1,2.473-.773,3.617,3.617,0,0,1,2.383.75A2.64,2.64,0,0,1,56.8,99.3v3.758a6.93,6.93,0,0,0,.07,1A5.331,5.331,0,0,0,57.1,105Zm-2.328-1.359a2.387,2.387,0,0,0,1.293-.359,1.81,1.81,0,0,0,.762-.82v-1.25H53.4a1.9,1.9,0,0,0-1.3.41,1.246,1.246,0,0,0-.469.965.984.984,0,0,0,.316.77A1.3,1.3,0,0,0,52.852,103.641Zm7.664-7.094.109,1.219a3.024,3.024,0,0,1,1.043-1.012,2.783,2.783,0,0,1,1.418-.363,2.66,2.66,0,0,1,2.059.8,3.592,3.592,0,0,1,.738,2.5V105h-1.9V99.7a1.9,1.9,0,0,0-.395-1.355,1.611,1.611,0,0,0-1.2-.4,1.988,1.988,0,0,0-.992.246,2.051,2.051,0,0,0-.719.676V105h-1.9V96.547Zm6.992,4.344a5.574,5.574,0,0,1,.867-3.262,2.8,2.8,0,0,1,2.438-1.238,2.666,2.666,0,0,1,1.23.277,2.785,2.785,0,0,1,.941.793V92.813h1.9V105H73.289l-.187-1.047a2.794,2.794,0,0,1-.977.9,2.748,2.748,0,0,1-1.328.309,2.876,2.876,0,0,1-2.422-1.133,4.766,4.766,0,0,1-.867-2.977Zm1.9.164a3.4,3.4,0,0,0,.449,1.867,1.573,1.573,0,0,0,1.426.7,1.906,1.906,0,0,0,1.02-.258,1.963,1.963,0,0,0,.684-.734V98.938a2,2,0,0,0-.687-.73,1.859,1.859,0,0,0-1-.262,1.531,1.531,0,0,0-1.43.816,4.308,4.308,0,0,0-.461,2.129ZM82.93,105h-1.9V96.547h1.9Zm0-10.523h-1.9V92.813h1.9Zm3.844,2.07.109,1.219a3.023,3.023,0,0,1,1.043-1.012,2.783,2.783,0,0,1,1.418-.363,2.66,2.66,0,0,1,2.059.8,3.592,3.592,0,0,1,.738,2.5V105h-1.9V99.7a1.9,1.9,0,0,0-.395-1.355,1.611,1.611,0,0,0-1.2-.4,1.988,1.988,0,0,0-.992.246,2.051,2.051,0,0,0-.719.676V105h-1.9V96.547Zm16.078,6.156a.883.883,0,0,0-.375-.727,3.74,3.74,0,0,0-1.4-.508,5.8,5.8,0,0,1-2.293-.91,1.908,1.908,0,0,1-.777-1.605,2.284,2.284,0,0,1,.9-1.812,3.573,3.573,0,0,1,2.367-.75,3.707,3.707,0,0,1,2.457.762,2.256,2.256,0,0,1,.871,1.887l-.016.047h-1.82a1.191,1.191,0,0,0-.4-.9,1.532,1.532,0,0,0-1.094-.375,1.565,1.565,0,0,0-1.047.309.958.958,0,0,0-.359.754.846.846,0,0,0,.34.707,3.649,3.649,0,0,0,1.379.465,5.81,5.81,0,0,1,2.363.926,1.952,1.952,0,0,1,.77,1.629,2.216,2.216,0,0,1-.941,1.852,4.011,4.011,0,0,1-2.48.711,3.786,3.786,0,0,1-2.6-.844,2.383,2.383,0,0,1-.906-1.937l.016-.047H99.57a1.266,1.266,0,0,0,.531,1.07,2.135,2.135,0,0,0,1.219.336,1.946,1.946,0,0,0,1.133-.281A.882.882,0,0,0,102.852,102.7Zm5.93-8.211v2.055H110.3v1.406h-1.516v4.672a1.019,1.019,0,0,0,.227.746.821.821,0,0,0,.6.223,1.679,1.679,0,0,0,.3-.027,1.852,1.852,0,0,0,.281-.074l.2,1.391a2.177,2.177,0,0,1-.578.207,3.214,3.214,0,0,1-.7.074,2.177,2.177,0,0,1-1.641-.613,2.686,2.686,0,0,1-.594-1.926V97.953H105.6V96.547h1.289V94.492Zm6.008,7.117.188.844h.047l1.852-5.906h2.078l-3.5,9.734a4.34,4.34,0,0,1-.945,1.508,2.3,2.3,0,0,1-1.727.625,2.95,2.95,0,0,1-.5-.047q-.27-.047-.52-.109l.211-1.469.289.023q.188.016.281.016a1.042,1.042,0,0,0,.824-.352,2.988,2.988,0,0,0,.5-.812l.313-.766-3.07-8.352h2.07ZM122.117,105h-1.9V92.813h1.9Zm5.75.164A3.675,3.675,0,0,1,125,103.988a4.322,4.322,0,0,1-1.066-3.02v-.312A4.488,4.488,0,0,1,125,97.6a3.348,3.348,0,0,1,2.652-1.207,3.3,3.3,0,0,1,2.621,1.035,4.056,4.056,0,0,1,.91,2.777v1.117h-5.273l-.016.039a2.647,2.647,0,0,0,.59,1.643,1.868,1.868,0,0,0,1.5.638,4.065,4.065,0,0,0,1.313-.187,4.3,4.3,0,0,0,1.055-.539l.609,1.245a3.927,3.927,0,0,1-1.266.715A5.278,5.278,0,0,1,127.867,105.164Zm-.219-7.25a1.424,1.424,0,0,0-1.156.559,2.75,2.75,0,0,0-.562,1.418l.016.039H129.3v-.2a2.023,2.023,0,0,0-.41-1.312A1.5,1.5,0,0,0,127.648,97.914Z" transform="translate(-0.242 12.188)"/>
</svg>
