<svg xmlns="http://www.w3.org/2000/svg" viewBox="0 0 229.25 141.797"><defs><style>.a{fill:#eee;}</style></defs><path class="a" d="M24.953,20.391a11.425,11.425,0,0,1-1.484,5.82,10.824,10.824,0,0,1-3.75,3.945,11.5,11.5,0,0,1-3.734,1.438A24.849,24.849,0,0,1,11.172,32h-8.2V8.734h8.438a22.043,22.043,0,0,1,4.906.477,11.4,11.4,0,0,1,3.469,1.352,10.563,10.563,0,0,1,3.789,3.961A11.9,11.9,0,0,1,24.953,20.391Zm-6.2-.047a8.534,8.534,0,0,0-.836-3.93,5.835,5.835,0,0,0-2.648-2.555,6.878,6.878,0,0,0-1.883-.617,18.739,18.739,0,0,0-2.9-.164H8.969V27.641h1.516a18.069,18.069,0,0,0,3.141-.2,6.852,6.852,0,0,0,1.953-.711,5.778,5.778,0,0,0,2.406-2.508A8.819,8.819,0,0,0,18.75,20.344ZM46.5,24.266H33.625a4.047,4.047,0,0,0,1.57,3.156,6.985,6.985,0,0,0,4.258,1.094,9.572,9.572,0,0,0,3.453-.641A10.814,10.814,0,0,0,45.547,26.5h.625v4.516a20.891,20.891,0,0,1-3.594,1.109,18.751,18.751,0,0,1-3.734.344q-5.281,0-8.094-2.375a8.364,8.364,0,0,1-2.812-6.766A9.058,9.058,0,0,1,30.6,16.445a10.153,10.153,0,0,1,7.3-2.539q4.281,0,6.438,2.164A8.446,8.446,0,0,1,46.5,22.3Zm-5.594-3.3a3.937,3.937,0,0,0-.875-2.656,3.364,3.364,0,0,0-2.578-.891,4.123,4.123,0,0,0-2.672.844,3.6,3.6,0,0,0-1.172,2.7Zm27.875,2.016a11.255,11.255,0,0,1-.663,3.953,8.706,8.706,0,0,1-1.74,2.938,7.616,7.616,0,0,1-2.544,1.844,7.471,7.471,0,0,1-3.043.625,8.771,8.771,0,0,1-2.544-.32,12.26,12.26,0,0,1-2.138-.9v7.313H50.469V14.453h5.641v1.828a13.655,13.655,0,0,1,2.645-1.672,7.183,7.183,0,0,1,3.113-.641,6.019,6.019,0,0,1,5.1,2.406A10.733,10.733,0,0,1,68.781,22.984Zm-5.8.117a6.219,6.219,0,0,0-.873-3.713,3.236,3.236,0,0,0-2.759-1.154,5.916,5.916,0,0,0-1.637.242,6.853,6.853,0,0,0-1.606.694v8.814a4.5,4.5,0,0,0,1.2.281q.639.062,1.263.062a4.087,4.087,0,0,0,3.321-1.3A6,6,0,0,0,62.984,23.1Zm27.8.133a9.151,9.151,0,0,1-2.523,6.82,9.651,9.651,0,0,1-7.086,2.492,9.651,9.651,0,0,1-7.086-2.492,9.151,9.151,0,0,1-2.523-6.82A9.135,9.135,0,0,1,74.1,16.391a9.68,9.68,0,0,1,7.07-2.484q4.594,0,7.1,2.5A9.21,9.21,0,0,1,90.781,23.234ZM83.859,27.5a4.514,4.514,0,0,0,.82-1.617,9.836,9.836,0,0,0,.273-2.617,10.165,10.165,0,0,0-.281-2.594A4.539,4.539,0,0,0,83.891,19a2.741,2.741,0,0,0-1.2-.906,4.254,4.254,0,0,0-1.516-.266,4.413,4.413,0,0,0-1.445.219,2.921,2.921,0,0,0-1.211.875,4.476,4.476,0,0,0-.82,1.672,9.873,9.873,0,0,0-.3,2.672,10.3,10.3,0,0,0,.266,2.492,4.379,4.379,0,0,0,.781,1.7,2.972,2.972,0,0,0,1.2.891,4.441,4.441,0,0,0,3.047.023A2.676,2.676,0,0,0,83.859,27.5Zm26.2-1.062a5.086,5.086,0,0,1-2.437,4.383,11.687,11.687,0,0,1-6.672,1.664,19.035,19.035,0,0,1-4.25-.437,16.2,16.2,0,0,1-3.062-.969V26.453h.516q.422.3.977.648a9.921,9.921,0,0,0,1.57.758,12.955,12.955,0,0,0,1.984.617,10.473,10.473,0,0,0,2.375.258,6.177,6.177,0,0,0,2.453-.367,1.169,1.169,0,0,0,.8-1.086,1.01,1.01,0,0,0-.469-.93,6.115,6.115,0,0,0-1.781-.555q-.625-.141-1.7-.3a18.22,18.22,0,0,1-1.945-.4,6.9,6.9,0,0,1-3.547-1.945,4.813,4.813,0,0,1-1.156-3.289,4.991,4.991,0,0,1,2.4-4.211,11.257,11.257,0,0,1,6.555-1.68,17.458,17.458,0,0,1,3.773.4,15.267,15.267,0,0,1,2.82.852v4.438h-.484a11.447,11.447,0,0,0-2.852-1.4,10.1,10.1,0,0,0-3.242-.539,6.139,6.139,0,0,0-2.289.375q-.93.375-.93,1.063a1.135,1.135,0,0,0,.422.953,5.741,5.741,0,0,0,1.984.656q.859.172,1.852.336t1.992.414A6.26,6.26,0,0,1,109,23.336,4.6,4.6,0,0,1,110.063,26.438ZM119.438,32H113.8V14.453h5.641Zm.156-20.047h-5.953V7.688h5.953Zm16.359,19.892a15.956,15.956,0,0,1-1.922.366,19.67,19.67,0,0,1-2.484.132,7.538,7.538,0,0,1-4.883-1.328q-1.6-1.328-1.6-4.547v-8.2H122.75V14.453h2.313V9.438H130.7v5.016h5.25v3.813H130.7v6.228q0,.923.016,1.612a3.319,3.319,0,0,0,.249,1.236,1.73,1.73,0,0,0,.771.868,3.265,3.265,0,0,0,1.612.321A6.423,6.423,0,0,0,135.486,28h.467Zm24.922-4.435V23.766q-1.141.094-2.469.257a11.9,11.9,0,0,0-2.016.382,2.777,2.777,0,0,0-1.289.771,1.943,1.943,0,0,0-.445,1.332,3.455,3.455,0,0,0,.094.888,1.334,1.334,0,0,0,.469.654,2.28,2.28,0,0,0,.859.459,5.989,5.989,0,0,0,1.563.148,4.632,4.632,0,0,0,1.711-.343A5.348,5.348,0,0,0,160.875,27.41Zm0,2.73q-.453.344-1.125.828a8.193,8.193,0,0,1-1.266.766,7.979,7.979,0,0,1-1.719.555,9.889,9.889,0,0,1-1.953.18,5.964,5.964,0,0,1-4.187-1.547,5.124,5.124,0,0,1-1.687-3.953,5.328,5.328,0,0,1,.859-3.141,5.766,5.766,0,0,1,2.438-1.922,13.778,13.778,0,0,1,3.875-1q2.313-.3,4.8-.437v-.094a2.022,2.022,0,0,0-1.187-2.008,8.586,8.586,0,0,0-3.5-.555,9.991,9.991,0,0,0-2.969.492q-1.578.492-2.266.758h-.516V14.828q.891-.234,2.9-.555a25.5,25.5,0,0,1,4.023-.32q4.8,0,6.93,1.477a5.24,5.24,0,0,1,2.133,4.633V32h-5.578Zm26-3.7a5.086,5.086,0,0,1-2.437,4.383,11.687,11.687,0,0,1-6.672,1.664,19.035,19.035,0,0,1-4.25-.437,16.2,16.2,0,0,1-3.062-.969V26.453h.516q.422.3.977.648a9.922,9.922,0,0,0,1.57.758,12.955,12.955,0,0,0,1.984.617,10.473,10.473,0,0,0,2.375.258,6.177,6.177,0,0,0,2.453-.367,1.169,1.169,0,0,0,.8-1.086,1.01,1.01,0,0,0-.469-.93,6.115,6.115,0,0,0-1.781-.555q-.625-.141-1.7-.3a18.219,18.219,0,0,1-1.945-.4,6.9,6.9,0,0,1-3.547-1.945,4.813,4.813,0,0,1-1.156-3.289,4.991,4.991,0,0,1,2.4-4.211,11.257,11.257,0,0,1,6.555-1.68,17.458,17.458,0,0,1,3.773.4,15.267,15.267,0,0,1,2.82.852v4.438h-.484a11.447,11.447,0,0,0-2.852-1.4,10.1,10.1,0,0,0-3.242-.539,6.139,6.139,0,0,0-2.289.375q-.93.375-.93,1.063a1.135,1.135,0,0,0,.422.953,5.741,5.741,0,0,0,1.984.656q.859.172,1.852.336t1.992.414a6.26,6.26,0,0,1,3.281,1.82A4.6,4.6,0,0,1,186.875,26.438ZM8.3,71H2.656V46.688H8.3Zm23.234-8.766a9.151,9.151,0,0,1-2.523,6.82,9.651,9.651,0,0,1-7.086,2.492,9.651,9.651,0,0,1-7.086-2.492,9.151,9.151,0,0,1-2.523-6.82,9.135,9.135,0,0,1,2.539-6.844,9.68,9.68,0,0,1,7.07-2.484q4.594,0,7.1,2.5A9.21,9.21,0,0,1,31.531,62.234ZM24.609,66.5a4.514,4.514,0,0,0,.82-1.617,9.836,9.836,0,0,0,.273-2.617,10.165,10.165,0,0,0-.281-2.594A4.539,4.539,0,0,0,24.641,58a2.741,2.741,0,0,0-1.2-.906,4.254,4.254,0,0,0-1.516-.266,4.413,4.413,0,0,0-1.445.219,2.921,2.921,0,0,0-1.211.875,4.476,4.476,0,0,0-.82,1.672,9.873,9.873,0,0,0-.3,2.672,10.3,10.3,0,0,0,.266,2.492,4.379,4.379,0,0,0,.781,1.7,2.972,2.972,0,0,0,1.2.891,4.441,4.441,0,0,0,3.047.023A2.676,2.676,0,0,0,24.609,66.5ZM63.547,53.453,58.109,71H52.138L48.563,59.172,45.031,71H39L33.609,53.453h5.9l3.012,12.094,3.743-12.094H51.25l3.56,12.094,2.963-12.094ZM88.469,66.41V62.766q-1.141.094-2.469.257a11.905,11.905,0,0,0-2.016.382,2.777,2.777,0,0,0-1.289.771,1.943,1.943,0,0,0-.445,1.332,3.455,3.455,0,0,0,.094.888,1.334,1.334,0,0,0,.469.654,2.28,2.28,0,0,0,.859.459,5.989,5.989,0,0,0,1.563.148,4.632,4.632,0,0,0,1.711-.343A5.348,5.348,0,0,0,88.469,66.41Zm0,2.73q-.453.344-1.125.828a8.192,8.192,0,0,1-1.266.766,7.978,7.978,0,0,1-1.719.555,9.89,9.89,0,0,1-1.953.18,5.964,5.964,0,0,1-4.187-1.547,5.124,5.124,0,0,1-1.687-3.953,5.328,5.328,0,0,1,.859-3.141,5.766,5.766,0,0,1,2.438-1.922,13.778,13.778,0,0,1,3.875-1q2.312-.3,4.8-.437v-.094a2.022,2.022,0,0,0-1.187-2.008,8.586,8.586,0,0,0-3.5-.555,9.991,9.991,0,0,0-2.969.492q-1.578.492-2.266.758h-.516V53.828q.891-.234,2.9-.555a25.5,25.5,0,0,1,4.023-.32q4.8,0,6.93,1.477a5.24,5.24,0,0,1,2.133,4.633V71H88.469Zm26-3.7a5.086,5.086,0,0,1-2.437,4.383,11.687,11.687,0,0,1-6.672,1.664,19.035,19.035,0,0,1-4.25-.437,16.2,16.2,0,0,1-3.062-.969V65.453h.516q.422.3.977.648a9.921,9.921,0,0,0,1.57.758,12.955,12.955,0,0,0,1.984.617,10.473,10.473,0,0,0,2.375.258,6.177,6.177,0,0,0,2.453-.367,1.169,1.169,0,0,0,.8-1.086,1.01,1.01,0,0,0-.469-.93,6.115,6.115,0,0,0-1.781-.555q-.625-.141-1.7-.3a18.22,18.22,0,0,1-1.945-.4,6.9,6.9,0,0,1-3.547-1.945,4.813,4.813,0,0,1-1.156-3.289,4.991,4.991,0,0,1,2.4-4.211,11.257,11.257,0,0,1,6.555-1.68,17.458,17.458,0,0,1,3.773.4,15.267,15.267,0,0,1,2.82.852v4.438h-.484a11.447,11.447,0,0,0-2.852-1.4,10.1,10.1,0,0,0-3.242-.539,6.139,6.139,0,0,0-2.289.375q-.93.375-.93,1.063a1.135,1.135,0,0,0,.422.953,5.741,5.741,0,0,0,1.984.656q.859.172,1.852.336t1.992.414a6.26,6.26,0,0,1,3.281,1.82A4.6,4.6,0,0,1,114.469,65.438ZM147.188,71h-18.3V66.609a4.072,4.072,0,0,0,2.594-1.656,6.854,6.854,0,0,0,.656-3.375h-2.75V58.188h2.75V54.109a6.106,6.106,0,0,1,2.3-4.906,9.192,9.192,0,0,1,6.086-1.922,19.96,19.96,0,0,1,3.523.258q1.4.258,2.227.492v4.875h-.7a9.248,9.248,0,0,0-2.234-1.027,7.089,7.089,0,0,0-1.953-.3,3.678,3.678,0,0,0-2.617.927,3.379,3.379,0,0,0-.992,2.6v3.086h6.828v3.391h-6.828a5.861,5.861,0,0,1-.742,2.781,4.731,4.731,0,0,1-1.9,2.016v.172h12.047Zm21.734,0H153.391V66.938H158.3v-12.3h-4.906v-3.8a16.88,16.88,0,0,0,2.156-.133,5.7,5.7,0,0,0,1.719-.461,2.907,2.907,0,0,0,1.219-1.016,3.216,3.216,0,0,0,.469-1.562h5.172V66.938h4.8Zm24.063-11.648a23.68,23.68,0,0,1-.531,5.261A9.886,9.886,0,0,1,190.8,68.42a7.232,7.232,0,0,1-2.969,2.291,13.181,13.181,0,0,1-8.922-.008,7.091,7.091,0,0,1-2.984-2.314,9.852,9.852,0,0,1-1.672-3.807,23.721,23.721,0,0,1-.516-5.214,23.006,23.006,0,0,1,.531-5.269,10.171,10.171,0,0,1,1.688-3.784,7.086,7.086,0,0,1,3-2.3,11.455,11.455,0,0,1,4.406-.766,11.237,11.237,0,0,1,4.484.79,7.2,7.2,0,0,1,2.969,2.353,9.99,9.99,0,0,1,1.656,3.776A23.294,23.294,0,0,1,192.984,59.352Zm-6.047,0a15.575,15.575,0,0,0-.828-6.014,3.007,3.007,0,0,0-5.5,0,15.688,15.688,0,0,0-.828,6.045,15.35,15.35,0,0,0,.844,5.975,2.958,2.958,0,0,0,5.469,0A15.46,15.46,0,0,0,186.938,59.352Zm28.8,0a23.68,23.68,0,0,1-.531,5.261,9.886,9.886,0,0,1-1.656,3.807,7.232,7.232,0,0,1-2.969,2.291,13.181,13.181,0,0,1-8.922-.008,7.091,7.091,0,0,1-2.984-2.314A9.852,9.852,0,0,1,197,64.582a23.721,23.721,0,0,1-.516-5.214,23.006,23.006,0,0,1,.531-5.269,10.171,10.171,0,0,1,1.688-3.784,7.086,7.086,0,0,1,3-2.3,11.455,11.455,0,0,1,4.406-.766,11.237,11.237,0,0,1,4.484.79,7.2,7.2,0,0,1,2.969,2.353,9.99,9.99,0,0,1,1.656,3.776A23.294,23.294,0,0,1,215.734,59.352Zm-6.047,0a15.575,15.575,0,0,0-.828-6.014,3.007,3.007,0,0,0-5.5,0,15.688,15.688,0,0,0-.828,6.045,15.35,15.35,0,0,0,.844,5.975,2.958,2.958,0,0,0,5.469,0A15.46,15.46,0,0,0,209.688,59.352ZM13.281,105.41v-3.645q-1.141.094-2.469.257A11.905,11.905,0,0,0,8.8,102.4a2.776,2.776,0,0,0-1.289.771,1.943,1.943,0,0,0-.445,1.332,3.455,3.455,0,0,0,.094.888,1.334,1.334,0,0,0,.469.654,2.28,2.28,0,0,0,.859.459,5.989,5.989,0,0,0,1.563.148,4.632,4.632,0,0,0,1.711-.343A5.348,5.348,0,0,0,13.281,105.41Zm0,2.73q-.453.344-1.125.828a8.193,8.193,0,0,1-1.266.766,7.978,7.978,0,0,1-1.719.555,9.89,9.89,0,0,1-1.953.18,5.964,5.964,0,0,1-4.187-1.547,5.124,5.124,0,0,1-1.687-3.953,5.328,5.328,0,0,1,.859-3.141,5.766,5.766,0,0,1,2.438-1.922,13.778,13.778,0,0,1,3.875-1q2.312-.3,4.8-.437v-.094a2.022,2.022,0,0,0-1.187-2.008,8.586,8.586,0,0,0-3.5-.555,9.991,9.991,0,0,0-2.969.492q-1.578.492-2.266.758H2.875V92.828q.891-.234,2.9-.555a25.5,25.5,0,0,1,4.023-.32q4.8,0,6.93,1.477a5.24,5.24,0,0,1,2.133,4.633V110H13.281ZM41.656,110H36.016v-8.7a20.511,20.511,0,0,0-.109-2.117,4.461,4.461,0,0,0-.375-1.555,1.871,1.871,0,0,0-.914-.844,4.268,4.268,0,0,0-1.68-.266,5.128,5.128,0,0,0-1.555.25,8.352,8.352,0,0,0-1.711.8V110H24.031V92.453h5.641v1.938a14.331,14.331,0,0,1,2.879-1.8,7.352,7.352,0,0,1,3.066-.625,5.883,5.883,0,0,1,4.44,1.656,6.873,6.873,0,0,1,1.6,4.953Zm22.234,0H58.25v-1.828a12.292,12.292,0,0,1-2.715,1.75,7.116,7.116,0,0,1-2.918.563,6.157,6.157,0,0,1-5.119-2.469,10.566,10.566,0,0,1-1.92-6.656,11.234,11.234,0,0,1,.648-3.961A9.077,9.077,0,0,1,48,94.438a7.3,7.3,0,0,1,2.575-1.82,7.635,7.635,0,0,1,3.027-.648,8.31,8.31,0,0,1,2.583.336,17.217,17.217,0,0,1,2.068.852V85.688h5.641Zm-5.641-4.83V96.548A5.532,5.532,0,0,0,57,96.188a7.324,7.324,0,0,0-1.2-.109,4,4,0,0,0-3.321,1.385,6,6,0,0,0-1.107,3.842,6.239,6.239,0,0,0,.889,3.748,3.358,3.358,0,0,0,2.853,1.166,5.074,5.074,0,0,0,1.621-.29A5.713,5.713,0,0,0,58.25,105.17ZM97.2,107.984a10.827,10.827,0,0,1-.7,4.156,6.2,6.2,0,0,1-1.969,2.641,8.048,8.048,0,0,1-3.055,1.4,17.344,17.344,0,0,1-4.039.43,29.393,29.393,0,0,1-3.6-.219,27.833,27.833,0,0,1-3.07-.531v-4.391h.687a17.451,17.451,0,0,0,2.512.742,12.138,12.138,0,0,0,2.652.336,9.151,9.151,0,0,0,2.536-.289,3.362,3.362,0,0,0,1.49-.82,2.942,2.942,0,0,0,.7-1.281,7.032,7.032,0,0,0,.218-1.875v-.328a8.371,8.371,0,0,1-2.247,1.313,7.454,7.454,0,0,1-2.747.484,7.249,7.249,0,0,1-5.68-2.219q-2-2.219-2-6.75a10.415,10.415,0,0,1,.609-3.75,8.306,8.306,0,0,1,1.717-2.75,7.071,7.071,0,0,1,2.536-1.7,8.148,8.148,0,0,1,3.082-.609,9.289,9.289,0,0,1,2.583.336,8.353,8.353,0,0,1,2.115.93l.2-.781H97.2Zm-5.641-3.516V96.516a5.372,5.372,0,0,0-1.185-.32,7.737,7.737,0,0,0-1.263-.117,4.163,4.163,0,0,0-3.321,1.273,5.244,5.244,0,0,0-1.107,3.555,5.14,5.14,0,0,0,.943,3.531,3.667,3.667,0,0,0,2.8,1,5.275,5.275,0,0,0,1.652-.266A6.264,6.264,0,0,0,91.563,104.469Zm28.234-2.2H106.922a4.047,4.047,0,0,0,1.57,3.156,6.985,6.985,0,0,0,4.258,1.094,9.572,9.572,0,0,0,3.453-.641,10.814,10.814,0,0,0,2.641-1.375h.625v4.516a20.891,20.891,0,0,1-3.594,1.109,18.751,18.751,0,0,1-3.734.344q-5.281,0-8.094-2.375a8.364,8.364,0,0,1-2.812-6.766,9.058,9.058,0,0,1,2.664-6.883,10.153,10.153,0,0,1,7.3-2.539q4.281,0,6.438,2.164A8.446,8.446,0,0,1,119.8,100.3Zm-5.594-3.3a3.937,3.937,0,0,0-.875-2.656,3.364,3.364,0,0,0-2.578-.891,4.123,4.123,0,0,0-2.672.844,3.6,3.6,0,0,0-1.172,2.7Zm20.781,10.877a15.957,15.957,0,0,1-1.922.366,19.669,19.669,0,0,1-2.484.132,7.538,7.538,0,0,1-4.883-1.328q-1.6-1.328-1.6-4.547v-8.2h-2.312V92.453h2.313V87.438h5.641v5.016h5.25v3.813h-5.25v6.228q0,.923.016,1.612a3.319,3.319,0,0,0,.249,1.236,1.73,1.73,0,0,0,.771.868,3.265,3.265,0,0,0,1.612.321,6.423,6.423,0,0,0,2.134-.531h.467Zm32.3-7.72a8.313,8.313,0,0,1-.68,3.367,7.325,7.325,0,0,1-1.977,2.664,9.474,9.474,0,0,1-3.3,1.758,14.578,14.578,0,0,1-4.258.57,22.722,22.722,0,0,1-4.727-.445,17.649,17.649,0,0,1-3.148-.961v-5.141h.656a16.411,16.411,0,0,0,3.063,1.406,10.018,10.018,0,0,0,3.266.563,11.065,11.065,0,0,0,2.133-.227,3.8,3.8,0,0,0,1.82-.82,3.871,3.871,0,0,0,.8-.984,3.35,3.35,0,0,0,.273-1.547,2.58,2.58,0,0,0-.367-1.4,2.927,2.927,0,0,0-.945-.945,5.227,5.227,0,0,0-2.031-.68,15.88,15.88,0,0,0-2.156-.164,14.574,14.574,0,0,0-2.7.242q-1.289.242-2.258.477h-.687V86.734h16.547v4.453H155.7v3.8q.484-.031,1.227-.055t1.3-.023a14.547,14.547,0,0,1,3.43.367,9.321,9.321,0,0,1,2.6,1.023,6.149,6.149,0,0,1,2.219,2.273A7.165,7.165,0,0,1,167.281,102.125Zm23.094-3.773a23.68,23.68,0,0,1-.531,5.261,9.886,9.886,0,0,1-1.656,3.807,7.232,7.232,0,0,1-2.969,2.291,13.181,13.181,0,0,1-8.922-.008,7.091,7.091,0,0,1-2.984-2.314,9.852,9.852,0,0,1-1.672-3.807,23.721,23.721,0,0,1-.516-5.214,23.006,23.006,0,0,1,.531-5.269,10.171,10.171,0,0,1,1.688-3.784,7.086,7.086,0,0,1,3-2.3,11.455,11.455,0,0,1,4.406-.766,11.237,11.237,0,0,1,4.484.79,7.2,7.2,0,0,1,2.969,2.353,9.99,9.99,0,0,1,1.656,3.776A23.294,23.294,0,0,1,190.375,98.352Zm-6.047,0a15.575,15.575,0,0,0-.828-6.014,3.007,3.007,0,0,0-5.5,0,15.688,15.688,0,0,0-.828,6.045,15.35,15.35,0,0,0,.844,5.975,2.958,2.958,0,0,0,5.469,0A15.46,15.46,0,0,0,184.328,98.352Zm24.188-4.539q0,3.891-1.8,5.766a6.916,6.916,0,0,1-5.234,1.875,6.992,6.992,0,0,1-5.336-1.9q-1.789-1.9-1.789-5.68,0-3.859,1.828-5.727a7.084,7.084,0,0,1,5.3-1.867,6.913,6.913,0,0,1,5.266,1.867Q208.516,90.016,208.516,93.813ZM220.7,86.734,208.511,110h-4.2L216.5,86.734Zm9.891,16.109q0,3.891-1.8,5.766a6.916,6.916,0,0,1-5.234,1.875,6.992,6.992,0,0,1-5.336-1.9q-1.789-1.9-1.789-5.68,0-3.859,1.828-5.727a7.084,7.084,0,0,1,5.3-1.867,6.913,6.913,0,0,1,5.266,1.867Q230.594,99.047,230.594,102.844Zm-26.687-8.992a6.749,6.749,0,0,0-.578-3.381,2.477,2.477,0,0,0-3.781,0,6.793,6.793,0,0,0-.578,3.4,6.793,6.793,0,0,0,.578,3.4,2.477,2.477,0,0,0,3.781,0A6.837,6.837,0,0,0,203.906,93.852Zm22.078,9.031a6.749,6.749,0,0,0-.578-3.381,2.477,2.477,0,0,0-3.781,0,6.793,6.793,0,0,0-.578,3.4,6.793,6.793,0,0,0,.578,3.4,2.477,2.477,0,0,0,3.781,0A6.837,6.837,0,0,0,225.984,102.883ZM19.641,130.234H8.938v4.328h9.922v4.5H8.938V149H2.969V125.734H19.641Zm17.188,2.625a2.961,2.961,0,0,0-.359-1.5,2.409,2.409,0,0,0-1.234-.984,4.543,4.543,0,0,0-1.422-.3q-.813-.055-1.891-.055H29.75v6.266h1.844A17.182,17.182,0,0,0,34,136.141a3.447,3.447,0,0,0,1.625-.641,3.114,3.114,0,0,0,.914-1.07A3.582,3.582,0,0,0,36.828,132.859ZM46.188,149H38.859l-6.329-8.531H29.75V149H23.781V125.734H33.844a23.117,23.117,0,0,1,3.547.234,7.656,7.656,0,0,1,2.781,1.016,6.067,6.067,0,0,1,2.086,2.023,5.8,5.8,0,0,1,.773,3.117,6.916,6.916,0,0,1-1.2,4.2,9.019,9.019,0,0,1-3.414,2.7Zm19.453,0H48.813V125.734H65.641v4.5H54.781v4.016H64.859v4.5H54.781v5.75H65.641ZM87.5,149H70.672V125.734H87.5v4.5H76.641v4.016H86.719v4.5H76.641v5.75H87.5Zm35.875-7.125a6.525,6.525,0,0,1-.68,3.016,6.214,6.214,0,0,1-1.867,2.2,8.726,8.726,0,0,1-3.023,1.469,16.658,16.658,0,0,1-4.18.438H103.469V125.734H112.5a32.128,32.128,0,0,1,4.117.188,8.454,8.454,0,0,1,2.586.828,4.579,4.579,0,0,1,1.977,1.8,5.447,5.447,0,0,1-.242,5.563,5.838,5.838,0,0,1-2.516,2.008v.125a6.556,6.556,0,0,1,3.617,1.875A5.254,5.254,0,0,1,123.375,141.875Zm-7.687-9.562a2.566,2.566,0,0,0-.289-1.156,1.8,1.8,0,0,0-1.023-.859,4.959,4.959,0,0,0-1.633-.273Q111.766,130,110,130h-.562v4.922h.938q1.422,0,2.422-.047a4.344,4.344,0,0,0,1.578-.312,1.932,1.932,0,0,0,1.063-.93A3.263,3.263,0,0,0,115.688,132.313Zm1.453,9.469a2.918,2.918,0,0,0-.429-1.711,2.6,2.6,0,0,0-1.458-.9,7.6,7.6,0,0,0-1.934-.219q-1.232-.016-2.573-.016h-1.31v5.8h.437q2.526,0,3.618-.016a5.293,5.293,0,0,0,2.012-.406,2.46,2.46,0,0,0,1.286-1.039A3.086,3.086,0,0,0,117.141,141.781Zm33.328-4.406a12.123,12.123,0,0,1-3.187,8.836q-3.187,3.273-8.812,3.273-5.609,0-8.8-3.273a12.123,12.123,0,0,1-3.187-8.836q0-5.609,3.188-8.867t8.8-3.258q5.594,0,8.8,3.258T150.469,137.375Zm-7.953,5.891a6.96,6.96,0,0,0,1.3-2.508,12.193,12.193,0,0,0,.422-3.4,11.459,11.459,0,0,0-.484-3.562,6.914,6.914,0,0,0-1.266-2.375,4.739,4.739,0,0,0-1.836-1.359,5.822,5.822,0,0,0-4.312-.016,5.031,5.031,0,0,0-1.852,1.344,6.613,6.613,0,0,0-1.273,2.414,11.737,11.737,0,0,0-.492,3.57,11.5,11.5,0,0,0,.477,3.539,7,7,0,0,0,1.258,2.383,4.809,4.809,0,0,0,1.828,1.359,5.657,5.657,0,0,0,2.2.438,5.571,5.571,0,0,0,2.2-.445A4.82,4.82,0,0,0,142.516,143.266ZM176.2,149h-5.781l-9.875-15.969V149h-5.5V125.734h7.172l8.484,13.328V125.734h5.5Zm26.313-8.422a8.312,8.312,0,0,1-2.625,6.609q-2.625,2.3-7.734,2.3t-7.727-2.3a8.3,8.3,0,0,1-2.617-6.594V125.734h6.031V140.25a5.447,5.447,0,0,0,1.016,3.609,4.119,4.119,0,0,0,3.3,1.188,4.248,4.248,0,0,0,3.289-1.141,5.333,5.333,0,0,0,1.039-3.656V125.734h6.031Zm24.234,1.109a6.638,6.638,0,0,1-2.914,5.586,13.066,13.066,0,0,1-7.914,2.148,22.1,22.1,0,0,1-5.039-.508,25.99,25.99,0,0,1-4.023-1.289v-5.578h.656a13.9,13.9,0,0,0,4.164,2.281,13.538,13.538,0,0,0,4.43.8,14.372,14.372,0,0,0,1.438-.094,5.745,5.745,0,0,0,1.453-.312,3.618,3.618,0,0,0,1.133-.7,1.642,1.642,0,0,0,.445-1.25,1.686,1.686,0,0,0-.648-1.32,4.507,4.507,0,0,0-1.9-.852q-1.312-.312-2.773-.586a21.291,21.291,0,0,1-2.742-.7,8.612,8.612,0,0,1-4.227-2.586A6.34,6.34,0,0,1,207,132.672a6.239,6.239,0,0,1,2.914-5.3,12.709,12.709,0,0,1,7.492-2.055,23.245,23.245,0,0,1,4.539.445,21.214,21.214,0,0,1,3.883,1.117v5.359h-.641a12.368,12.368,0,0,0-3.445-1.883,11.865,11.865,0,0,0-4.164-.758,10.994,10.994,0,0,0-1.492.1,5.858,5.858,0,0,0-1.43.383,2.734,2.734,0,0,0-1.047.711,1.561,1.561,0,0,0-.437,1.086,1.621,1.621,0,0,0,.7,1.414,7.876,7.876,0,0,0,2.656.9q1.281.266,2.461.516a25.786,25.786,0,0,1,2.539.688,8.485,8.485,0,0,1,3.945,2.383A5.859,5.859,0,0,1,226.75,141.688Z" transform="translate(-1.344 -7.688)"/></svg>