<svg xmlns="http://www.w3.org/2000/svg" viewBox="0 0 243.672 102.297"><defs><style>.a{fill:#eee;}</style></defs><path class="a" d="M19.8,32H2.969V8.734H19.8v4.5H8.938V17.25H19.016v4.5H8.938V27.5H19.8Zm26.531,0h-6.2l-1.621-4.7H29.9L28.281,32H22.234L30.828,8.734h6.906Zm-9.259-8.969L34.207,14.7l-2.863,8.335Zm25.65-7.172a2.961,2.961,0,0,0-.359-1.5,2.409,2.409,0,0,0-1.234-.984,4.543,4.543,0,0,0-1.422-.3q-.813-.055-1.891-.055H55.641v6.266h1.844a17.182,17.182,0,0,0,2.406-.141,3.447,3.447,0,0,0,1.625-.641,3.114,3.114,0,0,0,.914-1.07A3.582,3.582,0,0,0,62.719,15.859ZM72.078,32H64.75L58.42,23.469h-2.78V32H49.672V8.734H59.734a23.117,23.117,0,0,1,3.547.234,7.656,7.656,0,0,1,2.781,1.016,6.067,6.067,0,0,1,2.086,2.023,5.8,5.8,0,0,1,.773,3.117,6.916,6.916,0,0,1-1.2,4.2,9.019,9.019,0,0,1-3.414,2.7Zm23.781,0H90.078L80.2,16.031V32H74.7V8.734h7.172l8.484,13.328V8.734h5.5Zm37.25-8.422a8.312,8.312,0,0,1-2.625,6.609q-2.625,2.3-7.734,2.3t-7.727-2.3a8.3,8.3,0,0,1-2.617-6.594V8.734h6.031V23.25a5.447,5.447,0,0,0,1.016,3.609,4.119,4.119,0,0,0,3.3,1.188,4.248,4.248,0,0,0,3.289-1.141,5.333,5.333,0,0,0,1.039-3.656V8.734h6.031Zm24.813-7.5a8.812,8.812,0,0,1-.547,3.055,6.794,6.794,0,0,1-1.562,2.508,9.553,9.553,0,0,1-3.1,2.078,11.249,11.249,0,0,1-4.258.7h-3.734V32h-6V8.734h9.875a15.607,15.607,0,0,1,3.742.383,8.813,8.813,0,0,1,2.7,1.148,6.178,6.178,0,0,1,2.148,2.359A7.445,7.445,0,0,1,157.922,16.078Zm-6.2.134a2.742,2.742,0,0,0-.531-1.692,2.882,2.882,0,0,0-1.234-.99,5.579,5.579,0,0,0-1.828-.413q-.891-.039-2.375-.039h-1.031v6.953h1.719a14.012,14.012,0,0,0,2.523-.187,3.578,3.578,0,0,0,1.664-.748,2.882,2.882,0,0,0,.836-1.193A4.878,4.878,0,0,0,151.719,16.212Zm39.594-2.977h-7.266V32h-6V13.234h-7.266v-4.5h20.531Zm26.234,7.141a12.123,12.123,0,0,1-3.187,8.836q-3.187,3.273-8.812,3.273-5.609,0-8.8-3.273a12.123,12.123,0,0,1-3.187-8.836q0-5.609,3.188-8.867t8.8-3.258q5.594,0,8.8,3.258T217.547,20.375Zm-7.953,5.891a6.96,6.96,0,0,0,1.3-2.508,12.193,12.193,0,0,0,.422-3.4,11.459,11.459,0,0,0-.484-3.562,6.914,6.914,0,0,0-1.266-2.375,4.739,4.739,0,0,0-1.836-1.359,5.822,5.822,0,0,0-4.312-.016,5.031,5.031,0,0,0-1.852,1.344,6.613,6.613,0,0,0-1.273,2.414,11.737,11.737,0,0,0-.492,3.57,11.5,11.5,0,0,0,.477,3.539,7,7,0,0,0,1.258,2.383,4.809,4.809,0,0,0,1.828,1.359,5.657,5.657,0,0,0,2.2.438,5.571,5.571,0,0,0,2.2-.445A4.82,4.82,0,0,0,209.594,26.266ZM21.2,64.5a6.058,6.058,0,0,1-2.633,5.063,11.824,11.824,0,0,1-7.227,1.969A16.112,16.112,0,0,1,6.922,71a8.931,8.931,0,0,1-3.047-1.469,5.806,5.806,0,0,1-1.758-2.156,6.256,6.256,0,0,1-.57-2.656,5,5,0,0,1,1.023-3.1A8.192,8.192,0,0,1,6.109,59.25v-.094A7,7,0,0,1,3.125,56.8a5.781,5.781,0,0,1-.953-3.3,5.31,5.31,0,0,1,2.563-4.531A11.528,11.528,0,0,1,11.406,47.2a12.247,12.247,0,0,1,6.758,1.6,4.9,4.9,0,0,1,2.445,4.273,4.616,4.616,0,0,1-1.031,2.953,7.888,7.888,0,0,1-3.156,2.2v.094a7.82,7.82,0,0,1,3.609,2.484A5.973,5.973,0,0,1,21.2,64.5ZM14.75,53.75a2.262,2.262,0,0,0-.914-1.891,3.881,3.881,0,0,0-2.43-.7,4.911,4.911,0,0,0-1.148.141,4.3,4.3,0,0,0-1.07.406,2.337,2.337,0,0,0-.75.7,1.677,1.677,0,0,0-.3.977,1.926,1.926,0,0,0,.523,1.438,5.747,5.747,0,0,0,1.711,1.031q.437.188,1.2.461t1.836.617a6.984,6.984,0,0,0,1.031-1.516A3.916,3.916,0,0,0,14.75,53.75Zm.484,11.016a2.349,2.349,0,0,0-.562-1.7,7.747,7.747,0,0,0-2.312-1.328q-.516-.234-1.5-.578T9.2,60.563a6.877,6.877,0,0,0-1.211,1.477,3.61,3.61,0,0,0-.539,1.945A3.18,3.18,0,0,0,8.617,66.57a4.619,4.619,0,0,0,3.039.961,5.532,5.532,0,0,0,1.172-.148,3.513,3.513,0,0,0,1.156-.461,3.214,3.214,0,0,0,.906-.844A2.229,2.229,0,0,0,15.234,64.766ZM43.75,59.352a23.68,23.68,0,0,1-.531,5.261,9.886,9.886,0,0,1-1.656,3.807,7.232,7.232,0,0,1-2.969,2.291,11.392,11.392,0,0,1-4.469.774,11.388,11.388,0,0,1-4.453-.782,7.091,7.091,0,0,1-2.984-2.314,9.852,9.852,0,0,1-1.672-3.807,23.721,23.721,0,0,1-.516-5.214,23.007,23.007,0,0,1,.531-5.269,10.17,10.17,0,0,1,1.688-3.784,7.086,7.086,0,0,1,3-2.3,11.455,11.455,0,0,1,4.406-.766,11.237,11.237,0,0,1,4.484.79,7.2,7.2,0,0,1,2.969,2.353,9.99,9.99,0,0,1,1.656,3.776A23.294,23.294,0,0,1,43.75,59.352Zm-6.047,0a15.575,15.575,0,0,0-.828-6.014,3.007,3.007,0,0,0-5.5,0,15.688,15.688,0,0,0-.828,6.045,15.35,15.35,0,0,0,.844,5.975,2.958,2.958,0,0,0,5.469,0A15.46,15.46,0,0,0,37.7,59.352Zm24.188-4.539q0,3.891-1.8,5.766a6.916,6.916,0,0,1-5.234,1.875,6.992,6.992,0,0,1-5.336-1.9q-1.789-1.9-1.789-5.68,0-3.859,1.828-5.727a7.084,7.084,0,0,1,5.3-1.867,6.913,6.913,0,0,1,5.266,1.867Q61.891,51.016,61.891,54.813Zm12.188-7.078L61.886,71h-4.2L69.88,47.734Zm9.891,16.109q0,3.891-1.8,5.766a6.916,6.916,0,0,1-5.234,1.875,6.992,6.992,0,0,1-5.336-1.9q-1.789-1.9-1.789-5.68,0-3.859,1.828-5.727a7.084,7.084,0,0,1,5.3-1.867A6.913,6.913,0,0,1,82.2,58.18Q83.969,60.047,83.969,63.844ZM57.281,54.852A6.749,6.749,0,0,0,56.7,51.47a2.477,2.477,0,0,0-3.781,0,6.793,6.793,0,0,0-.578,3.4,6.793,6.793,0,0,0,.578,3.4,2.477,2.477,0,0,0,3.781,0A6.837,6.837,0,0,0,57.281,54.852Zm22.078,9.031a6.749,6.749,0,0,0-.578-3.381A2.477,2.477,0,0,0,75,60.5a6.793,6.793,0,0,0-.578,3.4A6.793,6.793,0,0,0,75,67.3a2.477,2.477,0,0,0,3.781,0A6.837,6.837,0,0,0,79.359,63.883Zm38.75-1.9a11.255,11.255,0,0,1-.663,3.953,8.706,8.706,0,0,1-1.74,2.938,7.616,7.616,0,0,1-2.544,1.844,7.471,7.471,0,0,1-3.043.625,8.772,8.772,0,0,1-2.544-.32,12.26,12.26,0,0,1-2.138-.9v7.313H99.8V53.453h5.641v1.828a13.655,13.655,0,0,1,2.645-1.672,7.183,7.183,0,0,1,3.113-.641,6.019,6.019,0,0,1,5.1,2.406A10.733,10.733,0,0,1,118.109,61.984Zm-5.8.117a6.219,6.219,0,0,0-.873-3.713,3.236,3.236,0,0,0-2.759-1.154,5.916,5.916,0,0,0-1.637.242,6.853,6.853,0,0,0-1.606.694v8.814a4.5,4.5,0,0,0,1.2.281q.639.062,1.263.062a4.087,4.087,0,0,0,3.321-1.3A6,6,0,0,0,112.313,62.1Zm22.578-3.289h-.5a5.037,5.037,0,0,0-1.154-.187q-.8-.063-1.325-.062a12.781,12.781,0,0,0-2.12.156,12.006,12.006,0,0,0-1.98.531V71h-5.641V53.453h5.641v2.578a11.713,11.713,0,0,1,3.227-2.117,7.136,7.136,0,0,1,2.526-.523q.3,0,.67.016t.655.047Zm21.125,3.422a9.151,9.151,0,0,1-2.523,6.82,11.32,11.32,0,0,1-14.172,0,9.151,9.151,0,0,1-2.523-6.82,9.135,9.135,0,0,1,2.539-6.844,9.68,9.68,0,0,1,7.07-2.484q4.594,0,7.1,2.5A9.21,9.21,0,0,1,156.016,62.234ZM149.094,66.5a4.514,4.514,0,0,0,.82-1.617,9.836,9.836,0,0,0,.273-2.617,10.165,10.165,0,0,0-.281-2.594A4.539,4.539,0,0,0,149.125,58a2.741,2.741,0,0,0-1.2-.906,4.254,4.254,0,0,0-1.516-.266,4.413,4.413,0,0,0-1.445.219,2.921,2.921,0,0,0-1.211.875,4.476,4.476,0,0,0-.82,1.672,9.873,9.873,0,0,0-.3,2.672,10.3,10.3,0,0,0,.266,2.492,4.379,4.379,0,0,0,.781,1.7,2.972,2.972,0,0,0,1.2.891,4.441,4.441,0,0,0,3.047.023A2.676,2.676,0,0,0,149.094,66.5Zm22.328-15.687H171q-.374-.109-.974-.25a5.621,5.621,0,0,0-1.285-.141,3.156,3.156,0,0,0-2.236.594,3.329,3.329,0,0,0-.584,2.3v.141h4.328v3.813h-4.141V71h-5.641V57.266h-2.406V53.453h2.406v-.484a6.322,6.322,0,0,1,1.711-4.828,7.322,7.322,0,0,1,5.18-1.609q1.25,0,2.266.086t1.8.227ZM179.2,71h-5.641V53.453H179.2Zm.156-20.047h-5.953V46.688h5.953Zm16.359,19.892a15.957,15.957,0,0,1-1.922.366,19.669,19.669,0,0,1-2.484.132,7.538,7.538,0,0,1-4.883-1.328q-1.6-1.328-1.6-4.547v-8.2h-2.312V53.453h2.313V48.438h5.641v5.016h5.25v3.813h-5.25v6.228q0,.923.016,1.612a3.319,3.319,0,0,0,.249,1.236,1.73,1.73,0,0,0,.771.868,3.265,3.265,0,0,0,1.612.321A6.423,6.423,0,0,0,195.251,67h.467Zm18.609-5.408a5.086,5.086,0,0,1-2.437,4.383,11.687,11.687,0,0,1-6.672,1.664,19.035,19.035,0,0,1-4.25-.437,16.2,16.2,0,0,1-3.062-.969V65.453h.516q.422.3.977.648a9.922,9.922,0,0,0,1.57.758,12.955,12.955,0,0,0,1.984.617,10.473,10.473,0,0,0,2.375.258,6.177,6.177,0,0,0,2.453-.367,1.169,1.169,0,0,0,.8-1.086,1.01,1.01,0,0,0-.469-.93,6.115,6.115,0,0,0-1.781-.555q-.625-.141-1.7-.3a18.219,18.219,0,0,1-1.945-.4,6.9,6.9,0,0,1-3.547-1.945,4.813,4.813,0,0,1-1.156-3.289,4.991,4.991,0,0,1,2.4-4.211,11.257,11.257,0,0,1,6.555-1.68,17.458,17.458,0,0,1,3.773.4,15.267,15.267,0,0,1,2.82.852v4.438h-.484a11.447,11.447,0,0,0-2.852-1.4,10.1,10.1,0,0,0-3.242-.539,6.139,6.139,0,0,0-2.289.375q-.93.375-.93,1.063a1.135,1.135,0,0,0,.422.953,5.741,5.741,0,0,0,1.984.656q.859.172,1.852.336t1.992.414a6.26,6.26,0,0,1,3.281,1.82A4.6,4.6,0,0,1,214.328,65.438ZM8.3,110H2.656V92.453H8.3Zm.156-20.047H2.5V85.688H8.453ZM31.219,110H25.578v-8.7a20.512,20.512,0,0,0-.109-2.117,4.461,4.461,0,0,0-.375-1.555,1.871,1.871,0,0,0-.914-.844,4.268,4.268,0,0,0-1.68-.266,5.128,5.128,0,0,0-1.555.25,8.352,8.352,0,0,0-1.711.8V110H13.594V92.453h5.641v1.938a14.331,14.331,0,0,1,2.879-1.8,7.352,7.352,0,0,1,3.066-.625,5.883,5.883,0,0,1,4.44,1.656,6.873,6.873,0,0,1,1.6,4.953ZM65.8,102.078a8.7,8.7,0,0,1-.656,3.375,7.333,7.333,0,0,1-1.844,2.656,8.763,8.763,0,0,1-2.93,1.766,11.327,11.327,0,0,1-3.9.609,12.128,12.128,0,0,1-3.82-.57,7.777,7.777,0,0,1-2.961-1.742,8.622,8.622,0,0,1-2.172-3.469,15.3,15.3,0,0,1-.75-5.078,19.178,19.178,0,0,1,.7-5.437,11.12,11.12,0,0,1,2.3-4.2,10.13,10.13,0,0,1,3.977-2.719,15.782,15.782,0,0,1,5.82-.969,22.019,22.019,0,0,1,2.5.156q1.359.156,1.766.234v4.578h-.594A8.526,8.526,0,0,0,61.8,90.8a9.261,9.261,0,0,0-2.289-.258,6.845,6.845,0,0,0-4.672,1.469,6.315,6.315,0,0,0-2.016,4.094,12.874,12.874,0,0,1,2.539-1.164A9.062,9.062,0,0,1,58.25,94.5a9.708,9.708,0,0,1,2.523.313,7,7,0,0,1,2.164,1,6.526,6.526,0,0,1,2.078,2.438A8.377,8.377,0,0,1,65.8,102.078Zm-7.109,3.516a4.089,4.089,0,0,0,.773-1.258,5.483,5.483,0,0,0,.289-1.977,4.562,4.562,0,0,0-.328-1.867,2.948,2.948,0,0,0-.906-1.164,3.233,3.233,0,0,0-1.328-.6,7.511,7.511,0,0,0-1.578-.164,7.049,7.049,0,0,0-1.437.156,9.348,9.348,0,0,0-1.375.391q0,.156-.016.516t-.016.906a10.953,10.953,0,0,0,.383,3.164,4.631,4.631,0,0,0,1.023,1.9,2.644,2.644,0,0,0,1.031.711,3.564,3.564,0,0,0,1.281.227,3.278,3.278,0,0,0,1.141-.234A2.752,2.752,0,0,0,58.688,105.594Zm29.734-7.242a23.68,23.68,0,0,1-.531,5.261,9.885,9.885,0,0,1-1.656,3.807,7.232,7.232,0,0,1-2.969,2.291,13.181,13.181,0,0,1-8.922-.008,7.091,7.091,0,0,1-2.984-2.314,9.852,9.852,0,0,1-1.672-3.807,23.721,23.721,0,0,1-.516-5.214A23.007,23.007,0,0,1,69.7,93.1a10.17,10.17,0,0,1,1.688-3.784,7.086,7.086,0,0,1,3-2.3A11.455,11.455,0,0,1,78.8,86.25a11.237,11.237,0,0,1,4.484.79,7.2,7.2,0,0,1,2.969,2.353,9.99,9.99,0,0,1,1.656,3.776A23.294,23.294,0,0,1,88.422,98.352Zm-6.047,0a15.575,15.575,0,0,0-.828-6.014,3.007,3.007,0,0,0-5.5,0,15.688,15.688,0,0,0-.828,6.045,15.35,15.35,0,0,0,.844,5.975,2.958,2.958,0,0,0,5.469,0A15.46,15.46,0,0,0,82.375,98.352Zm36.641,6.086a5.086,5.086,0,0,1-2.437,4.383,11.687,11.687,0,0,1-6.672,1.664,19.035,19.035,0,0,1-4.25-.437,16.2,16.2,0,0,1-3.062-.969v-4.625h.516q.422.3.977.648a9.921,9.921,0,0,0,1.57.758,12.955,12.955,0,0,0,1.984.617,10.473,10.473,0,0,0,2.375.258,6.177,6.177,0,0,0,2.453-.367,1.169,1.169,0,0,0,.8-1.086,1.01,1.01,0,0,0-.469-.93,6.115,6.115,0,0,0-1.781-.555q-.625-.141-1.7-.3a18.22,18.22,0,0,1-1.945-.4,6.9,6.9,0,0,1-3.547-1.945,4.813,4.813,0,0,1-1.156-3.289,4.991,4.991,0,0,1,2.4-4.211,11.257,11.257,0,0,1,6.555-1.68,17.458,17.458,0,0,1,3.773.4,15.267,15.267,0,0,1,2.82.852v4.438h-.484a11.448,11.448,0,0,0-2.852-1.4,10.1,10.1,0,0,0-3.242-.539,6.139,6.139,0,0,0-2.289.375q-.93.375-.93,1.063a1.135,1.135,0,0,0,.422.953,5.741,5.741,0,0,0,1.984.656q.859.172,1.852.336t1.992.414a6.26,6.26,0,0,1,3.281,1.82A4.6,4.6,0,0,1,119.016,104.438Zm21.016-2.172H127.156a4.047,4.047,0,0,0,1.57,3.156,6.985,6.985,0,0,0,4.258,1.094,9.572,9.572,0,0,0,3.453-.641,10.814,10.814,0,0,0,2.641-1.375h.625v4.516a20.891,20.891,0,0,1-3.594,1.109,18.751,18.751,0,0,1-3.734.344q-5.281,0-8.094-2.375a8.364,8.364,0,0,1-2.812-6.766,9.058,9.058,0,0,1,2.664-6.883,10.153,10.153,0,0,1,7.3-2.539q4.281,0,6.438,2.164a8.446,8.446,0,0,1,2.156,6.227Zm-5.594-3.3a3.937,3.937,0,0,0-.875-2.656,3.364,3.364,0,0,0-2.578-.891,4.123,4.123,0,0,0-2.672.844,3.6,3.6,0,0,0-1.172,2.7Zm18.7,11.5a15.125,15.125,0,0,1-4.2-.547,9.237,9.237,0,0,1-3.3-1.687,7.647,7.647,0,0,1-2.156-2.875,11.251,11.251,0,0,1,.055-8.3,7.99,7.99,0,0,1,2.289-2.953,9.319,9.319,0,0,1,3.281-1.625,14.375,14.375,0,0,1,3.859-.516,13.253,13.253,0,0,1,3.313.391,15.64,15.64,0,0,1,2.828,1.016v4.8h-.8q-.328-.281-.788-.656a7.107,7.107,0,0,0-1.131-.734,7.4,7.4,0,0,0-1.4-.57,6.28,6.28,0,0,0-1.779-.227,4.275,4.275,0,0,0-3.456,1.43,5.82,5.82,0,0,0-1.209,3.883,5.4,5.4,0,0,0,1.24,3.844,4.608,4.608,0,0,0,3.518,1.313,6.975,6.975,0,0,0,1.911-.242,6.164,6.164,0,0,0,1.412-.57,6.722,6.722,0,0,0,.936-.656q.406-.344.749-.672h.8v4.8a15.407,15.407,0,0,1-2.773.992A12.974,12.974,0,0,1,153.141,110.469Zm27.625-9.234a9.151,9.151,0,0,1-2.523,6.82,11.32,11.32,0,0,1-14.172,0,10.486,10.486,0,0,1,.016-13.664,9.68,9.68,0,0,1,7.07-2.484q4.594,0,7.1,2.5A9.21,9.21,0,0,1,180.766,101.234Zm-6.922,4.266a4.514,4.514,0,0,0,.82-1.617,9.836,9.836,0,0,0,.273-2.617,10.165,10.165,0,0,0-.281-2.594A4.539,4.539,0,0,0,173.875,97a2.741,2.741,0,0,0-1.2-.906,4.253,4.253,0,0,0-1.516-.266,4.413,4.413,0,0,0-1.445.219,2.921,2.921,0,0,0-1.211.875,4.476,4.476,0,0,0-.82,1.672,9.873,9.873,0,0,0-.3,2.672,10.3,10.3,0,0,0,.266,2.492,4.379,4.379,0,0,0,.781,1.7,2.972,2.972,0,0,0,1.2.891,4.441,4.441,0,0,0,3.047.023A2.676,2.676,0,0,0,173.844,105.5Zm28.578,4.5h-5.641v-8.7a20.51,20.51,0,0,0-.109-2.117,4.461,4.461,0,0,0-.375-1.555,1.871,1.871,0,0,0-.914-.844,4.268,4.268,0,0,0-1.68-.266,5.128,5.128,0,0,0-1.555.25,8.351,8.351,0,0,0-1.711.8V110H184.8V92.453h5.641v1.938a14.331,14.331,0,0,1,2.879-1.8,7.352,7.352,0,0,1,3.066-.625,5.883,5.883,0,0,1,4.44,1.656,6.873,6.873,0,0,1,1.6,4.953Zm22.234,0h-5.641v-1.828a12.292,12.292,0,0,1-2.715,1.75,7.116,7.116,0,0,1-2.918.563,6.157,6.157,0,0,1-5.119-2.469,10.566,10.566,0,0,1-1.92-6.656,11.234,11.234,0,0,1,.648-3.961,9.077,9.077,0,0,1,1.771-2.961,7.3,7.3,0,0,1,2.575-1.82,7.635,7.635,0,0,1,3.027-.648,8.31,8.31,0,0,1,2.583.336,17.218,17.218,0,0,1,2.068.852V85.688h5.641Zm-5.641-4.83V96.548a5.532,5.532,0,0,0-1.247-.36,7.324,7.324,0,0,0-1.2-.109,4,4,0,0,0-3.321,1.385,6,6,0,0,0-1.107,3.842,6.239,6.239,0,0,0,.889,3.748,3.358,3.358,0,0,0,2.853,1.166,5.074,5.074,0,0,0,1.621-.29A5.713,5.713,0,0,0,219.016,105.17Zm26.2-.733a5.086,5.086,0,0,1-2.437,4.383,11.687,11.687,0,0,1-6.672,1.664,19.035,19.035,0,0,1-4.25-.437,16.2,16.2,0,0,1-3.062-.969v-4.625h.516q.422.3.977.648a9.922,9.922,0,0,0,1.57.758,12.955,12.955,0,0,0,1.984.617,10.473,10.473,0,0,0,2.375.258,6.177,6.177,0,0,0,2.453-.367,1.169,1.169,0,0,0,.8-1.086,1.01,1.01,0,0,0-.469-.93,6.115,6.115,0,0,0-1.781-.555q-.625-.141-1.7-.3a18.219,18.219,0,0,1-1.945-.4,6.9,6.9,0,0,1-3.547-1.945,4.813,4.813,0,0,1-1.156-3.289,4.991,4.991,0,0,1,2.4-4.211,11.257,11.257,0,0,1,6.555-1.68,17.458,17.458,0,0,1,3.773.4,15.267,15.267,0,0,1,2.82.852v4.438h-.484a11.448,11.448,0,0,0-2.852-1.4,10.1,10.1,0,0,0-3.242-.539,6.139,6.139,0,0,0-2.289.375q-.93.375-.93,1.063a1.135,1.135,0,0,0,.422.953,5.741,5.741,0,0,0,1.984.656q.859.172,1.852.336t1.992.414a6.26,6.26,0,0,1,3.281,1.82A4.6,4.6,0,0,1,245.219,104.438Z" transform="translate(-1.547 -8.25)"/></svg>