<svg xmlns="http://www.w3.org/2000/svg" viewBox="0 0 204.063 101.75"><defs><style>.a{fill:#eee;}</style></defs><path class="a" d="M19.641,13.234H8.938v4.328h9.922v4.5H8.938V32H2.969V8.734H19.641ZM34.094,27.41V23.766q-1.141.094-2.469.257a11.905,11.905,0,0,0-2.016.382,2.777,2.777,0,0,0-1.289.771,1.943,1.943,0,0,0-.445,1.332,3.455,3.455,0,0,0,.094.888,1.334,1.334,0,0,0,.469.654,2.28,2.28,0,0,0,.859.459,5.989,5.989,0,0,0,1.563.148,4.632,4.632,0,0,0,1.711-.343A5.348,5.348,0,0,0,34.094,27.41Zm0,2.73q-.453.344-1.125.828a8.192,8.192,0,0,1-1.266.766,7.979,7.979,0,0,1-1.719.555,9.889,9.889,0,0,1-1.953.18,5.964,5.964,0,0,1-4.187-1.547,5.124,5.124,0,0,1-1.687-3.953,5.328,5.328,0,0,1,.859-3.141,5.766,5.766,0,0,1,2.438-1.922,13.778,13.778,0,0,1,3.875-1q2.312-.3,4.8-.437v-.094a2.022,2.022,0,0,0-1.187-2.008,8.586,8.586,0,0,0-3.5-.555,9.991,9.991,0,0,0-2.969.492q-1.578.492-2.266.758h-.516V14.828q.891-.234,2.9-.555a25.5,25.5,0,0,1,4.023-.32q4.8,0,6.93,1.477a5.24,5.24,0,0,1,2.133,4.633V32H34.094Zm26-3.7a5.086,5.086,0,0,1-2.437,4.383,11.687,11.687,0,0,1-6.672,1.664,19.035,19.035,0,0,1-4.25-.437,16.2,16.2,0,0,1-3.062-.969V26.453h.516q.422.3.977.648a9.922,9.922,0,0,0,1.57.758,12.955,12.955,0,0,0,1.984.617,10.473,10.473,0,0,0,2.375.258,6.177,6.177,0,0,0,2.453-.367,1.169,1.169,0,0,0,.8-1.086,1.01,1.01,0,0,0-.469-.93,6.115,6.115,0,0,0-1.781-.555q-.625-.141-1.7-.3a18.219,18.219,0,0,1-1.945-.4,6.9,6.9,0,0,1-3.547-1.945,4.813,4.813,0,0,1-1.156-3.289,4.991,4.991,0,0,1,2.4-4.211,11.257,11.257,0,0,1,6.555-1.68,17.458,17.458,0,0,1,3.773.4,15.267,15.267,0,0,1,2.82.852v4.438h-.484a11.447,11.447,0,0,0-2.852-1.4,10.1,10.1,0,0,0-3.242-.539,6.139,6.139,0,0,0-2.289.375q-.93.375-.93,1.063a1.135,1.135,0,0,0,.422.953,5.741,5.741,0,0,0,1.984.656q.859.172,1.852.336t1.992.414a6.26,6.26,0,0,1,3.281,1.82A4.6,4.6,0,0,1,60.094,26.438Zm14.953,5.408a15.956,15.956,0,0,1-1.922.366,19.67,19.67,0,0,1-2.484.132,7.538,7.538,0,0,1-4.883-1.328q-1.6-1.328-1.6-4.547v-8.2H61.844V14.453h2.313V9.438H69.8v5.016h5.25v3.813H69.8v6.228q0,.923.016,1.612a3.319,3.319,0,0,0,.249,1.236,1.73,1.73,0,0,0,.771.868,3.265,3.265,0,0,0,1.612.321A6.423,6.423,0,0,0,74.58,28h.467ZM27.359,71H21.391V55.422L17.078,65.531H12.938L8.625,55.422V71H2.969V47.734H9.938l5.234,11.672,5.219-11.672h6.969Zm23.563-8.766a9.151,9.151,0,0,1-2.523,6.82,9.651,9.651,0,0,1-7.086,2.492,9.651,9.651,0,0,1-7.086-2.492,9.151,9.151,0,0,1-2.523-6.82,9.135,9.135,0,0,1,2.539-6.844,9.68,9.68,0,0,1,7.07-2.484q4.594,0,7.1,2.5A9.21,9.21,0,0,1,50.922,62.234ZM44,66.5a4.514,4.514,0,0,0,.82-1.617,9.836,9.836,0,0,0,.273-2.617,10.165,10.165,0,0,0-.281-2.594A4.539,4.539,0,0,0,44.031,58a2.741,2.741,0,0,0-1.2-.906,4.254,4.254,0,0,0-1.516-.266,4.413,4.413,0,0,0-1.445.219,2.921,2.921,0,0,0-1.211.875,4.476,4.476,0,0,0-.82,1.672,9.873,9.873,0,0,0-.3,2.672,10.3,10.3,0,0,0,.266,2.492,4.379,4.379,0,0,0,.781,1.7,2.972,2.972,0,0,0,1.2.891,4.441,4.441,0,0,0,3.047.023A2.676,2.676,0,0,0,44,66.5ZM72.578,71H66.938V62.3a20.512,20.512,0,0,0-.109-2.117,4.46,4.46,0,0,0-.375-1.555,1.871,1.871,0,0,0-.914-.844,4.268,4.268,0,0,0-1.68-.266,5.128,5.128,0,0,0-1.555.25,8.352,8.352,0,0,0-1.711.8V71H54.953V53.453h5.641v1.938a14.331,14.331,0,0,1,2.879-1.8,7.352,7.352,0,0,1,3.066-.625,5.883,5.883,0,0,1,4.44,1.656,6.873,6.873,0,0,1,1.6,4.953Zm22.453-7.734H82.156a4.047,4.047,0,0,0,1.57,3.156,6.985,6.985,0,0,0,4.258,1.094,9.572,9.572,0,0,0,3.453-.641A10.814,10.814,0,0,0,94.078,65.5H94.7v4.516a20.891,20.891,0,0,1-3.594,1.109,18.751,18.751,0,0,1-3.734.344q-5.281,0-8.094-2.375a8.364,8.364,0,0,1-2.812-6.766,9.058,9.058,0,0,1,2.664-6.883,10.153,10.153,0,0,1,7.3-2.539q4.281,0,6.438,2.164A8.446,8.446,0,0,1,95.031,61.3Zm-5.594-3.3a3.937,3.937,0,0,0-.875-2.656,3.364,3.364,0,0,0-2.578-.891,4.123,4.123,0,0,0-2.672.844,3.6,3.6,0,0,0-1.172,2.7ZM106.914,64.8l4-11.343H116.7l-9.75,23.984h-6.106l2.79-6.572L96.813,53.453h5.907ZM35.078,86.734,28.813,110H22.161L18,94.844,13.932,110H7.3L1.031,86.734H7.294l3.569,16.016,4.293-16.016h5.984l4.073,16.016,3.748-16.016ZM44.406,110H38.766V92.453h5.641Zm.156-20.047H38.609V85.688h5.953Zm16.359,19.892a15.957,15.957,0,0,1-1.922.366,19.669,19.669,0,0,1-2.484.132,7.538,7.538,0,0,1-4.883-1.328q-1.6-1.328-1.6-4.547v-8.2H47.719V92.453h2.313V87.438h5.641v5.016h5.25v3.813h-5.25v6.228q0,.923.016,1.612a3.319,3.319,0,0,0,.249,1.236,1.73,1.73,0,0,0,.771.868,3.265,3.265,0,0,0,1.612.321A6.423,6.423,0,0,0,60.455,106h.467ZM81.906,110H76.266v-8.7a20.512,20.512,0,0,0-.109-2.117,4.461,4.461,0,0,0-.375-1.555,1.871,1.871,0,0,0-.914-.844,4.268,4.268,0,0,0-1.68-.266,5.128,5.128,0,0,0-1.555.25,8.352,8.352,0,0,0-1.711.8V110H64.281V85.688h5.641v8.7a14.331,14.331,0,0,1,2.879-1.8,7.352,7.352,0,0,1,3.066-.625,5.883,5.883,0,0,1,4.44,1.656,6.873,6.873,0,0,1,1.6,4.953Zm22.234,0H98.5v-1.828a12.292,12.292,0,0,1-2.715,1.75,7.116,7.116,0,0,1-2.918.563,6.157,6.157,0,0,1-5.119-2.469,10.566,10.566,0,0,1-1.92-6.656,11.234,11.234,0,0,1,.648-3.961,9.078,9.078,0,0,1,1.771-2.961,7.3,7.3,0,0,1,2.575-1.82,7.635,7.635,0,0,1,3.027-.648,8.31,8.31,0,0,1,2.583.336,17.217,17.217,0,0,1,2.068.852V85.688h5.641ZM98.5,105.17V96.548a5.532,5.532,0,0,0-1.247-.36,7.324,7.324,0,0,0-1.2-.109,4,4,0,0,0-3.321,1.385,6,6,0,0,0-1.107,3.842,6.239,6.239,0,0,0,.889,3.748,3.358,3.358,0,0,0,2.853,1.166,5.074,5.074,0,0,0,1.621-.29A5.713,5.713,0,0,0,98.5,105.17Zm23.672-7.358h-.5a5.036,5.036,0,0,0-1.154-.187q-.8-.062-1.325-.062a12.781,12.781,0,0,0-2.12.156,12.005,12.005,0,0,0-1.98.531V110h-5.641V92.453h5.641v2.578a11.713,11.713,0,0,1,3.227-2.117,7.136,7.136,0,0,1,2.526-.523q.3,0,.67.016t.655.047Zm13.813,7.6v-3.645q-1.141.094-2.469.257a11.905,11.905,0,0,0-2.016.382,2.776,2.776,0,0,0-1.289.771,1.943,1.943,0,0,0-.445,1.332,3.455,3.455,0,0,0,.094.888,1.334,1.334,0,0,0,.469.654,2.28,2.28,0,0,0,.859.459,5.989,5.989,0,0,0,1.563.148,4.632,4.632,0,0,0,1.711-.343A5.348,5.348,0,0,0,135.984,105.41Zm0,2.73q-.453.344-1.125.828a8.193,8.193,0,0,1-1.266.766,7.978,7.978,0,0,1-1.719.555,9.89,9.89,0,0,1-1.953.18,5.964,5.964,0,0,1-4.187-1.547,5.124,5.124,0,0,1-1.687-3.953,5.328,5.328,0,0,1,.859-3.141,5.766,5.766,0,0,1,2.438-1.922,13.778,13.778,0,0,1,3.875-1q2.313-.3,4.8-.437v-.094a2.022,2.022,0,0,0-1.187-2.008,8.586,8.586,0,0,0-3.5-.555,9.991,9.991,0,0,0-2.969.492q-1.578.492-2.266.758h-.516V92.828q.891-.234,2.9-.555a25.5,25.5,0,0,1,4.023-.32q4.8,0,6.93,1.477a5.24,5.24,0,0,1,2.133,4.633V110h-5.578Zm38.734-15.687L169.281,110H163.31l-3.576-11.828L156.2,110h-6.031l-5.391-17.547h5.9l3.012,12.094,3.743-12.094h4.984l3.56,12.094,2.963-12.094ZM188.7,105.41v-3.645q-1.141.094-2.469.257a11.905,11.905,0,0,0-2.016.382,2.776,2.776,0,0,0-1.289.771,1.943,1.943,0,0,0-.445,1.332,3.455,3.455,0,0,0,.094.888,1.334,1.334,0,0,0,.469.654,2.28,2.28,0,0,0,.859.459,5.989,5.989,0,0,0,1.563.148,4.632,4.632,0,0,0,1.711-.343A5.348,5.348,0,0,0,188.7,105.41Zm0,2.73q-.453.344-1.125.828a8.193,8.193,0,0,1-1.266.766,7.978,7.978,0,0,1-1.719.555,9.89,9.89,0,0,1-1.953.18,5.964,5.964,0,0,1-4.187-1.547,5.124,5.124,0,0,1-1.687-3.953,5.328,5.328,0,0,1,.859-3.141,5.766,5.766,0,0,1,2.438-1.922,13.778,13.778,0,0,1,3.875-1q2.313-.3,4.8-.437v-.094a2.022,2.022,0,0,0-1.187-2.008,8.586,8.586,0,0,0-3.5-.555,9.991,9.991,0,0,0-2.969.492q-1.578.492-2.266.758H178.3V92.828q.891-.234,2.9-.555a25.5,25.5,0,0,1,4.023-.32q4.8,0,6.93,1.477a5.24,5.24,0,0,1,2.133,4.633V110H188.7ZM205.094,110h-5.641V85.688h5.641Z" transform="translate(-1.031 -8.734)"/></svg>